<svg width="40" height="40" viewBox="0 0 40 40" fill="none" xmlns="http://www.w3.org/2000/svg">
<path fill-rule="evenodd" clip-rule="evenodd" d="M4 4V36H36V4H4ZM3 2C2.44772 2 2 2.44772 2 3V37C2 37.5523 2.44772 38 3 38H37C37.5523 38 38 37.5523 38 37V3C38 2.44772 37.5523 2 37 2H3Z" fill="#49454E"/>
<path fill-rule="evenodd" clip-rule="evenodd" d="M11.4888 8C11.4888 9.10457 10.5934 10 9.48883 10C8.38426 10 7.48883 9.10457 7.48883 8C7.48883 6.89543 8.38426 6 9.48883 6C10.5934 6 11.4888 6.89543 11.4888 8ZM9.48883 10C10.9888 10 12.3888 11 12.8888 12.6C13.1888 13.3 12.6888 14 11.9888 14H6.98883C6.28883 14 5.78883 13.3 6.08883 12.6C6.58883 11 7.98883 10 9.48883 10Z" fill="#49454E"/>
<path fill-rule="evenodd" clip-rule="evenodd" d="M7.18438 24.7094C7.4612 24.4025 7.79773 24.1101 8.1991 23.8734C7.93949 23.4792 7.78842 23.0073 7.78842 22.5C7.78842 21.1193 8.90771 20 10.2884 20C11.6691 20 12.7884 21.1193 12.7884 22.5C12.7884 23.0073 12.6373 23.4793 12.3777 23.8734C12.7791 24.1102 13.1156 24.4025 13.3925 24.7095C14.0411 25.4287 14.3753 26.2376 14.5169 26.6476C14.7675 27.3731 14.1921 28.0179 13.5327 28.0179H7.04412C6.38476 28.0179 5.80936 27.3731 6.05994 26.6476C6.20155 26.2376 6.53571 25.4286 7.18438 24.7094ZM8.0924 26.3179H12.4844C12.3842 26.1598 12.2667 25.9995 12.13 25.848C11.7133 25.386 11.1349 25.0179 10.2884 25.0179C9.44188 25.0178 8.86352 25.3859 8.4468 25.848C8.31015 25.9995 8.1926 26.1598 8.0924 26.3179ZM10.2884 23.3C10.7302 23.3 11.0884 22.9418 11.0884 22.5C11.0884 22.0582 10.7302 21.7 10.2884 21.7C9.84659 21.7 9.48842 22.0582 9.48842 22.5C9.48842 22.9418 9.84659 23.3 10.2884 23.3Z" fill="#49454E"/>
<path fill-rule="evenodd" clip-rule="evenodd" d="M7.18438 34.7094C7.4612 34.4025 7.79773 34.1101 8.1991 33.8734C7.93949 33.4792 7.78842 33.0073 7.78842 32.5C7.78842 31.1193 8.90771 30 10.2884 30C11.6691 30 12.7884 31.1193 12.7884 32.5C12.7884 33.0073 12.6373 33.4793 12.3777 33.8734C12.7791 34.1102 13.1156 34.4025 13.3925 34.7095C14.0411 35.4287 14.3753 36.2376 14.5169 36.6476C14.7675 37.3731 14.1921 38.0179 13.5327 38.0179H7.04412C6.38476 38.0179 5.80936 37.3731 6.05994 36.6476C6.20155 36.2376 6.53571 35.4286 7.18438 34.7094ZM8.0924 36.3179H12.4844C12.3842 36.1598 12.2667 35.9995 12.13 35.848C11.7133 35.386 11.1349 35.0179 10.2884 35.0179C9.44188 35.0178 8.86352 35.3859 8.4468 35.848C8.31015 35.9995 8.1926 36.1598 8.0924 36.3179ZM10.2884 33.3C10.7302 33.3 11.0884 32.9418 11.0884 32.5C11.0884 32.0582 10.7302 31.7 10.2884 31.7C9.84659 31.7 9.48842 32.0582 9.48842 32.5C9.48842 32.9418 9.84659 33.3 10.2884 33.3Z" fill="#49454E"/>
<path fill-rule="evenodd" clip-rule="evenodd" d="M26.2929 8.29289C26.6834 7.90237 27.3166 7.90237 27.7071 8.29289L30 10.5858L32.2929 8.29289C32.6834 7.90237 33.3166 7.90237 33.7071 8.29289C34.0976 8.68342 34.0976 9.31658 33.7071 9.70711L30.7071 12.7071C30.3166 13.0976 29.6834 13.0976 29.2929 12.7071L26.2929 9.70711C25.9024 9.31658 25.9024 8.68342 26.2929 8.29289Z" fill="#49454E"/>
<path fill-rule="evenodd" clip-rule="evenodd" d="M36 18H4V16H36V18Z" fill="#49454E"/>
<path fill-rule="evenodd" clip-rule="evenodd" d="M16 22C16 21.4477 16.398 21 16.8889 21H31.1111C31.602 21 32 21.4477 32 22C32 22.5523 31.602 23 31.1111 23H16.8889C16.398 23 16 22.5523 16 22Z" fill="#49454E"/>
<path fill-rule="evenodd" clip-rule="evenodd" d="M16 26C16 25.4477 16.398 25 16.8889 25H23.1111C23.602 25 24 25.4477 24 26C24 26.5523 23.602 27 23.1111 27H16.8889C16.398 27 16 26.5523 16 26Z" fill="#49454E"/>
<path fill-rule="evenodd" clip-rule="evenodd" d="M16 33C16 32.4477 16.398 32 16.8889 32H31.1111C31.602 32 32 32.4477 32 33C32 33.5523 31.602 34 31.1111 34H16.8889C16.398 34 16 33.5523 16 33Z" fill="#49454E"/>
</svg>
