<svg width="40" height="40" viewBox="0 0 40 40" fill="none" xmlns="http://www.w3.org/2000/svg">
<path d="M7 7C7.55228 7 8 6.55228 8 6C8 5.44772 7.55228 5 7 5C6.44772 5 6 5.44772 6 6C6 6.55228 6.44772 7 7 7Z" fill="#49454E"/>
<path d="M12 6C12 6.55228 11.5523 7 11 7C10.4477 7 10 6.55228 10 6C10 5.44772 10.4477 5 11 5C11.5523 5 12 5.44772 12 6Z" fill="#49454E"/>
<path d="M15 7C15.5523 7 16 6.55228 16 6C16 5.44772 15.5523 5 15 5C14.4477 5 14 5.44772 14 6C14 6.55228 14.4477 7 15 7Z" fill="#49454E"/>
<path fill-rule="evenodd" clip-rule="evenodd" d="M11 12C11.6 12 12 12.4 12 13V17C12 17.6 11.6 18 11 18H10V22H14V21C14 20.4 14.4 20 15 20H19C19.6 20 20 20.4 20 21V25C20 25.6 19.6 26 19 26H15C14.4 26 14 25.6 14 25V24H10V29H14C14 28.4 14.4 28 15 28H19C19.6 28 20 28.4 20 29V33C20 33.6 19.6 34 19 34H15C14.4 34 14 33.6 14 33V31H10V33C10 33.5523 9.55228 34 9 34C8.44772 34 8 33.5523 8 33V18H7C6.4 18 6 17.6 6 17V13C6 12.4 6.4 12 7 12H11ZM10 16V14H8V16H10ZM18 24H16V22H18V24ZM18 32H16V30H18V32Z" fill="#49454E"/>
<path d="M25 15C25 14.4 24.6 14 24 14H15C14.4 14 14 14.4 14 15C14 15.6 14.4 16 15 16H24C24.6 16 25 15.6 25 15Z" fill="#49454E"/>
<path d="M33 22C33.6 22 34 22.4 34 23C34 23.6 33.6 24 33 24H23C22.4 24 22 23.6 22 23C22 22.4 22.4 22 23 22H33Z" fill="#49454E"/>
<path d="M33 30C33.6 30 34 30.4 34 31C34 31.6 33.6 32 33 32H23C22.4 32 22 31.6 22 31C22 30.4 22.4 30 23 30H33Z" fill="#49454E"/>
<path fill-rule="evenodd" clip-rule="evenodd" d="M2 4C2 2.89543 2.89543 2 4 2H36C37.1046 2 38 2.89543 38 4V36C38 37.1046 37.1046 38 36 38H4C2.89543 38 2 37.1046 2 36V4ZM4 4H36V8H4V4ZM4 10H36V36H4V10Z" fill="#49454E"/>
</svg>
