<svg width="24" height="24" viewBox="0 0 24 24" fill="none" xmlns="http://www.w3.org/2000/svg">
<g clip-path="url(#clip0_3115_16535)">
<path fill-rule="evenodd" clip-rule="evenodd" d="M14.1422 2.82843L11.3137 5.65686L17.6777 12.0208L20.5061 9.19239L14.1422 2.82843ZM9.89951 4.24264L8.4853 5.65686L1.06068 13.0815C0.47493 13.6672 0.474887 14.617 1.06068 15.2028L6.70713 20.8493H11.6777L17.6777 14.8492L19.0919 13.435L22.2739 10.2531C22.8596 9.66731 22.8597 8.71752 22.2739 8.13173L15.2028 1.06066C14.617 0.474875 13.6672 0.474918 13.0815 1.06066L9.89951 4.24264ZM9.1924 20.5061L16.2635 13.435L9.89951 7.07107L2.82844 14.1421L9.1924 20.5061ZM0 23C0 22.4477 0.447715 22 1 22H15C15.5523 22 16 22.4477 16 23C16 23.5523 15.5523 24 15 24H1C0.447715 24 0 23.5523 0 23ZM19 22C18.4477 22 18 22.4477 18 23C18 23.5523 18.4477 24 19 24H23C23.5523 24 24 23.5523 24 23C24 22.4477 23.5523 22 23 22H19Z" fill="#49454E"/>
</g>
<defs>
<clipPath id="clip0_3115_16535">
<rect width="24" height="24" fill="white"/>
</clipPath>
</defs>
</svg>
