<svg width="24" height="24" viewBox="0 0 24 24" fill="none" xmlns="http://www.w3.org/2000/svg">
<g clip-path="url(#clip0_3115_16551)">
<path fill-rule="evenodd" clip-rule="evenodd" d="M19.2719 1.00014C19.2719 0.447851 19.7196 0.000135519 20.2719 0.000135351L22.9999 0.000133981C23.5521 0.000133528 23.9999 0.447848 23.9999 1.00013L23.9999 3.72813C23.9999 4.28041 23.5521 4.72813 22.9999 4.72813L20.686 4.72813L4.72809 20.6861L4.72809 22.9999C4.72809 23.5522 4.28037 23.9999 3.72809 23.9999L1.00009 23.9999C0.447809 23.9999 9.43605e-05 23.5522 9.58778e-05 22.9999L9.66154e-05 20.2719C9.7943e-05 19.7196 0.447812 19.2719 1.0001 19.2719L3.31384 19.2719L19.2719 3.31388L19.2719 1.00014Z" fill="#49454E"/>
</g>
<defs>
<clipPath id="clip0_3115_16551">
<rect width="24" height="24" fill="white"/>
</clipPath>
</defs>
</svg>
