<svg width="24" height="24" viewBox="0 0 24 24" fill="none" xmlns="http://www.w3.org/2000/svg">
<path fill-rule="evenodd" clip-rule="evenodd" d="M4.80189 14.4221L5.92111 9.7214C6.10412 9.8344 6.31977 9.8996 6.55065 9.8996L9.59329 9.89961L9.59329 12.9422C9.59329 13.605 10.1305 14.1422 10.7933 14.1422L13.8359 14.1423L13.8359 17.1849C13.8359 17.4157 13.9011 17.6313 14.0141 17.8143L9.31331 18.9335L4.80189 14.4221ZM4.25796 16.7066L3.39207 20.3434L7.02881 19.4775L4.25796 16.7066ZM13.4216 1.82852L7.35064 7.89951L10.3933 7.89962C11.056 7.89962 11.5933 8.43687 11.5933 9.09962L11.5933 12.1422L14.6359 12.1423C15.2987 12.1423 15.8359 12.6795 15.8359 13.3423L15.8359 16.3848L21.9069 10.3138L23.3211 11.728L15.7431 19.3061C15.6122 19.4369 15.4476 19.5289 15.2676 19.5718L3.0649 22.4772C1.9777 22.736 0.999407 21.7577 1.25826 20.6705L4.16366 8.46785C4.20653 8.28782 4.29851 8.12322 4.42936 7.99236L12.0074 0.414307L13.4216 1.82852Z" fill="#49454E"/>
</svg>
