<svg width="24" height="24" viewBox="0 0 24 24" fill="none" xmlns="http://www.w3.org/2000/svg">
<g clip-path="url(#clip0_3030_17063)">
<path d="M22.5938 8.29688H1.45312C0.6765 8.29688 0.046875 7.66725 0.046875 6.89062C0.046875 6.114 0.6765 5.48438 1.45312 5.48438H22.5938C23.3704 5.48438 24 6.114 24 6.89062C24 7.66725 23.3704 8.29688 22.5938 8.29688ZM24 0.9375C24 0.419719 23.5803 0 23.0625 0H0.9375C0.419719 0 0 0.419719 0 0.9375C0 1.45528 0.419719 1.875 0.9375 1.875H23.0625C23.5803 1.875 24 1.45528 24 0.9375ZM24 21.6562C24 20.3618 22.9507 19.3125 21.6562 19.3125H2.39062C1.09622 19.3125 0.046875 20.3618 0.046875 21.6562C0.046875 22.9507 1.09622 24 2.39062 24H21.6562C22.9507 24 24 22.9507 24 21.6562ZM24 13.7812C24 12.7457 23.1605 11.9062 22.125 11.9062H1.92188C0.886359 11.9062 0.046875 12.7457 0.046875 13.7812C0.046875 14.8168 0.886359 15.6562 1.92188 15.6562H22.125C23.1605 15.6562 24 14.8168 24 13.7812Z" fill="#49454E"/>
</g>
<defs>
<clipPath id="clip0_3030_17063">
<rect width="24" height="24" fill="white"/>
</clipPath>
</defs>
</svg>
