<svg width="39"
     height="39"
     viewBox="0 0 39 39"
     fill="none"
     xmlns="http://www.w3.org/2000/svg">

    <path fill-rule="evenodd"
          clip-rule="evenodd"
          d="M35,4h-6V3c0,-0.6 -0.4,-1 -1,-1s-1,0.4 -1,1v1H12V3c0,-0.6 -0.4,-1 -1,-1s-1,0.4 -1,1v1H4C3.4,4 3,4.4 3,5v30c0,0.6 0.4,1 1,1h31c0.6,0 1,-0.4 1,-1V5C36,4.4 35.6,4 35,4zM5,12h29v22H5V12zM11,8c0.6,0 1,-0.4 1,-1V6h15v1c0,0.6 0.4,1 1,1s1,-0.4 1,-1V6h5v4H5V6h5v1C10,7.6 10.4,8 11,8z"
          fill="#6750a4" />

    <path fill-rule="evenodd"
          clip-rule="evenodd"
          d="M26.5,20.5c-0.1,-0.4 -0.5,-0.7 -0.9,-0.7l-3.8,-0.3L20.4,16c-0.2,-0.4 -0.5,-0.6 -0.9,-0.6c0,0 0,0 0,0c-0.4,0 -0.8,0.2 -0.9,0.6l-1.5,3.5l-3.8,0.3c-0.4,0 -0.7,0.3 -0.9,0.7s0,0.8 0.3,1.1l2.9,2.5l-0.9,3.7c-0.1,0.4 0.1,0.8 0.4,1c0.3,0.2 0.8,0.3 1.1,0l3.2,-2l3.3,2c0.2,0.1 0.3,0.1 0.5,0.1c0.2,0 0.4,-0.1 0.6,-0.2c0.3,-0.2 0.5,-0.6 0.4,-1l-0.9,-3.7l2.9,-2.5C26.5,21.3 26.7,20.9 26.5,20.5zM21.6,23c-0.3,0.2 -0.4,0.6 -0.3,1l0.5,2L20,24.9c-0.2,-0.1 -0.3,-0.1 -0.5,-0.1c-0.2,0 -0.4,0 -0.5,0.1l-1.7,1l0.5,-2c0.1,-0.4 0,-0.7 -0.3,-1l-1.5,-1.3l2,-0.2c0.4,0 0.7,-0.3 0.8,-0.6l0.8,-1.8l0.8,1.9c0.1,0.3 0.5,0.6 0.8,0.6l2,0.2L21.6,23z"
          fill="#6750a4" />
</svg>
