<svg width="40" height="40" viewBox="0 0 40 40" fill="none" xmlns="http://www.w3.org/2000/svg">
<path fill-rule="evenodd" clip-rule="evenodd" d="M30.6317 2.92263L29.9246 3.62974L36.2885 9.9937L36.9956 9.28659C38.1672 8.11501 38.1672 6.21552 36.9956 5.04395L34.8743 2.92263C33.7028 1.75105 31.8033 1.75105 30.6317 2.92263ZM16.4895 17.0648L28.5104 5.04396L34.8743 11.4079L22.8535 23.4288L16.4895 17.0648ZM15.4866 18.8903L21.028 24.4317C20.9796 24.4391 20.9309 24.4454 20.8819 24.4505L14.8431 25.0752L15.4678 19.0364C15.4729 18.9874 15.4791 18.9387 15.4866 18.8903ZM21.0877 26.4398C22.23 26.3217 23.2967 25.8139 24.1087 25.0019L38.4099 10.7008C40.3625 8.74818 40.3625 5.58235 38.4099 3.62973L36.2885 1.50841C34.3359 -0.444211 31.1701 -0.44421 29.2175 1.50842L14.9164 15.8095C14.1043 16.6215 13.5966 17.6883 13.4784 18.8306L12.8537 24.8694C12.7231 26.1319 13.7864 27.1952 15.0489 27.0646L21.0877 26.4398ZM7 5.99988H13C13.5523 5.99988 14 5.55217 14 4.99988C14 4.4476 13.5523 3.99988 13 3.99988H7C4.23858 3.99988 2 6.23846 2 8.99988V30.9999C2 33.7613 4.23858 35.9999 7 35.9999H33C35.7614 35.9999 38 33.7613 38 30.9999V27.9999C38 27.4476 37.5523 26.9999 37 26.9999C36.4477 26.9999 36 27.4476 36 27.9999V30.9999C36 32.6567 34.6569 33.9999 33 33.9999H7C5.34315 33.9999 4 32.6567 4 30.9999V8.99988C4 7.34303 5.34315 5.99988 7 5.99988Z" fill="#49454E"/>
</svg>
