<svg width="39" height="39" viewBox="0 0 39 39" fill="none" xmlns="http://www.w3.org/2000/svg">
<path fill-rule="evenodd" clip-rule="evenodd" d="M2 1H37C37.6 1 38 1.4 38 2V12C38 12.6 37.6 13 37 13H23C22.4 13 22 12.6 22 12C22 11.4 22.4 11 23 11H36V3H3V11H6.1C6.7 11 7.1 11.4 7.1 12C7.1 12.6 6.7 13 6.1 13H2C1.4 13 1 12.6 1 12V2C1 1.4 1.4 1 2 1ZM13.4 8.1C13.8 7.7 14.4 7.7 14.8 8.1L20.4 13.8C20.8 14.2 20.8 14.8 20.4 15.2C20 15.6 19.4 15.6 19 15.2L15 11.2V24C15 24.6 14.6 25 14 25C13.4 25 13 24.6 13 24V11.3L9.1 15.2C8.7 15.6 8.1 15.6 7.7 15.2C7.3 14.8 7.3 14.2 7.7 13.8L13.4 8.1ZM25 15C24.4 15 24 15.4 24 16V28.7L20.1 24.8C19.7 24.4 19.1 24.4 18.7 24.8C18.3 25.2 18.3 25.8 18.7 26.2L24.4 31.9C24.8 32.3 25.4 32.3 25.8 31.9L31.5 26.2C31.9 25.8 31.9 25.2 31.5 24.8C31.1 24.4 30.5 24.4 30.1 24.8L26.1 28.8V16C26 15.4 25.6 15 25 15ZM33 27H37C37.6 27 38 27.4 38 28V38C38 38.6 37.6 39 37 39H2C1.4 39 1 38.6 1 38V28C1 27.4 1.4 27 2 27H16C16.6 27 17 27.4 17 28C17 28.6 16.6 29 16 29H3V37H36V29H33C32.4 29 32 28.6 32 28C32 27.4 32.4 27 33 27Z" fill="#6750a4"/>
</svg>
