<svg width="39" height="39" viewBox="0 0 39 39" fill="none" xmlns="http://www.w3.org/2000/svg">
<path fill-rule="evenodd" clip-rule="evenodd" d="M10 11H29C33.42 11 37 14.58 37 19C37 23.42 33.42 27 29 27H10C5.58 27 2 23.42 2 19C2 14.58 5.58 11 10 11ZM10 25H29C32.31 25 35 22.31 35 19C35 15.69 32.31 13 29 13H10C6.69 13 4 15.69 4 19C4 22.31 6.69 25 10 25ZM25.2817 17.6457L26.646 19.01L25.2843 20.3718C24.9094 20.7467 24.9094 21.3545 25.2843 21.7294C25.6592 22.1043 26.267 22.1043 26.6419 21.7294L28.0037 20.3677L29.3617 21.7257C29.7366 22.1006 30.3444 22.1006 30.7194 21.7257C31.0943 21.3508 31.0943 20.743 30.7194 20.3681L29.3613 19.01L30.7219 17.6494C31.0968 17.2745 31.0968 16.6667 30.7219 16.2918C30.347 15.9169 29.7392 15.9169 29.3643 16.2918L28.0037 17.6524L26.6393 16.2881C26.2644 15.9132 25.6566 15.9132 25.2817 16.2881C24.9068 16.663 24.9068 17.2708 25.2817 17.6457Z" fill="#6750a4"/>
</svg>
