<svg width="39" height="39" viewBox="0 0 39 39" fill="none" xmlns="http://www.w3.org/2000/svg">
<path fill-rule="evenodd" clip-rule="evenodd" d="M10 11H29C33.42 11 37 14.58 37 19C37 23.42 33.42 27 29 27H10C5.58 27 2 23.42 2 19C2 14.58 5.58 11 10 11ZM10 25H29C32.31 25 35 22.31 35 19C35 15.69 32.31 13 29 13H10C6.69 13 4 15.69 4 19C4 22.31 6.69 25 10 25ZM14.6971 17.7071C15.0876 17.3166 15.0876 16.6834 14.6971 16.2929C14.3066 15.9024 13.6734 15.9024 13.2829 16.2929L9.98999 19.5858L8.6971 18.2929C8.30657 17.9024 7.67341 17.9024 7.28288 18.2929C6.89236 18.6834 6.89236 19.3166 7.28288 19.7071L9.28288 21.7071C9.67341 22.0976 10.3066 22.0976 10.6971 21.7071L14.6971 17.7071Z" fill="#6750a4"/>
</svg>
