<svg width="39" height="39" viewBox="0 0 39 39" fill="none" xmlns="http://www.w3.org/2000/svg">
<path fill-rule="evenodd" clip-rule="evenodd" d="M3.01001 3H3C2.44772 3 2 3.44772 2 4C2 4.04822 2.00341 4.09564 2.01001 4.14204V17V33.858C2.00341 33.9044 2 33.9518 2 34C2 34.5523 2.44772 35 3 35H3.01001H36C36.5523 35 37 34.5523 37 34V17.142C37.0066 17.0956 37.01 17.0482 37.01 17C37.01 16.9518 37.0066 16.9044 37 16.858V4C37 3.44772 36.5523 3 36 3H3.01001ZM35 33V18H4.01001V33H35ZM35 5V16H4.01001V5H35ZM32 22H7C6.44772 22 6 22.4477 6 23C6 23.5523 6.44772 24 7 24H32C32.5523 24 33 23.5523 33 23C33 22.4477 32.5523 22 32 22ZM7 27H32C32.5523 27 33 27.4477 33 28C33 28.5523 32.5523 29 32 29H7C6.44772 29 6 28.5523 6 28C6 27.4477 6.44772 27 7 27ZM27.2385 13.577L23.2773 9.61572C22.9102 9.24863 22.9102 8.65345 23.2773 8.28636L23.2844 8.27929C23.6515 7.91219 24.2466 7.91219 24.6137 8.27929L27.9431 11.6086L31.2727 8.27893C31.6398 7.91183 32.235 7.91183 32.6021 8.27893L32.6092 8.286C32.9763 8.65309 32.9763 9.24826 32.6092 9.61536L28.6543 13.5702C28.642 13.5841 28.6292 13.5976 28.616 13.6109L28.6089 13.6179C28.3814 13.8455 28.0662 13.932 27.772 13.8774C27.5909 13.8443 27.4176 13.7576 27.2776 13.6176L27.2705 13.6105C27.2595 13.5995 27.2489 13.5883 27.2385 13.577Z" fill="#6750a4"/>
</svg>
