<svg width="39" height="39" viewBox="0 0 39 39" fill="none" xmlns="http://www.w3.org/2000/svg">
<path fill-rule="evenodd" clip-rule="evenodd" d="M17 6H36C36.6 6 37 6.4 37 7V35C37 35.6 36.6 36 36 36H3C2.4 36 2 35.6 2 35V5C2 4.4 2.4 4 3 4H16C16.6 4 17 4.4 17 5V6ZM16 12C15.4 12 15 11.6 15 11V6H4V34H35V12H16ZM27 8V10H35V8H27ZM25 10V8H17V10H25ZM19 27.5V23.5H15C14.4 23.5 14 23.1 14 22.5C14 21.9 14.4 21.5 15 21.5H19V17.5C19 16.9 19.4 16.5 20 16.5C20.6 16.5 21 16.9 21 17.5V21.5H25C25.6 21.5 26 21.9 26 22.5C26 23.1 25.6 23.5 25 23.5H21V27.5C21 28.1 20.6 28.5 20 28.5C19.4 28.5 19 28.1 19 27.5Z" fill="#6750a4"/>
</svg>
