<svg width="39" height="39" viewBox="0 0 39 39" fill="none" xmlns="http://www.w3.org/2000/svg">
<path fill-rule="evenodd" clip-rule="evenodd" d="M13 15C13 15.6 12.6 16 12 16H11C7.1 16 4 12.9 4 9C4 5.1 7.1 2 11 2H28C31.9 2 35 5.1 35 9C35 12.9 31.9 16 28 16H24C23.4 16 23 15.6 23 15C23 14.4 23.4 14 24 14H28C30.8 14 33 11.8 33 9C33 6.2 30.8 4 28 4H11C8.2 4 6 6.2 6 9C6 11.8 8.2 14 11 14H12C12.6 14 13 14.4 13 15ZM29.4 20.4C29.4 20.4 30.5 19.3 32.1 20C35.2919 21.368 32.0798 29.7222 30.3518 34.2163C30.185 34.6501 30.032 35.0479 29.9 35.4C29.5 36.4 28.5 37 27.5 37L17.6 37.1C16.8 37.1 15.9 36.7 15.4 36.1C13.6 34.1 9.2 29 8.5 28C7 25.9 7.7 24.2 8.3 23.7C9 23.1 10.5 22.6 11.8 23.5C13.7 24.7 15 25.7 15 25.7V10.1C15 8.6 16 7 17.8 7C20 7 21 8.7 21 10.1V18C21 18 21.5 16.8 23.4 17.1C24.9 17.3 25.1 19.1 25.1 19.1C25.1 19.1 25.9 18.1 27.6 18.5C29 18.8 29.4 20.4 29.4 20.4ZM26.9 34.9C27.8 34.9 28.3 34.3 28.6 33.5C29.9 30.1 32.5 22.3 31.1 21.9C30.6 21.7 30 22.4 29.5 23.3C29 24.1 27.7 23.8 27.7 22.8C27.6894 22.6619 27.6799 22.5272 27.6707 22.3966C27.5932 21.2977 27.5363 20.4894 27 20.4C26.3312 20.3045 25.9362 21.0305 25.379 22.0548C25.3531 22.1026 25.3267 22.151 25.3 22.2C24.8 23.1 23.4 22.7 23.4 21.7C23.4 20.2 23.3 19.1 22.7 19C22 18.9 21.4 19.9 20.8 21.2C20.4 22.1 19 21.8 19 20.8V10C19 9 18 9 18 9C18 9 17 9 17 10V27.6C17 28.6 16 29 15.3 28.4C15.1767 28.2943 15.0472 28.1824 14.9136 28.067C14.2891 27.5274 13.5767 26.9119 13 26.5C12 25.6 10.3 24.4 9.7 25C9.13203 25.4733 9.81857 26.305 11.081 27.8345C11.1522 27.9208 11.2253 28.0092 11.3 28.1C11.5736 28.4127 12.1834 29.1533 12.9144 30.041C14.0533 31.4242 15.4864 33.1645 16.4 34.2C16.8 34.7 17.2 34.9 17.9 34.9H26.9Z" fill="#6750a4"/>
</svg>
