<svg width="39" height="39" viewBox="0 0 39 39" fill="none" xmlns="http://www.w3.org/2000/svg">
<path fill-rule="evenodd" clip-rule="evenodd" d="M4 5H35V33.12H4V5ZM36.9982 34.06C36.9994 34.0798 37 34.0999 37 34.12C37 34.6723 36.5523 35.12 36 35.12H3C2.44772 35.12 2 34.6723 2 34.12C2 34.0999 2.0006 34.0798 2.00177 34.06C2.0006 34.0401 2 34.0201 2 34V4C2 3.44772 2.44772 3 3 3H36C36.5523 3 37 3.44772 37 4V34C37 34.0201 36.9994 34.0401 36.9982 34.06ZM8 21H31C31.5523 21 32 21.4477 32 22C32 22.5523 31.5523 23 31 23H8C7.44772 23 7 22.5523 7 22C7 21.4477 7.44772 21 8 21ZM31 26H8C7.44772 26 7 26.4477 7 27C7 27.5523 7.44772 28 8 28H31C31.5523 28 32 27.5523 32 27C32 26.4477 31.5523 26 31 26ZM27.3213 12.3493L28.6606 11.01L27.3271 9.67647C26.96 9.30938 26.96 8.71422 27.3271 8.34712L27.3342 8.34005C27.7013 7.97296 28.2964 7.97295 28.6635 8.34004L29.9971 9.67356L31.3235 8.3471C31.6906 7.98001 32.2858 7.98002 32.6529 8.34711L32.6599 8.35418C33.027 8.72127 33.0271 9.31644 32.66 9.68353L31.3335 11.01L32.6658 12.3423C33.0329 12.7094 33.0329 13.3045 32.6658 13.6716L32.6587 13.6787C32.2916 14.0458 31.6964 14.0458 31.3293 13.6787L29.9971 12.3464L28.6577 13.6858C28.2906 14.0528 27.6955 14.0529 27.3284 13.6858L27.3213 13.6787C26.9542 13.3116 26.9542 12.7164 27.3213 12.3493Z" fill="#6750a4"/>
</svg>
