<svg width="40" height="40" viewBox="0 0 40 40" fill="none" xmlns="http://www.w3.org/2000/svg">
<path fill-rule="evenodd" clip-rule="evenodd" d="M17.3748 19.1329C16.7681 19.6408 16.0073 19.9188 15.222 19.9194C14.7759 19.9202 14.3341 19.8312 13.9218 19.6576C13.5096 19.4839 13.1351 19.229 12.8198 18.9075C12.2643 18.3421 11.9185 17.598 11.8412 16.8019C11.7639 16.0059 11.96 15.2072 12.3959 14.5419C12.8319 13.8766 13.4809 13.3858 14.2322 13.1532C14.9836 12.9206 15.7909 12.9606 16.5166 13.2663C17.2423 13.5719 17.8415 14.1245 18.2121 14.8297C18.5827 15.5349 18.7018 16.3492 18.5492 17.1339C18.3965 17.9185 17.9815 18.625 17.3748 19.1329ZM15.0905 15.1009C14.7817 15.1319 14.493 15.271 14.2736 15.4945C14.1487 15.621 14.0496 15.7716 13.9822 15.9374C13.9148 16.1032 13.8803 16.2811 13.8808 16.4605C13.8808 16.7766 13.9884 17.0829 14.1852 17.3272C14.382 17.5716 14.656 17.7388 14.9603 17.8005C15.2646 17.8621 15.5805 17.8144 15.8542 17.6654C16.1278 17.5164 16.3423 17.2754 16.4611 16.9834C16.5798 16.6914 16.5955 16.3665 16.5054 16.064C16.4154 15.7615 16.2251 15.5002 15.9671 15.3246C15.7091 15.149 15.3993 15.07 15.0905 15.1009ZM22.7204 21.401C23.328 20.8931 24.0897 20.6155 24.8757 20.6155C25.322 20.6143 25.7641 20.7032 26.1765 20.8772C26.5888 21.0512 26.9632 21.3068 27.2779 21.6291C27.8337 22.1953 28.1796 22.9402 28.2566 23.737C28.3337 24.5337 28.1371 25.3331 27.7004 25.9988C27.2637 26.6645 26.614 27.1553 25.8618 27.3877C25.1097 27.6201 24.3017 27.5797 23.5755 27.2733C22.8493 26.9669 22.25 26.4135 21.8794 25.7074C21.5089 25.0013 21.3902 24.1862 21.5436 23.401C21.6969 22.6157 22.1128 21.9089 22.7204 21.401ZM24.8767 25.4387C25.2316 25.4394 25.5722 25.2968 25.8241 25.0421C25.9494 24.9155 26.0489 24.7648 26.1169 24.5989C26.1849 24.4329 26.2201 24.2549 26.2205 24.0751C26.2208 23.8952 26.1863 23.7171 26.1189 23.5509C26.0515 23.3846 25.9525 23.2336 25.8276 23.1064C25.7028 22.9793 25.5545 22.8785 25.3914 22.8098C25.2282 22.7411 25.0533 22.7059 24.8767 22.7063C24.7002 22.7066 24.5254 22.7424 24.3625 22.8117C24.1996 22.881 24.0517 22.9824 23.9273 23.11C23.6773 23.3666 23.5373 23.7136 23.538 24.075C23.5387 24.4365 23.6799 24.7829 23.9308 25.0385C24.1818 25.2941 24.5219 25.438 24.8767 25.4387ZM27.106 13.6464C27.0544 13.5194 26.9786 13.4039 26.8832 13.3067C26.6904 13.1103 26.4289 13 26.1563 13C25.8836 13 25.6222 13.1103 25.4294 13.3067L13.2146 25.749C13.023 25.9457 12.9157 26.2116 12.9163 26.4886C12.9168 26.7657 13.025 27.0312 13.2173 27.2271C13.4097 27.423 13.6703 27.5332 13.9423 27.5338C14.2142 27.5343 14.4753 27.4251 14.6684 27.2299L26.8832 14.7876C26.9786 14.6904 27.0544 14.5749 27.106 14.4479C27.1577 14.3208 27.1843 14.1847 27.1843 14.0471C27.1843 13.9096 27.1577 13.7735 27.106 13.6464Z" fill="#49454E"/>
<path fill-rule="evenodd" clip-rule="evenodd" d="M8.68648 4.1607C9.26973 4.26485 9.77713 4.61916 10.0734 5.12917L11.0959 6.88913C11.5787 7.7202 11.3995 8.77494 10.6689 9.40239C8.30959 11.4285 6.6372 14.2149 6.03443 17.3728C5.85424 18.3168 5.02402 19 4.05717 19H2.01253C1.42057 19 0.858633 18.741 0.476246 18.292C0.0938584 17.8429 -0.07019 17.2493 0.0277535 16.6691C0.844887 11.8288 3.40898 7.58234 7.04702 4.58871C7.50345 4.21313 8.10324 4.05654 8.68648 4.1607ZM2.01253 17H4.0568C4.74674 13.3855 6.66046 10.2014 9.35301 7.88913L8.33053 6.12917C7.79991 6.5658 7.29476 7.03193 6.81762 7.52502C4.80836 9.60144 3.29584 12.156 2.47004 15C2.28066 15.6522 2.12739 16.3197 2.01253 17Z" fill="#49454E"/>
<path fill-rule="evenodd" clip-rule="evenodd" d="M28.6537 33.1109C28.1709 32.2798 28.3501 31.2251 29.0807 30.5976C32.0736 28.0274 33.9624 24.234 33.9624 20C33.9624 12.268 27.6552 6 19.8748 6C18.248 6 16.6898 6.2732 15.2413 6.77431C14.329 7.08993 13.3197 6.71686 12.8367 5.88549L11.8141 4.12528C11.5179 3.61549 11.4628 3.00194 11.6634 2.44807C11.8639 1.89419 12.2998 1.45625 12.855 1.25091C15.0433 0.441455 17.4094 0 19.8748 0C30.9896 0 40 8.9543 40 20C40 26.2021 37.1568 31.746 32.7026 35.4113C32.2462 35.7869 31.6464 35.9435 31.0631 35.8393C30.4799 35.7352 29.9725 35.3808 29.6762 34.8708L28.6537 33.1109ZM32.932 32.475C32.4548 32.9681 31.9497 33.4342 31.4191 33.8708L30.3966 32.1109C33.813 29.177 35.975 24.8394 35.975 20C35.975 11.1634 28.7667 4 19.8748 4C19.8025 4 19.7304 4.00047 19.6583 4.00141C17.8811 4.02469 16.1733 4.33414 14.5796 4.88549L13.557 3.12528C14.1983 2.88808 14.8567 2.68594 15.5299 2.52122C16.9143 2.1825 18.3613 2.00197 19.8504 2.00002C19.8585 2.00001 19.8667 2 19.8748 2C29.8782 2 37.9875 10.0589 37.9875 20C37.9875 20.2475 37.9824 20.4938 37.9725 20.7389C37.7876 25.2894 35.9028 29.4049 32.932 32.475Z" fill="#49454E"/>
</svg>
