<svg xmlns="http://www.w3.org/2000/svg" width="40" height="40" viewBox="0 0 40 40" fill="none">
  <path fill-rule="evenodd" clip-rule="evenodd" d="M28.6943 12.2348C26.1182 10.8107 23.1561 10 20 10C10.7349 10 3.10391 17.0009 2.10971 26H4.12395C5.10904 18.1065 11.8406 12 20 12C22.5919 12 25.0446 12.6178 27.2139 13.7152L28.6943 12.2348ZM30.9072 11.2332C27.7702 9.18832 24.0239 8 20 8C9.28957 8 0.545507 16.419 0.0245438 27.0001C-0.00261492 27.5518 0.447701 28 0.999986 28H4.99999C5.55227 28 5.99627 27.5508 6.03516 26.9999C6.54797 19.7347 12.6043 14 20 14C22.4923 14 24.8326 14.6513 26.8598 15.7929C27.2694 16.0236 27.7866 15.971 28.119 15.6386L31.0401 12.7175C31.4726 12.285 31.4196 11.5672 30.9072 11.2332ZM17.8791 30.1209C19.0506 31.2925 20.9501 31.2925 22.1217 30.1209C23.2933 28.9493 36.48 11.953 36.2635 11.7365C36.0469 11.52 19.0506 24.7067 17.8791 25.8783C16.7075 27.0499 16.7075 28.9493 17.8791 30.1209ZM20 29C20.5523 29 21 28.5523 21 28C21 27.4477 20.5523 27 20 27C19.4477 27 19 27.4477 19 28C19 28.5523 19.4477 29 20 29ZM31.7922 20.4505C32.1104 20.9465 32.3981 21.4639 32.6528 22H39.0844C38.8699 21.3168 38.6196 20.6494 38.3359 20H32.2427L31.7922 20.4505ZM33.0808 23C33.3275 23.6451 33.5279 24.3131 33.6779 25H39.7765C39.6745 24.3216 39.5384 23.6543 39.37 23H33.0808ZM40 27.9873L40 27.9998H34C34 27.3208 33.9517 26.6531 33.8582 26H39.9013C39.9662 26.6537 39.9996 27.3166 40 27.9873ZM33.2427 19H37.8655C37.5169 18.3094 37.1295 17.6418 36.7061 17H35.2427L33.2427 19Z" fill="#49454E"/>
</svg>