<svg width="40" height="40" viewBox="0 0 40 40" fill="none" xmlns="http://www.w3.org/2000/svg">
<path d="M7.91381 3.67069C8.13812 3.16601 7.91082 2.57505 7.40614 2.35074C6.90146 2.12644 6.31049 2.35373 6.08619 2.85842L4.58269 6.24129C4.06939 7.39621 4.74269 8.73177 5.97645 9.00594L9.28307 9.74074C9.8222 9.86055 10.3564 9.52062 10.4762 8.98149C10.596 8.44235 10.2561 7.90818 9.71693 7.78837L7.67393 7.33437C9.99547 5.99177 13.4354 5.26455 17 5.26455C20.6354 5.26455 24.1411 6.02093 26.463 7.41505L24.7831 7.78837C24.2439 7.90818 23.904 8.44235 24.0238 8.98149C24.1436 9.52062 24.6778 9.86055 25.2169 9.74074L28.5235 9.00594C29.7573 8.73177 30.4306 7.39621 29.9173 6.24129L28.4138 2.85842C28.1895 2.35373 27.5985 2.12644 27.0939 2.35074C26.5892 2.57505 26.3619 3.16601 26.5862 3.67069L27.4867 5.69694C24.7173 4.03629 20.7944 3.26455 17 3.26455C13.4999 3.26455 9.89044 3.92122 7.17789 5.32652L7.91381 3.67069Z" fill="#49454E"/>
<path fill-rule="evenodd" clip-rule="evenodd" d="M33.0281 18.0758C31.3015 17.8137 30.5236 19.161 30.5236 19.161C30.5236 19.161 29.7232 17.719 28.2932 17.7916C26.5476 17.8452 26.0337 19.0182 26.0337 19.0182C26.0337 19.0182 25.3746 17.3313 23.874 17.5263C21.9352 17.6317 21.7887 19.0168 21.7887 19.0168L19.744 11.386C19.3558 9.93712 17.9758 8.65046 15.7541 9.24574C14.1121 9.68573 13.5602 11.49 13.9485 12.9389L17.986 28.0074C17.986 28.0074 16.4715 27.3779 14.3257 26.7105C12.837 26.1777 11.4917 26.9523 10.9708 27.713C10.5207 28.3513 10.2845 30.1745 12.2769 31.8147C13.2119 32.5995 18.7819 36.3869 21.0383 37.8529C21.6765 38.303 22.6494 38.4565 23.4221 38.2494L32.9589 35.5905C33.9248 35.3317 34.7355 34.4933 34.863 33.4238L34.8778 33.3087C35.424 29.0511 36.763 18.6139 33.0281 18.0758ZM33.1414 32.0216C33.0587 32.872 32.731 33.581 31.8617 33.8139L23.1684 36.1433C22.4922 36.3245 22.0541 36.2348 21.5383 35.8554C20.3879 35.0917 18.5533 33.7816 17.0952 32.7404C16.1596 32.0722 15.3785 31.5144 15.0333 31.2832L14.753 31.0834C13.1378 29.9328 12.2594 29.3071 12.6855 28.703C13.1097 27.9681 15.0624 28.6872 16.2612 29.2977C16.9249 29.5464 17.7724 29.9565 18.5152 30.3161C18.6739 30.3929 18.8283 30.4676 18.9746 30.5377C19.8061 30.9361 20.6685 30.2909 20.4097 29.325L15.8544 12.3247C15.5956 11.3588 16.5615 11.0999 16.5615 11.0999C16.5615 11.0999 17.5275 10.8411 17.7863 11.8071L20.5815 22.239C20.8404 23.205 22.2703 23.1324 22.4237 22.1595C22.6668 20.7486 22.9876 19.6273 23.6896 19.5428C24.295 19.4841 24.6763 20.5207 25.0645 21.9696C25.3234 22.9355 26.7792 22.9595 27.0292 21.9608L27.068 21.8001C27.3411 20.6665 27.5347 19.8629 28.2054 19.7821C28.7465 19.7297 29.0108 20.4957 29.37 21.5371C29.4127 21.6609 29.4567 21.7885 29.5027 21.9192C29.7615 22.8851 31.0949 22.8384 31.3708 21.9363C31.6208 20.9375 32.0192 20.1061 32.5539 20.1699C34.1064 20.168 33.6137 28.3751 33.1414 32.0216Z" fill="#49454E"/>
</svg>
