<svg width="39" height="39" viewBox="0 0 39 39" fill="none" xmlns="http://www.w3.org/2000/svg">
<path fill-rule="evenodd" clip-rule="evenodd" d="M6 24.8V25.2V28.5C6 29.9 9.1 31.8 14.1 32.6C14.6 32.7 15 33.1 15 33.6C15 34.2 14.4 34.7 13.8 34.6C8.1 33.8 4 31.4 4 28.5V7.5C4 3.9 10.5 1 18.5 1C26.5 1 33 3.9 33 7.5V25C33 25.6 32.6 26 32 26C31.4 26 31 25.6 31 25V24.8C29.6 25.9 27.6 26.7 25.2 27.3C24.6 27.4 24 27 24 26.3C24 25.8 24.3 25.4 24.8 25.3C28.6 24.4 31 22.7 31 21.5V18.2V17.8C28.5 19.7 23.8 21 18.5 21C13.2 21 8.5 19.7 6 17.8V18.2V21.5C6 23.2 10.3 25.7 17 26C17.6 26 18 26.5 18 27C18 27.6 17.6 28 17 28C12.3 27.8 8.3 26.5 6 24.8ZM18.5 19C26 19 30.9 16.3 31 14.5V11.2V10.8C28.5 12.7 23.8 14 18.5 14C13.2 14 8.5 12.7 6 10.8V11.2V14.5C6.1 16.3 11 19 18.5 19ZM31 7.5C31 5.7 26 3 18.5 3C11 3 6 5.7 6 7.5C6 9.3 11 12 18.5 12C26 12 31 9.3 31 7.5ZM22 36H25C25.5 36 26 36.5 26 37C26 37.5 25.5 38 25 38H22C19.2 38 17 35.8 17 33C17 30.2 19.2 28 22 28H25C25.5 28 26 28.5 26 29C26 29.5 25.5 30 25 30H22C20.4 30 19 31.3 19 33C19 34.6 20.4 36 22 36ZM29 28H32C34.8 28 37 30.2 37 33C37 35.8 34.8 38 32 38H29C28.5 38 28 37.5 28 37C28 36.5 28.5 36 29 36H32C33.7 36 35 34.6 35 33C35 31.3 33.7 30 32 30H29C28.5 30 28 29.5 28 29C28 28.5 28.5 28 29 28ZM23 33C23 33.5 23.5 34 24 34H30C30.5 34 31 33.5 31 33C31 32.5 30.5 32 30 32H24C23.5 32 23 32.5 23 33Z" fill="#6750a4"/>
</svg>
