<svg xmlns="http://www.w3.org/2000/svg" width="24" height="24" viewBox="0 0 24 24">

  <path
      d="M11.7,6l6.2,7.4c1.2,1.5 1.2,3.6 -0.1,5c-1.5,1.6 -4,1.4 -5.4,-0.2L5.2,9.6c-0.8,-0.9 -0.8,-2.3 0,-3.1c1,-1 2.5,-0.9 3.4,0.1l6.1,7.3c0.3,0.4 0.3,1 -0.1,1.3c-0.4,0.3 -1,0.3 -1.3,-0.1L8.2,8.9C8,8.7 7.5,8.6 7.3,8.9S7,9.6 7.2,9.9l5,6c0.8,0.9 2.1,1.2 3.1,0.5c1.1,-0.8 1.3,-2.3 0.5,-3.3l-6,-7.2c-1.3,-1.6 -3.4,-2 -5,-0.9C3,6.3 2.7,8.7 4.1,10.4l7.2,8.5c1.7,2 4.6,2.6 6.8,1.1c2.5,-1.7 2.9,-5.1 1,-7.4l-6.3,-7.5c-0.2,-0.3 -0.7,-0.3 -1,-0.1S11.5,5.7 11.7,6z"
      fill="#9A9797"/>
</svg>
