<svg width="39" height="39" viewBox="0 0 39 39" fill="none" xmlns="http://www.w3.org/2000/svg">
<path fill-rule="evenodd" clip-rule="evenodd" d="M14.1 29.9L8.3 31.2C8 31.2 7.7 31 7.7 30.7L9 24.7C9 24.4 9.2 24.1 9.3 24L27.1 6.2C27.2 6.1 27.4 6 27.6 6C27.8 6 28 6.1 28.2 6.19999L28.2 6.2L32.8 10.8C33.1 11.1 33.1 11.6 32.8 11.9L15 29.6C14.9 29.7 14.3 29.9 14.1 29.9ZM15 26.8L27.6 14.2L24.8 11.4L12.1 24L15 26.8ZM30.4 11.3L27.6 8.5L26.2 10L29 12.8L30.4 11.3ZM13.3 28L10.8 25.5L10.1 28.7L13.3 28ZM5 34H34C34.6 34 35 34.4 35 35C35 35.6 34.6 36 34 36H5C4.4 36 4 35.6 4 35C4 34.4 4.4 34 5 34Z"
      fill="#6750A4"/>
</svg>
