<svg width="39" height="39" viewBox="0 0 39 39" fill="none" xmlns="http://www.w3.org/2000/svg">
<path d="M35 11V6C35 5.4 34.6 5 34 5H6C5.4 5 5 5.4 5 6V11C5 11.3 5.1 11.6 5.4 11.7V11.8L16 24.3V34.8C16 35.4 16.5 35.8 17 35.8C17.2 35.8 17.4 35.8 17.5 35.6L23.5 31.8C23.8 31.6 24 31.3 24 31V24.3L34.6 11.8V11.7C34.7 11.6 34.8 11.5 34.8 11.4C35 11.3 35 11.1 35 11ZM22.5 23C22.2 23.4 22 23.8 22 24.3V30.5L18 33V24.3C18 23.8 17.8 23.4 17.5 23L8.2 12H24C24.6 12 25 11.6 25 11C25 10.4 24.6 10 24 10H7V7H33V10H28C27.4 10 27 10.4 27 11C27 11.6 27.4 12 28 12H31.8L22.5 23Z"
      fill="#6750A4"/>
</svg>
