<svg width="39" height="39" viewBox="0 0 39 39" fill="none" xmlns="http://www.w3.org/2000/svg">
<path fill-rule="evenodd" clip-rule="evenodd" d="M5 3H35C35.6 3 36 3.4 36 4V9C36 9.6 35.6 10 35 10C34.4 10 34 9.6 34 9V5H26V9C26 9.6 25.6 10 25 10C24.4 10 24 9.6 24 9V5H16V9C16 9.6 15.6 10 15 10C14.4 10 14 9.6 14 9V5H6V9C6 9.6 5.6 10 5 10C4.4 10 4 9.6 4 9V4C4 3.4 4.4 3 5 3ZM35 11H5C4.4 11 4 11.4 4 12V18C4 18.6 4.4 19 5 19H35C35.6 19 36 18.6 36 18V12C36 11.4 35.6 11 35 11ZM34 17H6V13H34V17ZM35 27H5C4.4 27 4 27.4 4 28V34C4 34.6 4.4 35 5 35H35C35.6 35 36 34.6 36 34V28C36 27.4 35.6 27 35 27ZM34 33H6V29H34V33ZM26 25V21C26 20.4 25.6 20 25 20C24.4 20 24 20.4 24 21V25C24 25.6 24.4 26 25 26C25.6 26 26 25.6 26 25ZM16 21V25C16 25.6 15.6 26 15 26C14.4 26 14 25.6 14 25V21C14 20.4 14.4 20 15 20C15.6 20 16 20.4 16 21ZM5 26C5.6 26 6 25.6 6 25V21C6 20.4 5.6 20 5 20C4.4 20 4 20.4 4 21V25C4 25.6 4.4 26 5 26ZM34 21C34 20.4 34.4 20 35 20C35.6 20 36 20.4 36 21V25C36 25.6 35.6 26 35 26C34.4 26 34 25.6 34 25V21Z"
      fill="#6750A4"/>
</svg>
