<svg width="39" height="39" viewBox="0 0 39 39" fill="none" xmlns="http://www.w3.org/2000/svg">
<path fill-rule="evenodd" clip-rule="evenodd" d="M14 2H8C7.4 2 7 2.4 7 3V9C7 9.6 7.4 10 8 10C8.6 10 9 9.6 9 9V4H14C14.6 4 15 3.6 15 3C15 2.4 14.6 2 14 2ZM14 34H9V29C9 28.4 8.6 28 8 28C7.4 28 7 28.4 7 29V35C7 35.6 7.4 36 8 36H14C14.6 36 15 35.6 15 35C15 34.4 14.6 34 14 34ZM2 12H14C14.6 12 15 12.4 15 13V25C15 25.6 14.6 26 14 26H2C1.4 26 1 25.6 1 25V13C1 12.4 1.4 12 2 12ZM13 24V14H3V24H13ZM6 20H7V21C7 21.6 7.4 22 8 22C8.6 22 9 21.6 9 21V20H10C10.6 20 11 19.6 11 19C11 18.4 10.6 18 10 18H9V17C9 16.4 8.6 16 8 16C7.4 16 7 16.4 7 17V18H6C5.4 18 5 18.4 5 19C5 19.6 5.4 20 6 20ZM37 12.3L19 12.4C18.5 12.4 18 12 18 11.4V3.4C18 2.9 18.4 2.4 19 2.4L37 2.3C37.5 2.3 38 2.7 38 3.3V11.3C38 11.8 37.6 12.3 37 12.3ZM36 4.3L20 4.4V10.4L36 10.3V4.3ZM37 14.3L19 14.4C18.4 14.4 18 14.9 18 15.4V23.4C18 24 18.5 24.4 19 24.4L37 24.3C37.6 24.3 38 23.8 38 23.3V15.3C38.1 14.8 37.6 14.3 37 14.3ZM36.1 22.3L20.1 22.4V16.4L36.1 16.3V22.3ZM19 26H37C37.6 26 38 26.4 38 27V35C38 35.6 37.6 36 37 36H19C18.4 36 18 35.6 18 35V27C18 26.4 18.4 26 19 26ZM36 34V28H20V34H36Z"
      fill="#6750A4"/>
</svg>
