<svg xmlns="http://www.w3.org/2000/svg" width="24" height="24" viewBox="0 0 24 24">
  <path
      d="M6,3C5.5,3 5.1,3.2 4.8,3.5L3.4,5.2C3.1,5.6 3,6 3,6.5V19c0,1.1 0.9,2 2,2h7h0h7c1.1,0 2,-0.9 2,-2V6.5c0,-0.5 -0.2,-0.9 -0.5,-1.3l-1.4,-1.7C18.8,3.2 18.4,3 18,3H6zM5.4,6l1.1,-1.4c0.1,-0.1 0.3,-0.2 0.4,-0.2H11v2H5.6C5.4,6.4 5.3,6.1 5.4,6zM13.9,10.7H12h0H10C9.4,10.7 9,10.2 9,9.6C9,9 9.4,8.6 10,8.6H12h0h1.9C14.5,8.6 15,9 15,9.6C15,10.2 14.5,10.7 13.9,10.7zM18.3,6.4h-5.4v-2H17c0.2,0 0.3,0.1 0.4,0.2L18.5,6C18.6,6.1 18.5,6.4 18.3,6.4z"
      fill="#6750A4"/>
</svg>
