<svg width="39" height="39" viewBox="0 0 39 39" fill="none" xmlns="http://www.w3.org/2000/svg">
<path fill-rule="evenodd" clip-rule="evenodd" d="M13 4H11C10.4 4 10 3.6 10 3C10 2.4 10.4 2 11 2H13C13.6 2 14 2.4 14 3C14 3.6 13.6 4 13 4ZM23 5C22.4 5 22 5.4 22 6V8C22 8.6 22.4 9 23 9C23.6 9 24 8.6 24 8V6C24 5.4 23.6 5 23 5ZM3 11C3.6 11 4 10.6 4 10V8C4 7.4 3.6 7 3 7C2.4 7 2 7.4 2 8V10C2 10.6 2.4 11 3 11ZM3 16C3.6 16 4 15.6 4 15V13C4 12.4 3.6 12 3 12C2.4 12 2 12.4 2 13V15C2 15.6 2.4 16 3 16ZM4 20C4 20.6 3.6 21 3 21C2.4 21 2 20.6 2 20V18C2 17.4 2.4 17 3 17C3.6 17 4 17.4 4 18V20ZM16 4H18C18.6 4 19 3.6 19 3C19 2.4 18.6 2 18 2H16C15.4 2 15 2.4 15 3C15 3.6 15.4 4 16 4ZM23 4H21C20.4 4 20 3.6 20 3C20 2.4 20.4 2 21 2H23C23.6 2 24 2.4 24 3C24 3.6 23.6 4 23 4ZM3 22C2.4 22 2 22.4 2 23C2 23.6 2.4 24 3 24H5C5.6 24 6 23.6 6 23C6 22.4 5.6 22 5 22H3ZM8 2C8.6 2 9 2.4 9 3C9 3.6 8.6 4 8 4H6C5.4 4 5 3.6 5 3C5 2.4 5.4 2 6 2H8ZM3 6C3.6 6 4 5.6 4 5V3C4 2.4 3.6 2 3 2C2.4 2 2 2.4 2 3V5C2 5.6 2.4 6 3 6ZM30.8 15H36C36.6 15 37 15.4 37 16V36C37 36.6 36.6 37 36 37H16C15.4 37 15 36.6 15 36V28.9C14.1 28.3 13.2 27.6 12.5 26.9C11.5 25.8 10.9 24.8 10.5 23.9C10.4 23.9 10.325 23.925 10.25 23.95C10.175 23.975 10.1 24 10 24H8C7.4 24 7 23.6 7 23C7 22.4 7.4 22 8 22H9.9C9.7 20.5 10.3 19.4 10.7 19.1C11.4 18.5 12.2 18.5 12.2 18.5C12.2 18.5 11.4 17.1 11 16C10.5 14.7 10.6 12.8 12.1 12C14.1 11 15.7 12.4 15.7 12.4C15.7 12.4 15.9 10.6 17.6 10.2C19.4 9.8 20.6 11.5 20.6 11.5C20.6 11.5 21 10.1 22.6 10C24.3 9.8 24.9 11.1 24.9 11.1C24.9 11.1 25.3 10.1 26.9 10.1C28.9 10 30.1 12.3 30.8 15ZM13.9047 21.318C13.4769 20.5392 13.1849 20.0076 12.4 20.4C11.7 20.8 11.5 23.1 14.3 26.2C15.3 27.1 17 28.2 19.2 29C19.8 29.2 20.6 29.2 21.2 28.9L28.4 25.1C29.7 24.4 29.8 22.7 29.7 21.6C29.3 18 28.2 12 26.9 12.2C26.4 12.3 26.1 12.6 26.1 13.7C26.1 14.7 24.8 15 24.3 14.1C24.1325 13.7929 23.9961 13.4858 23.8714 13.2048C23.5494 12.4793 23.3046 11.9279 22.8 12C22.3 12 22 12.7 22 14C22 15 20.6 15.3 20.1 14.4C19.9701 14.1772 19.847 13.951 19.7276 13.7316C19.204 12.769 18.7515 11.9371 18.1 12.1C17.4046 12.3086 17.5313 13.1941 17.673 14.185C17.735 14.6191 17.8 15.0735 17.8 15.5C17.8 16.5 16.5 16.8 16 15.9C14.7 13.5 13.6 13.4 13.2 13.6C12.8 13.8 12.4 14.1 13 15.7L16.9 22.4C17.3 23.3 16.6 24.2 15.7 23.9C15.3031 23.7677 14.9936 23.1977 14.7139 22.6822C14.5707 22.4186 14.4354 22.1692 14.3 22C14.1494 21.7634 14.022 21.5314 13.9047 21.318ZM17 35H35V17.1H31.2C31.6 19 31.8 21 31.9 22.5C32 23.5 31.6 25.6 29.6 26.8L22.5 30.5C21.8 30.9 20 31.3 18.6 30.7C18.4915 30.6566 18.3783 30.6132 18.2624 30.5688C17.8443 30.4085 17.3915 30.2349 17 30V35Z"
      fill="#6750A4"/>
</svg>
