<svg xmlns="http://www.w3.org/2000/svg" width="24" height="24" viewBox="0 0 24 24">
  <path
      d="M12,2C6.5,2 2,6.5 2,12s4.5,10 10,10s10,-4.5 10,-10S17.5,2 12,2zM13.4,18.1v0.6c0,0.7 -0.6,1.3 -1.3,1.3h0c-0.7,0 -1.3,-0.6 -1.3,-1.3v-0.6c-1.3,-0.3 -2.5,-1 -3,-2.2c-0.2,-0.6 0.2,-1.2 0.8,-1.2h0.2c0.4,0 0.7,0.3 0.8,0.6c0.3,0.8 1.1,1.3 2.5,1.3c2,0 2.4,-1 2.4,-1.6c0,-0.8 -0.4,-1.6 -2.7,-2.1c-2.5,-0.6 -4.2,-1.6 -4.2,-3.7c0,-1.7 1.4,-2.8 3.1,-3.2V5.3c0,-0.7 0.6,-1.3 1.3,-1.3h0c0.7,0 1.3,0.6 1.3,1.3V6c1.4,0.3 2.3,1.2 2.6,2.3c0.2,0.6 -0.2,1.1 -0.8,1.1H15c-0.4,0 -0.7,-0.3 -0.8,-0.6C14,8 13.3,7.5 12.1,7.5c-1.5,0 -2.4,0.7 -2.4,1.6c0,0.8 0.6,1.4 2.7,1.9s4.2,1.4 4.2,3.9C16.5,16.8 15.1,17.8 13.4,18.1z"
      fill="#6750A4"/>
</svg>
