<svg width="39" height="39" viewBox="0 0 39 39" fill="none" xmlns="http://www.w3.org/2000/svg">
<path fill-rule="evenodd" clip-rule="evenodd" d="M6 24.8V25.2V28.5C6 29.6 8 31.1 11.3 32C11.7 32.2 12 32.5 12 33C12 33.7 11.3 34.2 10.7 34C6.7 32.8 4 30.8 4 28.5V7.5C4 3.9 10.5 1 18.5 1C26.5 1 33 3.9 33 7.5C33 7.7 33 8 32.9 8.2V8.4V14.1C33 14.3 33 14.4 33 14.6C33 14.7 32.975 14.775 32.95 14.85C32.925 14.925 32.9 15 32.9 15.1V21.1C33 21.3 33 21.4 33 21.6C33 21.6414 32.9828 21.7 32.9627 21.7686C32.9343 21.8657 32.9 21.9828 32.9 22.1V25.1C32.9 25.6 32.5 26 32 26C31.5 26 31.1 25.6 31.1 25.1V24.8C29.3 26.1 26.6 27.2 23.2 27.7C22.6 27.8 22 27.3 22 26.7C22 26.2 22.4 25.8 22.9 25.7C27.9 24.9 31 22.9 31 21.5V18.2H31.1V17.7C28.5 19.7 23.9 21 18.5 21C13.2 21 8.5 19.7 6 17.8V18.2V21.5C6 22.9 9.1 24.9 14.1 25.7C14.6 25.8 15 26.2 15 26.7C15 27.3 14.4 27.8 13.8 27.7C10.5 27.2 7.7 26.1 6 24.8ZM31 7.5C31 5.7 26 3 18.5 3C11 3 6 5.7 6 7.5C6 9.3 11 12 18.5 12C26 12 31 9.3 31 7.5ZM6 10.8V11.2V14.5C6.1 16.3 11 19 18.5 19C26 19 30.9 16.3 31 14.5V11.2H31.1V10.7C28.5 12.7 23.9 14 18.5 14C13.2 14 8.5 12.7 6 10.8ZM28.1 28.8C29.1 27.8 30.4 27.2 31.8 27.2C34.9 27.2 37.4 30.2 37 33.4C36.8 35.4 35.3 37.1 33.5 37.7C31.5 38.3 29.6 37.7 28.3 36.4L25.6 33.9L24.1 32.6L21.5 30.2C20.7 29.4 19.6 29.1 18.5 29.3C17.3 29.6 16.3 30.6 16 31.8C15.5 34 17.2 36 19.2 36C20 36 20.8 35.7 21.5 35L22 34.6C22.4 34.3 22.9 34.3 23.3 34.6C23.7 35 23.7 35.7 23.3 36.1L22.9 36.5C21.9 37.5 20.6 38.1 19.2 38.1C16.3 38.1 14 35.7 14 32.7C14 29.7 16.3 27.3 19.2 27.3C20.6 27.3 21.9 27.8 22.8 28.8L25.5 31.3L26.9 32.7L29.5 35.1C30.3 35.9 31.4 36.2 32.5 36C33.7 35.7 34.7 34.7 35 33.5C35.5 31.3 33.8 29.3 31.8 29.3C31 29.3 30.2 29.6 29.5 30.3L29 30.7C28.6 31 28.1 31 27.7 30.7C27.3 30.3 27.3 29.6 27.7 29.2L28.1 28.8Z"
      fill="#6750A4"/>
</svg>
