<svg width="39" height="39" viewBox="0 0 39 39" fill="none" xmlns="http://www.w3.org/2000/svg">
<path fill-rule="evenodd" clip-rule="evenodd" d="M30.7001 13H7.00005C6.40005 13 6.00005 12.5 6.00005 11.9C6.00005 11.3 6.40005 10.9 7.00005 10.9H30.8L26.8 6.90001C26.4 6.50001 26.4 5.90001 26.8 5.50001C27.2 5.10001 27.8001 5.10001 28.2001 5.50001L33.9001 11.2C34.3001 11.6 34.3001 12.2 33.9001 12.6L28.2001 18.3C27.8001 18.7 27.2 18.7 26.8 18.3C26.4 17.9 26.4 17.3 26.8 16.9L30.7001 13ZM9.20005 26H33C33.6 26 34 26.4 34 27C34 27.6 33.6 28 33 28H9.30005L13.2 32C13.6 32.4 13.6 33 13.2 33.4C12.8 33.8 12.2 33.8 11.8 33.4L6.10005 27.7C5.70005 27.3 5.70005 26.7 6.10005 26.3L11.8 20.6C12.2 20.2 12.8 20.2 13.2 20.6C13.6 21 13.6 21.6 13.2 22L9.20005 26Z"
      fill="#6750A4"/>
</svg>
