<svg width="39" height="39" viewBox="0 0 39 39" fill="none" xmlns="http://www.w3.org/2000/svg">
<path fill-rule="evenodd" clip-rule="evenodd" d="M11.4 6.09999C11.8 5.69999 12.4 5.69999 12.8 6.09999L18.4 11.8C18.8 12.2 18.8 12.8 18.4 13.2C18 13.6 17.4 13.6 17 13.2L13 9.19999V33C13 33.6 12.6 34 12 34C11.4 34 11 33.6 11 33V9.29999L7.10002 13.2C6.70002 13.6 6.10002 13.6 5.70002 13.2C5.30002 12.8 5.30002 12.2 5.70002 11.8L11.4 6.09999ZM32 26.8C32.4 26.4 33 26.4 33.4 26.8C33.8 27.2 33.8 27.8 33.5 28.2L27.8 33.9C27.4 34.3 26.8 34.3 26.4 33.9L20.7 28.2C20.3 27.8 20.3 27.2 20.7 26.8C21.1 26.4 21.7 26.4 22.1 26.8L26 30.7V6.99999C26 6.39999 26.4 5.99999 27 5.99999C27.6 5.99999 28 6.39999 28 6.99999V30.8L32 26.8Z"
      fill="#6750A4"/>
</svg>
