<svg width="32" height="32" viewBox="0 0 32 32" fill="none" xmlns="http://www.w3.org/2000/svg">
    <g clip-path="url(#clip0_625_12650)">
        <path d="M27.8621 7.56875L20.4246 0.125H5.33086C4.66836 0.125 4.13086 0.6625 4.13086 1.325V22.6187H27.8621V7.56875Z" fill="#EFF3F5" />
        <path d="M20.4238 6.36875C20.4238 7.03125 20.9613 7.56875 21.6238 7.56875H27.8676L20.4238 0.125V6.36875Z" fill="#DBDFE0" />
        <path d="M4.13672 22.6125V30.675C4.13672 31.3375 4.67422 31.875 5.33672 31.875H26.668C27.3305 31.875 27.868 31.3375 27.868 30.675V22.6125H4.13672Z" fill="#F1786B" />
        <path d="M9.9121 21.25C9.53085 21.25 9.1621 21.1062 8.8246 20.825C8.25585 20.35 8.2121 19.825 8.26835 19.4687C8.54335 17.8625 11.5309 16.3937 13.2684 15.6687C14.2121 13.3062 15.0309 10.525 15.5371 8.43745C14.5246 6.2687 14.1684 4.73745 14.4809 3.8687C14.6371 3.43745 14.9559 3.1562 15.4059 3.0562L15.4684 3.0437L15.5309 3.04995C15.5809 3.0562 16.0246 3.12495 16.3871 3.61245C16.8559 4.24995 16.9621 5.2812 16.6996 6.6812C16.6246 7.0812 16.4996 7.6562 16.3371 8.3437C17.2621 10.2687 18.5621 12.3937 19.6246 13.8687C20.5121 13.7437 21.3559 13.7 22.0684 13.775C23.3996 13.9125 23.6809 14.4937 23.7309 14.8312C23.8059 15.325 23.4434 15.8375 22.8246 16.1C21.9684 16.4625 20.5684 16.3687 19.4309 14.8937C19.3809 14.8312 19.3309 14.7625 19.2809 14.6937C17.8184 14.9375 16.1184 15.4 14.3934 16.0437C14.2121 16.1125 14.0371 16.1812 13.8621 16.25C12.6934 19.1125 11.5496 20.7562 10.4559 21.15C10.2809 21.2187 10.0934 21.25 9.9121 21.25ZM12.8496 16.6812C10.3684 17.8 9.1371 18.9062 9.0246 19.6C8.9996 19.75 8.9996 19.9812 9.31835 20.2437C9.6121 20.4875 9.89335 20.55 10.2059 20.4375C11.0746 20.125 11.9996 18.625 12.8496 16.6812ZM20.1621 14.575C21.0059 15.5687 21.9559 15.65 22.5309 15.4C22.8309 15.275 22.9996 15.0625 22.9809 14.9437C22.9621 14.8187 22.6809 14.6062 21.9934 14.5375C21.4809 14.4875 20.8621 14.5 20.1621 14.575ZM16.0621 9.48745C15.6809 10.9562 15.1621 12.725 14.5559 14.4375C14.4496 14.7312 14.3496 15.0125 14.2434 15.2875C15.5996 14.7875 17.2371 14.3 18.7934 14.0062C17.9559 12.8125 16.9246 11.1562 16.0621 9.48745ZM15.4996 3.8312C15.3559 3.8812 15.2621 3.97495 15.2059 4.13745C14.9871 4.73745 15.2746 5.8687 15.8309 7.2062C15.8809 6.9687 15.9246 6.74995 15.9621 6.54995C16.2496 4.9937 15.9746 4.32495 15.7809 4.0687C15.6746 3.92495 15.5621 3.8562 15.4996 3.8312Z" fill="#F1786B" />
        <path d="M21.648 26.7626H20.2168V25.3063H21.648C21.9168 25.3063 22.1355 25.0875 22.1355 24.8188C22.1355 24.55 21.9168 24.3313 21.648 24.3313H19.7355C19.4668 24.3313 19.248 24.55 19.248 24.8188V29.6688C19.248 29.9376 19.4668 30.1563 19.7355 30.1563C20.0043 30.1563 20.223 29.9376 20.223 29.6688V27.7313H21.6543C21.923 27.7313 22.1418 27.5125 22.1418 27.2438C22.1355 26.975 21.9168 26.7626 21.648 26.7626Z" fill="#EFF3F5" />
        <path d="M11.3363 24.3376H10.3488C10.0801 24.3376 9.86133 24.5564 9.86133 24.8251V29.6751C9.86133 29.9439 10.0801 30.1626 10.3488 30.1626C10.6176 30.1626 10.8363 29.9439 10.8363 29.6751V27.7376H11.3363C12.2738 27.7376 13.0363 26.9751 13.0363 26.0376C13.0363 25.1001 12.2738 24.3376 11.3363 24.3376ZM11.3363 26.7626H10.8363V25.3064H11.3363C11.7363 25.3064 12.0613 25.6314 12.0613 26.0314C12.0613 26.4314 11.7363 26.7626 11.3363 26.7626Z" fill="#EFF3F5" />
        <path d="M15.5242 24.3376H14.2492C13.9805 24.3376 13.7617 24.5564 13.7617 24.8251V29.6751C13.7617 29.9439 13.9805 30.1626 14.2492 30.1626H15.5242C17.1305 30.1626 18.4367 28.8564 18.4367 27.2501C18.4367 25.6376 17.1305 24.3376 15.5242 24.3376ZM15.5242 29.1814H14.7367V25.3001H15.5242C16.593 25.3001 17.4617 26.1689 17.4617 27.2376C17.468 28.3126 16.593 29.1814 15.5242 29.1814Z" fill="#EFF3F5" />
    </g>
    <defs>
        <clipPath id="clip0_625_12650">
            <rect width="32" height="32" fill="white" />
        </clipPath>
    </defs>
</svg>
