<svg width="32" height="32" viewBox="0 0 32 32" fill="none" xmlns="http://www.w3.org/2000/svg">
    <path d="M8 0C6.9 0 6 0.9 6 2V30C6 31.1 6.9 32 8 32H28C29.1 32 30 31.1 30 30V8L22 0H8Z" fill="#ECECE7" />
    <path d="M24 8H30L22 0V6C22 7.1 22.9 8 24 8Z" fill="#B0B7BD" />
    <path d="M30 14L24 8H30V14Z" fill="#DEDED8" />
    <path d="M26 26C26 26.55 25.55 27 25 27H3C2.45 27 2 26.55 2 26V16C2 15.45 2.45 15 3 15H25C25.55 15 26 15.45 26 16V26Z" fill="#46BB25" />
    <path d="M9.02056 20.387L10.4116 18.644C10.8276 18.1 11.6356 18.795 11.1796 19.315C10.7006 19.883 10.1966 20.499 9.71656 21.13L11.3476 23.161C11.7876 23.761 10.9086 24.336 10.4766 23.744L9.00456 21.857L7.55756 23.785C7.14956 24.368 6.24556 23.713 6.70156 23.169L8.30856 21.13C7.80456 20.498 7.31656 19.883 6.82956 19.315C6.32656 18.715 7.26156 18.1 7.62956 18.661L9.02056 20.387Z" fill="white" />
    <path d="M12.334 18.947C12.334 18.683 12.558 18.459 12.838 18.459C13.094 18.459 13.31 18.684 13.31 18.947V22.953H15.485C16.268 22.953 16.285 24 15.485 24H12.839C12.559 24 12.335 23.801 12.335 23.513V18.947H12.334Z" fill="white" />
    <path d="M17.001 19.6669C17.185 18.1149 19.527 17.8359 20.631 18.6839C21.175 19.1229 20.599 19.8189 20.119 19.4669C19.527 19.0919 18.184 18.9159 18.016 19.7459C17.8 21.0579 21.278 20.3069 21.222 22.4339C21.166 24.4649 18.224 24.5119 17.12 23.6009C16.855 23.3849 16.864 23.0339 17.008 22.8169C17.216 22.6099 17.447 22.5379 17.72 22.7619C18.375 23.2089 20.063 23.5449 20.182 22.4089C20.079 21.2269 16.753 21.9379 17.001 19.6669Z" fill="white" />
    <path d="M25 27H6V28H25C25.55 28 26 27.55 26 27V26C26 26.55 25.55 27 25 27Z" fill="#CAD1D8" />
</svg>
