<svg xmlns="http://www.w3.org/2000/svg" x="0px" y="0px" viewBox="0 0 32 32">
<rect opacity="0.5" fill="none" width="32" height="32"/>
<path fill-rule="evenodd" clip-rule="evenodd" fill="#DEDEDE" d="M17.8,8.2c3,0.7,5.4,3,6.1,6c0.1,0.4,0.5,0.8,1,0.8l5.1,0c0.6,0,1.1-0.5,1-1.2C29.9,7.1,24.6,2.1,18.2,1.2
	c-0.6-0.1-1.2,0.4-1.2,1l0,5.1C17,7.7,17.3,8.1,17.8,8.2z"/>
<path opacity="0.5" fill-rule="evenodd" clip-rule="evenodd" fill="#DEDEDE" d="M23.8,17.8c-0.9,4.2-5,6.9-9.4,6.1c-2.6-0.5-4.8-2.4-5.8-4.9c-1.9-4.9,1.2-9.8,5.7-10.8c0.4-0.1,0.7-0.5,0.7-1
	l0-5.1c0-0.6-0.6-1.1-1.2-1c-8,1.2-14.2,9.1-12.6,17.6C2.6,25.7,8.7,30.8,15.7,31c7.6,0.2,14.1-5.3,15.2-12.8c0.1-0.6-0.4-1.2-1-1.2
	c-1.4,0-3.8,0-5.1,0C24.3,17,23.9,17.3,23.8,17.8z"/>
</svg>
