<svg xmlns="http://www.w3.org/2000/svg" x="0px" y="0px" viewBox="0 0 32 32">
<rect opacity="0.5" fill="none" width="32" height="32"/>
<path fill="#DEDEDE" d="M29,29c-0.3,0-0.6-0.1-0.8-0.3L9,6.5l-5.2,6.1c-0.4,0.4-1,0.5-1.4,0.1c-0.4-0.4-0.5-1-0.1-1.4l6-7
	C8.4,4.1,8.7,4,9,4c0,0,0,0,0,0c0.3,0,0.6,0.1,0.8,0.3l20,23c0.4,0.4,0.3,1-0.1,1.4C29.5,28.9,29.2,29,29,29z"/>
<path opacity="0.5" fill="#DEDEDE" enable-background="new" d="M16,24c-0.3,0-0.6-0.1-0.8-0.3L9,16.5l-5.2,6.1c-0.4,0.4-1,0.5-1.4,0.1c-0.4-0.4-0.5-1-0.1-1.4l6-7
	C8.4,14.1,8.7,14,9,14c0,0,0,0,0,0c0.3,0,0.6,0.1,0.8,0.3l6.2,7.1l7.3-9.1c0.2-0.2,0.5-0.4,0.8-0.4c0.3,0,0.6,0.1,0.8,0.4l5,6
	c0.4,0.4,0.3,1.1-0.1,1.4c-0.4,0.4-1.1,0.3-1.4-0.1L24,14.6l-7.2,9C16.6,23.9,16.3,24,16,24C16,24,16,24,16,24z"/>
</svg>
