<svg xmlns="http://www.w3.org/2000/svg" x="0px" y="0px" viewBox="0 0 32 32">
<rect x="-0.1" y="0" opacity="0.5" fill="none" width="32" height="32"/>
<polygon opacity="0.5" fill-rule="evenodd" clip-rule="evenodd" fill="#DEDEDE" points="23.5,4 14.1,13 7.6,8 0,14 0,25 7.6,21 14.1,28 23.5,22 32,26 32,10 "/>
<path fill="#DEDEDE" d="M1,15c-0.3,0-0.5-0.1-0.7-0.3c-0.4-0.4-0.3-1,0.1-1.4l6.6-6c0.4-0.3,0.9-0.3,1.3-0.1l5.9,4.5l8.8-8.4
	c0.4-0.3,0.9-0.4,1.3-0.1l7.5,6c0.4,0.3,0.5,1,0.2,1.4c-0.3,0.4-1,0.5-1.4,0.2l-6.8-5.5l-8.7,8.4c-0.4,0.3-0.9,0.4-1.3,0.1L7.6,9.3
	l-5.9,5.4C1.5,14.9,1.2,15,1,15z"/>
<path fill="#DEDEDE" d="M14.1,29c-0.3,0-0.5-0.1-0.7-0.3l-6-6.4l-5.9,3.6C1,26.1,0.4,26,0.1,25.5C-0.1,25,0,24.4,0.5,24.1l6.6-4
	C7.4,19.9,8,20,8.3,20.3l6,6.4l8.7-5.6c0.3-0.2,0.7-0.2,1,0l7.5,4c0.5,0.3,0.7,0.9,0.4,1.4c-0.3,0.5-0.9,0.7-1.4,0.4l-7-3.7
	l-8.9,5.7C14.5,28.9,14.3,29,14.1,29z"/>
</svg>
