<svg xmlns="http://www.w3.org/2000/svg" x="0px" y="0px" viewBox="0 0 32 32">
<rect x="0" y="0" opacity="0.5" fill="none" width="32" height="32"/>
<polygon opacity="0.5" fill-rule="evenodd" clip-rule="evenodd" fill="#DEDEDE" points="22,13 10,4 0,15 0,23 10,15 22,25 32,14 32,7 "/>
<path opacity="0.75" fill-rule="evenodd" clip-rule="evenodd" fill="#DEDEDE" d="M0,23l10-8l12,10l10-11v8v10H0V23z"/>
<path opacity="0.5" fill="#DEDEDE" d="M1,16c-0.2,0-0.4-0.1-0.6-0.2c-0.4-0.4-0.5-1-0.1-1.4l9-11c0.3-0.4,0.9-0.5,1.4-0.2L22,11.8l8.4-5.6
	c0.5-0.3,1.1-0.2,1.4,0.3c0.3,0.5,0.2,1.1-0.3,1.4l-9,6c-0.4,0.2-0.8,0.2-1.2,0L10.2,5.4L1.8,15.6C1.6,15.9,1.3,16,1,16z"/>
<path opacity="0.5" fill="#DEDEDE" d="M22,26c-0.2,0-0.5-0.1-0.6-0.2L10,16.3l-8.4,7.4c-0.4,0.4-1,0.3-1.4-0.1c-0.4-0.4-0.3-1,0.1-1.4l9-8
	c0.4-0.3,0.9-0.3,1.3,0l11.2,9.4l8.4-10.2c0.4-0.4,1-0.5,1.4-0.1c0.4,0.4,0.5,1,0.1,1.4l-9,11C22.6,25.8,22.4,26,22,26
	C22.1,26,22,26,22,26z"/>
</svg>
