<svg xmlns="http://www.w3.org/2000/svg" x="0px" y="0px" viewBox="0 0 32 32">
<g>
	
		<linearGradient id="SVGID_1_" gradientUnits="userSpaceOnUse" x1="-16" y1="16.5" x2="-48" y2="16.5" gradientTransform="matrix(1 0 0 -1 48 34)">
		<stop  offset="0" style="stop-color:#FFFFFF"/>
		<stop  offset="0" style="stop-color:#DEDEDE;stop-opacity:0.5"/>
		<stop  offset="0" style="stop-color:#DEDEDE;stop-opacity:0.75"/>
		<stop  offset="1" style="stop-color:#DEDEDE;stop-opacity:0.25"/>
	</linearGradient>
	<path fill="url(#SVGID_1_)" d="M32,19c-5,2-5-16-10-16s-4.6,15-8.6,15c-3.9,0-2.4-8-6.1-8C3.5,10,3.9,23.1,0,21v11h32V19z"/>
</g>
<path fill="none" d="M32,32H0c0-5.3,0-10.7,0-16S0,5.3,0,0h32V32z"/>
<path fill="#DEDEDE" d="M1,22c-0.6,0-1-0.4-1-1s0.4-1,1-1c1.2,0,1.8-2.6,2.4-4.9C4,12.1,4.8,9,7.3,9c2.5,0,3.3,2.6,4,4.7
	c0.6,1.9,1.2,3.3,2,3.3c1.2,0,2.1-3.5,2.8-6.1c1.1-4.2,2.4-8.9,6-8.9c3.4,0,4.5,4.5,5.5,8.9c0.8,3.3,1.6,7.1,3.3,7.1
	c0.6,0,1,0.4,1,1s-0.4,1-1,1c-3.3,0-4.3-4.4-5.3-8.6C24.9,7.9,24,4,22.2,4c-2,0-3.1,4-4.1,7.5c-1.1,3.9-2.1,7.5-4.7,7.5
	c-2.4,0-3.2-2.5-3.9-4.6c-0.7-2-1.2-3.4-2.1-3.4c-0.9,0-1.5,2.5-2,4.5C4.6,18.5,3.8,22,1,22z"/>
</svg>
