<svg xmlns="http://www.w3.org/2000/svg" x="0px" y="0px" viewBox="0 0 32 32">
<rect opacity="0.5" fill="none" width="32" height="32"/>
<path opacity="0.5" fill="#DEDEDE" d="M20.7,29h-0.1c-2.2,0-3.9-1.7-4.7-4.8c-0.4-1.8-1-7.9-1.1-8.1c-0.2-1.8-0.8-6.8-1-7.8c-0.2-1-0.8-3.3-2.4-3.3
	C9.9,5,9.2,6.8,8.8,8.3c-0.2,1-0.8,6-1,7.8c0,0.2-0.6,6.3-1.1,8.1C5.9,27.3,4.2,29,2,29c-0.6,0-1-0.4-1-1s0.4-1,1-1
	c1.7,0,2.5-2.3,2.8-3.3c0.4-1.6,1-7.7,1-7.8c0-0.3,0.7-6.7,1.1-8.1C7.9,3.6,10.1,3,11.3,3c2.2,0,3.8,1.8,4.4,4.8
	c0.3,1.4,1,7.8,1.1,8.1c0,0.1,0.6,6.2,1,7.8c0.3,1,1.1,3.3,2.8,3.3h0.1c0.8,0,1.9-0.3,2.8-3.3c0.4-1.6,1-7.7,1-7.8
	c0-0.3,0.7-6.7,1.1-8.1C26.6,3.6,28.8,3,30,3c0.6,0,1,0.4,1,1s-0.4,1-1,1c-1.4,0-2.2,1.8-2.6,3.3c-0.2,1-0.8,6-1,7.8
	c0,0.2-0.6,6.3-1.1,8.1C25,25.4,24,29,20.7,29z"/>
<path fill="#DEDEDE" d="M7,14c-0.3,0-0.7-0.2-0.8-0.5c-0.3-0.5-0.2-1.1,0.3-1.4l8-5c0.5-0.3,1.1-0.1,1.4,0.3c0.3,0.5,0.2,1.1-0.3,1.4
	l-8,5C7.4,14,7.2,14,7,14z"/>
<path fill="#DEDEDE" d="M24,26c-0.4,0-0.7-0.2-0.9-0.5l-9-17C13.9,8,14,7.4,14.5,7.1C15,6.9,15.6,7,15.9,7.5l9,17
	c0.3,0.5,0.1,1.1-0.4,1.4C24.3,26,24.2,26,24,26z"/>
<path fill="#DEDEDE" d="M24,26c-0.1,0-0.2,0-0.4-0.1c-0.5-0.2-0.8-0.8-0.6-1.3l6-15c0.2-0.5,0.8-0.8,1.3-0.6c0.5,0.2,0.8,0.8,0.6,1.3
	l-6,15C24.8,25.8,24.4,26,24,26z"/>
<g>
	<line fill="#E32526" x1="7" y1="13" x2="2" y2="22"/>
	<path fill="#DEDEDE" d="M2,23c-0.2,0-0.3,0-0.5-0.1C1,22.6,0.9,22,1.1,21.5l5-9C6.4,12,7,11.9,7.5,12.1C8,12.4,8.1,13,7.9,13.5l-5,9
		C2.7,22.8,2.4,23,2,23z"/>
</g>
<g>
	<g>
		<circle fill="#DEDEDE" cx="7" cy="13" r="2"/>
	</g>
	<g>
		<circle fill="#DEDEDE" cx="15" cy="8" r="2"/>
	</g>
	<g>
		<circle fill="#DEDEDE" cx="24" cy="25" r="2"/>
	</g>
</g>
</svg>
