<svg xmlns="http://www.w3.org/2000/svg" x="0px" y="0px" viewBox="0 0 32 32">
<rect y="0" opacity="0.5" fill="none" width="32" height="32"/>
<path fill-rule="evenodd" clip-rule="evenodd" fill="#8F8E93" d="M17.5,15.7l11,6.4c0.5,0.3,1.2,0.1,1.4-0.5C30.6,19.9,31,18,31,16c0-7.8-5.7-13.8-12.8-14.8
	c-0.6-0.1-1.2,0.4-1.2,1v12.7C17,15.2,17.2,15.5,17.5,15.7z"/>
<path opacity="0.5" fill-rule="evenodd" clip-rule="evenodd" fill="#8F8E93"  d="M15,14.8l0-12.7c0-0.6-0.6-1.1-1.2-1C6.7,2.3,1,8.6,1,16c0,1.9,0.4,3.8,1.1,5.5C2.3,22.1,3,22.3,3.5,22l11-6.3
	C14.8,15.5,15,15.2,15,14.8z"/>
<path opacity="0.75" fill-rule="evenodd" clip-rule="evenodd" fill="#8F8E93" d="M15.5,17.4L4.6,23.8c-0.5,0.3-0.7,1-0.3,1.5c2.8,3.5,7,5.7,11.7,5.7c4.7,0,9-2.2,11.8-5.7
	c0.4-0.5,0.3-1.2-0.3-1.5l-11-6.4C16.2,17.3,15.8,17.3,15.5,17.4z"/>
</svg>
