<svg xmlns="http://www.w3.org/2000/svg" x="0px" y="0px" viewBox="0 0 32 32">
<rect y="0" opacity="0.5" fill="none" width="32" height="32"/>
<linearGradient id="SVGID_1_" gradientUnits="userSpaceOnUse" x1="16" y1="6" x2="16" y2="32">
	<stop  offset="0" style="stop-color:#FFFFFF"/>
	<stop  offset="0" style="stop-color:#8D8E92;stop-opacity:0.5"/>
	<stop  offset="0.8756" style="stop-color:#8D8E92;stop-opacity:0.9378"/>
	<stop  offset="1" style="stop-color:#8D8E92"/>
</linearGradient>
<path fill-rule="evenodd" clip-rule="evenodd" fill="url(#SVGID_1_)" d="M0,17L5,7l5,16l4-10l3,8l3-11l6,16l6-20v26H0V17z"/>
<path fill="#7F7F81" d="M26,27c-0.4,0-0.8-0.3-0.9-0.7l-4.9-13.9L18,21.2c-0.1,0.4-0.5,0.7-0.9,0.8c-0.4,0-0.8-0.2-1-0.6l-2-5.5
	l-3.1,8.5c-0.2,0.4-0.6,0.7-1,0.7c-0.4,0-0.8-0.3-0.9-0.7L4.9,8.5l-2.9,8.8c-0.2,0.5-0.7,0.8-1.3,0.6c-0.5-0.2-0.8-0.7-0.6-1.3l4-12
	C4.2,4.3,4.6,4,5,4C5.5,4,5.9,4.3,6,4.7l4.2,15.9l2.9-8c0.1-0.4,0.5-0.7,0.9-0.7c0.4,0,0.8,0.3,0.9,0.6l1.9,5L19,8.8
	C19.1,8.3,19.5,8,20,8c0.4,0,0.8,0.2,1,0.7l4.9,13.9L30,5.8c0.1-0.5,0.7-0.9,1.2-0.7c0.5,0.1,0.9,0.7,0.7,1.2l-5,20
	C26.9,26.7,26.5,27,26,27C26,27,26,27,26,27z"/>
</svg>
