<svg xmlns="http://www.w3.org/2000/svg" x="0px" y="0px" viewBox="0 0 32 32">
<rect opacity="0.5" fill="none" width="32" height="32"/>
<polygon opacity="0.5" fill-rule="evenodd" clip-rule="evenodd" fill="#8F8E93" points="23.6,4 14.2,13 7.7,8 0.1,14 0.1,25 7.7,21 14.2,28 23.6,22 32.1,26 32.1,10 "/>
<path fill="#7F7F81" d="M1.1,15c-0.3,0-0.5-0.1-0.7-0.3c-0.4-0.4-0.3-1,0.1-1.4l6.6-6c0.4-0.3,0.9-0.3,1.3-0.1l5.9,4.5l8.8-8.4
	c0.4-0.3,0.9-0.4,1.3-0.1l7.5,6c0.4,0.3,0.5,1,0.2,1.4c-0.3,0.4-1,0.5-1.4,0.2l-6.8-5.5l-8.7,8.4c-0.4,0.3-0.9,0.4-1.3,0.1L7.7,9.3
	l-5.9,5.4C1.6,14.9,1.4,15,1.1,15z"/>
<path fill="#7F7F81" d="M14.2,29c-0.3,0-0.5-0.1-0.7-0.3l-6-6.4l-5.9,3.6c-0.5,0.3-1.1,0.1-1.4-0.3C0,25,0.1,24.4,0.6,24.1l6.6-4
	c0.4-0.2,0.9-0.2,1.2,0.2l6,6.4l8.7-5.6c0.3-0.2,0.7-0.2,1,0l7.5,4c0.5,0.3,0.7,0.9,0.4,1.4c-0.3,0.5-0.9,0.7-1.4,0.4l-7-3.7
	l-8.9,5.7C14.6,28.9,14.4,29,14.2,29z"/>
</svg>
