<svg xmlns="http://www.w3.org/2000/svg" x="0px" y="0px" viewBox="0 0 32 32">
<rect y="0" opacity="0.5" fill="none" width="32" height="32"/>
<polygon opacity="0.5" fill-rule="evenodd" clip-rule="evenodd" fill="#8F8E93" points="25,3 11,11 5,8 0,12 0,19 5,16 11,18 25,12 32,17 32,6 "/>
<path fill-rule="evenodd" clip-rule="evenodd" fill="#8F8E93" d="M0,25l5-3l6,6l14-7l7,6v5H0V25z"/>
<polygon opacity="0.75" fill-rule="evenodd" clip-rule="evenodd" fill="#8F8E93" points="25,12 11,18 5,16 0,19 0,25 5,22 11,28 25,21 32,27 32,17 "/>
<path fill="#7F7F81" d="M1,13c-0.3,0-0.5-0.1-0.7-0.3c-0.4-0.4-0.4-1,0-1.4l4-4C4.6,7,5.1,6.9,5.4,7.1L11,9.9l13.5-7.7
	c0.3-0.2,0.6-0.2,0.9,0l6,3c0.5,0.2,0.7,0.8,0.4,1.3S31,7.1,30.6,6.9L25,4.1l-13.5,7.7c-0.3,0.2-0.6,0.2-0.9,0L5.2,9.2l-3.5,3.5
	C1.5,12.9,1.3,13,1,13z"/>
<path fill="#7F7F81" d="M1,20c-0.3,0-0.6-0.1-0.8-0.4c-0.3-0.4-0.2-1.1,0.2-1.4l4-3c0.3-0.2,0.7-0.3,1-0.1l5.5,2.8l13.5-7.7
	c0.4-0.2,0.9-0.2,1.2,0.2l6,6c0.4,0.4,0.4,1,0,1.4s-1,0.4-1.4,0l-5.5-5.5l-13.3,7.6c-0.3,0.2-0.6,0.2-0.9,0l-5.4-2.7l-3.5,2.6
	C1.4,19.9,1.2,20,1,20z"/>
<path fill="#7F7F81" d="M11,29c-0.3,0-0.5-0.1-0.7-0.3l-5.4-5.4l-3.3,2.5c-0.4,0.3-1.1,0.2-1.4-0.2c-0.3-0.4-0.2-1.1,0.2-1.4l4-3
	c0.4-0.3,1-0.3,1.3,0.1l5.5,5.5l13.4-6.7c0.4-0.2,0.9-0.1,1.2,0.2l6,6c0.4,0.4,0.4,1,0,1.4s-1,0.4-1.4,0l-5.5-5.5l-13.4,6.7
	C11.3,29,11.2,29,11,29z"/>
</svg>
