<svg xmlns="http://www.w3.org/2000/svg" x="0px" y="0px" viewBox="0 0 32 32">
<rect opacity="0.5" fill="none" width="32" height="32"/>
<polygon opacity="0.5" fill-rule="evenodd" clip-rule="evenodd" fill="#8F8E93" points="1,32 1,17.9 6,17.9 6,12 11,12 11,6 22.9,6 23,14 31.1,14 31,32 "/>
<path fill="#7F7F81" d="M31,32c-0.6,0-1-0.4-1-1V15h-7c-0.6,0-1-0.4-1-1V7H12v5c0,0.6-0.4,1-1,1H7v5c0,0.6-0.4,1-1,1H2v12
	c0,0.6-0.4,1-1,1s-1-0.4-1-1V18c0-0.6,0.4-1,1-1h4v-5c0-0.6,0.4-1,1-1h4V6c0-0.6,0.4-1,1-1h12c0.6,0,1,0.4,1,1v7h7c0.6,0,1,0.4,1,1
	v17C32,31.6,31.6,32,31,32z"/>
</svg>
