<svg xmlns="http://www.w3.org/2000/svg" x="0px" y="0px" viewBox="0 0 32 32">
<rect x="0" y="16" opacity="0.5" fill="#7F7F81" width="32" height="16"/>
<rect x="0" y="0" opacity="0.25" fill="#7F7F81" width="32" height="16"/>
<path fill="#7F7F81" d="M2,28c-0.1,0-0.2,0-0.2,0c-0.5-0.1-0.9-0.7-0.7-1.2l4.1-16C5.2,10.3,5.6,10,6,10c0.4,0,0.8,0.2,1,0.6l4.3,10
	l3.3-7c0.2-0.3,0.5-0.6,0.8-0.6c0.4,0,0.7,0.2,0.9,0.5l1.9,3l3.5-12.8c0.1-0.4,0.5-0.7,1-0.7c0,0,0,0,0,0c0.4,0,0.8,0.3,1,0.7
	l4,13.7L29,8.8c0.1-0.5,0.6-0.9,1.1-0.8c0.5,0.1,0.9,0.6,0.8,1.1l-2.1,13C28.8,22.6,28.4,23,28,23c-0.5,0-0.9-0.3-1-0.7L22.7,7.7
	l-3.2,11.6c-0.1,0.4-0.4,0.7-0.8,0.7c-0.4,0.1-0.8-0.1-1-0.5l-2.1-3.4l-3.4,7.3C12,23.8,11.7,24,11.3,24c-0.4,0-0.7-0.2-0.9-0.6
	l-4-9.3L3,27.2C2.9,27.7,2.4,28,2,28z"/>
</svg>
