<svg xmlns="http://www.w3.org/2000/svg" x="0px" y="0px" viewBox="0 0 32 32">
<rect opacity="0.5" fill="none" width="32" height="32"/>
<path fill="#7F7F81" d="M17,30C8.9,30,3,24.3,3,16.5C3,8.6,8.3,3,16,3c8.2,0,12,5.7,12,11c0,6.9-4.5,10-9,10c-5.6,0-9-2.9-9-7.5
	c0-4.2,2.9-6.4,5.5-6.6c2.7-0.3,4.9,1.4,5.5,3.9c0.1,0.5-0.2,1.1-0.8,1.2c-0.5,0.1-1.1-0.2-1.2-0.8c-0.4-1.9-2-2.5-3.3-2.3
	C13.9,12,12,13.5,12,16.5c0,5,4.9,5.5,7,5.5c3.2,0,7-2.1,7-8c0-4.5-3.1-9-10-9C9.4,5,5,9.6,5,16.5C5,23.3,9.9,28,17,28
	c0.6,0,1,0.4,1,1S17.6,30,17,30z"/>
</svg>
