<svg xmlns="http://www.w3.org/2000/svg" x="0px" y="0px" viewBox="0 0 32 32">
<path opacity="0.5" fill="#8F8E93" d="M31,2H1C0.4,2,0,2.4,0,3v8l13,6l8-5l11,6V3C32,2.4,31.6,2,31,2z"/>
<path fill-rule="evenodd" clip-rule="evenodd" fill="#8F8E93" d="M0,25l12,2l9-7l11,4v5v3H0V25z"/>
<polygon opacity="0.75" fill-rule="evenodd" clip-rule="evenodd" fill="#8F8E93" points="21,11 13,16 0,10 0,25 12,27 21,20 32,24 32,21 32,17 "/>
<path fill="#7F7F81" d="M31.1,4h-30c-0.6,0-1-0.4-1-1s0.4-1,1-1h30c0.6,0,1,0.4,1,1S31.7,4,31.1,4z"/>
<path fill="#7F7F81" d="M31,18c-0.2,0-0.4,0-0.5-0.1L21,12.2l-7.5,4.7c-0.3,0.2-0.7,0.2-1,0l-12-6C0.1,10.6-0.1,10,0.1,9.6
	C0.4,9.1,1,8.9,1.4,9.1l11.5,5.7l7.5-4.7c0.3-0.2,0.7-0.2,1,0l10,6c0.5,0.3,0.6,0.9,0.3,1.4C31.7,17.8,31.3,18,31,18z"/>
<path fill="#7F7F81" d="M12,28c-0.1,0-0.1,0-0.2,0l-11-2c-0.5-0.1-0.9-0.6-0.8-1.2c0.1-0.5,0.6-0.9,1.2-0.8l10.6,1.9l8.6-6.7
	c0.3-0.2,0.7-0.3,1-0.1l10,4c0.5,0.2,0.8,0.8,0.6,1.3c-0.2,0.5-0.8,0.8-1.3,0.6l-9.5-3.8l-8.5,6.6C12.4,27.9,12.2,28,12,28z"/>
</svg>
