<?xml version="1.0" encoding="utf-8"?>
<!-- Generator: Adobe Illustrator 26.2.1, SVG Export Plug-In . SVG Version: 6.00 Build 0)  -->
<svg version="1.1" id="Layer_1" xmlns="http://www.w3.org/2000/svg" xmlns:xlink="http://www.w3.org/1999/xlink" x="0px" y="0px"
	 viewBox="0 0 128 128" style="enable-background:new 0 0 128 128;" xml:space="preserve">
<g>
	<g>
		<path class="st1" d="M40.1,41c-1.7,8.6-4.6,22.9-5.7,31.4c-1-8.7-4.3-22.7-6.2-31.4h-5l-3.6,43.5h5.5l1.7-30
			c0.9,8.5,4,21.5,5.7,30h3.9c1.4-7.4,4.5-22.6,5.6-30c0.2,8.7,0.9,21.2,1.6,30h5.6l-4-43.5H40.1z" fill="#fff"/>
		<path class="st1" d="M60.2,41l-9.5,43.5h5.6l1.7-8.5h8.6l1.6,8.5h5.8L64.8,41H60.2z M58.9,71.5c1.4-7.3,2.8-14.8,3.6-22
			c0.7,7.7,2,14.8,3.4,22H58.9z" fill="#fff"/>
		<path class="st1" d="M90.4,72.6c-0.3,4.6,0.2,6.8-4.2,7c-4.6-0.3-4-2.9-4.3-7.8V41h-5.7c0,0,0,30.8,0,30.8
			c0.1,8.8,1.4,13,9.9,13.3c8.1-0.2,10.1-3.8,10.1-12.5V41h-5.7C90.4,41,90.4,72.6,90.4,72.6z" fill="#fff"/>
		<rect x="99.9" y="41" class="st1" width="5.9" height="43.5" fill="#fff"/>
	</g>
</g>
</svg>
