<?xml version="1.0" encoding="utf-8"?>
<!-- Generator: Adobe Illustrator 26.2.1, SVG Export Plug-In . SVG Version: 6.00 Build 0)  -->
<svg version="1.1" id="Layer_1" xmlns="http://www.w3.org/2000/svg" xmlns:xlink="http://www.w3.org/1999/xlink" x="0px" y="0px"
	 viewBox="0 0 128 128" style="enable-background:new 0 0 128 128;" xml:space="preserve">
<g>
	<g>
		<path class="st1" d="M48.9,49.6c-1,5.3-2.8,14-3.5,19.2c-0.6-5.3-2.7-13.9-3.8-19.2h-3.1l-2.2,26.6h3.4l1-18.3
			c0.6,5.2,2.4,13.1,3.5,18.3h2.4c0.8-4.5,2.8-13.8,3.4-18.3c0.1,5.3,0.6,13,1,18.3h3.4L52,49.6H48.9z" fill="#fff"/>
		<path class="st1" d="M61.2,49.6l-5.8,26.6h3.4l1-5.2h5.3l1,5.2h3.5L64,49.6H61.2z M60.4,68.2c0.9-4.4,1.7-9.1,2.2-13.5
			c0.5,4.7,1.2,9,2.1,13.5H60.4z" fill="#fff"/>
		<path class="st1" d="M79.6,68.9c-0.2,2.8,0.1,4.1-2.6,4.3c-2.8-0.2-2.4-1.8-2.6-4.8V49.6h-3.5c0,0,0,18.8,0,18.8
			c0,5.4,0.8,7.9,6.1,8.1c5-0.1,6.2-2.3,6.2-7.6V49.6h-3.5C79.6,49.6,79.6,68.9,79.6,68.9z" fill="#fff"/>
		<rect x="85.4" y="49.6" class="st1" width="3.6" height="26.6" fill="#fff"/>
	</g>
</g>
</svg>
