<svg width="360" height="640" viewBox="0 0 360 640" fill="none" xmlns="http://www.w3.org/2000/svg">
<g clip-path="url(#clip0_403_34461)">
<g filter="url(#filter0_f_403_34461)">
<circle cx="180.5" cy="255.5" r="138.5" fill="url(#paint0_radial_403_34461)"/>
</g>
<path d="M199.047 340.756C201.909 354.316 216.157 365.959 217.057 366.489C217.958 367.019 191.263 367.291 191.263 367.291C191.263 367.291 183.416 348.542 186.808 340.279C187.122 339.512 199.047 340.756 199.047 340.756Z" fill="#A08BE8"/>
<path d="M192.381 365.458L215.8 365.573C215.8 365.573 221.243 369.227 222.689 371.863C223.795 373.879 223.718 378.401 223.622 380.42C223.595 380.982 223.129 381.421 222.567 381.421L199.98 381.378C199.255 381.376 198.669 380.787 198.677 380.06C198.701 377.559 198.272 372.236 197.331 370.715C195.922 368.444 192.381 365.458 192.381 365.458Z" fill="#D0C5F3"/>
<path d="M185.278 338.431C180.96 353.507 182.726 377.408 182.907 378.673C183.158 380.425 183.395 381.65 185.886 381.65C188.987 381.65 202.305 381.65 202.305 381.65L195.312 339.403L185.278 338.431Z" fill="#8065E0"/>
<path d="M199.047 340.756C200.091 348.154 207.474 358.55 221.461 369.429C223.097 370.699 223.936 372.044 223.936 373.935V379.991C223.936 380.886 223.209 381.613 222.314 381.613H199.862C199.228 381.613 198.717 381.099 198.717 380.468V373.477C198.717 371.299 198.277 370.18 196.042 368.577C190.447 364.564 186.912 351.03 186.797 341.405C186.683 331.781 199.047 340.756 199.047 340.756Z" fill="#A08BE8"/>
<path d="M223.725 372.449C223.861 372.91 223.936 373.4 223.936 373.938V379.994C223.936 380.888 223.209 381.615 222.313 381.615H199.86C199.225 381.615 198.714 381.101 198.714 380.47V373.48C198.714 373.107 198.701 372.766 198.666 372.449H223.725Z" fill="#D0C5F3"/>
<path d="M174.733 338.431C179.052 353.507 177.286 377.408 177.105 378.673C176.854 380.425 176.617 381.65 174.126 381.65C171.025 381.65 157.707 381.65 157.707 381.65L164.7 339.403L174.733 338.431Z" fill="#8065E0"/>
<path d="M160.962 340.756C159.918 348.154 152.535 358.55 138.548 369.429C136.913 370.699 136.073 372.044 136.073 373.935V379.991C136.073 380.886 136.801 381.613 137.696 381.613H160.147C160.781 381.613 161.293 381.099 161.293 380.468V373.477C161.293 371.299 161.732 370.18 163.967 368.577C169.562 364.564 173.098 351.03 173.212 341.405C173.327 331.781 160.962 340.756 160.962 340.756Z" fill="#A08BE8"/>
<path d="M136.284 372.449C136.148 372.91 136.073 373.4 136.073 373.938V379.994C136.073 380.888 136.801 381.615 137.696 381.615H160.15C160.784 381.615 161.295 381.101 161.295 380.47V373.48C161.295 373.107 161.309 372.766 161.343 372.449H136.284Z" fill="#D0C5F3"/>
<path d="M185.812 291.27L185.847 324.29L197.708 324.279L197.673 291.257L185.812 291.27Z" fill="url(#paint1_linear_403_34461)"/>
<path d="M197.654 309.709H185.782V311.257H197.654V309.709Z" fill="#A08BE8"/>
<path d="M161.424 291.27L161.461 324.29L173.322 324.279L173.285 291.257L161.424 291.27Z" fill="url(#paint2_linear_403_34461)"/>
<path d="M173.266 309.709H161.394V311.257H173.266V309.709Z" fill="#A08BE8"/>
<path d="M110.798 314.103C102.22 308.53 91.8985 296.391 91.054 280.533C90.5398 270.906 93.4597 256.557 110.281 242.882L117.866 252.203C107.655 260.503 102.534 270.08 103.059 279.893C103.626 290.519 110.644 299.67 117.35 304.029L110.798 314.103Z" fill="url(#paint3_linear_403_34461)"/>
<path d="M248.17 249.753L270.978 242.384L267.197 231.146L244.389 238.514L248.17 249.753Z" fill="url(#paint4_linear_403_34461)"/>
<path d="M257.233 234.367L255.917 234.809L259.699 246.046L261.014 245.604L257.233 234.367Z" fill="#A08BE8"/>
<path d="M241.131 256.117C247.269 256.117 252.246 251.143 252.246 245.007C252.246 238.871 247.269 233.896 241.131 233.896C234.992 233.896 230.016 238.871 230.016 245.007C230.016 251.143 234.992 256.117 241.131 256.117Z" fill="url(#paint5_radial_403_34461)"/>
<path d="M118.141 256.117C124.279 256.117 129.256 251.143 129.256 245.007C129.256 238.871 124.279 233.896 118.141 233.896C112.002 233.896 107.026 238.871 107.026 245.007C107.026 251.143 112.002 256.117 118.141 256.117Z" fill="url(#paint6_radial_403_34461)"/>
<path d="M179.87 299.06C213.3 299.06 240.401 271.97 240.401 238.554C240.401 205.138 213.3 178.049 179.87 178.049C146.44 178.049 119.34 205.138 119.34 238.554C119.34 271.97 146.44 299.06 179.87 299.06Z" fill="url(#paint7_radial_403_34461)"/>
<path d="M230.072 238.554C230.072 245.105 228.806 251.361 226.518 257.097C225.964 258.488 224.615 259.398 223.118 259.398H136.623C135.125 259.398 133.777 258.488 133.223 257.097C130.934 251.361 129.669 245.105 129.669 238.554C129.669 235.875 129.885 233.247 130.295 230.682C130.575 228.922 132.117 227.638 133.9 227.638H225.844C227.626 227.638 229.169 228.922 229.448 230.682C229.856 233.249 230.072 235.875 230.072 238.554Z" fill="url(#paint8_radial_403_34461)"/>
<path d="M127.681 269.196H232.059C229.717 273.174 226.93 276.858 223.771 280.186H135.969C132.81 276.858 130.026 273.174 127.681 269.196Z" fill="url(#paint9_radial_403_34461)"/>
<path d="M130.29 230.685C130.569 228.925 132.112 227.641 133.894 227.641H138.114C136.332 227.641 134.789 228.925 134.51 230.685C134.102 233.25 133.884 235.878 133.884 238.557C133.884 243.636 134.651 248.53 136.06 253.148C136.58 254.418 137.952 255.183 139.351 255.183H220.353C221.85 255.183 223.329 254.317 223.752 252.882C224.053 251.859 224.325 250.818 224.573 249.787C225.404 246.176 225.854 242.421 225.854 238.56C225.854 235.881 225.638 233.252 225.228 230.688C224.948 228.927 223.406 227.644 221.624 227.644H225.844C227.626 227.644 229.169 228.927 229.448 230.688C229.856 233.252 230.074 235.881 230.074 238.56C230.074 245.111 228.809 251.366 226.52 257.103C225.966 258.493 224.618 259.404 223.121 259.404H218.901H140.84H136.622H136.617C135.12 259.404 133.772 258.493 133.218 257.103C130.929 251.366 129.664 245.111 129.664 238.56C129.664 235.875 129.882 233.25 130.29 230.685Z" fill="url(#paint10_radial_403_34461)"/>
<path d="M188.643 255.18C188.643 255.18 182.609 250.405 181.429 249.521C180.248 248.637 179.22 248.589 178.141 249.521C177.062 250.453 171.017 255.18 171.017 255.18H188.643Z" fill="#A08BE8"/>
<path d="M278.681 232.664L279.191 204.638L267.332 204.422L266.822 232.448L278.681 232.664Z" fill="#D0C5F3"/>
<path d="M267.085 217.551L267.06 218.938L278.919 219.154L278.944 217.767L267.085 217.551Z" fill="#A08BE8"/>
<path d="M251.316 194.235L264.219 204.984C266.518 206.898 269.936 206.589 271.851 204.291C273.767 201.993 273.458 198.576 271.159 196.661L258.256 185.913C255.957 183.998 252.539 184.307 250.623 186.606C248.708 188.904 249.017 192.318 251.316 194.235Z" fill="#D0C5F3"/>
<path d="M283.808 197.99L288.449 187.697C289.667 184.946 288.422 181.729 285.67 180.512C282.918 179.295 279.7 180.539 278.482 183.29L273.724 193.844L283.808 197.99Z" fill="#D0C5F3"/>
<path d="M281.301 192.427L281.248 176.859C281.227 173.849 278.77 171.429 275.76 171.45C272.749 171.471 270.327 173.927 270.349 176.936L270.351 188.512L281.301 192.427Z" fill="#D0C5F3"/>
<path d="M274.859 194.11L271.268 178.947C270.581 176.017 267.647 174.201 264.717 174.888C261.786 175.575 259.969 178.507 260.657 181.437L264.312 196.88L274.859 194.11Z" fill="#D0C5F3"/>
<path d="M272.837 208.437C279.138 208.437 284.245 203.332 284.245 197.034C284.245 190.736 279.138 185.631 272.837 185.631C266.537 185.631 261.429 190.736 261.429 197.034C261.429 203.332 266.537 208.437 272.837 208.437Z" fill="url(#paint11_radial_403_34461)"/>
<path d="M265.988 231.55L270.978 242.384C270.978 242.384 278.334 240.45 278.677 232.671C271.106 231.292 266.848 230.517 266.848 230.517L265.988 231.55Z" fill="#A08BE8"/>
<path d="M198.107 323.853H186.547C184.623 323.853 183.062 325.414 183.062 327.336V339.31C183.062 341.232 184.623 342.793 186.547 342.793H198.107C200.03 342.793 201.591 341.232 201.591 339.31V327.336C201.591 325.414 200.03 323.853 198.107 323.853Z" fill="url(#paint12_radial_403_34461)"/>
<path d="M130.375 298.727L113.726 296.511C110.759 296.117 108.033 298.199 107.639 301.166C107.244 304.133 109.328 306.857 112.296 307.251L128.944 309.467C131.912 309.861 134.638 307.779 135.032 304.812C135.426 301.845 133.34 299.121 130.375 298.727Z" fill="#D0C5F3"/>
<path d="M100.882 312.868L102.446 324.047C102.883 327.025 105.651 329.081 108.63 328.644C111.608 328.207 113.665 325.44 113.228 322.463L111.624 310.998L100.882 312.868Z" fill="#D0C5F3"/>
<path d="M105.974 316.237L114.323 329.379C115.946 331.912 119.316 332.652 121.852 331.027C124.386 329.406 125.127 326.037 123.501 323.502L117.323 313.712L105.974 316.237Z" fill="#D0C5F3"/>
<path d="M110.524 311.379L121.65 322.292C123.794 324.404 127.244 324.378 129.357 322.234C131.47 320.09 131.443 316.641 129.299 314.53L117.968 303.411L110.524 311.379Z" fill="#D0C5F3"/>
<path d="M110.673 319.23C116.974 319.23 122.081 314.124 122.081 307.827C122.081 301.529 116.974 296.423 110.673 296.423C104.373 296.423 99.2651 301.529 99.2651 307.827C99.2651 314.124 104.373 319.23 110.673 319.23Z" fill="url(#paint13_radial_403_34461)"/>
<path d="M158.346 248.801C160.961 248.762 163.027 245.168 162.961 240.774C162.896 236.379 160.723 232.849 158.109 232.888C155.495 232.927 153.428 236.52 153.494 240.915C153.559 245.309 155.732 248.84 158.346 248.801Z" fill="#512BD4"/>
<path d="M205.715 240.878C205.78 236.484 203.714 232.89 201.099 232.851C198.485 232.812 196.313 236.343 196.247 240.737C196.182 245.131 198.248 248.725 200.862 248.764C203.477 248.803 205.649 245.272 205.715 240.878Z" fill="#512BD4"/>
<path d="M158.189 236.858C156.46 238.586 156.46 241.388 158.189 243.116C159.367 244.293 161.042 244.666 162.537 244.24C162.825 243.188 162.982 242.014 162.963 240.77C162.934 238.775 162.468 236.965 161.724 235.577C160.459 235.465 159.156 235.891 158.189 236.858Z" fill="#8065E0"/>
<path d="M200.92 236.6C199.191 238.328 199.191 241.13 200.92 242.858C202.105 244.043 203.792 244.413 205.294 243.976C205.55 243.026 205.697 241.982 205.715 240.879C205.747 238.725 205.265 236.765 204.458 235.322C203.195 235.207 201.89 235.63 200.92 236.6Z" fill="#8065E0"/>
<path d="M185.635 174.803H173.939L175.589 162.797H183.986L185.635 174.803Z" fill="#D0C5F3"/>
<path d="M179.849 165.205C185.983 165.205 190.956 160.234 190.956 154.102C190.956 147.971 185.983 143 179.849 143C173.715 143 168.742 147.971 168.742 154.102C168.742 160.234 173.715 165.205 179.849 165.205Z" fill="url(#paint14_radial_403_34461)"/>
<path d="M190.109 182.139C190.636 182.139 191.057 181.684 190.999 181.159C190.381 175.609 185.673 171.292 179.956 171.292C174.238 171.292 169.531 175.609 168.913 181.159C168.854 181.684 169.275 182.139 169.802 182.139H190.109Z" fill="url(#paint15_radial_403_34461)"/>
<path d="M189.712 264.799H170.183V284.319H189.712V264.799Z" fill="#512BD4"/>
<path d="M173.662 277.27C173.524 277.27 173.407 277.225 173.311 277.132C173.215 277.039 173.167 276.927 173.167 276.796C173.167 276.663 173.215 276.551 173.311 276.455C173.407 276.362 173.524 276.314 173.662 276.314C173.804 276.314 173.921 276.362 174.017 276.455C174.115 276.549 174.166 276.663 174.166 276.796C174.166 276.927 174.115 277.039 174.017 277.132C173.924 277.225 173.804 277.27 173.662 277.27Z" fill="white"/>
<path d="M179.183 277.193H178.285L175.919 273.465C175.861 273.372 175.81 273.273 175.77 273.172H175.749C175.767 273.281 175.775 273.513 175.775 273.87V277.196H174.981V272.123H175.938L178.224 275.763C178.32 275.915 178.384 276.019 178.41 276.075H178.424C178.4 275.941 178.389 275.712 178.389 275.393V272.123H179.18V277.193H179.183Z" fill="white"/>
<path d="M183.051 277.193H180.272V272.12H182.942V272.834H181.096V274.269H182.798V274.98H181.096V276.479H183.054V277.193H183.051Z" fill="white"/>
<path d="M187 272.834H185.577V277.193H184.756V272.834H183.336V272.12H187V272.834Z" fill="white"/>
<path d="M173.601 323.853H162.041C160.118 323.853 158.557 325.414 158.557 327.336V339.31C158.557 341.232 160.118 342.793 162.041 342.793H173.601C175.525 342.793 177.086 341.232 177.086 339.31V327.336C177.086 325.414 175.525 323.853 173.601 323.853Z" fill="url(#paint16_radial_403_34461)"/>
<path d="M126.386 245.774C127.519 245.822 128.523 246.626 128.774 247.787C132.962 267.089 148.086 282.49 167.306 287.025C168.681 287.35 169.533 288.727 169.208 290.101C168.883 291.475 167.506 292.327 166.131 292.002C145.004 287.02 128.379 270.088 123.776 248.874C123.477 247.494 124.354 246.133 125.734 245.832C125.952 245.782 126.171 245.763 126.386 245.774Z" fill="url(#paint17_radial_403_34461)"/>
<path d="M232.019 229.894C230.887 229.846 229.882 229.042 229.632 227.881C225.444 208.578 210.319 193.178 191.1 188.643C189.725 188.318 188.873 186.941 189.198 185.567C189.523 184.193 190.9 183.34 192.275 183.665C213.402 188.648 230.026 205.58 234.63 226.794C234.928 228.173 234.052 229.534 232.672 229.835C232.453 229.886 232.232 229.904 232.019 229.894Z" fill="url(#paint18_radial_403_34461)"/>
<path d="M105.164 288.873L94.2373 293.485L94.7773 294.763L105.704 290.151L105.164 288.873Z" fill="#A08BE8"/>
<path d="M99.4216 254.34L98.6411 255.488L108.449 262.154L109.23 261.007L99.4216 254.34Z" fill="#A08BE8"/>
<path opacity="0.5" fill-rule="evenodd" clip-rule="evenodd" d="M106.4 589H127.6C128.4 589 129 589.6 129 590.4V591.5C129 592.3 128.4 592.5 128.1 592.5C116.7 593.9 109.2 598.7 105 603.1V590.4C105 589.6 105.6 589 106.4 589ZM136.5 592.8C137.7 592.5 139.3 592.4 140.9 592.4C143.7 592.4 145.6 592.9 147 594.1C148.6 595.5 149.5 597.5 149.5 600.6C149.5 604.2 148.3 606.3 147 607.5C145.5 608.9 143.1 609.6 140.2 609.6C138.6 609.6 137.4 609.5 136.5 609.4V592.8ZM139.7 606.8C140.1 606.9 140.6 606.9 141 606.9C144.1 607 146.2 605 146.1 600.6C146.1 596.8 144.2 594.9 141.2 594.9C140.6 594.9 140.1 594.9 139.7 595V606.8ZM151.2 603.4C151.2 599.9 153.2 596.9 156.8 596.9C159.8 596.9 161.7 599 161.7 603C161.7 603.5 161.7 603.9 161.6 604.3H154.3C154.3 606.4 155.8 607.2 157.6 607.2C158.8 607.2 159.8 607 160.6 606.7L161.1 608.9C160 609.3 158.6 609.6 157.1 609.6C153.4 609.6 151.2 607.2 151.2 603.4ZM156.6 599.2C155 599.2 154.4 600.8 154.3 602H158.7C158.7 600.8 158.2 599.2 156.6 599.2ZM170.8 597.1L169.3 603C169 604.1 168.8 605.1 168.6 606.1H168.5C168.3 605 168.1 604 167.8 603L166.2 597.1H162.7L166.8 609.3H170L174.2 597.1H170.8ZM184.8 601.9H179.2V606.6H185.4V609.4H176V592.5H185.1V595.2H179.2V599.3H184.8V601.9ZM197.7 597.1H194.3L193.2 599.3C192.9 599.9 192.6 600.6 192.3 601.299L192.3 601.3C192.15 601 192 600.675 191.85 600.35C191.7 600.025 191.55 599.7 191.4 599.4L190.2 597.2H186.6L190.2 603.2L186.5 609.4H190L191 607C191.15 606.7 191.3 606.375 191.45 606.05C191.6 605.725 191.75 605.4 191.9 605.1C192.2 605.8 192.5 606.4 192.8 607L194 609.4H197.6L194.1 603L197.7 597.1ZM202.4 598.8C203.2 597.6 204.4 596.9 206 596.9C208.6 596.9 210.6 599.4 210.6 603C210.6 607.5 208.1 609.5 205.6 609.5C204.3 609.5 203.2 608.9 202.7 608.1V614.2H199.5V601.1C199.5 600.226 199.47 599.442 199.443 598.731V598.73V598.73V598.73V598.73V598.729V598.729V598.729L199.443 598.728C199.42 598.138 199.4 597.599 199.4 597.1H202.2L202.4 598.8ZM202.6 604.5C202.6 606.2 203.7 607.1 204.8 607.1C206.5 607.1 207.3 605.4 207.2 603.3C207.2 601.1 206.4 599.5 204.8 599.5C203.6 599.5 202.6 600.7 202.6 602.2V604.5ZM215.8 599.3L215.6 597.2H212.8C212.8 597.707 212.821 598.236 212.844 598.806L212.844 598.806C212.871 599.471 212.9 600.192 212.9 601V609.4H216.2V603C216.2 600.9 217.3 599.9 218.8 599.9C219.1 599.9 219.4 599.9 219.6 600V596.9C219.51 596.9 219.42 596.88 219.321 596.858C219.2 596.83 219.065 596.8 218.9 596.8C217.7 596.9 216.4 597.7 215.8 599.3ZM220.7 603.4C220.7 599.9 222.7 596.9 226.3 596.9C229.3 596.9 231.2 599 231.2 603C231.2 603.5 231.2 603.9 231.1 604.3H223.8C223.9 606.4 225.3 607.2 227.1 607.2C228.3 607.2 229.3 607 230.1 606.7L230.6 608.9C229.5 609.3 228.1 609.6 226.6 609.6C222.9 609.6 220.7 607.2 220.7 603.4ZM226.1 599.2C224.5 599.2 223.9 600.8 223.8 602H228.2C228.2 600.8 227.7 599.2 226.1 599.2ZM238 602C236.6 601.4 236.1 601.1 236.1 600.4C236.1 599.7 236.6 599.2 237.6 599.2C238.5 599.2 239.4 599.5 239.9 599.8L240.5 597.5C239.8 597.1 238.7 596.8 237.5 596.8C234.8 596.8 233 598.5 233 600.7C233 602 233.8 603.3 236.1 604.3C237.4 604.9 237.9 605.3 237.9 606C237.9 606.7 237.4 607.2 236.2 607.2C235.2 607.2 234 606.8 233.3 606.4L232.7 608.7C233.5 609.2 234.8 609.5 236.1 609.5C239.2 609.5 240.9 608 240.9 605.6C241 604 240 602.8 238 602ZM245.8 600.4C245.8 601.1 246.3 601.4 247.7 602C249.8 602.8 250.7 604 250.6 605.6C250.6 608 248.9 609.5 245.8 609.5C244.5 609.5 243.2 609.2 242.4 608.7L243 606.4C243.7 606.8 244.9 607.2 245.9 607.2C247.1 607.2 247.6 606.7 247.6 606C247.6 605.3 247.1 604.9 245.8 604.3C243.5 603.3 242.7 602 242.7 600.7C242.7 598.5 244.5 596.8 247.2 596.8C248.4 596.8 249.5 597.1 250.2 597.5L249.6 599.8C249.1 599.5 248.2 599.2 247.3 599.2C246.3 599.2 245.8 599.7 245.8 600.4ZM106.422 608.567L106.422 608.567C105.946 609.193 105.552 609.711 105.3 610.3C105.2 610.4 105 610.9 105 611.2V611.6C105 612.4 105.6 613 106.4 613H127.6C128.4 613 129 612.4 129 611.6V595.3C117.4 597.3 110.3 603.6 106.7 608.2C106.605 608.327 106.513 608.448 106.423 608.566L106.422 608.567ZM253.9 596.4C254.3 596.3 254.4 596.1 254.4 595.8C254.4 595.6 254.3 595.4 254.2 595.3C254.1 595.2 253.8 595.1 253.6 595.1H252.9V597.3H253.3V596.4H253.5C253.6 596.4 253.7 596.5 253.8 596.7L254 597.3H254.5L254.2 596.7L253.9 596.4ZM253.5 596.2H253.2V595.6H253.5C253.8 595.6 253.9 595.7 253.9 595.9C253.9 596 253.9 596.1 253.8 596.1C253.8 596.2 253.7 596.2 253.5 596.2ZM253.6 594.6C254.1 594.6 254.6 594.8 254.9 595.1C255.2 595.4 255.4 595.8 255.4 596.4C255.4 596.9 255.3 597.4 254.9 597.7C254.5 598 254.1 598.2 253.6 598.2C253.1 598.2 252.6 598 252.3 597.7C252 597.3 251.8 596.9 251.8 596.4C251.8 595.9 251.9 595.4 252.3 595.1C252.6 594.8 253.1 594.6 253.6 594.6ZM253.5 597.8C253.9 597.8 254.3 597.7 254.6 597.4C254.9 597.1 255.1 596.8 255 596.3C255 595.9 254.9 595.5 254.6 595.2C254.3 594.9 253.9 594.8 253.5 594.8C253.1 594.8 252.7 594.9 252.4 595.2C252.1 595.5 252 595.9 252 596.3C252 596.7 252.1 597.1 252.4 597.4C252.7 597.7 253.1 597.8 253.5 597.8Z" fill="white"/>
<path d="M19.7012 445.68C19.7012 445.087 19.8451 444.668 20.1328 444.423C20.4206 444.169 20.7718 444.042 21.1865 444.042C21.6182 444.042 21.9821 444.169 22.2783 444.423C22.5745 444.668 22.7227 445.087 22.7227 445.68C22.7227 446.264 22.5745 446.691 22.2783 446.962C21.9821 447.224 21.6182 447.355 21.1865 447.355C20.7718 447.355 20.4206 447.224 20.1328 446.962C19.8451 446.691 19.7012 446.264 19.7012 445.68ZM41.6768 447H39.1885L29.0703 431.41H28.9688C28.9941 431.825 29.0238 432.299 29.0576 432.832C29.0915 433.357 29.1169 433.92 29.1338 434.521C29.1592 435.113 29.1719 435.718 29.1719 436.336V447H27.166V428.439H29.6416L39.7217 443.979H39.8105C39.7936 443.682 39.7725 443.263 39.7471 442.722C39.7217 442.172 39.6963 441.583 39.6709 440.957C39.654 440.322 39.6455 439.734 39.6455 439.192V428.439H41.6768V447ZM57.0762 447H46.7422V428.439H57.0762V430.344H48.9004V436.349H56.6064V438.228H48.9004V445.096H57.0762V447ZM66.8896 447H64.7188V430.344H58.8789V428.439H72.7041V430.344H66.8896V447ZM90.4268 447L84.1934 430.572H84.0918C84.1257 430.919 84.1553 431.342 84.1807 431.842C84.2061 432.341 84.2272 432.887 84.2441 433.479C84.2611 434.063 84.2695 434.66 84.2695 435.27V447H82.2637V428.439H85.4629L91.3408 443.877H91.4297L97.3965 428.439H100.57V447H98.4375V435.117C98.4375 434.567 98.446 434.017 98.4629 433.467C98.4798 432.908 98.501 432.383 98.5264 431.893C98.5518 431.393 98.5771 430.962 98.6025 430.598H98.501L92.1914 447H90.4268ZM116.82 433.086V447H115.094L114.789 445.045H114.675C114.387 445.527 114.015 445.934 113.558 446.264C113.101 446.594 112.584 446.839 112.009 447C111.442 447.169 110.837 447.254 110.193 447.254C109.093 447.254 108.171 447.076 107.426 446.721C106.681 446.365 106.118 445.815 105.737 445.07C105.365 444.326 105.179 443.369 105.179 442.201V433.086H107.312V442.049C107.312 443.208 107.574 444.076 108.099 444.651C108.623 445.218 109.423 445.502 110.498 445.502C111.531 445.502 112.352 445.307 112.961 444.918C113.579 444.529 114.023 443.957 114.294 443.204C114.565 442.442 114.7 441.511 114.7 440.411V433.086H116.82ZM123.396 447H121.276V427.246H123.396V447ZM132.347 445.527C132.694 445.527 133.049 445.498 133.413 445.438C133.777 445.379 134.073 445.307 134.302 445.223V446.86C134.056 446.97 133.714 447.063 133.273 447.14C132.842 447.216 132.419 447.254 132.004 447.254C131.268 447.254 130.599 447.127 129.998 446.873C129.397 446.611 128.915 446.171 128.551 445.553C128.195 444.935 128.018 444.08 128.018 442.988V434.736H126.037V433.708L128.03 432.883L128.868 429.861H130.138V433.086H134.213V434.736H130.138V442.925C130.138 443.797 130.337 444.448 130.734 444.88C131.141 445.312 131.678 445.527 132.347 445.527ZM139.228 433.086V447H137.12V433.086H139.228ZM138.199 427.881C138.546 427.881 138.842 427.995 139.088 428.224C139.342 428.444 139.469 428.791 139.469 429.265C139.469 429.73 139.342 430.077 139.088 430.306C138.842 430.534 138.546 430.648 138.199 430.648C137.835 430.648 137.531 430.534 137.285 430.306C137.048 430.077 136.93 429.73 136.93 429.265C136.93 428.791 137.048 428.444 137.285 428.224C137.531 427.995 137.835 427.881 138.199 427.881ZM142.516 440.957V439.078H148.812V440.957H142.516ZM158.613 432.832C160.348 432.832 161.732 433.429 162.765 434.622C163.797 435.815 164.313 437.61 164.313 440.005C164.313 441.588 164.076 442.916 163.603 443.991C163.129 445.066 162.46 445.879 161.597 446.429C160.742 446.979 159.73 447.254 158.562 447.254C157.826 447.254 157.179 447.157 156.62 446.962C156.062 446.767 155.583 446.505 155.186 446.175C154.788 445.845 154.458 445.485 154.195 445.096H154.043C154.068 445.426 154.098 445.824 154.132 446.289C154.174 446.755 154.195 447.161 154.195 447.508V453.221H152.075V433.086H153.814L154.094 435.143H154.195C154.466 434.719 154.796 434.334 155.186 433.987C155.575 433.632 156.049 433.353 156.607 433.149C157.174 432.938 157.843 432.832 158.613 432.832ZM158.245 434.609C157.28 434.609 156.502 434.796 155.909 435.168C155.325 435.54 154.898 436.099 154.627 436.844C154.356 437.58 154.212 438.507 154.195 439.624V440.03C154.195 441.207 154.322 442.201 154.576 443.014C154.839 443.826 155.266 444.444 155.858 444.867C156.459 445.29 157.263 445.502 158.271 445.502C159.134 445.502 159.853 445.269 160.429 444.804C161.004 444.338 161.432 443.691 161.711 442.861C161.999 442.023 162.143 441.063 162.143 439.979C162.143 438.338 161.821 437.034 161.178 436.069C160.543 435.096 159.565 434.609 158.245 434.609ZM170.115 447H167.995V427.246H170.115V447ZM179.776 432.857C181.435 432.857 182.667 433.23 183.471 433.975C184.275 434.719 184.677 435.909 184.677 437.542V447H183.141L182.734 444.943H182.633C182.243 445.451 181.837 445.879 181.414 446.226C180.991 446.564 180.5 446.822 179.941 447C179.391 447.169 178.714 447.254 177.91 447.254C177.064 447.254 176.311 447.106 175.65 446.81C174.999 446.513 174.482 446.065 174.102 445.464C173.729 444.863 173.543 444.101 173.543 443.179C173.543 441.791 174.093 440.724 175.193 439.979C176.294 439.235 177.969 438.828 180.221 438.761L182.62 438.659V437.809C182.62 436.607 182.362 435.765 181.846 435.282C181.329 434.8 180.602 434.559 179.662 434.559C178.934 434.559 178.24 434.664 177.58 434.876C176.92 435.088 176.294 435.337 175.701 435.625L175.054 434.025C175.68 433.704 176.399 433.429 177.212 433.2C178.024 432.972 178.879 432.857 179.776 432.857ZM182.595 440.145L180.475 440.233C178.74 440.301 177.517 440.585 176.806 441.084C176.095 441.583 175.739 442.29 175.739 443.204C175.739 444 175.98 444.588 176.463 444.969C176.945 445.35 177.584 445.54 178.38 445.54C179.616 445.54 180.627 445.197 181.414 444.512C182.201 443.826 182.595 442.798 182.595 441.427V440.145ZM193.513 445.527C193.86 445.527 194.215 445.498 194.579 445.438C194.943 445.379 195.239 445.307 195.468 445.223V446.86C195.222 446.97 194.88 447.063 194.439 447.14C194.008 447.216 193.585 447.254 193.17 447.254C192.434 447.254 191.765 447.127 191.164 446.873C190.563 446.611 190.081 446.171 189.717 445.553C189.361 444.935 189.184 444.08 189.184 442.988V434.736H187.203V433.708L189.196 432.883L190.034 429.861H191.304V433.086H195.379V434.736H191.304V442.925C191.304 443.797 191.503 444.448 191.9 444.88C192.307 445.312 192.844 445.527 193.513 445.527ZM204.481 434.736H201.016V447H198.908V434.736H196.445V433.721L198.908 433.022V432.096C198.908 430.928 199.082 429.98 199.429 429.252C199.776 428.516 200.279 427.974 200.939 427.627C201.6 427.28 202.404 427.106 203.352 427.106C203.885 427.106 204.371 427.153 204.812 427.246C205.26 427.339 205.654 427.445 205.992 427.563L205.446 429.227C205.159 429.133 204.833 429.049 204.469 428.973C204.113 428.888 203.749 428.846 203.377 428.846C202.573 428.846 201.976 429.108 201.587 429.633C201.206 430.149 201.016 430.962 201.016 432.07V433.086H204.481V434.736ZM219.043 440.018C219.043 441.16 218.895 442.18 218.599 443.077C218.302 443.974 217.875 444.732 217.316 445.35C216.758 445.967 216.081 446.441 215.285 446.771C214.498 447.093 213.605 447.254 212.606 447.254C211.675 447.254 210.821 447.093 210.042 446.771C209.272 446.441 208.603 445.967 208.036 445.35C207.478 444.732 207.042 443.974 206.729 443.077C206.424 442.18 206.271 441.16 206.271 440.018C206.271 438.494 206.53 437.199 207.046 436.133C207.562 435.058 208.299 434.241 209.255 433.683C210.22 433.116 211.367 432.832 212.695 432.832C213.965 432.832 215.074 433.116 216.021 433.683C216.978 434.25 217.718 435.071 218.243 436.146C218.776 437.212 219.043 438.503 219.043 440.018ZM208.455 440.018C208.455 441.135 208.603 442.104 208.899 442.925C209.196 443.746 209.653 444.381 210.271 444.829C210.888 445.278 211.684 445.502 212.657 445.502C213.622 445.502 214.413 445.278 215.031 444.829C215.658 444.381 216.119 443.746 216.415 442.925C216.711 442.104 216.859 441.135 216.859 440.018C216.859 438.909 216.711 437.952 216.415 437.148C216.119 436.336 215.662 435.71 215.044 435.27C214.426 434.829 213.626 434.609 212.645 434.609C211.197 434.609 210.135 435.088 209.458 436.044C208.789 437 208.455 438.325 208.455 440.018ZM229.009 432.832C229.288 432.832 229.58 432.849 229.885 432.883C230.189 432.908 230.46 432.946 230.697 432.997L230.431 434.952C230.202 434.893 229.948 434.846 229.669 434.812C229.39 434.779 229.127 434.762 228.882 434.762C228.323 434.762 227.794 434.876 227.295 435.104C226.804 435.325 226.372 435.646 226 436.069C225.628 436.484 225.336 436.988 225.124 437.58C224.912 438.164 224.807 438.816 224.807 439.535V447H222.687V433.086H224.438L224.667 435.65H224.756C225.044 435.134 225.391 434.664 225.797 434.241C226.203 433.81 226.673 433.467 227.206 433.213C227.748 432.959 228.349 432.832 229.009 432.832ZM248.433 432.832C249.965 432.832 251.12 433.234 251.898 434.038C252.677 434.834 253.066 436.116 253.066 437.885V447H250.984V437.986C250.984 436.861 250.739 436.019 250.248 435.46C249.766 434.893 249.046 434.609 248.09 434.609C246.744 434.609 245.767 434.999 245.157 435.777C244.548 436.556 244.243 437.703 244.243 439.218V447H242.148V437.986C242.148 437.233 242.038 436.607 241.818 436.107C241.607 435.608 241.285 435.236 240.854 434.99C240.43 434.736 239.893 434.609 239.241 434.609C238.319 434.609 237.578 434.8 237.02 435.181C236.461 435.562 236.055 436.129 235.801 436.882C235.555 437.627 235.433 438.545 235.433 439.637V447H233.325V433.086H235.026L235.344 435.054H235.458C235.737 434.571 236.089 434.165 236.512 433.835C236.935 433.505 237.409 433.255 237.934 433.086C238.458 432.917 239.017 432.832 239.609 432.832C240.667 432.832 241.552 433.031 242.263 433.429C242.982 433.818 243.503 434.415 243.824 435.219H243.938C244.396 434.415 245.022 433.818 245.817 433.429C246.613 433.031 247.485 432.832 248.433 432.832ZM276.108 447L273.823 441.109H266.384L264.111 447H261.928L269.189 428.363H271.132L278.343 447H276.108ZM273.176 439.192L271.005 433.34C270.954 433.188 270.869 432.938 270.751 432.591C270.641 432.244 270.527 431.884 270.408 431.512C270.29 431.139 270.192 430.839 270.116 430.61C270.032 430.957 269.938 431.304 269.837 431.651C269.744 431.99 269.651 432.307 269.558 432.604C269.465 432.891 269.384 433.137 269.316 433.34L267.107 439.192H273.176ZM287.141 432.832C288.876 432.832 290.259 433.429 291.292 434.622C292.325 435.815 292.841 437.61 292.841 440.005C292.841 441.588 292.604 442.916 292.13 443.991C291.656 445.066 290.987 445.879 290.124 446.429C289.269 446.979 288.258 447.254 287.09 447.254C286.354 447.254 285.706 447.157 285.147 446.962C284.589 446.767 284.111 446.505 283.713 446.175C283.315 445.845 282.985 445.485 282.723 445.096H282.57C282.596 445.426 282.625 445.824 282.659 446.289C282.701 446.755 282.723 447.161 282.723 447.508V453.221H280.603V433.086H282.342L282.621 435.143H282.723C282.993 434.719 283.324 434.334 283.713 433.987C284.102 433.632 284.576 433.353 285.135 433.149C285.702 432.938 286.37 432.832 287.141 432.832ZM286.772 434.609C285.808 434.609 285.029 434.796 284.437 435.168C283.853 435.54 283.425 436.099 283.154 436.844C282.883 437.58 282.74 438.507 282.723 439.624V440.03C282.723 441.207 282.85 442.201 283.104 443.014C283.366 443.826 283.793 444.444 284.386 444.867C284.987 445.29 285.791 445.502 286.798 445.502C287.661 445.502 288.381 445.269 288.956 444.804C289.532 444.338 289.959 443.691 290.238 442.861C290.526 442.023 290.67 441.063 290.67 439.979C290.67 438.338 290.348 437.034 289.705 436.069C289.07 435.096 288.093 434.609 286.772 434.609ZM303.061 432.832C304.796 432.832 306.179 433.429 307.212 434.622C308.244 435.815 308.761 437.61 308.761 440.005C308.761 441.588 308.524 442.916 308.05 443.991C307.576 445.066 306.907 445.879 306.044 446.429C305.189 446.979 304.178 447.254 303.01 447.254C302.273 447.254 301.626 447.157 301.067 446.962C300.509 446.767 300.031 446.505 299.633 446.175C299.235 445.845 298.905 445.485 298.643 445.096H298.49C298.516 445.426 298.545 445.824 298.579 446.289C298.621 446.755 298.643 447.161 298.643 447.508V453.221H296.522V433.086H298.262L298.541 435.143H298.643C298.913 434.719 299.243 434.334 299.633 433.987C300.022 433.632 300.496 433.353 301.055 433.149C301.622 432.938 302.29 432.832 303.061 432.832ZM302.692 434.609C301.728 434.609 300.949 434.796 300.356 435.168C299.772 435.54 299.345 436.099 299.074 436.844C298.803 437.58 298.66 438.507 298.643 439.624V440.03C298.643 441.207 298.77 442.201 299.023 443.014C299.286 443.826 299.713 444.444 300.306 444.867C300.907 445.29 301.711 445.502 302.718 445.502C303.581 445.502 304.3 445.269 304.876 444.804C305.451 444.338 305.879 443.691 306.158 442.861C306.446 442.023 306.59 441.063 306.59 439.979C306.59 438.338 306.268 437.034 305.625 436.069C304.99 435.096 304.013 434.609 302.692 434.609ZM333.555 428.439V440.449C333.555 441.761 333.288 442.929 332.755 443.953C332.23 444.977 331.435 445.785 330.368 446.378C329.302 446.962 327.965 447.254 326.356 447.254C324.063 447.254 322.315 446.632 321.113 445.388C319.92 444.144 319.323 442.48 319.323 440.398V428.439H321.494V440.462C321.494 442.036 321.909 443.251 322.738 444.105C323.576 444.96 324.825 445.388 326.483 445.388C327.618 445.388 328.544 445.185 329.264 444.778C329.992 444.364 330.529 443.788 330.876 443.052C331.231 442.307 331.409 441.448 331.409 440.475V428.439H333.555ZM338.48 447V428.439H340.639V447H338.48Z" fill="white"/>
</g>
<defs>
<filter id="filter0_f_403_34461" x="-58" y="17" width="477" height="477" filterUnits="userSpaceOnUse" color-interpolation-filters="sRGB">
<feFlood flood-opacity="0" result="BackgroundImageFix"/>
<feBlend mode="normal" in="SourceGraphic" in2="BackgroundImageFix" result="shape"/>
<feGaussianBlur stdDeviation="50" result="effect1_foregroundBlur_403_34461"/>
</filter>
<radialGradient id="paint0_radial_403_34461" cx="0" cy="0" r="1" gradientUnits="userSpaceOnUse" gradientTransform="translate(180.5 255.5) rotate(90) scale(138.5)">
<stop stop-color="#9E89E8"/>
<stop offset="1" stop-color="#7615EA" stop-opacity="0"/>
</radialGradient>
<linearGradient id="paint1_linear_403_34461" x1="191.76" y1="291.258" x2="191.76" y2="324.291" gradientUnits="userSpaceOnUse">
<stop offset="0.2368" stop-color="#958FE7"/>
<stop offset="0.4881" stop-color="#BBB7EF"/>
</linearGradient>
<linearGradient id="paint2_linear_403_34461" x1="167.373" y1="291.258" x2="167.373" y2="324.291" gradientUnits="userSpaceOnUse">
<stop offset="0.2368" stop-color="#958FE7"/>
<stop offset="0.4881" stop-color="#BBB7EF"/>
</linearGradient>
<linearGradient id="paint3_linear_403_34461" x1="124.404" y1="251.032" x2="93.7002" y2="304.235" gradientUnits="userSpaceOnUse">
<stop offset="0.1197" stop-color="#958FE7"/>
<stop offset="0.2551" stop-color="#BBB7EF"/>
</linearGradient>
<linearGradient id="paint4_linear_403_34461" x1="246.292" y1="244.593" x2="269.073" y2="236.298" gradientUnits="userSpaceOnUse">
<stop offset="0.1918" stop-color="#958FE7"/>
<stop offset="0.4956" stop-color="#BBB7EF"/>
</linearGradient>
<radialGradient id="paint5_radial_403_34461" cx="0" cy="0" r="1" gradientUnits="userSpaceOnUse" gradientTransform="translate(245.425 237.106) scale(21.2351 21.2263)">
<stop stop-color="#8065E0"/>
<stop offset="1" stop-color="#512BD4"/>
</radialGradient>
<radialGradient id="paint6_radial_403_34461" cx="0" cy="0" r="1" gradientUnits="userSpaceOnUse" gradientTransform="translate(112.354 238.519) scale(18.7521 18.7443)">
<stop stop-color="#8065E0"/>
<stop offset="1" stop-color="#512BD4"/>
</radialGradient>
<radialGradient id="paint7_radial_403_34461" cx="0" cy="0" r="1" gradientUnits="userSpaceOnUse" gradientTransform="translate(195.581 201.942) scale(82.3555 82.3213)">
<stop offset="0.186" stop-color="#A08BE8"/>
<stop offset="0.7272" stop-color="#8065E0"/>
</radialGradient>
<radialGradient id="paint8_radial_403_34461" cx="0" cy="0" r="1" gradientUnits="userSpaceOnUse" gradientTransform="translate(141.174 221.209) scale(70.1068 70.0777)">
<stop offset="0.0933" stop-color="#E1DFDD"/>
<stop offset="0.6573" stop-color="white"/>
</radialGradient>
<radialGradient id="paint9_radial_403_34461" cx="0" cy="0" r="1" gradientUnits="userSpaceOnUse" gradientTransform="translate(132.263 273.624) scale(37.1072 37.0918)">
<stop offset="0.4614" stop-color="#A08BE8"/>
<stop offset="0.5268" stop-color="#A793EA"/>
<stop offset="0.8352" stop-color="#C5B7F0"/>
<stop offset="1" stop-color="#D0C5F3"/>
</radialGradient>
<radialGradient id="paint10_radial_403_34461" cx="0" cy="0" r="1" gradientUnits="userSpaceOnUse" gradientTransform="translate(167.28 247.856) scale(50.5272 50.5062)">
<stop stop-color="#512BD4"/>
<stop offset="0.4098" stop-color="#6645D9"/>
<stop offset="0.7102" stop-color="#7659DD"/>
<stop offset="0.9583" stop-color="#8065E0"/>
</radialGradient>
<radialGradient id="paint11_radial_403_34461" cx="0" cy="0" r="1" gradientUnits="userSpaceOnUse" gradientTransform="translate(272.407 189.609) scale(22.7499 22.7404)">
<stop stop-color="#A08BE8"/>
<stop offset="0.9913" stop-color="#8065E0"/>
</radialGradient>
<radialGradient id="paint12_radial_403_34461" cx="0" cy="0" r="1" gradientUnits="userSpaceOnUse" gradientTransform="translate(192.443 326.874) scale(15.3042 15.2978)">
<stop stop-color="#8065E0"/>
<stop offset="0.8778" stop-color="#512BD4"/>
</radialGradient>
<radialGradient id="paint13_radial_403_34461" cx="0" cy="0" r="1" gradientUnits="userSpaceOnUse" gradientTransform="translate(110.25 299.663) scale(20.1459 20.1375)">
<stop offset="0.0841" stop-color="#A08BE8"/>
<stop offset="1" stop-color="#8065E0"/>
</radialGradient>
<radialGradient id="paint14_radial_403_34461" cx="0" cy="0" r="1" gradientUnits="userSpaceOnUse" gradientTransform="translate(180.414 147.725) scale(24.2612 24.2511)">
<stop offset="0.1717" stop-color="#A08BE8"/>
<stop offset="0.9987" stop-color="#8065E0"/>
</radialGradient>
<radialGradient id="paint15_radial_403_34461" cx="0" cy="0" r="1" gradientUnits="userSpaceOnUse" gradientTransform="translate(180.332 174.13) scale(14.7038 14.6977)">
<stop stop-color="#8065E0"/>
<stop offset="1" stop-color="#512BD4"/>
</radialGradient>
<radialGradient id="paint16_radial_403_34461" cx="0" cy="0" r="1" gradientUnits="userSpaceOnUse" gradientTransform="translate(166.622 324.513) scale(16.3049 16.2981)">
<stop stop-color="#8065E0"/>
<stop offset="1" stop-color="#512BD4"/>
</radialGradient>
<radialGradient id="paint17_radial_403_34461" cx="0" cy="0" r="1" gradientUnits="userSpaceOnUse" gradientTransform="translate(146.506 268.904) rotate(-177.525) scale(22.9695 22.96)">
<stop stop-color="#BDB9F0"/>
<stop offset="0.5336" stop-color="#C3BCEB" stop-opacity="0.4"/>
<stop offset="0.6108" stop-color="#CEC3E2" stop-opacity="0.3338"/>
<stop offset="0.8606" stop-color="#EDD6C9" stop-opacity="0.1195"/>
<stop offset="1" stop-color="#F9DDBF" stop-opacity="0"/>
</radialGradient>
<radialGradient id="paint18_radial_403_34461" cx="0" cy="0" r="1" gradientUnits="userSpaceOnUse" gradientTransform="translate(211.9 206.758) rotate(2.47484) scale(22.9695 22.96)">
<stop stop-color="#BDB9F0"/>
<stop offset="0.5266" stop-color="#C3BCEB" stop-opacity="0.7"/>
<stop offset="0.605" stop-color="#CEC3E2" stop-opacity="0.5841"/>
<stop offset="0.8586" stop-color="#EDD6C9" stop-opacity="0.2092"/>
<stop offset="1" stop-color="#F9DDBF" stop-opacity="0"/>
</radialGradient>
<clipPath id="clip0_403_34461">
<rect width="360" height="640" fill="white"/>
</clipPath>
</defs>
</svg>
