<svg width="320" height="568" viewBox="0 0 320 568" fill="none" xmlns="http://www.w3.org/2000/svg">
<g clip-path="url(#clip0_3570_15564)">
<g clip-path="url(#clip1_3570_15564)">
<g filter="url(#filter0_f_3570_15564)">
<circle cx="161" cy="197" r="106" fill="url(#paint0_radial_3570_15564)"/>
</g>
<path d="M205 385.406V411H200.588V385.406H205Z" fill="#E3DCF1"/>
<path d="M189.842 385.406H194.237V402.51C194.237 404.455 193.815 406.084 192.971 407.396C192.127 408.709 190.979 409.699 189.526 410.367C188.084 411.023 186.473 411.352 184.692 411.352C182.852 411.352 181.211 411.023 179.77 410.367C178.328 409.699 177.192 408.709 176.36 407.396C175.539 406.084 175.129 404.455 175.129 402.51V385.406H179.524V402.51C179.524 403.74 179.735 404.754 180.156 405.551C180.578 406.336 181.176 406.916 181.949 407.291C182.723 407.666 183.637 407.854 184.692 407.854C185.746 407.854 186.655 407.666 187.416 407.291C188.19 406.916 188.787 406.336 189.209 405.551C189.631 404.754 189.842 403.74 189.842 402.51V385.406Z" fill="#E3DCF1"/>
<path d="M160.639 388.816L152.992 411H148.369L158.002 385.406H160.955L160.639 388.816ZM167.037 411L159.373 388.816L159.039 385.406H162.01L171.678 411H167.037ZM166.668 401.508V405.006H152.746V401.508H166.668Z" fill="#E3DCF1"/>
<path d="M119.395 385.406H123.332L130.732 405.146L138.115 385.406H142.053L132.279 411H129.15L119.395 385.406ZM117.602 385.406H121.346L121.996 402.492V411H117.602V385.406ZM140.102 385.406H143.863V411H139.451V402.492L140.102 385.406Z" fill="#E3DCF1"/>
<g clip-path="url(#clip2_3570_15564)">
<path d="M180.047 268.756C182.909 282.316 197.157 293.959 198.057 294.489C198.958 295.019 172.263 295.291 172.263 295.291C172.263 295.291 164.416 276.542 167.808 268.279C168.122 267.512 180.047 268.756 180.047 268.756Z" fill="#A08BE8"/>
<path d="M173.381 293.458L196.8 293.573C196.8 293.573 202.243 297.227 203.689 299.863C204.795 301.879 204.718 306.401 204.622 308.42C204.595 308.982 204.129 309.421 203.567 309.421L180.98 309.378C180.255 309.376 179.669 308.787 179.677 308.06C179.701 305.559 179.272 300.236 178.331 298.715C176.922 296.444 173.381 293.458 173.381 293.458Z" fill="#D0C5F3"/>
<path d="M166.278 266.431C161.96 281.507 163.726 305.408 163.907 306.673C164.158 308.425 164.395 309.65 166.886 309.65C169.987 309.65 183.305 309.65 183.305 309.65L176.312 267.403L166.278 266.431Z" fill="#8065E0"/>
<path d="M180.047 268.756C181.091 276.154 188.474 286.55 202.461 297.429C204.097 298.699 204.936 300.044 204.936 301.935V307.991C204.936 308.886 204.209 309.613 203.314 309.613H180.862C180.228 309.613 179.717 309.099 179.717 308.468V301.477C179.717 299.299 179.277 298.18 177.042 296.577C171.447 292.564 167.912 279.03 167.797 269.405C167.683 259.781 180.047 268.756 180.047 268.756Z" fill="#A08BE8"/>
<path d="M204.725 300.449C204.861 300.91 204.936 301.4 204.936 301.938V307.994C204.936 308.888 204.209 309.615 203.313 309.615H180.86C180.225 309.615 179.714 309.101 179.714 308.47V301.48C179.714 301.107 179.701 300.766 179.666 300.449H204.725Z" fill="#D0C5F3"/>
<path d="M155.733 266.431C160.052 281.507 158.286 305.408 158.105 306.673C157.854 308.425 157.617 309.65 155.126 309.65C152.025 309.65 138.707 309.65 138.707 309.65L145.7 267.403L155.733 266.431Z" fill="#8065E0"/>
<path d="M141.962 268.756C140.918 276.154 133.535 286.55 119.548 297.429C117.913 298.699 117.073 300.044 117.073 301.935V307.991C117.073 308.886 117.801 309.613 118.696 309.613H141.147C141.781 309.613 142.293 309.099 142.293 308.468V301.477C142.293 299.299 142.732 298.18 144.967 296.577C150.562 292.564 154.098 279.03 154.212 269.405C154.327 259.781 141.962 268.756 141.962 268.756Z" fill="#A08BE8"/>
<path d="M117.284 300.449C117.148 300.91 117.073 301.4 117.073 301.938V307.994C117.073 308.888 117.801 309.615 118.696 309.615H141.15C141.784 309.615 142.295 309.101 142.295 308.47V301.48C142.295 301.107 142.309 300.766 142.343 300.449H117.284Z" fill="#D0C5F3"/>
<path d="M166.812 219.27L166.847 252.29L178.708 252.279L178.673 219.257L166.812 219.27Z" fill="url(#paint1_linear_3570_15564)"/>
<path d="M178.654 237.709H166.782V239.257H178.654V237.709Z" fill="#A08BE8"/>
<path d="M142.424 219.27L142.461 252.29L154.322 252.279L154.285 219.257L142.424 219.27Z" fill="url(#paint2_linear_3570_15564)"/>
<path d="M154.266 237.709H142.394V239.257H154.266V237.709Z" fill="#A08BE8"/>
<path d="M91.7983 242.103C83.2196 236.53 72.8985 224.391 72.054 208.533C71.5398 198.906 74.4597 184.557 91.2814 170.882L98.8664 180.203C88.6546 188.503 83.534 198.08 84.0588 207.893C84.6263 218.519 91.6438 227.67 98.3496 232.029L91.7983 242.103Z" fill="url(#paint3_linear_3570_15564)"/>
<path d="M229.17 177.753L251.978 170.384L248.197 159.146L225.389 166.514L229.17 177.753Z" fill="url(#paint4_linear_3570_15564)"/>
<path d="M238.233 162.367L236.917 162.809L240.699 174.046L242.014 173.604L238.233 162.367Z" fill="#A08BE8"/>
<path d="M222.131 184.117C228.269 184.117 233.246 179.143 233.246 173.007C233.246 166.871 228.269 161.896 222.131 161.896C215.992 161.896 211.016 166.871 211.016 173.007C211.016 179.143 215.992 184.117 222.131 184.117Z" fill="url(#paint5_radial_3570_15564)"/>
<path d="M99.1409 184.117C105.279 184.117 110.256 179.143 110.256 173.007C110.256 166.871 105.279 161.896 99.1409 161.896C93.0022 161.896 88.0259 166.871 88.0259 173.007C88.0259 179.143 93.0022 184.117 99.1409 184.117Z" fill="url(#paint6_radial_3570_15564)"/>
<path d="M160.87 227.06C194.3 227.06 221.401 199.97 221.401 166.554C221.401 133.138 194.3 106.049 160.87 106.049C127.44 106.049 100.34 133.138 100.34 166.554C100.34 199.97 127.44 227.06 160.87 227.06Z" fill="url(#paint7_radial_3570_15564)"/>
<path d="M211.072 166.554C211.072 173.105 209.806 179.361 207.518 185.097C206.964 186.488 205.615 187.398 204.118 187.398H117.623C116.125 187.398 114.777 186.488 114.223 185.097C111.934 179.361 110.669 173.105 110.669 166.554C110.669 163.875 110.885 161.247 111.295 158.682C111.575 156.922 113.117 155.638 114.9 155.638H206.844C208.626 155.638 210.169 156.922 210.448 158.682C210.856 161.249 211.072 163.875 211.072 166.554Z" fill="url(#paint8_radial_3570_15564)"/>
<path d="M108.681 197.196H213.059C210.717 201.174 207.93 204.858 204.771 208.186H116.969C113.81 204.858 111.026 201.174 108.681 197.196Z" fill="url(#paint9_radial_3570_15564)"/>
<path d="M111.29 158.685C111.569 156.925 113.112 155.641 114.894 155.641H119.114C117.332 155.641 115.789 156.925 115.51 158.685C115.102 161.25 114.884 163.878 114.884 166.557C114.884 171.636 115.651 176.53 117.06 181.148C117.58 182.418 118.952 183.183 120.351 183.183H201.353C202.85 183.183 204.329 182.317 204.752 180.882C205.053 179.859 205.325 178.818 205.573 177.787C206.404 174.176 206.854 170.421 206.854 166.56C206.854 163.881 206.638 161.252 206.228 158.688C205.948 156.927 204.406 155.644 202.624 155.644H206.844C208.626 155.644 210.169 156.927 210.448 158.688C210.856 161.252 211.074 163.881 211.074 166.56C211.074 173.111 209.809 179.366 207.52 185.103C206.966 186.493 205.618 187.404 204.121 187.404H199.901H121.84H117.622H117.617C116.12 187.404 114.772 186.493 114.218 185.103C111.929 179.366 110.664 173.111 110.664 166.56C110.664 163.875 110.882 161.25 111.29 158.685Z" fill="url(#paint10_radial_3570_15564)"/>
<path d="M169.643 183.18C169.643 183.18 163.609 178.405 162.429 177.521C161.248 176.637 160.22 176.589 159.141 177.521C158.062 178.453 152.017 183.18 152.017 183.18H169.643Z" fill="#A08BE8"/>
<path d="M259.681 160.664L260.191 132.638L248.332 132.422L247.822 160.448L259.681 160.664Z" fill="#D0C5F3"/>
<path d="M248.085 145.551L248.06 146.938L259.919 147.154L259.944 145.767L248.085 145.551Z" fill="#A08BE8"/>
<path d="M232.316 122.235L245.219 132.984C247.518 134.898 250.936 134.589 252.851 132.291C254.767 129.993 254.458 126.576 252.159 124.661L239.256 113.913C236.957 111.998 233.539 112.307 231.623 114.606C229.708 116.904 230.017 120.318 232.316 122.235Z" fill="#D0C5F3"/>
<path d="M264.808 125.99L269.449 115.697C270.667 112.946 269.422 109.729 266.67 108.512C263.918 107.295 260.7 108.539 259.482 111.29L254.724 121.844L264.808 125.99Z" fill="#D0C5F3"/>
<path d="M262.301 120.427L262.248 104.859C262.227 101.849 259.77 99.4285 256.76 99.4498C253.749 99.4712 251.327 101.927 251.349 104.936L251.351 116.512L262.301 120.427Z" fill="#D0C5F3"/>
<path d="M255.859 122.11L252.268 106.947C251.581 104.017 248.647 102.201 245.717 102.888C242.786 103.575 240.969 106.507 241.657 109.437L245.312 124.88L255.859 122.11Z" fill="#D0C5F3"/>
<path d="M253.837 136.437C260.138 136.437 265.245 131.332 265.245 125.034C265.245 118.736 260.138 113.631 253.837 113.631C247.537 113.631 242.429 118.736 242.429 125.034C242.429 131.332 247.537 136.437 253.837 136.437Z" fill="url(#paint11_radial_3570_15564)"/>
<path d="M246.988 159.55L251.978 170.384C251.978 170.384 259.334 168.45 259.677 160.671C252.106 159.292 247.848 158.517 247.848 158.517L246.988 159.55Z" fill="#A08BE8"/>
<path d="M179.107 251.853H167.547C165.623 251.853 164.062 253.414 164.062 255.336V267.31C164.062 269.232 165.623 270.793 167.547 270.793H179.107C181.03 270.793 182.591 269.232 182.591 267.31V255.336C182.591 253.414 181.03 251.853 179.107 251.853Z" fill="url(#paint12_radial_3570_15564)"/>
<path d="M111.375 226.727L94.7264 224.511C91.7585 224.117 89.033 226.199 88.6387 229.166C88.2444 232.133 90.3278 234.857 93.2957 235.251L109.944 237.467C112.912 237.861 115.638 235.779 116.032 232.812C116.426 229.845 114.34 227.121 111.375 226.727Z" fill="#D0C5F3"/>
<path d="M81.8823 240.868L83.4462 252.047C83.8831 255.025 86.6512 257.081 89.6298 256.644C92.6084 256.207 94.6651 253.44 94.2282 250.463L92.6244 238.998L81.8823 240.868Z" fill="#D0C5F3"/>
<path d="M86.9736 244.237L95.3232 257.379C96.9457 259.912 100.316 260.652 102.852 259.027C105.386 257.406 106.127 254.037 104.501 251.502L98.3231 241.712L86.9736 244.237Z" fill="#D0C5F3"/>
<path d="M91.5239 239.379L102.65 250.292C104.794 252.404 108.244 252.378 110.357 250.234C112.47 248.09 112.443 244.641 110.299 242.53L98.9677 231.411L91.5239 239.379Z" fill="#D0C5F3"/>
<path d="M91.6732 247.23C97.9737 247.23 103.081 242.124 103.081 235.827C103.081 229.529 97.9737 224.423 91.6732 224.423C85.3727 224.423 80.2651 229.529 80.2651 235.827C80.2651 242.124 85.3727 247.23 91.6732 247.23Z" fill="url(#paint13_radial_3570_15564)"/>
<path d="M139.346 176.801C141.96 176.762 144.027 173.168 143.961 168.774C143.896 164.379 141.723 160.849 139.109 160.888C136.494 160.927 134.428 164.52 134.494 168.915C134.559 173.309 136.732 176.84 139.346 176.801Z" fill="#512BD4"/>
<path d="M186.715 168.878C186.78 164.484 184.714 160.89 182.099 160.851C179.485 160.812 177.313 164.343 177.247 168.737C177.182 173.131 179.248 176.725 181.862 176.764C184.477 176.803 186.649 173.272 186.715 168.878Z" fill="#512BD4"/>
<path d="M139.189 164.858C137.46 166.586 137.46 169.388 139.189 171.116C140.367 172.293 142.042 172.666 143.537 172.24C143.825 171.188 143.982 170.014 143.963 168.77C143.934 166.775 143.468 164.965 142.724 163.577C141.459 163.465 140.156 163.891 139.189 164.858Z" fill="#8065E0"/>
<path d="M181.92 164.6C180.191 166.328 180.191 169.13 181.92 170.858C183.105 172.043 184.792 172.413 186.294 171.976C186.55 171.026 186.697 169.982 186.715 168.879C186.747 166.725 186.265 164.765 185.458 163.322C184.195 163.207 182.89 163.63 181.92 164.6Z" fill="#8065E0"/>
<path d="M166.635 102.803H154.939L156.589 90.7974H164.986L166.635 102.803Z" fill="#D0C5F3"/>
<path d="M160.849 93.2048C166.983 93.2048 171.956 88.2341 171.956 82.1024C171.956 75.9707 166.983 71 160.849 71C154.715 71 149.742 75.9707 149.742 82.1024C149.742 88.2341 154.715 93.2048 160.849 93.2048Z" fill="url(#paint14_radial_3570_15564)"/>
<path d="M171.109 110.139C171.636 110.139 172.057 109.684 171.999 109.159C171.381 103.609 166.673 99.2925 160.956 99.2925C155.238 99.2925 150.531 103.609 149.913 109.159C149.854 109.684 150.275 110.139 150.802 110.139H171.109Z" fill="url(#paint15_radial_3570_15564)"/>
<path d="M170.712 192.799H151.183V212.319H170.712V192.799Z" fill="#512BD4"/>
<path d="M154.662 205.27C154.524 205.27 154.407 205.225 154.311 205.132C154.215 205.039 154.167 204.927 154.167 204.796C154.167 204.663 154.215 204.551 154.311 204.455C154.407 204.362 154.524 204.314 154.662 204.314C154.804 204.314 154.921 204.362 155.017 204.455C155.115 204.549 155.166 204.663 155.166 204.796C155.166 204.927 155.115 205.039 155.017 205.132C154.924 205.225 154.804 205.27 154.662 205.27Z" fill="white"/>
<path d="M160.183 205.193H159.285L156.919 201.465C156.861 201.372 156.81 201.273 156.77 201.172H156.749C156.767 201.281 156.775 201.513 156.775 201.87V205.196H155.981V200.123H156.938L159.224 203.763C159.32 203.915 159.384 204.019 159.41 204.075H159.424C159.4 203.941 159.389 203.712 159.389 203.393V200.123H160.18V205.193H160.183Z" fill="white"/>
<path d="M164.051 205.193H161.272V200.12H163.942V200.834H162.096V202.269H163.798V202.98H162.096V204.479H164.054V205.193H164.051Z" fill="white"/>
<path d="M168 200.834H166.577V205.193H165.756V200.834H164.336V200.12H168V200.834Z" fill="white"/>
<path d="M154.601 251.853H143.041C141.118 251.853 139.557 253.414 139.557 255.336V267.31C139.557 269.232 141.118 270.793 143.041 270.793H154.601C156.525 270.793 158.086 269.232 158.086 267.31V255.336C158.086 253.414 156.525 251.853 154.601 251.853Z" fill="url(#paint16_radial_3570_15564)"/>
<path d="M107.386 173.774C108.519 173.822 109.523 174.626 109.774 175.787C113.962 195.089 129.086 210.49 148.306 215.025C149.681 215.35 150.533 216.727 150.208 218.101C149.883 219.475 148.506 220.327 147.131 220.002C126.004 215.02 109.379 198.088 104.776 176.874C104.477 175.494 105.354 174.133 106.734 173.832C106.952 173.782 107.171 173.763 107.386 173.774Z" fill="url(#paint17_radial_3570_15564)"/>
<path d="M213.019 157.894C211.887 157.846 210.882 157.042 210.632 155.881C206.444 136.578 191.319 121.178 172.1 116.643C170.725 116.318 169.873 114.941 170.198 113.567C170.523 112.193 171.9 111.34 173.275 111.665C194.402 116.648 211.026 133.58 215.63 154.794C215.928 156.173 215.052 157.534 213.672 157.835C213.453 157.886 213.232 157.904 213.019 157.894Z" fill="url(#paint18_radial_3570_15564)"/>
<path d="M86.1636 216.873L75.2373 221.485L75.7773 222.763L86.7036 218.151L86.1636 216.873Z" fill="#A08BE8"/>
<path d="M80.4216 182.34L79.6411 183.488L89.449 190.154L90.2295 189.007L80.4216 182.34Z" fill="#A08BE8"/>
</g>
<path opacity="0.5" fill-rule="evenodd" clip-rule="evenodd" d="M87.4 522H108.6C109.4 522 110 522.6 110 523.4V524.5C110 525.3 109.4 525.5 109.1 525.5C97.7 526.9 90.2 531.7 86 536.1V523.4C86 522.6 86.6 522 87.4 522ZM117.5 525.8C118.7 525.5 120.3 525.4 121.9 525.4C124.7 525.4 126.6 525.9 128 527.1C129.6 528.5 130.5 530.5 130.5 533.6C130.5 537.2 129.3 539.3 128 540.5C126.5 541.9 124.1 542.6 121.2 542.6C119.6 542.6 118.4 542.5 117.5 542.4V525.8ZM120.7 539.8C121.1 539.9 121.6 539.9 122 539.9C125.1 540 127.2 538 127.1 533.6C127.1 529.8 125.2 527.9 122.2 527.9C121.6 527.9 121.1 527.9 120.7 528V539.8ZM132.2 536.4C132.2 532.9 134.2 529.9 137.8 529.9C140.8 529.9 142.7 532 142.7 536C142.7 536.5 142.7 536.9 142.6 537.3H135.3C135.3 539.4 136.8 540.2 138.6 540.2C139.8 540.2 140.8 540 141.6 539.7L142.1 541.9C141 542.3 139.6 542.6 138.1 542.6C134.4 542.6 132.2 540.2 132.2 536.4ZM137.6 532.2C136 532.2 135.4 533.8 135.3 535H139.7C139.7 533.8 139.2 532.2 137.6 532.2ZM151.8 530.1L150.3 536C150 537.1 149.8 538.1 149.6 539.1H149.5C149.3 538 149.1 537 148.8 536L147.2 530.1H143.7L147.8 542.3H151L155.2 530.1H151.8ZM165.8 534.9H160.2V539.6H166.4V542.4H157V525.5H166.1V528.2H160.2V532.3H165.8V534.9ZM178.7 530.1H175.3L174.2 532.3C173.9 532.9 173.6 533.6 173.3 534.299L173.3 534.3C173.15 534 173 533.675 172.85 533.35C172.7 533.025 172.55 532.7 172.4 532.4L171.2 530.2H167.6L171.2 536.2L167.5 542.4H171L172 540C172.15 539.7 172.3 539.375 172.45 539.05L172.45 539.05C172.6 538.725 172.75 538.4 172.9 538.1C173.2 538.8 173.5 539.4 173.8 540L175 542.4H178.6L175.1 536L178.7 530.1ZM183.4 531.8C184.2 530.6 185.4 529.9 187 529.9C189.6 529.9 191.6 532.4 191.6 536C191.6 540.5 189.1 542.5 186.6 542.5C185.3 542.5 184.2 541.9 183.7 541.1V547.2H180.5V534.1C180.5 533.226 180.47 532.442 180.443 531.731V531.73V531.73V531.73V531.73V531.729V531.729V531.729L180.443 531.728C180.42 531.138 180.4 530.599 180.4 530.1H183.2L183.4 531.8ZM183.6 537.5C183.6 539.2 184.7 540.1 185.8 540.1C187.5 540.1 188.3 538.4 188.2 536.3C188.2 534.1 187.4 532.5 185.8 532.5C184.6 532.5 183.6 533.7 183.6 535.2V537.5ZM196.8 532.3L196.6 530.2H193.8C193.8 530.707 193.821 531.236 193.844 531.806L193.844 531.806C193.871 532.471 193.9 533.192 193.9 534V542.4H197.2V536C197.2 533.9 198.3 532.9 199.8 532.9C200.1 532.9 200.4 532.9 200.6 533V529.9C200.51 529.9 200.42 529.88 200.321 529.858C200.2 529.83 200.065 529.8 199.9 529.8C198.7 529.9 197.4 530.7 196.8 532.3ZM201.7 536.4C201.7 532.9 203.7 529.9 207.3 529.9C210.3 529.9 212.2 532 212.2 536C212.2 536.5 212.2 536.9 212.1 537.3H204.8C204.9 539.4 206.3 540.2 208.1 540.2C209.3 540.2 210.3 540 211.1 539.7L211.6 541.9C210.5 542.3 209.1 542.6 207.6 542.6C203.9 542.6 201.7 540.2 201.7 536.4ZM207.1 532.2C205.5 532.2 204.9 533.8 204.8 535H209.2C209.2 533.8 208.7 532.2 207.1 532.2ZM219 535C217.6 534.4 217.1 534.1 217.1 533.4C217.1 532.7 217.6 532.2 218.6 532.2C219.5 532.2 220.4 532.5 220.9 532.8L221.5 530.5C220.8 530.1 219.7 529.8 218.5 529.8C215.8 529.8 214 531.5 214 533.7C214 535 214.8 536.3 217.1 537.3C218.4 537.9 218.9 538.3 218.9 539C218.9 539.7 218.4 540.2 217.2 540.2C216.2 540.2 215 539.8 214.3 539.4L213.7 541.7C214.5 542.2 215.8 542.5 217.1 542.5C220.2 542.5 221.9 541 221.9 538.6C222 537 221 535.8 219 535ZM226.8 533.4C226.8 534.1 227.3 534.4 228.7 535C230.8 535.8 231.7 537 231.6 538.6C231.6 541 229.9 542.5 226.8 542.5C225.5 542.5 224.2 542.2 223.4 541.7L224 539.4C224.7 539.8 225.9 540.2 226.9 540.2C228.1 540.2 228.6 539.7 228.6 539C228.6 538.3 228.1 537.9 226.8 537.3C224.5 536.3 223.7 535 223.7 533.7C223.7 531.5 225.5 529.8 228.2 529.8C229.4 529.8 230.5 530.1 231.2 530.5L230.6 532.8C230.1 532.5 229.2 532.2 228.3 532.2C227.3 532.2 226.8 532.7 226.8 533.4ZM87.4223 541.567L87.4223 541.567C86.9463 542.193 86.5524 542.711 86.3 543.3C86.2 543.4 86 543.9 86 544.2V544.6C86 545.4 86.6 546 87.4 546H108.6C109.4 546 110 545.4 110 544.6V528.3C98.4 530.3 91.3 536.6 87.7 541.2C87.6048 541.327 87.5121 541.449 87.4223 541.567ZM234.9 529.4C235.3 529.3 235.4 529.1 235.4 528.8C235.4 528.6 235.3 528.4 235.2 528.3C235.1 528.2 234.8 528.1 234.6 528.1H233.9V530.3H234.3V529.4H234.5C234.6 529.4 234.7 529.5 234.8 529.7L235 530.3H235.5L235.2 529.7L234.9 529.4ZM234.5 529.2H234.2V528.6H234.5C234.8 528.6 234.9 528.7 234.9 528.9C234.9 529 234.9 529.1 234.8 529.1C234.8 529.2 234.7 529.2 234.5 529.2ZM234.6 527.6C235.1 527.6 235.6 527.8 235.9 528.1C236.2 528.4 236.4 528.8 236.4 529.4C236.4 529.9 236.3 530.4 235.9 530.7C235.5 531 235.1 531.2 234.6 531.2C234.1 531.2 233.6 531 233.3 530.7C233 530.3 232.8 529.9 232.8 529.4C232.8 528.9 232.9 528.4 233.3 528.1C233.6 527.8 234.1 527.6 234.6 527.6ZM234.5 530.8C234.9 530.8 235.3 530.7 235.6 530.4C235.9 530.1 236.1 529.8 236 529.3C236 528.9 235.9 528.5 235.6 528.2C235.3 527.9 234.9 527.8 234.5 527.8C234.1 527.8 233.7 527.9 233.4 528.2C233.1 528.5 233 528.9 233 529.3C233 529.7 233.1 530.1 233.4 530.4C233.7 530.7 234.1 530.8 234.5 530.8Z" fill="white"/>
</g>
</g>
<defs>
<filter id="filter0_f_3570_15564" x="-45" y="-9" width="412" height="412" filterUnits="userSpaceOnUse" color-interpolation-filters="sRGB">
<feFlood flood-opacity="0" result="BackgroundImageFix"/>
<feBlend mode="normal" in="SourceGraphic" in2="BackgroundImageFix" result="shape"/>
<feGaussianBlur stdDeviation="50" result="effect1_foregroundBlur_3570_15564"/>
</filter>
<radialGradient id="paint0_radial_3570_15564" cx="0" cy="0" r="1" gradientUnits="userSpaceOnUse" gradientTransform="translate(161 197) rotate(90) scale(106)">
<stop stop-color="#9E89E8"/>
<stop offset="1" stop-color="#7615EA" stop-opacity="0"/>
</radialGradient>
<linearGradient id="paint1_linear_3570_15564" x1="172.76" y1="219.258" x2="172.76" y2="252.291" gradientUnits="userSpaceOnUse">
<stop offset="0.2368" stop-color="#958FE7"/>
<stop offset="0.4881" stop-color="#BBB7EF"/>
</linearGradient>
<linearGradient id="paint2_linear_3570_15564" x1="148.373" y1="219.258" x2="148.373" y2="252.291" gradientUnits="userSpaceOnUse">
<stop offset="0.2368" stop-color="#958FE7"/>
<stop offset="0.4881" stop-color="#BBB7EF"/>
</linearGradient>
<linearGradient id="paint3_linear_3570_15564" x1="105.404" y1="179.032" x2="74.7002" y2="232.235" gradientUnits="userSpaceOnUse">
<stop offset="0.1197" stop-color="#958FE7"/>
<stop offset="0.2551" stop-color="#BBB7EF"/>
</linearGradient>
<linearGradient id="paint4_linear_3570_15564" x1="227.292" y1="172.593" x2="250.073" y2="164.298" gradientUnits="userSpaceOnUse">
<stop offset="0.1918" stop-color="#958FE7"/>
<stop offset="0.4956" stop-color="#BBB7EF"/>
</linearGradient>
<radialGradient id="paint5_radial_3570_15564" cx="0" cy="0" r="1" gradientUnits="userSpaceOnUse" gradientTransform="translate(226.425 165.106) scale(21.2351 21.2263)">
<stop stop-color="#8065E0"/>
<stop offset="1" stop-color="#512BD4"/>
</radialGradient>
<radialGradient id="paint6_radial_3570_15564" cx="0" cy="0" r="1" gradientUnits="userSpaceOnUse" gradientTransform="translate(93.3536 166.519) scale(18.7521 18.7443)">
<stop stop-color="#8065E0"/>
<stop offset="1" stop-color="#512BD4"/>
</radialGradient>
<radialGradient id="paint7_radial_3570_15564" cx="0" cy="0" r="1" gradientUnits="userSpaceOnUse" gradientTransform="translate(176.581 129.942) scale(82.3555 82.3213)">
<stop offset="0.186" stop-color="#A08BE8"/>
<stop offset="0.7272" stop-color="#8065E0"/>
</radialGradient>
<radialGradient id="paint8_radial_3570_15564" cx="0" cy="0" r="1" gradientUnits="userSpaceOnUse" gradientTransform="translate(122.174 149.209) scale(70.1068 70.0777)">
<stop offset="0.0933" stop-color="#E1DFDD"/>
<stop offset="0.6573" stop-color="white"/>
</radialGradient>
<radialGradient id="paint9_radial_3570_15564" cx="0" cy="0" r="1" gradientUnits="userSpaceOnUse" gradientTransform="translate(113.263 201.624) scale(37.1072 37.0918)">
<stop offset="0.4614" stop-color="#A08BE8"/>
<stop offset="0.5268" stop-color="#A793EA"/>
<stop offset="0.8352" stop-color="#C5B7F0"/>
<stop offset="1" stop-color="#D0C5F3"/>
</radialGradient>
<radialGradient id="paint10_radial_3570_15564" cx="0" cy="0" r="1" gradientUnits="userSpaceOnUse" gradientTransform="translate(148.28 175.856) scale(50.5272 50.5062)">
<stop stop-color="#512BD4"/>
<stop offset="0.4098" stop-color="#6645D9"/>
<stop offset="0.7102" stop-color="#7659DD"/>
<stop offset="0.9583" stop-color="#8065E0"/>
</radialGradient>
<radialGradient id="paint11_radial_3570_15564" cx="0" cy="0" r="1" gradientUnits="userSpaceOnUse" gradientTransform="translate(253.407 117.609) scale(22.7499 22.7404)">
<stop stop-color="#A08BE8"/>
<stop offset="0.9913" stop-color="#8065E0"/>
</radialGradient>
<radialGradient id="paint12_radial_3570_15564" cx="0" cy="0" r="1" gradientUnits="userSpaceOnUse" gradientTransform="translate(173.443 254.874) scale(15.3042 15.2978)">
<stop stop-color="#8065E0"/>
<stop offset="0.8778" stop-color="#512BD4"/>
</radialGradient>
<radialGradient id="paint13_radial_3570_15564" cx="0" cy="0" r="1" gradientUnits="userSpaceOnUse" gradientTransform="translate(91.2498 227.663) scale(20.1459 20.1375)">
<stop offset="0.0841" stop-color="#A08BE8"/>
<stop offset="1" stop-color="#8065E0"/>
</radialGradient>
<radialGradient id="paint14_radial_3570_15564" cx="0" cy="0" r="1" gradientUnits="userSpaceOnUse" gradientTransform="translate(161.414 75.7247) scale(24.2612 24.2511)">
<stop offset="0.1717" stop-color="#A08BE8"/>
<stop offset="0.9987" stop-color="#8065E0"/>
</radialGradient>
<radialGradient id="paint15_radial_3570_15564" cx="0" cy="0" r="1" gradientUnits="userSpaceOnUse" gradientTransform="translate(161.332 102.13) scale(14.7038 14.6977)">
<stop stop-color="#8065E0"/>
<stop offset="1" stop-color="#512BD4"/>
</radialGradient>
<radialGradient id="paint16_radial_3570_15564" cx="0" cy="0" r="1" gradientUnits="userSpaceOnUse" gradientTransform="translate(147.622 252.513) scale(16.3049 16.2981)">
<stop stop-color="#8065E0"/>
<stop offset="1" stop-color="#512BD4"/>
</radialGradient>
<radialGradient id="paint17_radial_3570_15564" cx="0" cy="0" r="1" gradientUnits="userSpaceOnUse" gradientTransform="translate(127.506 196.904) rotate(-177.525) scale(22.9695 22.96)">
<stop stop-color="#BDB9F0"/>
<stop offset="0.5336" stop-color="#C3BCEB" stop-opacity="0.4"/>
<stop offset="0.6108" stop-color="#CEC3E2" stop-opacity="0.3338"/>
<stop offset="0.8606" stop-color="#EDD6C9" stop-opacity="0.1195"/>
<stop offset="1" stop-color="#F9DDBF" stop-opacity="0"/>
</radialGradient>
<radialGradient id="paint18_radial_3570_15564" cx="0" cy="0" r="1" gradientUnits="userSpaceOnUse" gradientTransform="translate(192.9 134.758) rotate(2.47484) scale(22.9695 22.96)">
<stop stop-color="#BDB9F0"/>
<stop offset="0.5266" stop-color="#C3BCEB" stop-opacity="0.7"/>
<stop offset="0.605" stop-color="#CEC3E2" stop-opacity="0.5841"/>
<stop offset="0.8586" stop-color="#EDD6C9" stop-opacity="0.2092"/>
<stop offset="1" stop-color="#F9DDBF" stop-opacity="0"/>
</radialGradient>
<clipPath id="clip0_3570_15564">
<rect width="320" height="568" fill="white"/>
</clipPath>
<clipPath id="clip1_3570_15564">
<rect width="360" height="640" fill="white" transform="translate(-19 -67)"/>
</clipPath>
<clipPath id="clip2_3570_15564">
<rect width="198" height="239" fill="white" transform="translate(72 71)"/>
</clipPath>
</defs>
</svg>
