<svg xmlns="http://www.w3.org/2000/svg" enable-background="new 0 0 24 24" height="24px" viewBox="0 0 24 24" width="24px" fill="#6750A4"><g><rect fill="none" height="24" width="24"/></g><g>
  <path fill-rule="evenodd" clip-rule="evenodd" d="M11 1C11 0.447715 11.4477 0 12 0C12.5523 0 13 0.447715 13 1V3C13 3.55228 12.5523 4 12 4C11.4477 4 11 3.55228 11 3V1ZM11 21C11 20.4477 11.4477 20 12 20C12.5523 20 13 20.4477 13 21V23C13 23.5523 12.5523 24 12 24C11.4477 24 11 23.5523 11 23V21ZM20 12C20 12.5523 20.4477 13 21 13H23C23.5523 13 24 12.5523 24 12C24 11.4477 23.5523 11 23 11H21C20.4477 11 20 11.4477 20 12ZM1 13C0.447715 13 0 12.5523 0 12C0 11.4477 0.447715 11 1 11H3C3.55228 11 4 11.4477 4 12C4 12.5523 3.55228 13 3 13H1ZM20.4587 3.48235C20.8493 3.87287 20.8493 4.50604 20.4587 4.89656L19.0624 6.29289C18.6719 6.68342 18.0387 6.68342 17.6482 6.29289C17.2577 5.90237 17.2577 5.2692 17.6482 4.87868L19.0445 3.48235C19.435 3.09182 20.0682 3.09182 20.4587 3.48235ZM3.53963 4.89583C3.1491 4.5053 3.1491 3.87214 3.53963 3.48161C3.93015 3.09109 4.56332 3.09109 4.95384 3.48161L6.37659 4.90437C6.76712 5.29489 6.76712 5.92806 6.37659 6.31858C5.98607 6.70911 5.3529 6.70911 4.96238 6.31858L3.53963 4.89583ZM20.4587 20.5336C20.8493 20.1431 20.8493 19.51 20.4587 19.1194L19.0377 17.6984C18.6472 17.3079 18.014 17.3079 17.6235 17.6984C17.233 18.089 17.233 18.7221 17.6235 19.1127L19.0445 20.5336C19.435 20.9242 20.0682 20.9242 20.4587 20.5336ZM3.54257 19.1202C3.15066 19.5105 3.15 20.1447 3.5411 20.5358C3.93105 20.9258 4.56308 20.9265 4.95384 20.5373L6.37813 19.1189C6.77004 18.7286 6.7707 18.0943 6.3796 17.7032C5.98965 17.3133 5.35762 17.3126 4.96686 17.7018L3.54257 19.1202ZM12 19C8.13401 19 5 15.866 5 12C5 8.13401 8.13401 5 12 5C15.866 5 19 8.13401 19 12C19 15.866 15.866 19 12 19ZM17 12C17 14.7614 14.7614 17 12 17V7C14.7614 7 17 9.23858 17 12Z"/>
</g>
</svg>