<svg width="30" height="30" viewBox="0 0 30 30" fill="none" xmlns="http://www.w3.org/2000/svg">
<path fill-rule="evenodd" clip-rule="evenodd" d="M15 25C9.5 25 5 20.5 5 15C5 9.5 9.5 5 15 5C20.5 5 25 9 25 14C25 17.3 22.3 20 19 20H17.2C16.9 20 16.7 20.2 16.7 20.5C16.7 20.55 16.725 20.6 16.75 20.65C16.775 20.7 16.8 20.75 16.8 20.8C17.2 21.3 17.4 21.9 17.4 22.5C17.5 23.9 16.4 25 15 25ZM15 7C10.6 7 7 10.6 7 15C7 19.4 10.6 23 15 23C15.3 23 15.5 22.8 15.5 22.5C15.5 22.3828 15.4657 22.3 15.4373 22.2314C15.4172 22.1828 15.4 22.1414 15.4 22.1C15 21.6 14.8 21.1 14.8 20.5C14.8 19.1 15.9 18 17.3 18H19C21.2 18 23 16.2 23 14C23 10.1 19.4 7 15 7ZM9.5 16C10.3284 16 11 15.3284 11 14.5C11 13.6716 10.3284 13 9.5 13C8.67157 13 8 13.6716 8 14.5C8 15.3284 8.67157 16 9.5 16ZM14 10.5C14 11.3284 13.3284 12 12.5 12C11.6716 12 11 11.3284 11 10.5C11 9.67157 11.6716 9 12.5 9C13.3284 9 14 9.67157 14 10.5ZM17.5 12C18.3284 12 19 11.3284 19 10.5C19 9.67157 18.3284 9 17.5 9C16.6716 9 16 9.67157 16 10.5C16 11.3284 16.6716 12 17.5 12ZM22 14.5C22 15.3284 21.3284 16 20.5 16C19.6716 16 19 15.3284 19 14.5C19 13.6716 19.6716 13 20.5 13C21.3284 13 22 13.6716 22 14.5Z" fill="#49454E"/>
</svg>
