<svg width="40" height="40" viewBox="0 0 40 40" fill="none" xmlns="http://www.w3.org/2000/svg">
<path fill-rule="evenodd" clip-rule="evenodd" d="M28 18C27.4477 18 27 17.5523 27 17V4C27 3.44772 26.5523 3 26 3H9.79314C9.51801 3 9.25504 3.11335 9.06613 3.31338L8.9998 3.38361V7.00004C8.9998 8.65689 7.65665 10 5.9998 10H2.75094L2.27299 10.5061C2.09767 10.6917 2 10.9374 2 11.1927V36C2 36.5523 2.44772 37 3 37H19C19.5523 37 20 37.4477 20 38C20 38.5523 19.5523 39 19 39H3C1.34315 39 0 37.6569 0 36V11.1927C0 10.7787 0.0855869 10.3732 0.247278 10H0.226562L0.266632 9.95633C0.402605 9.65572 0.588401 9.37699 0.818961 9.13286L7.6121 1.94013C8.17883 1.34006 8.96775 1 9.79314 1H26C27.6569 1 29 2.34315 29 4V17C29 17.5523 28.5523 18 28 18ZM4.77303 8.00004H5.9998C6.55208 8.00004 6.9998 7.55232 6.9998 7.00004V5.57084L4.77303 8.00004ZM7 15C7 14.4477 7.44772 14 8 14H21C21.5523 14 22 14.4477 22 15C22 15.5523 21.5523 16 21 16H8C7.44772 16 7 15.5523 7 15ZM7 21C7 20.4477 7.44772 20 8 20H15C15.5523 20 16 20.4477 16 21C16 21.5523 15.5523 22 15 22H8C7.44772 22 7 21.5523 7 21ZM8 26C7.44772 26 7 26.4477 7 27C7 27.5523 7.44772 28 8 28H15C15.5523 28 16 27.5523 16 27C16 26.4477 15.5523 26 15 26H8ZM36.9997 29L36.9982 28.9929C36.9866 28.9355 36.9094 28.5551 36.5329 27.8775C36.1563 27.1995 35.5821 26.4105 34.8358 25.6642C33.3281 24.1565 31.3075 23 29 23C26.6925 23 24.6719 24.1565 23.1642 25.6642C22.4179 26.4105 21.8437 27.1995 21.4671 27.8775C21.0906 28.5551 21.0134 28.9355 21.0018 28.9929L21.0003 29L21.0018 29.0071C21.0134 29.0645 21.0906 29.4449 21.4671 30.1225C21.8437 30.8005 22.4179 31.5895 23.1642 32.3358C24.6719 33.8435 26.6925 35 29 35C31.3075 35 33.3281 33.8435 34.8358 32.3358C35.5821 31.5895 36.1563 30.8005 36.5329 30.1225C36.9094 29.4449 36.9866 29.0645 36.9982 29.0071L36.9997 29ZM29 37C35 37 39 31 39 29C39 27 35 21 29 21C23 21 19 27 19 29C19 31 23 37 29 37ZM29 31C30.1046 31 31 30.1046 31 29C31 27.8954 30.1046 27 29 27C27.8954 27 27 27.8954 27 29C27 30.1046 27.8954 31 29 31ZM29 33C31.2091 33 33 31.2091 33 29C33 26.7909 31.2091 25 29 25C26.7909 25 25 26.7909 25 29C25 31.2091 26.7909 33 29 33Z" fill="#49454E"/>
</svg>
