<svg width="40" height="40" viewBox="0 0 40 40" fill="none" xmlns="http://www.w3.org/2000/svg">
<path fill-rule="evenodd" clip-rule="evenodd" d="M12 4C12 3.44772 11.5523 3 11 3C10.4477 3 10 3.44772 10 4V5H4C3.44772 5 3 5.44772 3 6V36C3 36.5523 3.44772 37 4 37H36C36.5523 37 37 36.5523 37 36V32C37 31.4477 36.5523 31 36 31C35.4477 31 35 31.4477 35 32V35H5V13H35V17.5C35 18.0523 35.4477 18.5 36 18.5C36.5523 18.5 37 18.0523 37 17.5V6C37 5.44772 36.5523 5 36 5H30V4C30 3.44772 29.5523 3 29 3C28.4477 3 28 3.44772 28 4V5H12V4ZM28 7H12V8C12 8.55228 11.5523 9 11 9C10.4477 9 10 8.55228 10 8V7H5V11H35V7H30V8C30 8.55228 29.5523 9 29 9C28.4477 9 28 8.55228 28 8V7Z" fill="#49454E"/>
<path fill-rule="evenodd" clip-rule="evenodd" d="M32 25C32 27.2091 30.2091 29 28 29C25.7909 29 24 27.2091 24 25C24 22.7909 25.7909 21 28 21C30.2091 21 32 22.7909 32 25ZM30 25C30 26.1046 29.1046 27 28 27C26.8954 27 26 26.1046 26 25C26 23.8954 26.8954 23 28 23C29.1046 23 30 23.8954 30 25Z" fill="#49454E"/>
<path fill-rule="evenodd" clip-rule="evenodd" d="M38 25C38 27 34 33 28 33C22 33 18 27 18 25C18 23 22 17 28 17C34 17 38 23 38 25ZM35.9982 24.9929L35.9997 25L35.9982 25.0071C35.9866 25.0645 35.9094 25.4449 35.5329 26.1225C35.1563 26.8005 34.5821 27.5895 33.8358 28.3358C32.3281 29.8435 30.3075 31 28 31C25.6925 31 23.6719 29.8435 22.1642 28.3358C21.4179 27.5895 20.8437 26.8005 20.4671 26.1225C20.0906 25.4449 20.0134 25.0645 20.0018 25.0071L20.0003 25L20.0018 24.9929C20.0134 24.9355 20.0906 24.5551 20.4671 23.8775C20.8437 23.1995 21.4179 22.4105 22.1642 21.6642C23.6719 20.1565 25.6925 19 28 19C30.3075 19 32.3281 20.1565 33.8358 21.6642C34.5821 22.4105 35.1563 23.1995 35.5329 23.8775C35.9094 24.5551 35.9866 24.9355 35.9982 24.9929Z" fill="#49454E"/>
<path d="M10 17.5C10 18.3284 9.32843 19 8.5 19C7.67157 19 7 18.3284 7 17.5C7 16.6716 7.67157 16 8.5 16C9.32843 16 10 16.6716 10 17.5Z" fill="#49454E"/>
<path d="M8.5 26C9.32843 26 10 25.3284 10 24.5C10 23.6716 9.32843 23 8.5 23C7.67157 23 7 23.6716 7 24.5C7 25.3284 7.67157 26 8.5 26Z" fill="#49454E"/>
<path d="M10 31.5C10 32.3284 9.32843 33 8.5 33C7.67157 33 7 32.3284 7 31.5C7 30.6716 7.67157 30 8.5 30C9.32843 30 10 30.6716 10 31.5Z" fill="#49454E"/>
<path d="M15.5 19C16.3284 19 17 18.3284 17 17.5C17 16.6716 16.3284 16 15.5 16C14.6716 16 14 16.6716 14 17.5C14 18.3284 14.6716 19 15.5 19Z" fill="#49454E"/>
<path d="M17 31.5C17 32.3284 16.3284 33 15.5 33C14.6716 33 14 32.3284 14 31.5C14 30.6716 14.6716 30 15.5 30C16.3284 30 17 30.6716 17 31.5Z" fill="#49454E"/>
</svg>
