<svg width="39" height="39" viewBox="0 0 39 39" fill="none" xmlns="http://www.w3.org/2000/svg">
<path d="M37 1H31H29H17H15H10H8H2C1.4 1 1 1.4 1 2V8V10V15V17V22V24V37C1 37.6 1.4 38 2 38H8H10H15H17H23C23.6 38 24 37.6 24 37V31H29H31H37C37.6 31 38 30.6 38 30V24V22V17V15V10V8V2C38 1.4 37.6 1 37 1ZM15 15H10V10H15V15ZM17 10H22V15H17V10ZM15 17V22H10V17H15ZM15 24V29H10V24H15ZM17 24H22V29H17V24ZM17 22V17H22V22H17ZM24 17H29V22H24V17ZM24 15V10H29V15H24ZM24 8V3H29V8H24ZM22 3V8H17V3H22ZM15 3V8H10V3H15ZM3 3H8V8H3V3ZM3 10H8V15H3V10ZM3 17H8V22H3V17ZM8 24V29H3V24H8ZM3 36V31H8V36H3ZM10 36V31H15V36H10ZM22 36H17V31H22V36ZM24 29V24H29V29H24ZM36 29H31V24H36V29ZM36 22H31V17H36V22ZM36 15H31V10H36V15ZM31 8V3H36V8H31Z" fill="#6750a4"/>
</svg>
