<svg width="39" height="39" viewBox="0 0 39 39" fill="none" xmlns="http://www.w3.org/2000/svg">
<path fill-rule="evenodd" clip-rule="evenodd" d="M5.69999 4.3C6.09999 3.9 6.69999 3.9 7.09999 4.3C7.39999 4.7 7.49999 5.3 7.09999 5.7C4.89999 7.9 3.39999 10.9 2.99999 14.2C2.89999 14.7 2.49999 15.1 1.99999 15.1C1.39999 15.1 0.899988 14.6 0.999988 14C1.49999 10.2 3.19999 6.9 5.69999 4.3ZM33.4 4.3C33 3.9 32.4 3.9 32 4.3C31.6 4.7 31.6 5.3 32 5.7C34.2 8 35.7 10.9 36.1 14.2C36.2 14.7 36.6 15.1 37.1 15.1C37.7 15.1 38.2 14.6 38.1 14C37.5 10.2 35.8 6.9 33.4 4.3ZM8.49999 7.1C8.79999 6.7 9.49999 6.7 9.89999 7.1C10.2 7.5 10.3 8.1 9.89999 8.5C8.39999 10 7.39999 12 6.99999 14.2C6.89999 14.7 6.49999 15.1 5.99999 15.1C5.39999 15.1 4.89999 14.5 4.99999 13.9C5.49999 11.3 6.69999 9 8.49999 7.1ZM29.2 8.5C28.8 8.1 28.8 7.5 29.2 7.1C29.6 6.7 30.2 6.8 30.7 7.1C32.5 9 33.7 11.3 34.1 13.9C34.2 14.5 33.7 15.1 33.1 15.1C32.6 15.1 32.2 14.7 32.1 14.2C31.7 12 30.7 10 29.2 8.5ZM29 17.5C29 13 26.7 8.5 21.9 7.3C21.9 7.2101 21.9202 7.1202 21.9424 7.02122C21.9697 6.9 22 6.76515 22 6.6C22 5.2 20.9 4.1 19.5 4.1C18.1 4.1 17 5.2 17 6.6C17 6.75 17.025 6.875 17.05 7L17.05 7.00002C17.075 7.12502 17.1 7.25001 17.1 7.4C12.3 8.5 9.99999 13 9.99999 17.5C9.99999 22 9.39999 24.9 8.19999 28C8.08514 28.2584 7.93731 28.5251 7.78491 28.8L7.7849 28.8C7.40653 29.4825 6.99999 30.2158 6.99999 31C6.99999 31.6 7.39999 32 7.99999 32H31C31.6 32 32 31.5 32 31C32 30.2817 31.5873 29.5119 31.2065 28.8016C31.0571 28.523 30.9127 28.2536 30.8 28C29.5 24.9 29 22 29 17.5ZM19 6.6C19 6.3 19.2 6.1 19.5 6.1C19.8 6.1 20 6.3 20 6.6C20 6.9 19.8 7.1 19.5 7.1C19.2 7.1 19 6.9 19 6.6ZM20 29.9H9.39999C11 26.6 12 22.7 12 17.5C12 13.5 15 9.2 19.5 9.2C24 9.2 27 13.5 27 17.5C27 22.7 28 26.6 29.6 29.9H20ZM21.4 33.3C21.6 33.2 21.7 33.2 21.9 33.2C22.5 33.2 22.9 33.6 22.9 34.2C22.9 34.6 22.7 34.9 22.4 35.1C21.6 35.6 20.6 36 19.5 36C18.4 36 17.4 35.7 16.6 35.1C16.3 34.9 16.1 34.6 16.1 34.2C16.1 33.6 16.5 33.2 17.1 33.2C17.3 33.2 17.4 33.2 17.6 33.3C18.1 33.7 18.8 34 19.5 34C20.2 34 20.9 33.7 21.4 33.3Z" fill="#6750a4"/>
</svg>
