<svg xmlns="http://www.w3.org/2000/svg" width="24" height="24" viewBox="0 0 24 24">
  <path
      d="M18,16v-5c0,-3.1 -1.6,-5.6 -4.5,-6.3V4c0,-0.8 -0.7,-1.5 -1.5,-1.5S10.5,3.2 10.5,4v0.7C7.6,5.4 6,7.9 6,11v5l-1.3,1.3C4.1,17.9 4.5,19 5.4,19h13.2c0.9,0 1.3,-1.1 0.7,-1.7L18,16zM12,22c1.1,0 2,-0.9 2,-2h-4C10,21.1 10.9,22 12,22zM6.8,4.7c0.4,-0.4 0.4,-1 0,-1.4s-1,-0.4 -1.4,0C3.7,4.8 2.5,7 2.1,9.3c-0.1,0.6 0.4,1.2 1,1.2c0.5,0 0.9,-0.4 1,-0.8C4.4,7.7 5.4,6 6.8,4.7zM18.6,3.3c-0.4,-0.4 -1,-0.4 -1.4,0s-0.4,1 0,1.4c1.4,1.3 2.4,3 2.6,4.9c0.1,0.5 0.5,0.8 1,0.8c0.6,0 1.1,-0.6 1,-1.2C21.5,7 20.3,4.8 18.6,3.3z"
      fill="#FFFFFF"/>
</svg>
