<svg width="39" height="39" viewBox="0 0 39 39" fill="none" xmlns="http://www.w3.org/2000/svg">
<path fill-rule="evenodd" clip-rule="evenodd" d="M9 10V32H10V34H1C0.4 34 0 33.6 0 33V10V8V2C0 1.4 0.4 1 1 1H36C36.6 1 37 1.4 37 2V8V10V15C37 15.6 36.6 16 36 16C35.4 16 35 15.6 35 15V10H30V11C30 11.6 29.6 12 29 12C28.4 12 28 11.6 28 11V10H23V11C23 11.6 22.6 12 22 12C21.4 12 21 11.6 21 11V10H16V15C16 15.6 15.6 16 15 16C14.4 16 14 15.6 14 15V10H9ZM9 3V8H14V3H9ZM16 3V8H21V3H16ZM23 3V8H28V3H23ZM30 3V8H35V3H30ZM7 3H2V8H7V3ZM7 32V10H2V32H7ZM20 26C20 26.6 19.6 27 19 27C18.4 27 18 26.6 18 26V25C18 24.4 18.4 24 19 24C19.6 24 20 24.4 20 25V26ZM32 27C32.6 27 33 26.6 33 26V25C33 24.4 32.6 24 32 24C31.4 24 31 24.4 31 25V26C31 26.6 31.4 27 32 27ZM31 18H37C38.1 18 39 18.9 39 20V24V36C39 37.1 38.1 38 37 38H14C12.9 38 12 37.1 12 36V24V20C12 18.9 12.9 18 14 18H20V17C20 15.3 21.3 14 23 14H28C29.7 14 31 15.3 31 17V18ZM23 16C22.4 16 22 16.4 22 17V18H29V17C29 16.4 28.6 16 28 16H23ZM20 20H14V24C14 26.2 15.8 28 18 28H33C35.2 28 37 26.2 37 24V20H31H20ZM14 28.5V36H37V28.5C35.9 29.4 34.5 30 33 30H18C16.5 30 15.1 29.5 14 28.5Z" fill="#6750a4"/>
</svg>
