<?xml version="1.0" encoding="utf-8"?>
<!-- Generator: Adobe Illustrator 19.1.1, SVG Export Plug-In . SVG Version: 6.00 Build 0)  -->
<svg version="1.1" id="Layer_1" xmlns="http://www.w3.org/2000/svg" xmlns:xlink="http://www.w3.org/1999/xlink" x="0px" y="0px"
	 viewBox="0 0 23 23" enable-background="new 0 0 23 23" xml:space="preserve">
<path fill="#6750A4" d="M20.7,18.6l-4.9-5.1c0.8-1.2,1.2-2.6,1.2-4C17,5.4,13.6,2,9.5,2S2,5.4,2,9.5S5.4,17,9.5,17c1.5,0,3-0.5,4.2-1.3l4.9,4.9
	c0.4,0.4,1.1,0.4,1.5,0l0.6-0.6C21.1,19.7,21.1,19,20.7,18.6z M4,9.5C4,6.5,6.5,4,9.5,4c3,0,5.5,2.5,5.5,5.5c0,3-2.5,5.5-5.5,5.5
	C6.5,15,4,12.5,4,9.5z"/>
</svg>
