<svg width="25" height="24" viewBox="0 0 25 24" fill="none" xmlns="http://www.w3.org/2000/svg">
<path d="M12.25 22.35L10.8 21.05C9.11667 19.5333 7.725 18.225 6.625 17.125C5.525 16.025 4.65 15.0375 4 14.1625C3.35 13.2875 2.89583 12.4833 2.6375 11.75C2.37917 11.0167 2.25 10.2667 2.25 9.5C2.25 7.93333 2.775 6.625 3.825 5.575C4.875 4.525 6.18333 4 7.75 4C8.61667 4 9.44167 4.18333 10.225 4.55C11.0083 4.91667 11.6833 5.43333 12.25 6.1C12.8167 5.43333 13.4917 4.91667 14.275 4.55C15.0583 4.18333 15.8833 4 16.75 4C18.3167 4 19.625 4.525 20.675 5.575C21.725 6.625 22.25 7.93333 22.25 9.5C22.25 10.2667 22.1208 11.0167 21.8625 11.75C21.6042 12.4833 21.15 13.2875 20.5 14.1625C19.85 15.0375 18.975 16.025 17.875 17.125C16.775 18.225 15.3833 19.5333 13.7 21.05L12.25 22.35ZM12.25 19.65C13.85 18.2167 15.1667 16.9875 16.2 15.9625C17.2333 14.9375 18.05 14.0458 18.65 13.2875C19.25 12.5292 19.6667 11.8542 19.9 11.2625C20.1333 10.6708 20.25 10.0833 20.25 9.5C20.25 8.5 19.9167 7.66667 19.25 7C18.5833 6.33333 17.75 6 16.75 6C15.9667 6 15.2417 6.22083 14.575 6.6625C13.9083 7.10417 13.45 7.66667 13.2 8.35H11.3C11.05 7.66667 10.5917 7.10417 9.925 6.6625C9.25833 6.22083 8.53333 6 7.75 6C6.75 6 5.91667 6.33333 5.25 7C4.58333 7.66667 4.25 8.5 4.25 9.5C4.25 10.0833 4.36667 10.6708 4.6 11.2625C4.83333 11.8542 5.25 12.5292 5.85 13.2875C6.45 14.0458 7.26667 14.9375 8.3 15.9625C9.33333 16.9875 10.65 18.2167 12.25 19.65Z" fill="#49454E"/>
</svg>
