<svg width="24" height="24" viewBox="0 0 24 24" fill="none" xmlns="http://www.w3.org/2000/svg">
<path fill-rule="evenodd" clip-rule="evenodd" d="M5 4H19C19.5523 4 20 4.44772 20 5V13C20 13.5523 19.5523 14 19 14H5C4.44772 14 4 13.5523 4 13V5C4 4.44772 4.44772 4 5 4ZM19 2H5C3.34315 2 2 3.34315 2 5V13C2 14.6569 3.34315 16 5 16H19C20.6569 16 22 14.6569 22 13V5C22 3.34315 20.6569 2 19 2ZM19 20H5C4.44772 20 4 20.4477 4 21V22H2V21C2 19.3431 3.34315 18 5 18H19C20.6569 18 22 19.3431 22 21V22H20V21C20 20.4477 19.5523 20 19 20Z" fill="#49454E"/>
</svg>
