<svg width="24" height="24" viewBox="0 0 24 24" fill="none" xmlns="http://www.w3.org/2000/svg">
<g clip-path="url(#clip0_335_8021)">
<path d="M20.2941 16.0222C20.0104 15.8664 19.6542 15.9701 19.4984 16.2537C19.3426 16.5373 19.4462 16.8935 19.7298 17.0493C20.4278 17.4328 20.8281 17.8578 20.8281 18.2156C20.8281 18.6531 20.2082 19.3312 18.4682 19.9224C16.7493 20.5064 14.4521 20.828 12 20.828C9.54785 20.828 7.2507 20.5064 5.53176 19.9224C3.7918 19.3313 3.17188 18.6531 3.17188 18.2156C3.17188 17.8578 3.57219 17.4328 4.27016 17.0493C4.55379 16.8935 4.65738 16.5372 4.50156 16.2536C4.34574 15.97 3.98961 15.8664 3.7059 16.0222C2.9277 16.4497 2 17.1773 2 18.2156C2 19.0114 2.54734 20.1461 5.15477 21.032C6.99195 21.6562 9.42297 21.9999 12 21.9999C14.577 21.9999 17.008 21.6562 18.8452 21.032C21.4527 20.1461 22 19.0114 22 18.2156C22 17.1773 21.0723 16.4497 20.2941 16.0222Z" fill="black"/>
<path d="M7.57623 19.0755C8.76568 19.4115 10.3367 19.5966 12 19.5966C13.6632 19.5966 15.2343 19.4115 16.4237 19.0755C17.8789 18.6644 18.6168 18.0693 18.6168 17.3069C18.6168 16.5445 17.8789 15.9495 16.4237 15.5384C16.1007 15.4471 15.7494 15.3671 15.3758 15.2988C15.173 15.6493 14.9604 16.01 14.7382 16.3812C15.1517 16.4432 15.5398 16.5193 15.8923 16.6091C16.9633 16.8818 17.3545 17.1889 17.4349 17.307C17.3545 17.425 16.9633 17.7321 15.8924 18.0048C14.8787 18.263 13.5746 18.4103 12.201 18.4234C12.1345 18.4284 12.0675 18.4311 12 18.4311C11.9324 18.4311 11.8654 18.4284 11.7989 18.4234C10.4253 18.4103 9.12119 18.263 8.10755 18.0048C7.03662 17.7321 6.64541 17.425 6.56498 17.307C6.64541 17.1889 7.03666 16.8818 8.10759 16.6091C8.46009 16.5193 8.84826 16.4432 9.26173 16.3812C9.03951 16.0101 8.82697 15.6493 8.62412 15.2988C8.2506 15.3671 7.89923 15.4471 7.57623 15.5384C6.12103 15.9495 5.38318 16.5445 5.38318 17.3069C5.38318 18.0693 6.12103 18.6644 7.57623 19.0755Z" fill="black"/>
<path d="M12 17.2591C12.5216 17.2591 12.9954 16.9934 13.2675 16.5482C15.1741 13.4288 17.4469 9.31758 17.4469 7.44684C17.4469 4.44344 15.0034 2 12 2C8.99654 2 6.5531 4.44344 6.5531 7.44684C6.5531 9.31758 8.82587 13.4288 10.7325 16.5482C11.0046 16.9934 11.4784 17.2591 12 17.2591ZM9.81064 7.07285C9.81064 5.8657 10.7928 4.88359 12 4.88359C13.2072 4.88359 14.1893 5.8657 14.1893 7.07285C14.1893 8.28004 13.2072 9.26215 12 9.26215C10.7928 9.26215 9.81064 8.28008 9.81064 7.07285Z" fill="black"/>
</g>
<defs>
<clipPath id="clip0_335_8021">
<rect width="20" height="20" fill="white" transform="translate(2 2)"/>
</clipPath>
</defs>
</svg>
