<svg width="24" height="24" viewBox="0 0 24 24" fill="none" xmlns="http://www.w3.org/2000/svg">
<path d="M21 4H10.8157C10.4016 2.8385 9.3019 2 8 2C6.6852 2 5.5776 2.8555 5.1734 4.035C5.115 4.0244 5.0615 4 5 4H3C2.4473 4 2 4.4478 2 5C2 5.5522 2.4473 6 3 6H5C5.0615 6 5.115 5.9756 5.1734 5.965C5.5776 7.1445 6.6852 8 8 8C9.3019 8 10.4016 7.1615 10.8157 6H21C21.5527 6 22 5.5522 22 5C22 4.4478 21.5527 4 21 4ZM8 6C7.4482 6 7 5.5513 7 5C7 4.4487 7.4482 4 8 4C8.5518 4 9 4.4487 9 5C9 5.5513 8.5518 6 8 6Z" fill="#888888"/>
<path d="M21 18H10.8157C10.4016 16.8385 9.3019 16 8 16C6.6852 16 5.5776 16.8555 5.1734 18.035C5.115 18.0244 5.0615 18 5 18H3C2.4473 18 2 18.4478 2 19C2 19.5522 2.4473 20 3 20H5C5.0615 20 5.115 19.9756 5.1734 19.965C5.5776 21.1445 6.6852 22 8 22C9.3019 22 10.4016 21.1615 10.8157 20H21C21.5527 20 22 19.5522 22 19C22 18.4478 21.5527 18 21 18ZM8 20C7.4482 20 7 19.5513 7 19C7 18.4487 7.4482 18 8 18C8.5518 18 9 18.4487 9 19C9 19.5513 8.5518 20 8 20Z" fill="#888888"/>
<path d="M21 11H19C18.9385 11 18.8851 11.0244 18.8267 11.035C18.4224 9.8555 17.3148 9 16 9C14.6981 9 13.5984 9.8385 13.1843 11H3C2.4473 11 2 11.4478 2 12C2 12.5522 2.4473 13 3 13H13.1843C13.5984 14.1615 14.698 15 16 15C17.3148 15 18.4224 14.1445 18.8267 12.965C18.8851 12.9756 18.9385 13 19 13H21C21.5527 13 22 12.5522 22 12C22 11.4478 21.5527 11 21 11ZM16 13C15.4482 13 15 12.5513 15 12C15 11.4487 15.4482 11 16 11C16.5518 11 17 11.4487 17 12C17 12.5513 16.5518 13 16 13Z" fill="#888888"/>
</svg>
