<svg width="24" height="24" viewBox="0 0 24 24" fill="none" xmlns="http://www.w3.org/2000/svg">
<g clip-path="url(#clip0_335_8021)">
<path d="M12 17.2591C12.5216 17.2591 12.9954 16.9934 13.2675 16.5482C15.1741 13.4288 17.4469 9.31758 17.4469 7.44684C17.4469 4.44344 15.0034 2 12 2C8.99654 2 6.5531 4.44344 6.5531 7.44684C6.5531 9.31758 8.82587 13.4288 10.7325 16.5482C11.0046 16.9934 11.4784 17.2591 12 17.2591ZM9.81064 7.07285C9.81064 5.8657 10.7928 4.88359 12 4.88359C13.2072 4.88359 14.1893 5.8657 14.1893 7.07285C14.1893 8.28004 13.2072 9.26215 12 9.26215C10.7928 9.26215 9.81064 8.28008 9.81064 7.07285Z" fill="black"/>
</g>
<defs>
<clipPath id="clip0_335_8021">
<rect width="20" height="20" fill="white" transform="translate(2 2)"/>
</clipPath>
</defs>
</svg>
