<svg width="24" height="24" viewBox="0 0 24 24" fill="none" xmlns="http://www.w3.org/2000/svg">
<path d="M12 22.35L10.55 21.05C8.86667 19.5333 7.475 18.225 6.375 17.125C5.275 16.025 4.4 15.0375 3.75 14.1625C3.1 13.2875 2.64583 12.4833 2.3875 11.75C2.12917 11.0167 2 10.2667 2 9.5C2 7.93333 2.525 6.625 3.575 5.575C4.625 4.525 5.93333 4 7.5 4C8.36667 4 9.19167 4.18333 9.975 4.55C10.7583 4.91667 11.4333 5.43333 12 6.1C12.5667 5.43333 13.2417 4.91667 14.025 4.55C14.8083 4.18333 15.6333 4 16.5 4C18.0667 4 19.375 4.525 20.425 5.575C21.475 6.625 22 7.93333 22 9.5C22 10.2667 21.8708 11.0167 21.6125 11.75C21.3542 12.4833 20.9 13.2875 20.25 14.1625C19.6 15.0375 18.725 16.025 17.625 17.125C16.525 18.225 15.1333 19.5333 13.45 21.05L12 22.35ZM12 19.65C13.6 18.2167 14.9167 16.9875 15.95 15.9625C16.9833 14.9375 17.8 14.0458 18.4 13.2875C19 12.5292 19.4167 11.8542 19.65 11.2625C19.8833 10.6708 20 10.0833 20 9.5C20 8.5 19.6667 7.66667 19 7C18.3333 6.33333 17.5 6 16.5 6C15.7167 6 14.9917 6.22083 14.325 6.6625C13.6583 7.10417 13.2 7.66667 12.95 8.35H11.05C10.8 7.66667 10.3417 7.10417 9.675 6.6625C9.00833 6.22083 8.28333 6 7.5 6C6.5 6 5.66667 6.33333 5 7C4.33333 7.66667 4 8.5 4 9.5C4 10.0833 4.11667 10.6708 4.35 11.2625C4.58333 11.8542 5 12.5292 5.6 13.2875C6.2 14.0458 7.01667 14.9375 8.05 15.9625C9.08333 16.9875 10.4 18.2167 12 19.65Z" fill="#7E525F"/>
</svg>
