<svg width="24" height="24" viewBox="0 0 24 24" fill="none" xmlns="http://www.w3.org/2000/svg">
<path d="M16.2391 4C14.5804 4 13.049 4.61284 11.9901 5.65439C10.9109 4.61447 9.3863 4.00242 7.76302 4.00242C4.60073 4.00242 2 6.31558 2 9.20178C2 10.5948 2.60245 11.9016 3.69378 12.8791L11.3098 19.7521C11.493 19.9175 11.7328 20 11.973 20C12.2119 20 12.4508 19.918 12.6337 19.7543L20.3065 12.8794C21.4012 11.8925 22.0024 10.584 22 9.19518C21.9949 6.32955 19.4106 4 16.2391 4ZM18.9829 11.6821L11.9754 17.961L5.01761 11.6821C4.28091 11.0219 3.87503 10.141 3.87503 9.20183C3.87503 7.2616 5.62587 5.69322 7.76302 5.69322C9.1858 5.69322 10.4962 6.38805 11.1832 7.50642C11.3501 7.77857 11.6498 7.94533 12.0145 7.94229C12.3594 7.93846 12.674 7.76426 12.8339 7.48878C13.4675 6.39656 14.8041 5.69074 16.2391 5.69074C18.3743 5.69074 20.1218 7.2647 20.125 9.19794C20.1268 10.1342 19.7203 11.0169 18.9829 11.6821Z" fill="black"/>
</svg>
