<svg width="24" height="24" viewBox="0 0 24 24" fill="none" xmlns="http://www.w3.org/2000/svg">
<path d="M22.0191 23H14.8726C14.3588 23 13.9384 22.5785 13.9384 22.0633V17.6142C13.9384 16.4902 13.051 15.6003 11.9299 15.6003C10.8089 15.6003 9.92144 16.4902 9.92144 17.6142V22.0633C9.92144 22.5785 9.50106 23 8.98726 23H1.93418C1.42038 23 1 22.5785 1 22.0633V10.074C1 9.23097 1.42038 8.43481 2.07431 7.96647L11.4628 1.17563C11.7898 0.941458 12.2102 0.941458 12.5372 1.17563L21.9257 7.96647C22.5796 8.43481 23 9.23097 23 10.074V22.1102C22.9533 22.5785 22.5329 23 22.0191 23ZM15.8068 21.1735H21.1316V10.074C21.1316 9.83981 20.9915 9.60564 20.8047 9.46514L11.9766 3.04896L3.14862 9.41831C2.96178 9.55881 2.82166 9.79297 2.82166 10.0271V21.1267H8.1465V17.6142C8.1465 15.5067 9.87473 13.7738 11.9766 13.7738C14.0786 13.7738 15.8068 15.5067 15.8068 17.6142V21.1735Z" fill="black"/>
</svg>
