<svg width="16" height="16" viewBox="0 0 16 16" fill="none" xmlns="http://www.w3.org/2000/svg">
<path d="M7.99935 8.00016C8.36602 8.00016 8.6799 7.86961 8.94102 7.6085C9.20213 7.34739 9.33268 7.0335 9.33268 6.66683C9.33268 6.30016 9.20213 5.98627 8.94102 5.72516C8.6799 5.46405 8.36602 5.3335 7.99935 5.3335C7.63268 5.3335 7.31879 5.46405 7.05768 5.72516C6.79657 5.98627 6.66602 6.30016 6.66602 6.66683C6.66602 7.0335 6.79657 7.34739 7.05768 7.6085C7.31879 7.86961 7.63268 8.00016 7.99935 8.00016ZM7.99935 12.9002C9.3549 11.6557 10.3605 10.5252 11.016 9.5085C11.6716 8.49183 11.9993 7.58905 11.9993 6.80016C11.9993 5.58905 11.6132 4.59738 10.841 3.82516C10.0688 3.05294 9.12157 2.66683 7.99935 2.66683C6.87713 2.66683 5.9299 3.05294 5.15768 3.82516C4.38546 4.59738 3.99935 5.58905 3.99935 6.80016C3.99935 7.58905 4.32713 8.49183 4.98268 9.5085C5.63824 10.5252 6.64379 11.6557 7.99935 12.9002ZM7.99935 14.6668C6.21046 13.1446 4.87435 11.7307 3.99102 10.4252C3.10768 9.11961 2.66602 7.91127 2.66602 6.80016C2.66602 5.1335 3.20213 3.80572 4.27435 2.81683C5.34657 1.82794 6.58824 1.3335 7.99935 1.3335C9.41046 1.3335 10.6521 1.82794 11.7243 2.81683C12.7966 3.80572 13.3327 5.1335 13.3327 6.80016C13.3327 7.91127 12.891 9.11961 12.0077 10.4252C11.1243 11.7307 9.78824 13.1446 7.99935 14.6668Z" fill="#49454E"/>
</svg>
