<svg width="39" height="39" viewBox="0 0 39 39" fill="none" xmlns="http://www.w3.org/2000/svg">
<path d="M19.5 36C10.4 36 3 28.6 3 19.5C3 10.4 10.4 3 19.5 3C24.2 3 28.7 4.8 31.8 8C34.5 10.7 35.9 14.2 35.9 17.9C35.9 23.2 31.6 27.5 26.3 27.5H23.3C22.4 27.5 21.7 28.2 21.7 29.1C21.7 29.4 21.9 29.9 22.1 30.1C22.7 30.7 23.1 31.6 23.1 32.5C23.1 34.4 21.5 36 19.5 36ZM19.5 5C11.5 5 5 11.5 5 19.5C5 27.5 11.5 34 19.5 34C20.4 34 21.1 33.3 21.1 32.4C21.1 31.9 20.8 31.5 20.7 31.4C20.1 30.8 19.7 29.8 19.7 29C19.7 27 21.3 25.4 23.3 25.4H26.3C30.5 25.4 33.9 22 33.9 17.8C33.9 14.7 32.7 11.7 30.4 9.4C27.7 6.6 23.7 5 19.5 5ZM29 20.5C27 20.5 25.4 18.9 25.4 16.9C25.4 14.9 27 13.3 29 13.3C31 13.3 32.6 14.9 32.6 16.9C32.6 18.9 31 20.5 29 20.5ZM29 15.3C28.1 15.3 27.4 16 27.4 16.9C27.4 17.8 28.1 18.5 29 18.5C29.9 18.5 30.6 17.8 30.6 16.9C30.6 16 29.9 15.3 29 15.3ZM10 20.5C8 20.5 6.4 18.9 6.4 16.9C6.4 14.9 8 13.3 10 13.3C12 13.3 13.6 14.9 13.6 16.9C13.6 18.9 12 20.5 10 20.5ZM10 15.3C9.1 15.3 8.4 16 8.4 16.9C8.4 17.8 9.1 18.5 10 18.5C10.9 18.5 11.6 17.8 11.6 16.9C11.6 16 10.9 15.3 10 15.3ZM23.8 13.6C21.8 13.6 20.2 12 20.2 10C20.2 8 21.8 6.4 23.8 6.4C25.8 6.4 27.4 8 27.4 10C27.4 12 25.8 13.6 23.8 13.6ZM23.8 8.4C22.9 8.4 22.2 9.1 22.2 10C22.2 10.9 22.9 11.6 23.8 11.6C24.7 11.6 25.4 10.9 25.4 10C25.4 9.1 24.7 8.4 23.8 8.4ZM15.2 13.6C13.2 13.6 11.6 12 11.6 10C11.6 8 13.2 6.4 15.2 6.4C17.2 6.4 18.8 8 18.8 10C18.8 12 17.2 13.6 15.2 13.6ZM15.2 8.4C14.3 8.4 13.6 9.1 13.6 10C13.6 10.9 14.3 11.6 15.2 11.6C16.1 11.6 16.8 10.9 16.8 10C16.8 9.1 16.1 8.4 15.2 8.4Z" fill="#6750a4"/>
</svg>
