<svg width="39" height="39" viewBox="0 0 39 39" fill="none" xmlns="http://www.w3.org/2000/svg">
<path fill-rule="evenodd" clip-rule="evenodd" d="M4 3V35H36C36.6 35 37 35.4 37 36C37 36.6 36.6 37 36 37H3C2.4 37 2 36.6 2 36V3C2 2.4 2.4 2 3 2C3.6 2 4 2.4 4 3ZM18 22H19V25C19 25.6 19.4 26 20 26C20.6 26 21 25.6 21 25V22H22C22.6 22 23 21.6 23 21V9C23 8.4 22.6 8 22 8H21V5C21 4.4 20.6 4 20 4C19.4 4 19 4.4 19 5V8H18C17.4 8 17 8.4 17 9V21C17 21.6 17.4 22 18 22ZM9 28H8C7.4 28 7 27.6 7 27V16C7 15.4 7.4 15 8 15H9V12C9 11.4 9.4 11 10 11C10.6 11 11 11.4 11 12V15H12C12.6 15 13 15.4 13 16V27C13 27.6 12.6 28 12 28H11V31C11 31.6 10.6 32 10 32C9.4 32 9 31.6 9 31V28ZM11 26V17H9V26H11ZM29 28H28C27.4 28 27 27.6 27 27V16C27 15.4 27.4 15 28 15H29V12C29 11.4 29.4 11 30 11C30.6 11 31 11.4 31 12V15H32C32.6 15 33 15.4 33 16V27C33 27.6 32.6 28 32 28H31V31C31 31.6 30.6 32 30 32C29.4 32 29 31.6 29 31V28ZM31 26V17H29V26H31ZM21 10V20H19V10H21Z" fill="#6750a4"/>
</svg>
