<svg width="39" height="39" viewBox="0 0 39 39" fill="none" xmlns="http://www.w3.org/2000/svg">
<path fill-rule="evenodd" clip-rule="evenodd" d="M37 35H36V20C36 19.4 35.6 19 35 19H30C29.4 19 29 19.4 29 20V35H27V7C27 6.4 26.6 6 26 6H21C20.4 6 20 6.4 20 7V35H18V15C18 14.4 17.6 14 17 14H12C11.4 14 11 14.4 11 15V35H9V3C9 2.4 8.6 2 8 2C7.4 2 7 2.4 7 3V36C7 36.6 7.4 37 8 37H37C37.6 37 38 36.6 38 36C38 35.4 37.6 35 37 35ZM13 35V16H16V35H13ZM22 35V8H25V35H22ZM31 35V21H34V35H31ZM5 30C4.8 30 4.6 30.1 4.5 30.2L1.5 32.2C1.2 32.4 1 32.7 1 33C1 33.6 1.4 34 2 34C2.2 34 2.4 33.9 2.5 33.8L5.5 31.8C5.8 31.6 6 31.3 6 31C6 30.4 5.6 30 5 30ZM4.5 22.2C4.6 22.1 4.8 22 5 22C5.6 22 6 22.4 6 23C6 23.3 5.8 23.6 5.5 23.8L2.5 25.8C2.4 25.9 2.2 26 2 26C1.4 26 1 25.6 1 25C1 24.7 1.2 24.4 1.5 24.2L4.5 22.2ZM5 14C4.8 14 4.6 14.1 4.5 14.2L1.5 16.2C1.2 16.4 1 16.7 1 17C1 17.6 1.4 18 2 18C2.2 18 2.4 17.9 2.5 17.8L5.5 15.8C5.8 15.6 6 15.3 6 15C6 14.4 5.6 14 5 14ZM4.5 6.2C4.6 6.1 4.8 6 5 6C5.6 6 6 6.4 6 7C6 7.3 5.8 7.6 5.5 7.8L2.5 9.8C2.4 9.9 2.2 10 2 10C1.4 10 1 9.6 1 9C1 8.7 1.2 8.4 1.5 8.2L4.5 6.2Z" fill="#6750a4"/>
</svg>
