<svg width="39" height="39" viewBox="0 0 39 39" fill="none" xmlns="http://www.w3.org/2000/svg">
<path fill-rule="evenodd" clip-rule="evenodd" d="M4 3V35H36C36.6 35 37 35.4 37 36C37 36.6 36.6 37 36 37H3C2.4 37 2 36.6 2 36V3C2 2.4 2.4 2 3 2C3.6 2 4 2.4 4 3ZM8 23C8 23.6 7.6 24 7 24C6.4 24 6 23.6 6 23V18C6 15.8 7.8 14 10 14C12.2 14 14 15.8 14 18V26C14 27.1 14.9 28 16 28C17.1 28 18 27.1 18 26V11C18.1 8.6 20.1 6.8 22.5 6.8C24.9 6.8 26.9 8.6 27 11V28V28.2C27 29.9 28.3 31.2 30 31.2C31.7 31.2 33 29.9 33 28.2V28V22C33 21.4 33.4 21 34 21C34.6 21 35 21.4 35 22V28V28.1V28.3C35 31.1 32.8 33.3 30 33.3C27.2 33.3 25 31.1 25 28.3V28.1V28V11C24.8 9.8 23.8 8.8 22.5 8.8C21.2 8.8 20.1 9.7 20 11V26C20 28.2 18.2 30 16 30C13.8 30 12 28.2 12 26V18C12 16.9 11.1 16 10 16C8.9 16 8 16.9 8 18V23Z" fill="#6750a4"/>
</svg>
