<svg width="39" height="39" viewBox="0 0 39 39" fill="none" xmlns="http://www.w3.org/2000/svg">
<path fill-rule="evenodd" clip-rule="evenodd" d="M4 35H36C36.6 35 37 35.4 37 36C37 36.6 36.6 37 36 37H3C2.4 37 2 36.6 2 36V3C2 2.4 2.4 2 3 2C3.6 2 4 2.4 4 3V35ZM9.4 10.4C9.1 9.1 8.4 7 7 7C6.4 7 6 6.6 6 6C6 5.4 6.4 5 7 5C8.5 5 10.4 5.9 11.4 10C11.7 11.5 12.4 18.2 12.4 18.5C12.4 18.6 13 25 13.4 26.7C13.6 27.5 14.4 30.1 16 30.1C17.6 30.1 18.4 27.5 18.6 26.7C19 25 19.6 18.6 19.6 18.5C19.6 18.2 20.3 11.4 20.6 10C21.6 6 23.5 5 24.9 5H25H25.1C26.6 5 28.4 5.9 29.4 9.9C29.7 11.4 30.4 18.1 30.4 18.4C30.4 18.5 31 24.9 31.4 26.6C31.6 27.4 32.4 30 34 30C34.6 30 35 30.4 35 31C35 31.6 34.6 32 34 32C31.9 32 30.2 30.2 29.4 27.1C29 25.2 28.4 18.9 28.4 18.6C28.2 16.7 27.6 11.5 27.4 10.4C27.1 9.1 26.4 7 25 7C23.6 7 22.9 9.1 22.6 10.5C22.344 11.4387 21.9424 15.3629 21.7058 17.6744C21.6651 18.0717 21.6293 18.4213 21.6 18.7C21.6 18.9 21 25.3 20.6 27.1C19.8 30.2 18.2 31.9 16.1 32H16H15.9C13.8 32 12.2 30.2 11.4 27.1C11 25.2 10.4 18.9 10.4 18.6C10.2 16.7 9.6 11.5 9.4 10.4Z" fill="#6750a4"/>
</svg>
