<svg width="39" height="39" viewBox="0 0 39 39" fill="none" xmlns="http://www.w3.org/2000/svg">
<path d="M35.9 35H35.1V11C35.1 10.6 34.9 10.3 34.6 10.1C34.3 9.9 33.9 9.9 33.6 10.1L23.4 16.6L16.9 6.5C16.7 6.2 16.5 6 16.2 6C15.9 6 15.6 6.1 15.4 6.3L3.90002 17.7V3C3.90002 2.4 3.50002 2 2.90002 2C2.30002 2 1.90002 2.4 1.90002 3V36C1.90002 36.6 2.30002 37 2.90002 37H35.9C36.5 37 36.9 36.6 36.9 36C36.9 35.4 36.4 35 35.9 35ZM3.90002 29.6L15 21.3L22.4 28.7C22.8 29.1 23.3 29.1 23.7 28.8L33.1 21.1V35H3.90002V29.6ZM15.9 8.6L22.2 18.6C22.5 19.1 23.1 19.2 23.6 18.9L33.1 12.9V18.6L23.2 26.7L15.8 19.3C15.4 18.9 14.9 18.9 14.5 19.2L3.90002 27.1V20.5L15.9 8.6Z" fill="#6750a4"/>
</svg>
