<svg width="39" height="39" viewBox="0 0 39 39" fill="none" xmlns="http://www.w3.org/2000/svg">
<path fill-rule="evenodd" clip-rule="evenodd" d="M35.9 35H35V14C35 13.6 34.8 13.3 34.5 13.1C34.2 12.9 33.8 12.9 33.5 13.1L23.3 19.6L16.8 9.5C16.7 9.2 16.4 9 16.1 9C15.8 9 15.5 9.1 15.3 9.3L3.90002 20.7V3C3.90002 2.4 3.50002 2 2.90002 2C2.30002 2 1.90002 2.4 1.90002 3V36C1.90002 36.6 2.30002 37 2.90002 37H35.9C36.5 37 36.9 36.6 36.9 36C36.9 35.4 36.4 35 35.9 35ZM15.8 11.6L22.1 21.6C22.4 22.1 23 22.2 23.5 21.9L33 15.9V35H3.90002V23.5L15.8 11.6ZM27.5 13C28.9 13 30 11.9 30 10.5C30 9.1 28.9 8 27.5 8C26.1 8 25 9.1 25 10.5C25 11.9 26.1 13 27.5 13ZM27.5 10C27.8 10 28 10.2 28 10.5C28 10.8 27.8 11 27.5 11C27.2 11 27 10.8 27 10.5C27 10.2 27.2 10 27.5 10ZM27 27C27 28.7 25.7 30 24 30C22.3 30 21 28.7 21 27C21 25.3 22.3 24 24 24C25.7 24 27 25.3 27 27ZM25 27C25 26.5 24.5 26 24 26C23.5 26 23 26.5 23 27C23 27.5 23.5 28 24 28C24.5 28 25 27.5 25 27ZM14.5 26C16.4 26 18 24.4 18 22.5C18 20.6 16.4 19 14.5 19C12.6 19 11 20.6 11 22.5C11 24.4 12.6 26 14.5 26ZM14.5 21C15.3 21 16 21.7 16 22.5C16 23.3 15.3 24 14.5 24C13.7 24 13 23.3 13 22.5C13 21.7 13.7 21 14.5 21ZM10 31C10 32.1046 9.10459 33 8.00002 33C6.89545 33 6.00002 32.1046 6.00002 31C6.00002 29.8954 6.89545 29 8.00002 29C9.10459 29 10 29.8954 10 31Z" fill="#6750a4"/>
</svg>
