<svg width="39" height="39" viewBox="0 0 39 39" fill="none" xmlns="http://www.w3.org/2000/svg">
<path fill-rule="evenodd" clip-rule="evenodd" d="M36 35H4V3C4 2.4 3.6 2 3 2C2.4 2 2 2.4 2 3V36C2 36.6 2.4 37 3 37H36C36.6 37 37 36.6 37 36C37 35.4 36.6 35 36 35ZM7 33C7.3 33 7.5 32.9 7.7 32.7L15.8 24.2L25.6 29.3C26.1 29.5 26.6 29.4 26.9 29L35.6 15.8C35.9 15.3 35.8 14.7 35.3 14.4C34.8 14.1 34.2 14.2 33.9 14.7L25.7 27.2L16.1 22C15.7 21.8 15.2 21.9 14.9 22.2L6.3 31.2C5.9 31.6 5.9 32.2 6.3 32.6C6.5 32.9 6.8 33 7 33ZM7.7 20.8C7.5 20.9 7.2 21 7 21C6.7 21 6.5 20.9 6.3 20.6C5.9 20.2 6 19.6 6.4 19.2L15.8 11.1C16.1 10.8 16.5 10.8 16.9 11L23.8 14.8L32.3 6.3C32.7 5.9 33.3 5.9 33.7 6.3C34.1 6.7 34.1 7.3 33.7 7.7L24.7 16.7C24.4 17 23.9 17.1 23.5 16.9L16.6 13.1L7.7 20.8Z" fill="#6750a4"/>
</svg>
