<svg width="39" height="39" viewBox="0 0 39 39" fill="none" xmlns="http://www.w3.org/2000/svg">
<path d="M19.5 2C9.9 2 2 9.9 2 19.5C2 29.1 9.9 37 19.5 37C29.1 37 37 29.1 37 19.5C37 9.9 29.1 2 19.5 2ZM34.9 18.5H28.1C27.6 14.5 24.5 11.3 20.5 10.9V4.1C28.2 4.5 34.5 10.8 34.9 18.5ZM19.5 12.8C23.2 12.8 26.2 15.8 26.2 19.5C26.2 23.2 23.2 26.2 19.5 26.2C15.8 26.2 12.8 23.2 12.8 19.5C12.8 15.8 15.8 12.8 19.5 12.8ZM19.5 35C11 35 4 28 4 19.5C4 11.3 10.4 4.6 18.5 4.1V10.9C14.2 11.4 10.8 15.1 10.8 19.5C10.8 24.3 14.7 28.2 19.5 28.2C24 28.2 27.6 24.8 28.1 20.5H34.9C34.4 28.6 27.7 35 19.5 35Z" fill="#6750a4"/>
</svg>
