<svg width="39" height="39" viewBox="0 0 39 39" fill="none" xmlns="http://www.w3.org/2000/svg">
<path fill-rule="evenodd" clip-rule="evenodd" d="M37 36C37 35.4 36.6 35 36 35H4V3C4 2.4 3.6 2 3 2C2.4 2 2 2.4 2 3V36C2 36.6 2.4 37 3 37H36C36.6 37 37 36.6 37 36ZM10 26C10.6 26 11 25.6 11 25V12C11 11.4 10.6 11 10 11C9.4 11 9 11.4 9 12V25C9 25.6 9.4 26 10 26ZM14 31C14 31.6 13.6 32 13 32C12.4 32 12 31.6 12 31V6C12 5.4 12.4 5 13 5C13.6 5 14 5.4 14 6V31ZM16 30C16.6 30 17 29.6 17 29V10C17 9.4 16.6 9 16 9C15.4 9 15 9.4 15 10V29C15 29.6 15.4 30 16 30ZM20 25C20 25.6 19.6 26 19 26C18.4 26 18 25.6 18 25V13C18 12.4 18.4 12 19 12C19.6 12 20 12.4 20 13V25ZM22 27C22.6 27 23 26.6 23 26V15C23 14.4 22.6 14 22 14C21.4 14 21 14.4 21 15V26C21 26.6 21.4 27 22 27ZM26 21C26 21.6 25.6 22 25 22C24.4 22 24 21.6 24 21V18C24 17.4 24.4 17 25 17C25.6 17 26 17.4 26 18V21ZM28 24C28.6 24 29 23.6 29 23V16C29 15.4 28.6 15 28 15C27.4 15 27 15.4 27 16V23C27 23.6 27.4 24 28 24ZM32 21C32 21.6 31.6 22 31 22C30.4 22 30 21.6 30 21V19C30 18.4 30.4 18 31 18C31.6 18 32 18.4 32 19V21ZM7 23C7.6 23 8 22.6 8 22V17C8 16.4 7.6 16 7 16C6.4 16 6 16.4 6 17V22C6 22.6 6.4 23 7 23ZM35 20C35 20.5523 34.5523 21 34 21C33.4477 21 33 20.5523 33 20C33 19.4477 33.4477 19 34 19C34.5523 19 35 19.4477 35 20Z" fill="#6750a4"/>
</svg>
