<svg width="39" height="39" viewBox="0 0 39 39" fill="none" xmlns="http://www.w3.org/2000/svg">
<path fill-rule="evenodd" clip-rule="evenodd" d="M21 2.9C21 2.4 21.4 2 21.9 2C30.2 2 37 8.8 37 17.1C37 17.6 36.6 18 36.1 18H21.9C21.4 18 21 17.6 21 17.1V2.9ZM22.8 16.2H35.1C34.6 9.6 29.4 4.4 22.8 3.9V16.2ZM19 20H33C33.6 20 34 20.4 34 21C34 29.8 26.8 37 18 37C9.2 37 2 29.8 2 21C2 12.2 9.2 5 18 5C18.6 5 19 5.4 19 6V20ZM4 21C4 28.7 10.3 35 18 35C25.4 35 31.4 29.3 31.9 22H18C17.4 22 17 21.6 17 21V7.1C9.7 7.6 4 13.6 4 21Z" fill="#6750a4"/>
</svg>
