<svg width="39" height="39" viewBox="0 0 39 39" fill="none" xmlns="http://www.w3.org/2000/svg">
<path fill-rule="evenodd" clip-rule="evenodd" d="M4 35H36C36.6 35 37 35.4 37 36C37 36.6 36.6 37 36 37H3C2.4 37 2 36.6 2 36V3C2 2.4 2.4 2 3 2C3.6 2 4 2.4 4 3V35ZM10 31C10 31.6 9.6 32 9 32C8.4 32 8 31.6 8 31C8 25.5 8.9 21.8 10.8 19.9C13.7 17 17.8 17 20.5 17C23 17 26.5 17 28.7 14.7C30.2 13.2 31 9.9 31 5C31 4.4 31.4 4 32 4C32.6 4 33 4.4 33 5C33 10.5 32.1 14.2 30.2 16.1C27.3 19 23.2 19 20.5 19C18 19 14.5 19 12.3 21.3C10.8 22.8 10 26.1 10 31Z" fill="#6750a4"/>
</svg>
