<svg width="39" height="39" viewBox="0 0 39 39" fill="none" xmlns="http://www.w3.org/2000/svg">
<path fill-rule="evenodd" clip-rule="evenodd" d="M36 11.1V35C36.6 35 37 35.4 37 36C37 36.6 36.6 37 36 37H3C2.4 37 2 36.6 2 36V3C2 2.4 2.4 2 3 2C3.6 2 4 2.4 4 3V14H10V7C10 6.4 10.4 6 11 6H19C19.6 6 20 6.4 20 7V13H26V11.1V11V10.9C26 10.3 26.4 9.9 27 9.9H35C35.6 9.9 36 10.3 36 10.9V11V11.1ZM28 35H34V12H28V21.1C28 21.4 27.9 21.6 27.7 21.8C27.1 22.4 26 22 26 21.1V15H20V18.5C20 19.5 18.8 19.9 18.2 19.1C18.1 18.9 18 18.7 18 18.5V8H12V14.3V18.1C12 18.4 11.9 18.6 11.7 18.8C11.1 19.4 10 19 10 18.1V16H4V35H10V27.9C10 27.6 10.1 27.4 10.3 27.2C10.9 26.6 12 27 12 27.9V35H18V30.4C18 29.4 19.2 29 19.8 29.8C19.9 30 20 30.2 20 30.4V35H26V30.9C26 30.6 26.1 30.4 26.3 30.2C26.9 29.6 28 30 28 30.9V35ZM23 28C23.2 28 23.3 28 23.5 28.1L29.1 22.5C29 22.3 29 22.2 29 22C29 20.9 29.9 20 31 20C32.1 20 33 20.9 33 22C33 23.1 32.1 24 31 24C30.9 24 30.825 23.975 30.75 23.95C30.675 23.925 30.6 23.9 30.5 23.9L24.9 29.5C25 29.7 25 29.8 25 30C25 31.1 24.1 32 23 32C21.9 32 21 31.1 21 30C21 29.7 21.1 29.4 21.2 29.2L15.2 21H15C14.9 21 14.825 20.975 14.75 20.95C14.675 20.925 14.6 20.9 14.5 20.9L8.9 26.5C9 26.7 9 26.8 9 27C9 28.1 8.1 29 7 29C5.9 29 5 28.1 5 27C5 25.9 5.9 25 7 25C7.2 25 7.3 25 7.5 25.1L13.1 19.5C13 19.3 13 19.2 13 19C13 17.9 13.9 17 15 17C16.1 17 17 17.9 17 19C17 19.3 16.9 19.6 16.8 19.8L22.8 28H23Z" fill="#6750a4"/>
</svg>
