<svg width="39" height="39" viewBox="0 0 39 39" fill="none" xmlns="http://www.w3.org/2000/svg">
<path fill-rule="evenodd" clip-rule="evenodd" d="M4 35H36C36.6 35 37 35.4 37 36C37 36.6 36.6 37 36 37H3C2.4 37 2 36.6 2 36V3C2 2.4 2.4 2 3 2C3.6 2 4 2.4 4 3V35ZM33.6 19.7C33 22 30.9 23.6 28.6 23.6C28.2 23.6 27.8 23.5 27.4 23.4C24.7 22.8 23 20 23.7 17.2C24.4 14.5 27.2 12.8 29.9 13.5C32.6 14.2 34.3 17 33.6 19.7ZM29.4 15.4C27.7 15 26 16 25.6 17.7C25.2 19.4 26.2 21.1 28 21.4C28.8 21.6 29.6 21.4 30.3 21C31 20.6 31.5 19.9 31.7 19.1C31.9 18.3 31.7 17.5 31.3 16.8C30.9 16.1 30.2 15.6 29.4 15.4ZM18.9 13.4C19.2 13.5 19.5 13.5 19.8 13.5C21.4 13.5 22.9 12.4 23.3 10.8C23.5 9.9 23.4 8.9 22.9 8.1C22.4 7.3 21.6 6.7 20.7 6.5C19.8 6.3 18.8 6.4 18 6.9C17 7.3 16.5 8.1 16.2 9C16 9.9 16.1 10.9 16.6 11.7C17.1 12.5 17.9 13.2 18.9 13.4ZM18.2 9.5C18.4 8.8 19 8.3 19.8 8.3H20.2C20.6 8.4 21 8.7 21.2 9C21.4 9.3 21.5 9.8 21.4 10.2C21.2 11.1 20.3 11.6 19.4 11.4C19 11.3 18.6 11 18.4 10.7C18.1 10.4 18.1 9.9 18.2 9.5ZM14.3 31.6C13.7 31.6 13.1 31.5 12.5 31.4C10.6 30.9 9 29.7 8 28.1C7 26.4 6.7 24.5 7.2 22.6C7.7 20.7 8.8 19.1 10.5 18.1C12.2 17.1 14.1 16.8 16 17.3C19.9 18.3 22.3 22.2 21.3 26.1C20.8 28 19.7 29.6 18 30.6C16.9 31.2 15.6 31.6 14.3 31.6ZM11.6 19.9C10.4 20.6 9.5 21.7 9.2 23.1C8.8 24.4 9 25.8 9.8 27C10.5 28.2 11.6 29.1 13 29.4C14.4 29.7 15.8 29.5 17 28.8C18.2 28.1 19.1 27 19.4 25.6C20.1 22.8 18.4 20 15.6 19.3C15.5142 19.2828 15.4314 19.2657 15.351 19.249C14.9628 19.1686 14.6314 19.1 14.3 19.1C13.4 19.1 12.4 19.4 11.6 19.9Z" fill="#6750a4"/>
</svg>
