<svg width="36" height="36" viewBox="0 0 36 36" fill="none" xmlns="http://www.w3.org/2000/svg">
<rect width="36" height="36" rx="11"/>
<path fill-rule="evenodd" clip-rule="evenodd" d="M7.42949 17.2969H11.6822C11.7349 15.534 11.9846 13.8633 12.3936 12.375H9.03475C8.12204 13.8208 7.54882 15.4995 7.42949 17.2969ZM10.0939 10.9688H12.8476C13.014 10.525 13.1962 10.1039 13.3927 9.70862C13.6979 9.09467 14.0479 8.52525 14.4389 8.02606C12.7545 8.63236 11.2641 9.65528 10.0939 10.9688ZM17.9997 6C11.3983 6 6 11.3985 6 18C6 24.6015 11.3983 30 17.9997 30C24.6011 30 29.9994 24.6015 29.9994 18C29.9994 11.3985 24.6011 6 17.9997 6ZM17.2966 7.5249C16.3712 7.83579 15.4344 8.7606 14.6519 10.3346C14.551 10.5376 14.454 10.7491 14.3611 10.9688H17.2966V7.5249ZM17.2966 12.375H13.8568C13.4223 13.8178 13.1464 15.4937 13.0891 17.2969H17.2966V12.375ZM18.7028 17.2969V12.375H22.1426C22.5772 13.8178 22.853 15.4937 22.9103 17.2969H18.7028ZM17.2966 18.7031H13.0891C13.1464 20.5064 13.4223 22.1823 13.8568 23.625H17.2966V18.7031ZM18.7028 23.625V18.7031H22.9103C22.853 20.5064 22.5772 22.1823 22.1426 23.625H18.7028ZM17.2966 25.0313H14.3611C14.454 25.2509 14.551 25.4625 14.6519 25.6654C15.4344 27.2394 16.3712 28.1642 17.2966 28.4751V25.0313ZM14.4389 27.974C14.0479 27.4748 13.6979 26.9054 13.3927 26.2914C13.1962 25.8961 13.014 25.475 12.8476 25.0313H10.0939C11.2641 26.3448 12.7545 27.3677 14.4389 27.974ZM9.03475 23.625H12.3936C11.9846 22.1367 11.7349 20.466 11.6822 18.7031H7.42949C7.54882 20.5005 8.12204 22.1792 9.03475 23.625ZM21.5605 27.974C23.2449 27.3677 24.7353 26.3448 25.9055 25.0313H23.1519C22.9854 25.475 22.8032 25.8961 22.6067 26.2914C22.3015 26.9054 21.9515 27.4748 21.5605 27.974ZM21.6384 25.0313H18.7028V28.4751C19.6282 28.1642 20.565 27.2394 21.3475 25.6654C21.4484 25.4625 21.5454 25.2509 21.6384 25.0313ZM23.6058 23.625H26.9647C27.8774 22.1792 28.4506 20.5005 28.5699 18.7031H24.3172C24.2645 20.466 24.0148 22.1367 23.6058 23.625ZM24.3172 17.2969H28.5699C28.4506 15.4995 27.8774 13.8208 26.9647 12.375H23.6058C24.0148 13.8633 24.2645 15.534 24.3172 17.2969ZM23.1519 10.9688C22.9854 10.525 22.8032 10.1039 22.6067 9.70862C22.3015 9.09467 21.9515 8.52525 21.5605 8.02606C23.2449 8.63236 24.7353 9.65528 25.9055 10.9688H23.1519ZM21.6384 10.9688H18.7028V7.5249C19.6282 7.83579 20.565 8.7606 21.3475 10.3346C21.4484 10.5376 21.5454 10.7491 21.6384 10.9688Z" fill="black"/>
</svg>
