<svg width="36" height="36" viewBox="0 0 36 36" fill="none" xmlns="http://www.w3.org/2000/svg">
<rect width="36" height="36" rx="11"/>
<path d="M12.2 11.2C12.2 9.45228 13.6522 8 15.4 8C16.7854 8 17.9851 8.91258 18.423 10.1615C19.0477 9.94695 19.7141 9.82217 20.4067 9.80254C19.7899 7.61952 17.7689 6 15.4 6C12.5477 6 10.2 8.34771 10.2 11.2C10.2 12.6926 10.8429 14.0471 11.8646 14.9992C8.44003 16.4095 6 19.7949 6 23.6999C6 24.2521 6.44772 24.6999 7 24.6999C7.55228 24.6999 8 24.2521 8 23.6999C8 20.1651 10.5565 17.1606 13.9002 16.4559C13.9052 15.6647 14.0475 14.906 14.3044 14.2024C13.0848 13.7484 12.2 12.5642 12.2 11.2Z" fill="black"/>
<path fill-rule="evenodd" clip-rule="evenodd" d="M24.0704 20.273C25.1322 19.3209 25.8002 17.9386 25.8002 16.4002C25.8002 13.5283 23.4721 11.2002 20.6002 11.2002C17.7284 11.2002 15.4003 13.5283 15.4003 16.4002C15.4003 17.9386 16.0682 19.3209 17.13 20.2729C13.6713 21.6669 11.2002 25.0704 11.2002 29.0001C11.2002 29.5524 11.6479 30.0001 12.2002 30.0001C12.7525 30.0001 13.2002 29.5524 13.2002 29.0001C13.2002 24.9607 16.5388 21.6138 20.5755 21.6002H20.6002H20.6249C24.6615 21.6138 28.0002 24.9607 28.0002 29.0001C28.0002 29.5524 28.4479 30.0001 29.0002 30.0001C29.5525 30.0001 30.0002 29.5524 30.0002 29.0001C30.0002 25.0704 27.5292 21.6669 24.0704 20.273ZM20.6002 13.2002C18.8329 13.2002 17.4002 14.6329 17.4002 16.4002C17.4002 18.1602 18.8211 19.5884 20.5783 19.6002L20.6002 19.6001C20.6075 19.6001 20.6148 19.6001 20.6221 19.6002C22.3793 19.5884 23.8002 18.1603 23.8002 16.4002C23.8002 14.6329 22.3675 13.2002 20.6002 13.2002Z" fill="black"/>
</svg>
