<svg width="36" height="36" viewBox="0 0 36 36" fill="none" xmlns="http://www.w3.org/2000/svg">
<rect width="36" height="36" rx="11"/>
<path d="M17.9996 28.3966C17.7871 28.3967 17.5807 28.3245 17.4147 28.1918L10.0948 22.3501C9.71191 22.0458 9.40282 21.6588 9.19071 21.2181C8.97861 20.7774 8.86901 20.2944 8.87013 19.8053V11.6745C8.87022 11.5344 8.90173 11.396 8.96234 11.2695C9.02295 11.1431 9.11112 11.0319 9.22037 10.944C9.38836 10.809 13.3835 7.64404 17.9996 7.64404C21.2266 7.73981 24.329 8.91167 26.8134 10.9733C26.9127 11.0612 26.9922 11.1691 27.0466 11.29C27.101 11.4109 27.1292 11.542 27.1292 11.6745V19.8038C27.1305 20.2932 27.021 20.7766 26.8087 21.2176C26.5965 21.6586 26.2871 22.0458 25.9037 22.3501L18.5846 28.1918C18.4186 28.3245 18.2122 28.3967 17.9996 28.3966ZM10.7451 12.15V19.8038C10.7447 20.0114 10.7912 20.2163 10.8812 20.4034C10.9712 20.5904 11.1024 20.7546 11.2648 20.8838L17.9996 26.2598L24.7337 20.8838C24.8965 20.7548 25.0278 20.5906 25.118 20.4036C25.2081 20.2165 25.2547 20.0115 25.2542 19.8038V12.1238C23.1663 10.5208 20.6303 9.60918 17.9996 9.51605C14.7657 9.51605 11.7486 11.4375 10.7451 12.15Z" fill="black"/>
</svg>
