<svg width="36" height="36" viewBox="0 0 36 36" fill="none" xmlns="http://www.w3.org/2000/svg">
<rect width="36" height="36" rx="11"/>
<path d="M17.6149 27.6666C16.8533 27.6666 16.1228 27.3641 15.5843 26.8255C15.0457 26.2869 14.7432 25.5565 14.7432 24.7948C14.7432 24.6044 14.8188 24.4218 14.9534 24.2872C15.0881 24.1525 15.2707 24.0769 15.4611 24.0769H19.7688C19.9592 24.0769 20.1418 24.1525 20.2764 24.2872C20.4111 24.4218 20.4867 24.6044 20.4867 24.7948C20.4867 25.5565 20.1841 26.2869 19.6456 26.8255C19.107 27.3641 18.3766 27.6666 17.6149 27.6666ZM16.3729 25.5128C16.4991 25.7304 16.6803 25.911 16.8983 26.0365C17.1162 26.1621 17.3634 26.2282 17.6149 26.2282C17.8665 26.2282 18.1136 26.1621 18.3316 26.0365C18.5496 25.911 18.7308 25.7304 18.857 25.5128H16.3729Z" fill="black"/>
<path d="M19.0516 11.8718H16.1799C15.9894 11.8718 15.8068 11.7961 15.6722 11.6615C15.5376 11.5268 15.4619 11.3442 15.4619 11.1538C15.4619 10.5826 15.6888 10.0348 16.0928 9.63084C16.4967 9.22692 17.0445 9 17.6157 9C18.187 9 18.7348 9.22692 19.1387 9.63084C19.5426 10.0348 19.7696 10.5826 19.7696 11.1538C19.7696 11.3442 19.6939 11.5268 19.5593 11.6615C19.4246 11.7961 19.242 11.8718 19.0516 11.8718Z" fill="black"/>
<path d="M25.5127 25.5126H9.71794C9.52753 25.5126 9.34492 25.4369 9.21028 25.3023C9.07564 25.1677 9 24.985 9 24.7946C8.99937 23.9838 9.19493 23.1849 9.56998 22.4661C9.94503 21.7472 10.4884 21.1298 11.1538 20.6665V16.8973C11.1538 15.191 11.8286 13.554 13.0311 12.3435C14.2336 11.1329 15.866 10.4472 17.5722 10.4358H17.6512C19.3649 10.4358 21.0084 11.1166 22.2202 12.3283C23.4319 13.5401 24.1127 15.1836 24.1127 16.8973V20.6665C24.7714 21.1337 25.3079 21.7529 25.6766 22.4715C26.0452 23.1901 26.2353 23.987 26.2306 24.7946V24.7946C26.2306 24.985 26.155 25.1677 26.0203 25.3023C25.8857 25.4369 25.7031 25.5126 25.5127 25.5126ZM10.5077 24.0767H24.7229C24.6212 23.579 24.4151 23.1085 24.118 22.6963C23.821 22.2842 23.4399 21.9398 22.9999 21.6859C22.8903 21.6227 22.7994 21.5316 22.7364 21.4219C22.6733 21.3122 22.6404 21.1878 22.6409 21.0613V16.8973C22.6409 15.5644 22.1114 14.2861 21.1689 13.3436C20.2265 12.4012 18.9482 11.8717 17.6153 11.8717C16.2824 11.8717 15.0042 12.4012 14.0617 13.3436C13.1192 14.2861 12.5897 15.5644 12.5897 16.8973V21.0613C12.5902 21.1878 12.5573 21.3122 12.4942 21.4219C12.4312 21.5316 12.3403 21.6227 12.2307 21.6859C11.7907 21.9398 11.4096 22.2842 11.1126 22.6963C10.8155 23.1085 10.6094 23.579 10.5077 24.0767V24.0767Z" fill="black"/>
</svg>
