<svg width="36" height="36" viewBox="0 0 36 36" fill="none" xmlns="http://www.w3.org/2000/svg">
<rect width="36" height="36" rx="11"/>
<path fill-rule="evenodd" clip-rule="evenodd" d="M28.6877 11.2741C29.0887 11.6539 29.1058 12.2868 28.726 12.6877L27.6654 13.8072C27.521 13.9597 27.5259 14.1999 27.6765 14.3464L27.6971 14.3663C28.6486 15.2915 28.6486 16.8196 27.6971 17.7448C27.5533 17.8846 27.5533 18.1154 27.6971 18.2552C28.6486 19.1804 28.6486 20.7085 27.6971 21.6337L27.6765 21.6536C27.5259 21.8001 27.521 22.0403 27.6655 22.1928L28.726 23.3123C29.1058 23.7132 29.0887 24.3461 28.6877 24.726C28.2868 25.1058 27.6539 25.0887 27.274 24.6877L26.2135 23.5683C25.3164 22.6213 25.347 21.129 26.2824 20.2197L26.3029 20.1997C26.4467 20.0599 26.4467 19.829 26.3029 19.6892C25.3514 18.7641 25.3514 17.2359 26.3029 16.3108C26.4467 16.171 26.4467 15.9401 26.3029 15.8003L26.2824 15.7803C25.347 14.871 25.3164 13.3787 26.2135 12.4317L27.274 11.3123C27.6539 10.9113 28.2868 10.8942 28.6877 11.2741ZM21 8C22.6569 8 24 9.34315 24 11V25C24 26.6569 22.6569 28 21 28H15C13.3431 28 12 26.6569 12 25V11C12 9.34315 13.3431 8 15 8H21ZM22 11C22 10.4477 21.5523 10 21 10H15C14.4477 10 14 10.4477 14 11V25C14 25.5523 14.4477 26 15 26H21C21.5523 26 22 25.5523 22 25V11ZM9.78646 12.4317C10.6836 13.3787 10.653 14.871 9.71763 15.7803L9.69708 15.8003C9.5533 15.9401 9.5533 16.171 9.69708 16.3108C10.6486 17.2359 10.6486 18.7641 9.69707 19.6892C9.5533 19.829 9.5533 20.0599 9.69707 20.1997L9.71762 20.2197C10.653 21.129 10.6836 22.6213 9.78646 23.5683L8.72595 24.6877C8.34612 25.0887 7.71319 25.1058 7.31226 24.726C6.91133 24.3461 6.89422 23.7132 7.27404 23.3123L8.33455 22.1928C8.47901 22.0403 8.47407 21.8001 8.32346 21.6536L8.30291 21.6337C7.35135 20.7085 7.35135 19.1804 8.30292 18.2552C8.44669 18.1154 8.44669 17.8846 8.30292 17.7448C7.35135 16.8196 7.35135 15.2915 8.30292 14.3663L8.32347 14.3464C8.47408 14.1999 8.47901 13.9597 8.33455 13.8072L7.27405 12.6877C6.89422 12.2868 6.91133 11.6539 7.31225 11.2741C7.71319 10.8942 8.34612 10.9113 8.72595 11.3123L9.78646 12.4317Z" fill="black"/>
</svg>
