<svg xmlns="http://www.w3.org/2000/svg" width="24" height="24" viewBox="0 0 24 24">
  <path
      d="M12,2C6.5,2 2,6.5 2,12s4.5,10 10,10c5.5,0 10,-4.5 10,-10S17.5,2 12,2zM18.9,8H16c-0.3,-1.3 -0.8,-2.4 -1.4,-3.6C16.4,5.1 18,6.3 18.9,8zM12,4c0.8,1.2 1.5,2.5 1.9,4h-3.8C10.5,6.6 11.2,5.2 12,4zM4.3,14C4.1,13.4 4,12.7 4,12s0.1,-1.4 0.3,-2h3.4c-0.1,0.7 -0.1,1.3 -0.1,2s0.1,1.3 0.1,2H4.3zM5.1,16h3c0.3,1.3 0.8,2.5 1.4,3.6C7.6,18.9 6,17.7 5.1,16zM8,8h-3c1,-1.7 2.5,-2.9 4.3,-3.6C8.8,5.6 8.4,6.8 8,8zM12,20c-0.8,-1.2 -1.5,-2.5 -1.9,-4h3.8C13.5,17.4 12.8,18.8 12,20zM14.3,14H9.7c-0.1,-0.7 -0.2,-1.3 -0.2,-2s0.1,-1.4 0.2,-2h4.7c0.1,0.6 0.2,1.3 0.2,2S14.4,13.3 14.3,14zM14.6,19.6c0.6,-1.1 1.1,-2.3 1.4,-3.6h2.9C18,17.6 16.4,18.9 14.6,19.6zM16.4,14c0.1,-0.7 0.1,-1.3 0.1,-2s-0.1,-1.3 -0.1,-2h3.4c0.2,0.6 0.3,1.3 0.3,2s-0.1,1.4 -0.3,2H16.4z"
      fill="#B7B7B7"/>
</svg>
