<svg width="39" height="39" viewBox="0 0 39 39" fill="none" xmlns="http://www.w3.org/2000/svg">
<path fill-rule="evenodd" clip-rule="evenodd" d="M29.8 5.5L33.7 9.6C34.1 10 34.1 10.7 33.6 11L29.7 14.7C29.3 15.1 28.7 15.1 28.3 14.7C27.9 14.3 27.9 13.7 28.3 13.3L30.4 11.4H23.5C23.3 12 23.1 12.6 22.8 13.2C22.7 13.2 22.7 13.3 22.7 13.3C22.7 13.3425 22.7 13.3669 22.6924 13.3887C22.682 13.4181 22.6575 13.4425 22.6 13.5C22.2 13.9 21.6 13.9 21.2 13.5C20.9 13.2 20.9 12.7 21.1 12.3C21.5 11.6 21.8 10.8 21.8 9.9C21.8 7.2 19.6 5 16.9 5C14.2 5 12 7.2 11.8 9.9C11.8 10.8 12.1 11.7 12.5 12.4C12.8 12.8 12.7 13.3 12.4 13.6C12 14 11.4 14 11 13.6C11 13.55 10.975 13.525 10.95 13.5C10.925 13.475 10.9 13.45 10.9 13.4V13.3V13.2C10.3 12.2 10 11.1 10 9.9C10 6.1 13.1 3 16.9 3C20.6 3 23.5 5.8 23.8 9.4H30.6L28.4 7C28 6.6 28 6 28.4 5.5C28.8 5.1 29.4 5.1 29.8 5.5ZM28.4 20.4C28.4 20.4 29.5 19.3 31.1 20C34.5683 21.4864 30.5736 31.2215 28.9441 35.1926L28.9 35.3C28.5 36.3 27.5 36.9 26.5 36.9L16.6 37C15.8 37 14.9 36.6 14.4 36C12.6 34 8.20002 28.9 7.50002 27.9C6.00002 25.8 6.70002 24.1 7.30002 23.6C8.00002 23 9.50002 22.6 10.8 23.5C12.7 24.7 14 25.7 14 25.7V10.1C14 8.6 15 7 16.7 7C19 7 20 8.6 20 10.1V18C20 18 20.5 16.7 22.4 17.1C23.9 17.3 24.1 19.1 24.1 19.1C24.1 19.1 24.9 18.1 26.6 18.5C28 18.8 28.4 20.4 28.4 20.4ZM25.9 34.9C26.8 34.9 27.3 34.3 27.6 33.5C29 30.1 31.6 22.3 30.1 21.9C29.6 21.7 29 22.4 28.5 23.3C28 24.1 26.7 23.8 26.7 22.8C26.6894 22.6619 26.6799 22.5272 26.6707 22.3966C26.5933 21.2977 26.5363 20.4894 26 20.4C25.3312 20.3045 24.9363 21.0305 24.3791 22.0548C24.3531 22.1026 24.3268 22.151 24.3 22.2C23.8 23.1 22.4 22.7 22.4 21.7C22.4 20.2 22.3 19.1 21.7 19C21 18.9 20.4 19.9 19.8 21.2C19.4 22.1 18 21.8 18 20.8V10C18 9 17 9 17 9C17 9 16 9 16 10V27.6C16 28.6 15 29 14.3 28.4C14.1767 28.2943 14.0472 28.1824 13.9136 28.067C13.2891 27.5274 12.5767 26.9119 12 26.5C11 25.6 9.30002 24.4 8.70002 25C8.13206 25.4733 8.81859 26.305 10.081 27.8345C10.1522 27.9208 10.2253 28.0092 10.3 28.1C10.5737 28.4127 11.1835 29.1533 11.9144 30.041C13.0533 31.4242 14.4864 33.1645 15.4 34.2C15.8 34.7 16.2 34.9 16.9 34.9H25.9Z" fill="#6750a4"/>
</svg>
