<svg width="39" height="39" viewBox="0 0 39 39" fill="none" xmlns="http://www.w3.org/2000/svg">
<path fill-rule="evenodd" clip-rule="evenodd" d="M18 3C18 2.4 18.4 2 19 2C19.6 2 20 2.4 20 3V11C20 11.6 19.6 12 19 12C18.4 12 18 11.6 18 11V3ZM11 18H3C2.4 18 2 18.4 2 19C2 19.6 2.4 20 3 20H11C11.6 20 12 19.6 12 19C12 18.4 11.6 18 11 18ZM27 18H35C35.6 18 36 18.4 36 19C36 19.6 35.6 20 35 20H27C26.4 20 26 19.6 26 19C26 18.4 26.4 18 27 18ZM18 27C18 26.4 18.4 26 19 26C19.6 26 20 26.4 20 27V35C20 35.6 19.6 36 19 36C18.4 36 18 35.6 18 35V27ZM11.9 4.6C11.6 4.2 11 4 10.5 4.3C10 4.6 9.9 5.2 10.1 5.6L14.1 12.5C14.4 13 15 13.1 15.5 12.9C16 12.6 16.1 12 15.9 11.5L11.9 4.6ZM26.5 15.9C26 16.1 25.4 16 25.1 15.5C24.8 15 24.9 14.4 25.5 14.1L32.4 10.1C32.9 9.9 33.5 10 33.8 10.5C34 11 33.9 11.6 33.4 11.9L26.5 15.9ZM23.9 25.4C23.6 24.9 23 24.8 22.5 25C22 25.3 21.9 25.9 22.1 26.4L26.1 33.3C26.4 33.8 27 33.9 27.5 33.7C28 33.4 28.1 32.8 27.9 32.3L23.9 25.4ZM5.7 10.1L12.6 14.1C13.1 14.4 13.2 15 12.9 15.5C12.6 16 12 16.2 11.5 15.9L4.6 11.9C4.2 11.6 4 11 4.3 10.5C4.6 10 5.2 9.9 5.7 10.1ZM33.4 26.1L26.5 22.1C26 21.8 25.4 22 25.1 22.5C24.8 23 25 23.6 25.5 23.9L32.4 27.9C32.9 28.2 33.5 28 33.8 27.5C34 27 33.8 26.4 33.4 26.1ZM23.9 12.5C23.6 13 23 13.2 22.5 12.9C22 12.7 21.9 12.1 22.1 11.5L26.1 4.6C26.4 4.2 27 4 27.5 4.2C28 4.5 28.2 5.1 27.9 5.6L23.9 12.5Z" fill="#6750a4"/>
</svg>
