<svg xmlns="http://www.w3.org/2000/svg" width="24" height="24" viewBox="0 0 24 24">
  <path
      fill="#FFFFFFFF"
      d="M5.5,7.7c0.3,-0.3 0.8,-0.4 1.3,-0.1C7.9,8.2 9.4,8 10.4,7.1l3.5,-3.5l-0.7,-0.7c-0.4,-0.4 -0.4,-1 0,-1.4c0.4,-0.4 1,-0.4 1.4,0l7.1,7.1c0.4,0.4 0.4,1 0,1.4c-0.4,0.4 -1,0.4 -1.4,0l-0.7,-0.7l-3.5,3.5c-1,1 -1.1,2.5 -0.5,3.6c0.2,0.4 0.2,0.9 -0.1,1.3l-0.1,0.1c-0.4,0.4 -1,0.4 -1.4,0l-3.5,-3.5l-5,4.9c-0.4,0.4 -1,0.4 -1.4,0s-0.4,-1 0,-1.4l5,-4.9L5.4,9.2C5.1,8.8 5.1,8.1 5.5,7.7L5.5,7.7z"
      fillType="evenOdd"/>
</svg>
