<svg width="39" height="39" viewBox="0 0 39 39" fill="none" xmlns="http://www.w3.org/2000/svg">
<path fill-rule="evenodd" clip-rule="evenodd" d="M19.5 5C12.3 5 6.3 10.3 5.2 17.1C5.1 17.6 4.7 18 4.2 18C3.6 18 3.1 17.4 3.2 16.8C4.5 9 11.3 3 19.5 3C25.1 3 30 5.8 33 10V5C33 4.4 33.4 4 34 4C34.6 4 35 4.4 35 5V13C35 13.6 34.6 14 34 14H26C25.4 14 25 13.6 25 13C25 12.4 25.4 12 26 12H31.9C29.3 7.8 24.8 5 19.5 5ZM33.9 21.9C34 21.4 34.4 21 34.9 21C35.5 21 36 21.6 35.9 22.2C34.6 30 27.8 36 19.6 36C14 36 9.1 33.2 6.1 29V34C6.1 34.6 5.7 35 5.1 35C4.5 35 4.1 34.6 4.1 34V26C4.1 25.4 4.5 25 5.1 25H13.1C13.7 25 14.1 25.4 14.1 26C14.1 26.6 13.7 27 13.1 27H7.2C9.8 31.2 14.3 34 19.6 34C26.8 34 32.8 28.7 33.9 21.9Z" fill="#6750a4"/>
</svg>
