<svg xmlns="http://www.w3.org/2000/svg" width="304" height="159" viewBox="0 0 304 159">
  <path
      d="M0,0h304v159h-304z"
      fill="#3D3D3D"/>
  <path
      d="M0.3,0h303.7v159h-303.7z"
      fill="#3D3D3D"/>
  <path
      d="M174.6,0l-29.3,0l28.3,44.2z"
      fill="#151515"/>
  <path
      d="M100.7,111.6l-26.1,-111.6l-11.1,0l-50.5,51.8z"
      fill="#050505"/>
  <path
      d="M148.3,159l20.2,0l-6.3,-29z"
      fill="#0A0A0A"/>
  <path
      d="M162.2,130l6.3,29l75.5,0l12.2,-14.6z"
      fill="#141414"/>
  <path
      d="M294.8,0l-83.9,0l59.2,41.9z"
      fill="#111111"/>
  <path
      d="M304,0l-0.3,0l0,19.9l0.3,-0.2z"
      fill="#0E0E0E"/>
  <path
      d="M294.8,0l-24.7,41.9l33.6,-22l0,-19.9z"
      fill="#0E0E0E"/>
  <path
      d="M0,57l0,57.1l13,-62.3z"
      fill="#0E0E0E"/>
  <path
      d="M0,49.3l0,7.7l13,-5.2z"
      fill="#111111"/>
  <path
      d="M0,38.7l0,10.6l13,2.5z"
      fill="#0C0C0C"/>
  <path
      d="M63.6,0H0v38.7c4.3,4.4 8.7,8.8 13,13.2C29.9,34.5 46.7,17.3 63.6,0z"
      fill="#111111"/>
  <path
      d="M304,131.7l-47.8,12.7l11.1,14.6l36.7,0z"
      fill="#0A0A0A"/>
  <path
      d="M304,49.5l-0.3,-0.1l0,13l0.3,0.2z"
      fill="#121212"/>
  <path
      d="M270.1,41.9l33.6,20.5l0,-13z"
      fill="#121212"/>
  <path
      d="M304,19.7l-0.3,0.2l0,29.5l0.3,0.1z"
      fill="#0E0E0E"/>
  <path
      d="M270.1,41.9l33.6,7.5l0,-29.5z"
      fill="#0E0E0E"/>
  <path
      d="M162.2,130l11.4,-85.8l-72.9,67.4z"
      fill="#161616"/>
</svg>
