<svg width="39" height="39" viewBox="0 0 39 39" fill="none" xmlns="http://www.w3.org/2000/svg">
<path fill-rule="evenodd" clip-rule="evenodd" d="M2 2H6C6.6 2 7 2.4 7 3C7 3.6 6.6 4 6 4H5V7C5 7.6 4.6 8 4 8C3.4 8 3 7.6 3 7V4H2C1.4 4 1 3.6 1 3C1 2.4 1.4 2 2 2ZM7 11C7 11.6 6.6 12 6 12H5V26H6C6.6 26 7 26.4 7 27C7 27.6 6.6 28 6 28H5H3H2C1.4 28 1 27.6 1 27C1 26.4 1.4 26 2 26H3V12H2C1.4 12 1 11.6 1 11C1 10.4 1.4 10 2 10H3H5H6C6.6 10 7 10.4 7 11ZM6 35H5V32C5 31.4 4.6 31 4 31C3.4 31 3 31.4 3 32V35H2C1.4 35 1 35.4 1 36C1 36.6 1.4 37 2 37H6C6.6 37 7 36.6 7 36C7 35.4 6.6 35 6 35ZM13 2H37C37.6 2 38 2.4 38 3V10V12V26V28V36C38 36.6 37.6 37 37 37H13C12.4 37 12 36.6 12 36V28V26V12V10V3C12 2.4 12.4 2 13 2ZM14 35H36V28H14V35ZM14 26H36V12H14V26ZM14 4V10H36V4H14Z" fill="#6750a4"/>
</svg>
