<svg width="40" height="40" viewBox="0 0 40 40" fill="none" xmlns="http://www.w3.org/2000/svg">
<path fill-rule="evenodd" clip-rule="evenodd" d="M33 4H9V10H11C11.5523 10 12 10.4477 12 11C12 11.5523 11.5523 12 11 12H9V16H11C11.5523 16 12 16.4477 12 17C12 17.5523 11.5523 18 11 18H9V22H11C11.5523 22 12 22.4477 12 23C12 23.5523 11.5523 24 11 24H9V28H11C11.5523 28 12 28.4477 12 29C12 29.5523 11.5523 30 11 30H9V36H33V4ZM7 4V10H5C4.44772 10 4 10.4477 4 11C4 11.5523 4.44772 12 5 12H7V16H5C4.44772 16 4 16.4477 4 17C4 17.5523 4.44772 18 5 18H7V22H5C4.44772 22 4 22.4477 4 23C4 23.5523 4.44772 24 5 24H7V28H5C4.44772 28 4 28.4477 4 29C4 29.5523 4.44772 30 5 30H7V36C7 37.1046 7.89543 38 9 38H33C34.1046 38 35 37.1046 35 36V4C35 2.89543 34.1046 2 33 2H9C7.89543 2 7 2.89543 7 4ZM27.8614 26.7327C27.3514 26.9122 26.8113 27.0027 26.2672 26.9999C24.5217 26.9999 21.7981 26.1649 18.4612 22.3465C13.8014 17.021 14.9575 13.8947 15.6642 12.7978C15.8063 12.5763 16.0015 12.3895 16.2339 12.2523C16.4664 12.1152 16.7297 12.0316 17.0027 12.0082C17.2679 11.9829 17.5358 12.0163 17.785 12.1058C18.0343 12.1953 18.2581 12.3385 18.4386 12.5239L19.9354 14.2301C20.3731 14.7307 20.5826 15.3751 20.5179 16.0217C20.4533 16.6683 20.1197 17.2642 19.5905 17.6784C19.1933 17.9883 19.2471 18.9383 20.6986 20.5976C22.1501 22.257 23.1295 22.4855 23.5253 22.1742C23.7873 21.9689 24.0896 21.8146 24.4149 21.7199C24.7401 21.6252 25.0819 21.5921 25.4207 21.6223C25.7595 21.6526 26.0886 21.7457 26.3893 21.8963C26.69 22.047 26.9564 22.2521 27.1731 22.5001L28.6091 24.1408C28.784 24.3447 28.9051 24.585 28.9624 24.8418C29.0197 25.0987 29.0114 25.3648 28.9384 25.618C28.8653 25.8713 28.7295 26.1045 28.5423 26.2983C28.355 26.4921 28.1216 26.641 27.8614 26.7327Z" fill="#6750a4"/>
</svg>
