<svg width="39" height="39" viewBox="0 0 39 39" fill="none" xmlns="http://www.w3.org/2000/svg">
<path fill-rule="evenodd" clip-rule="evenodd" d="M32 8H7C6.4 8 6 7.6 6 7C6 6.4 6.4 6 7 6H32C32.6 6 33 6.4 33 7C33 7.6 32.6 8 32 8ZM32 11H7C6.4 11 6 11.4 6 12C6 12.6 6.4 13 7 13H32C32.6 13 33 12.6 33 12C33 11.4 32.6 11 32 11ZM7 16H32C32.6 16 33 16.4 33 17C33 17.6 32.6 18 32 18H7C6.4 18 6 17.6 6 17C6 16.4 6.4 16 7 16ZM32 21H7C6.4 21 6 21.4 6 22C6 22.6 6.4 23 7 23H32C32.6 23 33 22.6 33 22C33 21.4 32.6 21 32 21ZM7 26H32C32.6 26 33 26.4 33 27C33 27.6 32.6 28 32 28H7C6.4 28 6 27.6 6 27C6 26.4 6.4 26 7 26ZM7 31H32C32.6 31 33 31.4 33 32C33 32.6 32.6 33 32 33H7C6.4 33 6 32.6 6 32C6 31.4 6.4 31 7 31Z" fill="#6750a4"/>
</svg>
