<svg xmlns="http://www.w3.org/2000/svg" width="303.8" height="159" viewBox="0 0 303.8 159">
  <path
      d="M0.1,0h304v159h-304z"
      fill="#FFFFFF"/>
  <path
      d="M174.8,0l-29.3,0l28.3,44.2z"
      fill="#EAEAEA"/>
  <path
      d="M100.8,111.6l-26.1,-111.6l-11.1,0l-50.5,51.8z"
      fill="#FAFAFA"/>
  <path
      d="M148.5,159l20.2,0l-6.3,-29z"
      fill="#F5F5F5"/>
  <path
      d="M162.4,130l6.3,29l75.5,0l12.1,-14.6z"
      fill="#EFEFEF"/>
  <path
      d="M100.8,111.6l1.7,47.4l46,0l13.9,-29z"
      fill="#EFEFEF"/>
  <path
      d="M294.9,0l-83.9,0l59.3,41.9z"
      fill="#FEFEFE"/>
  <path
      d="M294.9,0l-24.6,41.9l33.8,-22.2l0,-19.7z"
      fill="#F7F7F7"/>
  <path
      d="M0.1,57l0,57.1l13,-62.3z"
      fill="#F1F1F1"/>
  <path
      d="M0.1,49.3l0,7.7l13,-5.2z"
      fill="#EEEEEE"/>
  <path
      d="M0.1,38.7l0,10.6l13,2.5z"
      fill="#F3F3F3"/>
  <path
      d="M63.7,0H0.1v38.7c4.3,4.4 8.7,8.8 13,13.2C30,34.5 46.8,17.3 63.7,0z"
      fill="#F8F8F8"/>
  <path
      d="M267.4,159l36.7,0l0,-27.3l-47.8,12.7z"
      fill="#F5F5F5"/>
  <path
      d="M304.1,62.6l0,-13.1l-33.8,-7.6z"
      fill="#EDEDED"/>
  <path
      d="M304.1,49.5l0,-29.8l-33.9,22.2z"
      fill="#F1F1F1"/>
  <path
      d="M162.4,130l11.4,-85.8l-73,67.4z"
      fill="#EFEFEF"/>
</svg>
