<svg width="40" height="40" viewBox="0 0 40 40" fill="none" xmlns="http://www.w3.org/2000/svg">
<path fill-rule="evenodd" clip-rule="evenodd" d="M1.66448 5.23048C0.983366 4.30612 1.64334 3 2.79155 3H37.2084C38.3566 3 39.0165 4.30611 38.3354 5.23048L25 23.3286V31.7783C25 32.261 24.7513 32.7097 24.342 32.9655L17.142 37.4655C16.2095 38.0483 15 37.3779 15 36.2783V23.3286L1.66448 5.23048ZM3.97895 5L6.92819 9.00254C6.95191 9.00086 6.97585 9 7 9H23C23.5523 9 24 9.44772 24 10C24 10.5523 23.5523 11 23 11H8.4L16.727 22.301C16.9043 22.5416 17 22.8326 17 23.1315V35.1958L23 31.4458V23.1315C23 22.8326 23.0956 22.5416 23.2729 22.301L36.021 5H3.97895ZM27 9C26.4477 9 26 9.44772 26 10C26 10.5523 26.4477 11 27 11H28C28.5523 11 29 10.5523 29 10C29 9.44772 28.5523 9 28 9H27Z" fill="#6750a4"/>
</svg>
