<svg width="48" height="48" viewBox="0 0 48 48" fill="none" xmlns="http://www.w3.org/2000/svg">
<path d="M23.65 44C22.85 44 22.0833 43.85 21.35 43.55C20.6167 43.25 19.9667 42.8167 19.4 42.25L9.2 32L10.7 30.45C11.2333 29.9167 11.8583 29.5583 12.575 29.375C13.2917 29.1917 14 29.2 14.7 29.4L18 30.35V14C18 13.4333 18.1917 12.9583 18.575 12.575C18.9583 12.1917 19.4333 12 20 12C20.5667 12 21.0417 12.1917 21.425 12.575C21.8083 12.9583 22 13.4333 22 14V35.65L17.15 34.3L22.25 39.4C22.4167 39.5667 22.625 39.7083 22.875 39.825C23.125 39.9417 23.3833 40 23.65 40H32C33.1 40 34.0417 39.6083 34.825 38.825C35.6083 38.0417 36 37.1 36 36V28C36 27.4333 36.1917 26.9583 36.575 26.575C36.9583 26.1917 37.4333 26 38 26C38.5667 26 39.0417 26.1917 39.425 26.575C39.8083 26.9583 40 27.4333 40 28V36C40 38.2 39.2167 40.0833 37.65 41.65C36.0833 43.2167 34.2 44 32 44H23.65ZM24 30V22C24 21.4333 24.1917 20.9583 24.575 20.575C24.9583 20.1917 25.4333 20 26 20C26.5667 20 27.0417 20.1917 27.425 20.575C27.8083 20.9583 28 21.4333 28 22V30H24ZM30 30V24C30 23.4333 30.1917 22.9583 30.575 22.575C30.9583 22.1917 31.4333 22 32 22C32.5667 22 33.0417 22.1917 33.425 22.575C33.8083 22.9583 34 23.4333 34 24V30H30ZM44 14H34V11H39.8C37.6 9.06667 35.15 7.58333 32.45 6.55C29.75 5.51667 26.9333 5 24 5C21.0667 5 18.25 5.51667 15.55 6.55C12.85 7.58333 10.4 9.06667 8.2 11H14V14H4V4H7V8.05C9.4 6.08333 12.05 4.58333 14.95 3.55C17.85 2.51667 20.8667 2 24 2C27.1333 2 30.15 2.51667 33.05 3.55C35.95 4.58333 38.6 6.08333 41 8.05V4H44V14Z" fill="#65558F"/>
</svg>
