<svg width="48" height="48" viewBox="0 0 48 48" fill="none" xmlns="http://www.w3.org/2000/svg">
<path d="M18 42L15.15 39.2L18.35 36H18C14.1 36 10.7917 34.6417 8.075 31.925C5.35833 29.2083 4 25.9 4 22C4 18.1 5.35833 14.7917 8.075 12.075C10.7917 9.35833 14.1 8 18 8H30C33.9 8 37.2083 9.35833 39.925 12.075C42.6417 14.7917 44 18.1 44 22C44 25.9 42.6417 29.2083 39.925 31.925C37.2083 34.6417 33.9 36 30 36V32C32.7667 32 35.125 31.025 37.075 29.075C39.025 27.125 40 24.7667 40 22C40 19.2333 39.025 16.875 37.075 14.925C35.125 12.975 32.7667 12 30 12H18C15.2333 12 12.875 12.975 10.925 14.925C8.975 16.875 8 19.2333 8 22C8 24.7667 8.975 27.1417 10.925 29.125C12.875 31.1083 15.2333 32.2 18 32.4H18.8L15.2 28.8L18 26L26 34L18 42Z" fill="#65558F"/>
</svg>
