<svg width="48" height="48" viewBox="0 0 48 48" fill="none" xmlns="http://www.w3.org/2000/svg">
<path d="M18 44C16.0667 44 14.25 43.6333 12.55 42.9C10.85 42.1667 9.36667 41.1667 8.1 39.9C6.83333 38.6333 5.83333 37.15 5.1 35.45C4.36667 33.75 4 31.9333 4 30C4 27.3 4.7 24.8333 6.1 22.6C7.5 20.3667 9.33333 18.6667 11.6 17.5C12.2667 16.2 13.0917 15.0583 14.075 14.075C15.0583 13.0917 16.2 12.2667 17.5 11.6C18.6 9.33333 20.2833 7.5 22.55 6.1C24.8167 4.7 27.3 4 30 4C31.9333 4 33.75 4.36667 35.45 5.1C37.15 5.83333 38.6333 6.83333 39.9 8.1C41.1667 9.36667 42.1667 10.85 42.9 12.55C43.6333 14.25 44 16.0667 44 18C44 20.8333 43.3 23.3333 41.9 25.5C40.5 27.6667 38.6667 29.3333 36.4 30.5C35.7333 31.8 34.9083 32.9417 33.925 33.925C32.9417 34.9083 31.8 35.7333 30.5 36.4C29.3333 38.6667 27.6333 40.5 25.4 41.9C23.1667 43.3 20.7 44 18 44ZM18 40C19.1 40 20.1583 39.8333 21.175 39.5C22.1917 39.1667 23.1333 38.6667 24 38C22.0667 38 20.25 37.6333 18.55 36.9C16.85 36.1667 15.3667 35.1667 14.1 33.9C12.8333 32.6333 11.8333 31.15 11.1 29.45C10.3667 27.75 10 25.9333 10 24C9.33333 24.8667 8.83333 25.8083 8.5 26.825C8.16667 27.8417 8 28.9 8 30C8 31.4 8.26667 32.7 8.8 33.9C9.33333 35.1 10.05 36.15 10.95 37.05C11.85 37.95 12.9 38.6667 14.1 39.2C15.3 39.7333 16.6 40 18 40ZM24 34C25.1 34 26.175 33.8333 27.225 33.5C28.275 33.1667 29.2333 32.6667 30.1 32C28.1333 32 26.3 31.625 24.6 30.875C22.9 30.125 21.4167 29.1167 20.15 27.85C18.8833 26.5833 17.875 25.1 17.125 23.4C16.375 21.7 16 19.8667 16 17.9C15.3333 18.7667 14.8333 19.725 14.5 20.775C14.1667 21.825 14 22.9 14 24C14 25.4 14.2583 26.7 14.775 27.9C15.2917 29.1 16.0167 30.15 16.95 31.05C17.85 31.9833 18.9 32.7083 20.1 33.225C21.3 33.7417 22.6 34 24 34ZM30 28C30.6 28 31.175 27.95 31.725 27.85C32.275 27.75 32.8333 27.6 33.4 27.4C34.1333 25.4 34.2417 23.475 33.725 21.625C33.2083 19.775 32.3167 18.2167 31.05 16.95C29.7833 15.6833 28.225 14.7917 26.375 14.275C24.525 13.7583 22.6 13.8667 20.6 14.6C20.4 15.1667 20.25 15.725 20.15 16.275C20.05 16.825 20 17.4 20 18C20 19.4 20.2583 20.7 20.775 21.9C21.2917 23.1 22.0167 24.15 22.95 25.05C23.85 25.9833 24.9 26.7083 26.1 27.225C27.3 27.7417 28.6 28 30 28ZM38 24.1C38.6667 23.2333 39.1667 22.275 39.5 21.225C39.8333 20.175 40 19.1 40 18C40 16.6 39.7417 15.3 39.225 14.1C38.7083 12.9 37.9833 11.85 37.05 10.95C36.15 10.0167 35.1 9.29167 33.9 8.775C32.7 8.25833 31.4 8 30 8C28.8333 8 27.7417 8.16667 26.725 8.5C25.7083 8.83333 24.7667 9.33333 23.9 10C25.8667 10 27.7 10.375 29.4 11.125C31.1 11.875 32.5833 12.8833 33.85 14.15C35.1167 15.4167 36.125 16.9 36.875 18.6C37.625 20.3 38 22.1333 38 24.1Z" fill="#65558F"/>
</svg>
