<svg width="24" height="24" viewBox="0 0 24 24" fill="none" xmlns="http://www.w3.org/2000/svg">
    <path fill-rule="evenodd" clip-rule="evenodd" d="M20.6707 9.28159L20.6713 9.28271C20.9155 9.72985 21.0298 10.24 20.9943 10.7554C20.9587 11.2706 20.7758 11.7579 20.4765 12.1651C20.4765 12.1652 20.4766 12.1651 20.4765 12.1651L12.6012 22.88C12.254 23.352 11.7699 23.6911 11.2318 23.8651C10.6943 24.0389 10.1159 24.0448 9.57536 23.8826C9.03413 23.7203 8.5439 23.3927 8.18671 22.9293C7.82823 22.4642 7.6259 21.8893 7.6254 21.2879L7.6254 16.143H4.74917C4.26558 16.1427 3.7855 16.0165 3.36023 15.7706C2.93434 15.5244 2.57428 15.1638 2.3305 14.7179C2.08618 14.271 1.97161 13.7611 2.00687 13.2457C2.04211 12.7306 2.2247 12.2432 2.52374 11.8358L10.3997 1.11999C10.7469 0.647968 11.2311 0.308866 11.7692 0.13489C12.3066 -0.0388546 12.885 -0.0448177 13.4256 0.117359C13.9668 0.279736 14.457 0.607275 14.8142 1.07072C15.1727 1.53583 15.375 2.11067 15.3755 2.71209L15.3755 2.71376L15.3755 7.85702H18.2505C18.2504 7.85702 18.2506 7.85702 18.2505 7.85702C18.7342 7.85701 19.2147 7.98299 19.6402 8.22878C20.0664 8.47496 20.4267 8.83554 20.6707 9.28159ZM18.865 10.9807C18.9437 10.8736 18.99 10.7481 18.999 10.6178C19.008 10.4874 18.9793 10.3572 18.916 10.2413C18.8526 10.1255 18.7571 10.0283 18.6398 9.96059C18.5225 9.89283 18.3879 9.85701 18.2507 9.85702H13.3755V2.71376C13.3754 2.56191 13.3245 2.41405 13.2301 2.29163C13.1358 2.16922 13.0029 2.07863 12.8509 2.033C12.6988 1.98738 12.5354 1.9891 12.3844 2.03791C12.2334 2.08672 12.1027 2.18008 12.0112 2.30445L4.13595 13.0193C4.05738 13.1264 4.01112 13.2519 4.0022 13.3822C3.99329 13.5125 4.02206 13.6427 4.08539 13.7585C4.14871 13.8744 4.24418 13.9715 4.36139 14.0392C4.47861 14.107 4.6131 14.1429 4.75023 14.143H9.6254V21.2862C9.62553 21.4381 9.67646 21.586 9.77081 21.7084C9.86516 21.8308 9.99801 21.9214 10.1501 21.967C10.3022 22.0126 10.4655 22.0109 10.6165 21.9621C10.7675 21.9133 10.8982 21.8199 10.9897 21.6955L18.2507 11.8164L18.865 10.9807Z" fill="#49454E" />
</svg>
