<?xml version="1.0" encoding="utf-8"?>
<!-- Generator: Adobe Illustrator 26.0.1, SVG Export Plug-In . SVG Version: 6.00 Build 0)  -->
<svg version="1.1" id="Layer_1" xmlns="http://www.w3.org/2000/svg" xmlns:xlink="http://www.w3.org/1999/xlink" x="0px" y="0px"
	 viewBox="0 0 1024 769" style="enable-background:new 0 0 1024 769;" xml:space="preserve">
<g>
	<rect fill="none" width="1024" height="769"/>
	<g>
		<path fill="#FF8F00" d="M542.3,542.5c-0.9,0.7-1.8,0.9-2.9,0.8c-0.7-1.2-1.8-1.9-2.9-2c-0.3-2.2-2.7-3.5-4.9-2.3l0,0
			c0.6-2.7-2.4-4.2-4.6-3.5c-1.3,0.4-2.4,1-3.4,1.6c0.3-1.6,0.4-3.3,0-5.1c-0.6-2.6-3.1-3.6-5.3-2.2c-1.6,1-3,2.1-4.4,3.3
			c2.3-3.5,4.3-7.2,5.4-11.5c0.6-2.4-2.3-4.2-4.3-3.3c-1.7,0.7-3.4,1.6-4.9,2.6c1-1.8,2-3.6,2.8-5.6c1.2-2.8-2.3-5.7-4.8-3.6
			c-5.9,5-11.1,10.4-16.2,16.1c2.4-3.9,4.4-8,5.9-12.5c1-3-2.1-5.3-4.7-3.6c-6.8,4.3-12.4,9.7-17.5,15.6c2.4-5.1,4-10.5,4.1-16.3
			c0-2.8-3.1-4.4-5.1-2.1c-7.1,8-13.3,16.7-19.2,25.6c2.5-7.6,4.7-15.3,4.8-23.5c0.1-2.7-3.6-5.1-5.4-2.3
			c-5.5,8.3-9.5,17.5-13.1,26.8c-2.2,5.6-3.8,11.9-6.3,17.7c0.2-9.3,1.9-18.6,0.4-28c-0.4-2.6-4.2-3.3-5.2-0.7
			c-3.8,9.5-6.4,19-7.5,28.7c-0.5-3.9-0.8-7.8-1.2-11.7c-0.2-1.4-2.2-1.1-2.2,0.3c0.1,11.1-1.8,23.4,3.5,33.7
			c1.4,2.7,5.7,1.8,5.3-1.4c-1.4-11-0.7-21.3,1.8-31.5c-0.7,7.2-1.6,14.3-0.6,21.6c0.4,2.9,3.9,3.5,5.7,1.5c6-6.7,7.6-16,10.8-24.2
			c1.1-2.7,2.1-5.5,3.2-8.2c-2.6,7.7-5.7,15.3-7.6,23.1c-0.8,3.2,4.1,5.1,5.9,2.4c8.2-12.4,15.1-25.5,24-37.4
			c-4.7,11.9-14.6,22.1-19.2,34c-1.4,3.8,3.2,6,5.8,3.3c10.1-10.7,17.8-24,28.5-34.1c-6,9.9-14,18.7-18.6,29.4
			c-1.3,2.9,1.7,5.1,4.3,4.3c2.5-0.8,4.8-2.2,6.8-4c-0.3,0.7-0.7,1.5-1,2.3c-1.1,3,2.5,6.2,5.1,3.9c10.2-8.7,16.1-22.8,26.4-31.5
			c-4.9,7.8-12.8,14.3-16.4,22.9c-1.1,2.6,1.7,5.8,4.4,4.4c7.2-3.7,11.9-10,17.4-15.4c-2.1,3.5-5,7-6.2,10.3s2.3,5.8,5.2,4
			c1.6-1,2.9-2.3,4.2-3.7c-0.1,0.4-0.3,0.9-0.4,1.3c-0.7,3.2,3.2,4.6,5.4,3.1c1.6-1,2.9-2.3,4.2-3.7c0.9,1.1,2.3,1.7,3.8,0.9
			c2-1,3.7-2.3,5.3-3.7c2.4,1.3,5.4,0.9,8.5-0.7C548.8,546.8,546.2,540.7,542.3,542.5z"/>
		<path fill="#FF8F00" d="M622.3,578.7c-8.1,4.9-14.5,12.8-22.8,17.3c2.2-3.7,4.8-7.1,7.6-10.4c3.1-2.8,5.9-6,8.7-9.1
			c1.7-1.9-1.2-4.3-2.9-2.6c-2.6,2.6-5.1,5.2-7.5,7.8c-1.9,1.8-4,3.5-6.2,5c1-1.8,2.1-3.6,3.2-5.4c7.5-6,13.6-14.5,20.2-20.9
			c1.7-1.7-0.7-4-2.5-2.6c-7.6,5.8-14.7,12.7-20.3,20.5c-2.3,1.7-4.7,3.3-7.3,4.4c0.8-1.2,1.6-2.3,2.4-3.5
			c6.7-6.4,12.2-14.1,19.3-20c1.7-1.4-0.6-4.1-2.4-2.9c-4.6,3.1-8.6,6.7-12.2,10.8c5.2-6.6,10.6-13,16.4-19c1.5-1.6-0.6-4.1-2.3-2.6
			c-10,9.3-18,22.7-30,29.8c2.2-3.1,4.4-6.3,6.6-9.3c6.6-6.3,12.3-14,19-20c1.4-1.2-0.1-3.7-1.7-2.5c-7.6,5.7-13.8,12.7-19.5,20.1
			c-2.9,2.7-6,5.2-9.5,7.1c2.5-3.9,5.2-7.8,8-11.5c7.3-6.2,12.5-14.5,20.4-20.2c1.2-0.9-0.3-2.7-1.5-1.8
			c-7.2,4.9-13.6,11.1-19.2,17.9c2.3-3.8,4.6-7.6,7.2-11.3c5-5.4,9.8-11,15.6-14.9c0.7-0.4-0.1-1.3-0.7-1c-6.7,3.9-12,9.2-16.6,15.2
			c-1.5,1.6-3.1,3.2-4.6,4.7c-3.9,3.8-8.1,7.2-12.9,9.6c-5.2,2.5-1-1.8,0.1-3.6c1.6-2.5,3.5-4.8,5.1-7.3c0.4-0.7-0.5-1.4-1-0.8
			c-3.1,4.4-6.6,8.5-8.8,13.5c-0.2,0.5,0.4,1.1,0.9,1c5.9-1.4,10.7-4.6,15.2-8.5c-2,3.1-4,6.3-5.9,9.4c-0.4,0.7-0.1,1.5,0.5,1.8
			c-2.5,3.5-4.9,7-7.1,10.5c-0.9,1.4,0.4,3,1.9,2.4c2.2-0.8,4.2-1.8,6.1-2.9c-1.3,1.9-2.7,3.7-4,5.6c-1.1,1.5,0.7,3,2.2,2.5
			c2.7-1,5.1-2.2,7.5-3.7c-1.8,2.3-3.6,4.5-5.4,6.8c-1.1,1.4,0.3,4.1,2.2,3.1c0.6-0.3,1.1-0.6,1.7-0.9c0,1.2,1,2.3,2.4,2.1
			c2.5-0.4,4.9-1.2,7.1-2.3c-0.8,1.4-1.5,2.9-2.2,4.4c-0.8,1.8,1.2,3.3,2.9,2.7c0.5-0.2,0.9-0.4,1.4-0.6c-1.4,2.1-2.6,4.3-3.7,6.6
			c-0.9,1.8,1.1,3.2,2.7,2.7c6.4-1.9,11.4-5.9,16.3-10.2c-2.3,2.7-4.4,5.5-6.2,8.6c-1.2,2.1,0.9,4.3,3,2.9
			c5.3-3.5,10.2-7.5,14.9-11.7c1.8-1.6-0.8-4.1-2.6-2.6c-1.7,1.4-3.5,2.8-5.2,4.1c3.1-3.9,6.3-7.6,9-11.9
			C625.9,579.6,623.8,577.8,622.3,578.7z"/>
	</g>
	<g>
		<path fill="#303030" d="M617.3,604.4c4-1.2,7.9-2.7,11.7-4.4c2-0.9,12.2-3.9,8.5-7.8c-0.2-0.2-0.4-0.4-0.6-0.6s-0.4-0.3-0.5-0.4
			c-0.4-8.5-4.4-17.5-7.6-24.8c-5-11.5-11.5-22.2-17.9-33.1c-0.8-1.4-3.2-0.1-2.5,1.4c4.2,9.8,8.8,19.5,12.9,29.4
			c2,4.9,3.7,9.9,5.4,14.9c1.6,4.7,2.1,9.6,3.5,14.3c-4.4,2.2-8.9,4-13.5,5.5c-11.1,3.6-21.1,3.3-32,1.1
			c-3.5-11.1-7.1-22.2-9.2-33.7c-1-5.6-1.9-18.4-8.7-20.4c-0.8-0.2-1.5,0.6-1,1.3c4.9,7.3,5.4,16.6,6.6,25
			c1.7,12.1,6.1,23.9,10,35.4c0.8,2.4,4.8,1.1,4.2-1.4c-0.1-0.7-0.3-1.3-0.5-2c0.4,1.2,6.5,2.2,7.6,2.4c2.7,0.5,5.1-0.2,7.7-0.2
			C607.2,606.5,611.8,606.1,617.3,604.4z"/>
		<path fill="#303030" d="M578.3,631.7c4.1-3,8-6.2,12.1-9.3c1.7-1.3,5-4.7,8.8-8.7c-0.1-1.4,1.9-3.1,1.2-4.3c-2.6,2.3-6,4.1-8.4,5.9
			c-4.7,3.4-9.5,6.7-14.2,10.1c-4,2.9-8.9,5.6-10.7,10.5c-1.9,5.1,2.6,10.2,5.7,13.6c2.4,2.6,6.8-0.9,4.3-3.5
			c-2.1-2.3-5.9-5.5-4.6-9C573.3,634.8,576.5,633,578.3,631.7z"/>
		<path fill="#303030" d="M642.3,619.2c-3.3-2.3-6.9-4-10.3-6c-2.2-1.3-8.2-4.3-8.6-7.2c-0.1-0.4-0.7-0.6-0.8-0.1
			c-1.6,7.9,14.1,15.6,19.4,19.5c9.6,7,15.5,3.6,23.8-3.5c2.8-2.4-0.7-6.9-3.5-4.5c-2.6,2.3-5.3,5-8.5,6.5
			C650,625.8,645,621.1,642.3,619.2z"/>
		<path fill="#303030" d="M514.6,557.7c4.3-2.4,8.7,0.4,12.6,2.1c11.6,4.9,22.3-5.7,32.7-10.1c-4.2,8.8-13.6,13.9-18.1,22.7
			c-4.7,9.1-4.3,24.7-1.8,34.3c0.7,2.7,4.1,1.5,4.7-0.5c3.3-12-3-24.4,4.7-35.8c5-7.3,12.2-11.9,14.3-21c0.1-0.4,0-0.7-0.1-1
			c1.1-0.7,1.3-1.9,1-3c1.6,0.3,3.2,0.5,4.8,0.7c0.5,0.1,1-0.1,1.3-0.3c10.8,2.6,23.9-4.1,32.1-9.7c13.7-9.4,25.5-25.2,24.9-42.5
			c-0.1-2.4-3.8-2.4-4.1-0.1c0,0.2-0.1,0.3-0.1,0.5c-0.1,0-0.3,0-0.4,0c-5.4,0.8-11-0.8-16.1-2.2c-6.3-1.8-16-4.8-20.9-10.2
			c6.8-0.6,14.3-4.2,20.4-6.1c7-2.2,16.7-6.2,18.8-14c0.1-0.3,0.1-0.6,0-0.9c0.6-0.1,1-0.7,0.7-1.3c-8.7-19-22.9-35.9-44.3-40.1
			c-7.5-1.5-15.3-1-22.9,0.8c9-4.6,14.3-17,15.5-26.2c0.1-0.8-1.1-1.3-1.4-0.4c-3.3,10.5-8.6,20.1-17.9,25.9
			c5.3-6.5,8.1-15.1,5.1-22.8c-0.3-0.8-1.7-0.5-1.5,0.4c2,11-4.6,20.6-12.4,27.7c-8.4,4-15.9,9.7-21.6,16.4
			c-14.9,17.6-17.3,43.6-10.3,65c0.5,1.4,1,2.7,1.5,4.1c-3.1-1.9-6.5-3.4-9.4-3.1c-8.9,1.1-15.5,8.6-24.9,5.5
			c-8.4-2.8-18.3-13.1-27.5-9.1c-0.1-0.1-0.1-0.1-0.2-0.1c-0.9-1.2-2.8-1.7-4.3-0.1c-11.9,12-27.2,20.1-34.3,36.2
			c-3.3,7.5-2.6,15.4-1.8,23.2c1.1,10.8-1.1,19.7-5,29.7c-0.9,2.3,2.3,4.2,3.7,2.2c0.5-0.7,1-1.4,1.4-2.2c1.2,0.3,2.5-0.1,3-1.4
			c1.7-5,6.8-8.5,10.8-11.6c5.4-4.1,10.9-7.9,17.1-10.8c8-3.9,16.6-4.9,25.1-2.3c6.5,1.9,13.1,4,19.9,3.7c5.8-0.3,11.9-1.4,16.5-5.1
			C508.7,562.2,511.2,559.5,514.6,557.7z M527.2,444.9c12-16.6,35.7-25.2,55.6-21.5c18.9,3.5,32.3,19.3,41,35.5
			c-0.6-0.1-1.3,0-1.8,0.6c-5.7,7.1-12.8,10.1-21.2,12.9c-5.3,1.8-12.8,3.2-17.4,6.6c-0.4,0.3-0.5,0.7-0.6,1
			c-0.4,0.4-0.6,0.9-0.3,1.5c2.8,7.1,11.3,10.7,18,13.2c6.6,2.5,14.6,5,21.8,4.3c-3.1,12.1-9.8,21.7-19.7,29.9
			c-5,4.1-10.6,7.3-16.6,9.6c-6.4,2.5-12.1,2.6-18.6,1.8c-9.4-3-18.9-4.9-27.7-9.9c-10.3-5.8-16.7-15.6-20.7-26.4
			C511.8,484.6,515.1,461.7,527.2,444.9z M475.5,562c-7.6-1.8-13.9-3.9-21.8-2.9c-7.6,1-14.6,4.9-21.1,8.8
			c-4.3,2.6-9.9,6.3-14.3,10.6c0.3-1.9,0.5-3.8,0.6-5.7c0.3-8.5-2.3-16.9-1.8-25.3c0.9-18.4,24.5-29.5,36.1-40.8
			c0.2-0.2,0.4-0.4,0.5-0.7c11.2-2.5,18.8,7.6,29.4,10.5c6,1.6,11.6-1.2,16.8-3.8c5.7-2.9,9.8-1.9,14.4,2c2,1.7,3.1,2.4,5.2,2.6
			c8.4,13.6,22.5,22.4,38.2,26.5c-5.8,2.4-11,5.9-16.7,8.8c-4.5,2.3-8.6,2.7-13.4,0.7c-2.8-1.2-5.8-2.8-8.9-2.7
			c-6.3,0.2-10.8,3.8-15.3,7.8C495.7,565.5,484.9,564.3,475.5,562z"/>
		<path fill="#303030" d="M569.4,457.2c1.7,0.6,2.9,2.3,3.9,3.8c0.9,1.3,1.6,3.5,3.4,3.9c0.5,0.1,1,0,1.2-0.5c1.1-2.1-0.9-4.4-2.1-6
			c-1.4-1.9-3.3-3.4-5.7-3.8C568.6,454.3,567.8,456.6,569.4,457.2z"/>
		<path fill="#303030" d="M590.3,448.6c1.4,1.5,2.2,3.6,3.8,4.8c0.4,0.3,1.2,0.1,1.3-0.5c0.2-2.1-1.6-3.8-2.9-5.3
			c-1.7-1.9-3.8-3.3-5.8-4.9c-0.8-0.6-1.6,0.5-0.9,1.1C587.2,445.4,588.8,447,590.3,448.6z"/>
		<path fill="#303030" d="M620.3,532.8C620.2,532.8,620.3,532.9,620.3,532.8C620.4,532.9,620.4,532.8,620.3,532.8z"/>
		<path fill="#303030" d="M616.4,531.6c5.3,2.3,13.1,1.2,18.6-0.2c6.1-1.5,10.9-6.2,14.1-11.4c4-6.3,6.5-13.2,7.8-20.6
			c0.8-4.9,1.7-12.2-2.6-15.8c-1.5-1.3-3.7-0.6-3.9,1.5c-0.5,3.9,0.6,7.9,0.3,11.9c-0.5,6.2-2.8,12.4-5.5,18
			c-2.9,6-6.8,10.3-13.3,12.3c-5,1.6-11.2,0.2-15.7,3.2C615.9,530.8,616,531.4,616.4,531.6z"/>
		<path fill="#303030" d="M352.5,535.4c20.2-4.5,40.6-8,60.4-14.2c1.3-0.4,0.7-2.4-0.6-2.2c-20.3,3.2-40.3,8.1-60.3,13
			C350,532.6,350.3,535.9,352.5,535.4z"/>
		<path fill="#303030" d="M305.7,584.4c16.1-5.4,32.7-9.9,48.7-15.8c1.2-0.4,0.6-2.3-0.6-2.1c-16.8,2.8-33.7,8.4-49.2,15.3
			C303,582.6,304.1,585,305.7,584.4z"/>
		<path fill="#303030" d="M365.7,605.9c-12.4,4.6-24.5,9.9-36.5,15.2c-8.5,3.8-19.4,7.2-26.2,13.9c-0.9,0.9-0.7,2.4,0.7,2.7
			c2.7,0.5,5-1.1,7.2-2.3c5.8-3.1,12-5.5,18-8.2c12.8-5.8,25.6-11.9,37.8-18.9C368.1,607.5,367.3,605.3,365.7,605.9z"/>
		<path fill="#303030" d="M462.1,661.8c-1.2,0-3,0.7-3,1.6c-0.1,6.7-5,14.1-8.6,14.2c-0.2,0-0.2-0.2-0.3-0.6c-0.1-0.5-0.2-1.2-0.3-2
			c-0.3-2.7,0-6.7,1.3-10.2c0.1-0.2,0.1-0.3,0-0.4c-0.1-1.1-2.5-2.2-3.5-2.2c-0.4,0-0.9,0.1-1.1,0.6c-1.7,3.1-2.2,7.4-1.7,10.9
			c0.3,2.1,0.9,4,1.7,5.3c1.1,1.6,3.7,1.9,5.2,1.9c0.6,0,1.2,0,1.6-0.1c5.7-1,11.4-11,10.7-16.8
			C464.1,662.9,463.9,661.8,462.1,661.8z"/>
		<path fill="#303030" d="M474.5,663.4c-0.5-1.2-2.2-1.5-3-1.5c-0.4,0-1.4,0.1-1.7,0.7c-0.4,0.9-0.2,8.2,0.3,12
			c0.1,1.1,0.4,2.2,0.6,2.7c0.4,0.8,1.5,2.5,2.5,2.5c0.4,0,0.7-0.1,0.9-0.3c1.1-0.8,1.3-10.5,0.8-14.4
			C474.8,664.5,474.7,663.9,474.5,663.4z"/>
		<path fill="#303030" d="M510.5,676.9c-0.2-1.5-2-3.3-2.6-3.6c-1.3-0.8-8.9-2.4-11-2.8c-0.6-0.1-1.1-0.2-1.5-0.4
			c2-2.1,11.5-5.6,16.4-5.6c0.9,0,1.5,0.2,1.7,0.3c0.3,0.2,0.7,0.2,1,0.2c1,0,2.5-0.8,2.4-1.5c0-0.2-0.2-0.4-0.3-0.6
			c-1.6-1.9-3.6-2.6-5.9-2.6c-7.3,0-17,4.6-18.8,6.3c-0.8,0.7-0.9,2.2-0.8,3.1c0.1,0.7,0.4,1.6,0.9,2.1c2.4,2.4,9.8,3.1,12.9,3.9
			c0.4,0.1,0.7,0.2,1,0.2c0.1,0,0.2,0,0.2,0c-0.2,0.9-9.2,2.3-10,3.6c-0.1,0.2-0.2,0.4-0.2,0.7c0.1,1,3,2.2,4.5,2.2
			c1.6,0,8.3-2.9,9.5-4C510.5,678.1,510.6,677.5,510.5,676.9z"/>
		<path fill="#303030" d="M534.1,659.9c-1.2,0-3,0.7-3,1.7c-0.1,6.9-5.2,16.9-8.7,16.9c-0.2,0-0.2-0.2-0.2-0.6c-0.2-0.5-0.2-1.2-0.3-2
			c-0.3-2.7-0.1-6.8,1.3-10.4c0-0.2,0-0.3,0-0.4c-0.2-1.1-2.5-2.2-3.5-2.2c-0.4,0-0.9,0.1-1.1,0.6c-1.7,3.1-2.2,7.5-1.7,11.1
			c0.3,2.1,0.8,4,1.7,5.3c1.1,1.6,3.7,1.9,5.2,1.9c0.6,0,1.2,0,1.6-0.1c5.8-1,11.5-13.5,10.8-19.5
			C536.1,661.1,535.9,659.9,534.1,659.9z"/>
		<path fill="#303030" d="M563,666.8c0.1-0.3,0.2-0.6,0.1-0.9c-0.2-1.6-2.5-3.3-4.4-4.3c-1.7-0.9-4.8-2.5-10.2-2.5
			c-1.7,0-3.6,0.2-5.8,0.5c-1.3,0.2-1.8,14.1-1.2,18.9c0.1,0.6,0.2,1.1,0.3,1.5c0.4,1.3,2.5,2.6,3.5,2.6c0.3,0,0.8-0.1,0.9-0.7
			c0.1-0.5,0.1-1.9,0.1-3.1c0-1,0-2,0-2.7C552.1,674.7,561.5,670.5,563,666.8z M546.6,663.2c0.9,0,1.7-0.1,2.5-0.1
			c4.9,0,7.4,1.1,9,2c-0.3,1.6-8.2,5.3-11.8,6.6C546.5,668.9,546.6,664.9,546.6,663.2z"/>
		<path fill="#303030" d="M571.2,686.3c1,0,2-0.5,3-0.7c1.3-0.4,7.3-1.6,7.1-3.3c-0.1-0.8-3.4-1.9-4.7-1.9c-0.8,0-2.1,0.3-3.1,0.6
			c-0.7,0.2-1.3,0.4-1.9,0.5c-0.1-0.2-0.1-0.4-0.1-0.8c0-0.6-0.1-1.3-0.2-1.9c0-0.4,0-0.6-0.1-0.8c1.6-0.5,4.8-1.6,6.4-1.6
			c0.1,0,0.2,0,0.4,0c1.1,0,2.8-0.9,2.9-2c-0.1-0.8-2.6-2.4-5.1-2.4c-1.9,0-3,0.6-4.7,1.1c0.3-2.7,0.7-9,1-11.2
			c0.5-0.1,1.1-0.3,1.9-0.4c0.8-0.2,2.9-0.5,4.8-0.9c2-0.5,3.8-1.2,3.7-1.7c-0.1-1.6-3.9-2.6-4.8-2.6c-1.1,0-2.6,0.3-4.3,0.6
			c-1.6,0.4-3.5,0.8-5.5,1.1c-1,0.2-1.1,1-1.1,1.5c0.1,0.6,0.4,1.1,0.5,1.6c0,0.3-0.4,2.9-0.7,6.4c-0.3,3.6-0.4,8.1,0,11.8
			c0.3,2.4,0.9,4.7,2,6.1C569.3,686,570.4,686.3,571.2,686.3z"/>
		<path fill="#303030" d="M601.1,679.9c-0.1-0.5-0.4-0.8-0.7-1c-2.1-1.2-4.4-2.4-6.1-3.5c2.7-0.9,12.7-4.7,12.3-8.4
			c-0.3-2.2-3.4-4-5.9-4.8c-1.5-0.5-4.5-0.8-8.2-0.8c-2.1,0-4.4,0.1-6.8,0.4c-0.6,0.1-1.6,5.8-1.4,9.8c0,0.9,0.1,1.7,0.2,2.5
			c0.4,2.9,1.1,5.7,1.9,6.8c0.7,0.9,1.7,1.2,2.5,1.2c0.9,0,2.1-0.4,2-1.6c-0.1-0.6-0.6-2.2-0.9-3.5c1.8,0.8,3.4,2,5,3
			c1.1,0.6,2.1,1.3,3.3,1.3C599.7,681.6,601.2,680.7,601.1,679.9z M589.7,672.5c-0.2-2.5,0.2-5.6,0.7-7.6c1.1-0.1,2.2-0.1,3.3-0.1
			c3.7,0,6.8,0.5,7.5,1.1C601.2,667.8,593.2,671.4,589.7,672.5z"/>
		<path fill="#303030" d="M627.3,659.8c-0.4,0-0.9,0.2-1.1,0.7c-0.6,1.7-0.4,8-0.3,10.2c0,0.3,0,0.8,0,0.8s-8.2,1.2-10.9,1.7
			c0-2.1,0-6.2-0.1-7.1c-0.2-1.3-2.2-2.5-3.3-2.5c-0.4,0-0.9,0.1-1.2,0.5c-0.9,1.3-0.6,8.6-0.1,12.7c0.2,1.5,0.5,3,0.9,3.6
			c0.6,1,1.9,1.6,2.7,1.6c1.1,0,1.3-0.7,1.3-1.4c0-0.9-0.2-1.8-0.1-2.7l10.7-1.8c0,0.7-0.1,1.5-0.1,2.2c0,0.9-0.2,1.8,0,2.7
			c0.2,1.1,2.5,2.4,3.4,2.4c0.4,0,0.9-0.2,1.1-0.6c0.4-0.6,0.4-2.6,0.4-4.7c0-2.3,0-5.1,0.1-7.7c0.1-3.6,0.2-6.7,0-7.8
			C630.5,661.1,628.6,659.8,627.3,659.8z"/>
		<path fill="#303030" d="M643.2,661.4c0.8-0.2,2.9-0.5,4.8-0.9c2-0.5,3.8-1.2,3.7-1.7c-0.1-1.6-3.9-2.6-4.8-2.6
			c-1.1,0-2.6,0.3-4.3,0.6c-1.6,0.4-3.5,0.8-5.5,1.1c-1,0.2-1.1,1-1.1,1.5c0.1,0.6,0.4,1.1,0.5,1.6c0,0.3-0.4,2.9-0.7,6.4
			c-0.3,3.6-0.4,8.1,0,11.8c0.3,2.4,0.9,4.7,2,6.1c0.7,0.9,1.8,1.2,2.5,1.2c1,0,2-0.5,3-0.7c1.3-0.4,7.3-1.6,7.1-3.3
			c-0.1-0.8-3.4-1.9-4.7-1.9c-0.8,0-2.1,0.3-3.1,0.6c-0.7,0.2-1.3,0.4-1.9,0.5c-0.1-0.2-0.1-0.4-0.1-0.8c0-0.6-0.1-1.3-0.2-1.9
			c0-0.4,0-0.6-0.1-0.8c1.6-0.5,4.8-1.6,6.4-1.6c0.1,0,0.2,0,0.4,0c1.1,0,2.8-0.9,2.9-2c-0.1-0.8-2.6-2.4-5.1-2.4
			c-1.9,0-3,0.6-4.7,1.1c0.3-2.7,0.7-9,1-11.2C641.8,661.7,642.5,661.6,643.2,661.4z"/>
		<path fill="#303030" d="M655.2,661.8c-0.6,0.1-1.6,5.8-1.4,9.8c0,0.9,0.1,1.7,0.2,2.5c0.4,2.9,1.1,5.7,1.9,6.8
			c0.7,0.9,1.7,1.2,2.5,1.2c0.9,0,2.1-0.4,2-1.6c-0.1-0.6-0.6-2.2-0.9-3.5c1.8,0.8,3.4,2,5,3c1.1,0.6,2.1,1.3,3.3,1.3
			c1.3,0,2.8-0.9,2.7-1.7c-0.1-0.5-0.4-0.8-0.7-1c-2.1-1.2-4.4-2.4-6.1-3.5c2.7-0.9,12.7-4.7,12.3-8.4c-0.3-2.2-3.4-4-5.9-4.8
			c-1.5-0.5-4.5-0.8-8.2-0.8C659.8,661.4,657.5,661.5,655.2,661.8z M670.5,666c0.1,1.8-7.9,5.5-11.5,6.5c-0.2-2.5,0.2-5.6,0.7-7.6
			c1.1-0.1,2.2-0.1,3.3-0.1C666.7,664.9,669.8,665.4,670.5,666z"/>
		<path fill="#303030" d="M684.9,679.1c4.2,0,8.1-4.8,8.1-8.8c0-0.5-0.1-1.1-0.1-1.6c-0.5-4.2-2.9-5.3-4.6-5.4
			c-0.8-0.7-1.9-0.8-2.6-0.8c-5.6,0-8.2,6.5-7.8,10.4C678.3,676,681.1,679.1,684.9,679.1z M687.4,667c0.3,0,0.6,0,0.9,0.2l0,0
			c0.1,1.1-0.5,3.6-1.3,5c-0.7,1-2.6,2.3-3.9,2.3c-0.7,0-0.9-0.4-0.9-1C681.7,671.1,684.7,667,687.4,667z"/>
		<path fill="#303030" d="M525.1,701.6c-0.7-1.8-1.6-2.5-2.5-3.1s-2.4-0.8-3.1-0.8s-1.7,0.2-2.2,0.8c-0.4-0.3-0.7-0.4-1.2-0.4
			c-0.1,0-0.2,0-0.4,0c-6.1,0.9-8.8,8.1-8.2,13.3c0.2,1.4,0.6,2.7,1.1,3.6c1.1,1.8,3.4,3.6,6.6,3.6c4,0,8-3.3,9.5-6.4
			c1.2-2.5,1.5-5.2,1.2-7.6C525.8,703.5,525.5,702.5,525.1,701.6z M521.3,710.3c-1.2,2.6-4.1,5.5-7.6,5.5c-0.6,0-1.5-0.4-1.9-1
			c-0.4-0.5-0.7-1.7-0.9-3.1c-0.7-5.5,1.7-9.4,7.3-11.2c0.3-0.1,0.7-0.2,1-0.2c0.8,0,1.5,0.3,1.9,1s0.8,1.9,1,3.3
			C522.3,706.4,522.1,708.4,521.3,710.3z"/>
		<path fill="#303030" d="M518.9,708.7c-0.3,0-0.6,0.1-0.8,0.4c-0.3,0.4-1.3,1-2.2,1.5c-0.4,0.2-0.7,0.3-1.1,0.4
			c-0.3-2.7,4-6.4,4.8-6.7c0.4-0.1,0.7-0.4,0.7-0.9c-0.1-0.8-1-1.3-1.8-1.3c-3.4,0-7.1,5.5-6.8,8.5c0.2,1.8,1.8,2.8,3.5,2.8
			c0.3,0,0.6,0,0.9-0.1c1.3-0.4,4.3-2.2,4.2-3.5C520.1,709.1,519.5,708.7,518.9,708.7z"/>
		<path fill="#303030" d="M549.5,702.4c-1-0.6-3.4-1.3-7.3-1.3c-1.2,0-2.5,0-4,0.2c-0.5,0.1-1.1,7.3-0.6,11.5c0.3,2.1,1,4,2.1,4
			c0.1,0,0.2,0,0.3,0c2.5-0.5,13.1-6.1,12.5-10.9C552.2,704.1,550.9,703.2,549.5,702.4z M548.9,705.4c-0.8,1.8-3.8,5.4-7.9,7.3
			c-0.3-2.8-0.4-8.2-0.1-8.4c0.1-0.1,0.5-0.1,1-0.1C544,704.1,549.3,704.5,548.9,705.4z"/>
		<path fill="#303030" d="M563.1,698c-0.8,0-1.9,0.2-3.1,0.4c-1.1,0.3-2.5,0.6-3.9,0.8c-0.7,0.1-0.8,0.7-0.8,1c0.1,0.4,0.3,0.8,0.4,1.1
			c0,0.2-0.3,2.1-0.5,4.5c-0.2,2.6-0.3,5.8,0,8.4c0.2,1.7,0.6,3.4,1.5,4.4c0.5,0.6,1.3,0.8,1.8,0.8c0.7,0,1.4-0.3,2.1-0.5
			c0.9-0.3,5.2-1.2,5-2.4c-0.1-0.6-2.4-1.4-3.4-1.4c-0.6,0-1.5,0.2-2.2,0.4c-0.5,0.1-0.9,0.3-1.4,0.4c-0.1-0.1-0.1-0.3-0.1-0.6
			c0-0.4-0.1-0.9-0.1-1.4c0-0.3,0-0.4-0.1-0.6c1.2-0.3,3.4-1.1,4.6-1.1c0.1,0,0.2,0,0.3,0c0.8,0,2-0.7,2.1-1.4
			c-0.1-0.6-1.8-1.7-3.6-1.7c-1.3,0-2.2,0.4-3.4,0.8c0.2-2,0.5-6.4,0.7-8c0.3-0.1,0.8-0.2,1.3-0.3c0.6-0.1,2.1-0.4,3.4-0.7
			c1.5-0.3,2.7-0.8,2.7-1.2C566.5,698.8,563.7,698,563.1,698z"/>
		<path fill="#303030" d="M582.3,701c-0.5,0-1.2,0.2-1.6,0.5c-1,1-2.4,3.2-3.5,5.4c-0.9,1.7-1.7,3.4-2.4,4.7c-1.2-2.2-3.1-5.7-4.2-9.1
			c-0.3-0.9-1.2-1.1-1.7-1.1c-0.7,0-1.7,0.3-2,0.8c-0.1,0.3-0.1,0.5-0.1,0.7c0.3,2,4.3,9.2,6.3,12.9c0.2,0.4,0.6,0.6,1,0.6
			c0.9,0,2.2-1.3,2.5-1.7c0.2-0.3,0.4-0.7,0.4-1c0.1-0.2,0.1-0.4,0.1-0.5c0.1-0.3,4.7-8.8,6-11c0.1-0.1,0.2-0.3,0.1-0.5
			C583.4,701.3,582.9,701,582.3,701z"/>
		<path fill="#303030" d="M594.1,699.5c-1.4,0-4.5,0.7-6.4,1.5c-0.3,0-0.5-0.1-0.8-0.1c-1.1,0-1.7,0.6-1.6,1.6c0,0.3,0.1,0.5,0.2,0.7
			c0,0.2-0.2,1.6-0.3,3.5c-0.1,2-0.1,4.4,0.1,6.6c0.2,1.7,0.6,3.3,1.5,4.3c0.6,0.7,1.5,0.9,2.2,0.9s1.3-0.3,2-0.5
			c0.9-0.3,4.5-1.2,4.3-2.4c-0.1-0.6-2.4-1.3-3.3-1.3c-0.6,0-1.3,0.3-1.9,0.4c-0.3,0.1-0.6,0.3-0.9,0.3c0-0.5,0-1,0-1.5
			c-0.1-0.4-0.1-0.7-0.1-1c2.1-0.6,4.6-1.3,5.6-1.3c0.1,0,0.2,0,0.3,0c0.8,0,2-0.7,2-1.4c-0.1-0.6-1.8-1.7-3.6-1.7
			c-1.6,0-3,0.5-4.5,0.9c0-1.3,0-3.8,0-5c1.2-0.3,3.1-0.6,4.7-1c2.2-0.4,3.9-1.3,3.8-1.6C597.3,700.2,594.7,699.5,594.1,699.5z"/>
		<path fill="#303030" d="M608.9,702.5c-0.3,0-0.5,0.1-0.7,0.2c-0.6,0.4-3.2,2.6-4.4,3.9c-1.3-0.9-2.7-1.8-2.9-2
			c-0.3-0.2-0.7-0.3-0.9-0.3c-0.6,0-1.1,0.3-1.1,0.8c0.1,1,2.2,2.5,2.9,3.2c-0.7,0.7-2.2,2.2-2.4,3c-0.1,0.4-0.2,1-0.1,1.4
			c0.1,0.7,0.5,1.3,1.2,1.3c0.9,0,2-1.2,2.5-1.7c0.6-0.6,1.1-1.1,1.7-1.6c0.4,0.4,1,0.8,1.5,1.1c0.6,0.5,1.5,1.3,2.4,1.3
			c0.6,0,1.2-0.4,1.1-1.1c0-0.3-0.2-0.5-0.4-0.7c-0.4-0.3-1.7-1.5-2.7-2.4c0.7-0.6,1.6-1.4,2.4-2c1-0.8,1.9-1.5,2.3-1.8
			c0.2-0.2,0.2-0.4,0.2-0.6C611.3,703.7,610,702.5,608.9,702.5z"/>
		<path fill="#303030" d="M626.6,701.9c-1.2-0.6-3.4-1.8-7.3-1.8c-1.2,0-2.6,0.1-4.1,0.4c-1,0.2-1.3,10.1-0.8,13.5
			c0.1,0.4,0.1,0.8,0.2,1c0.3,1,1.8,1.9,2.5,1.9c0.2,0,0.6-0.1,0.7-0.5c0.1-0.3,0.1-1.3,0.1-2.2c0-0.7,0-1.4,0-1.9
			c4.1-1,10.8-4,11.9-6.7c0.1-0.2,0.1-0.4,0.1-0.6C629.6,703.8,628,702.6,626.6,701.9z M617.8,709.2c0.1-2.1,0.2-5,0.2-6.1
			c0.6,0,1.2-0.1,1.8-0.1c3.5,0,5.3,0.8,6.4,1.5C626,705.6,620.4,708.3,617.8,709.2z"/>
		<path fill="#303030" d="M643.5,702.4c-1-0.3-3.2-0.6-5.9-0.6c-1.5,0-3.2,0.1-4.8,0.3c-0.4,0.1-1.1,4.1-1,7c0,0.6,0.1,1.2,0.1,1.8
			c0.3,2.1,0.8,4.1,1.3,4.9c0.5,0.6,1.2,0.9,1.8,0.9s1.5-0.3,1.4-1.1c-0.1-0.4-0.4-1.6-0.6-2.5c1.3,0.6,2.4,1.4,3.6,2.2
			c0.8,0.4,1.5,1,2.4,1s2-0.6,1.9-1.2c-0.1-0.3-0.3-0.6-0.5-0.7c-1.5-0.9-3.1-1.7-4.3-2.5c2-0.6,9.1-3.4,8.8-6
			C647.5,704.2,645.3,702.9,643.5,702.4z M635.6,709.7c-0.1-1.8,0.1-4,0.5-5.4c0.8-0.1,1.5-0.1,2.3-0.1c2.6,0,4.8,0.4,5.4,0.8
			C643.9,706.3,638.1,708.9,635.6,709.7z"/>
		<path fill="#303030" d="M658.1,698c-0.8,0-1.9,0.2-3.1,0.4c-1.1,0.3-2.5,0.6-3.9,0.8c-0.7,0.1-0.8,0.7-0.8,1c0.1,0.4,0.3,0.8,0.4,1.1
			c0,0.2-0.3,2.1-0.5,4.5c-0.2,2.6-0.3,5.8,0,8.4c0.2,1.7,0.6,3.4,1.5,4.4c0.5,0.6,1.3,0.8,1.8,0.8c0.7,0,1.4-0.3,2.1-0.5
			c0.9-0.3,5.2-1.2,5-2.4c-0.1-0.6-2.4-1.4-3.4-1.4c-0.6,0-1.5,0.2-2.2,0.4c-0.5,0.1-0.9,0.3-1.4,0.4c-0.1-0.1-0.1-0.3-0.1-0.6
			c0-0.4-0.1-0.9-0.1-1.4c0-0.3,0-0.4-0.1-0.6c1.2-0.3,3.4-1.1,4.6-1.1c0.1,0,0.2,0,0.3,0c0.8,0,2-0.7,2.1-1.4
			c-0.1-0.6-1.8-1.7-3.6-1.7c-1.3,0-2.2,0.4-3.4,0.8c0.2-2,0.5-6.4,0.7-8c0.3-0.1,0.8-0.2,1.3-0.3c0.6-0.1,2.1-0.4,3.4-0.7
			c1.5-0.3,2.7-0.8,2.7-1.2C661.5,698.8,658.8,698,658.1,698z"/>
		<path fill="#303030" d="M680.3,703.3c0-0.2-0.1-0.3-0.2-0.4c-1.2-1.3-2.6-1.8-4.3-1.8c-5.2,0-12.1,3.3-13.4,4.5
			c-0.6,0.5-0.6,1.5-0.6,2.2c0.1,0.5,0.3,1.1,0.6,1.5c1.7,1.7,6.4,2.2,8.7,2.8c0.3,0.1,0.5,0.1,0.7,0.1c0.1,0,0.1,0,0.1,0
			c-0.1,0.6-6,1.7-6.6,2.5c-0.1,0.1-0.2,0.3-0.1,0.5c0.1,0.7,2.1,1.5,3.2,1.5c1.2,0,5.9-2.1,6.8-2.8c0.4-0.3,0.5-0.7,0.4-1.1
			c-0.1-1.1-1.4-2.3-1.8-2.6c-0.9-0.6-6.4-1.7-7.8-2c-0.4-0.1-0.8-0.2-1.1-0.3c1.5-1.5,8.2-4,11.7-4c0.7,0,1,0.1,1.2,0.2
			c0.2,0.1,0.5,0.2,0.7,0.2C679.3,704.4,680.4,703.8,680.3,703.3z"/>
		<path fill="#303030" d="M697.5,702.9c-1.2-1.3-2.6-1.8-4.3-1.8c-5.2,0-12.1,3.3-13.4,4.5c-0.6,0.5-0.6,1.5-0.6,2.2
			c0.1,0.5,0.3,1.1,0.6,1.5c1.7,1.7,6.4,2.2,8.7,2.8c0.3,0.1,0.5,0.1,0.7,0.1c0.1,0,0.1,0,0.1,0c-0.1,0.6-6,1.7-6.6,2.5
			c-0.1,0.1-0.2,0.3-0.1,0.5c0.1,0.7,2.1,1.5,3.2,1.5c1.2,0,5.9-2.1,6.8-2.8c0.4-0.3,0.5-0.7,0.4-1.1c-0.1-1.1-1.4-2.3-1.8-2.6
			c-0.9-0.6-6.4-1.7-7.8-2c-0.4-0.1-0.8-0.2-1.1-0.3c1.5-1.5,8.2-4,11.7-4c0.7,0,1,0.1,1.2,0.2c0.2,0.1,0.5,0.2,0.7,0.2
			c0.7,0,1.8-0.6,1.7-1.1C697.6,703.1,697.6,703,697.5,702.9z"/>
	</g>
</g>
</svg>
