<svg
    xmlns="http://www.w3.org/2000/svg"
    viewBox="0 0 39 39" fill="none"
    id="vector">
    <path
        id="path"
        d="M 19.5 3 C 10.4 3 3 10.4 3 19.5 C 3 28.6 10.4 36 19.5 36 C 28.6 36 36 28.6 36 19.5 C 36 10.4 28.6 3 19.5 3 Z M 19.5 34 C 11.5 34 5 27.5 5 19.5 C 5 11.5 11.5 5 19.5 5 C 27.5 5 34 11.5 34 19.5 C 34 27.5 27.5 34 19.5 34 Z"
        fill="#ff0000"/>
    <path
        id="path_1"
        d="M 11.3 18.7 C 11.7 19.1 12.3 19.1 12.7 18.7 L 14.1 17.3 L 15.5 18.7 C 15.9 19.1 16.5 19.1 16.9 18.7 C 17.3 18.3 17.3 17.7 16.9 17.3 L 15.4 16 L 16.8 14.6 C 17.2 14.2 17.2 13.6 16.8 13.2 C 16.4 12.8 15.8 12.8 15.4 13.2 L 14 14.6 L 12.6 13.2 C 12.2 12.8 11.6 12.8 11.2 13.2 C 10.8 13.6 10.8 14.2 11.2 14.6 L 12.6 16 L 11.2 17.4 C 10.9 17.7 10.9 18.3 11.3 18.7 Z"
        fill="#ff0000"/>
    <path
        id="path_2"
        d="M 22.3 18.7 C 22.7 19.1 23.3 19.1 23.7 18.7 L 25.1 17.3 L 26.5 18.7 C 26.9 19.1 27.5 19.1 27.9 18.7 C 28.3 18.3 28.3 17.7 27.9 17.3 L 26.4 16 L 27.8 14.6 C 28.2 14.2 28.2 13.6 27.8 13.2 C 27.4 12.8 26.8 12.8 26.4 13.2 L 25 14.6 L 23.6 13.2 C 23.2 12.8 22.6 12.8 22.2 13.2 C 21.8 13.6 21.8 14.2 22.2 14.6 L 23.6 16 L 22.2 17.4 C 21.9 17.7 21.9 18.3 22.3 18.7 Z"
        fill="#ff0000"/>
    <path
        id="path_3"
        d="M 29.5 24.1 C 28.9 23.8 28.4 23.6 28 23.4 C 28 23.4 25.2 22.1 19.5 22.1 C 19.5 22.1 19.5 22.1 19.5 22.1 C 13.8 22.1 11 23.4 11 23.4 C 10.6 23.6 10.1 23.8 9.5 24.1 C 9.2 24.2 9 24.6 9 24.9 C 9 25.5 9.4 25.9 10 25.9 C 10.2 25.9 10.3 25.8 10.5 25.8 L 10.5 25.8 C 12.4 24.8 15.1 24.1 18 24 L 18 25.8 C 18 28.4 19.9 30.7 22.5 31 C 25.5 31.3 28 28.9 28 26 L 28 25.6 C 28.2 25.7 28.4 25.8 28.5 25.9 L 28.5 25.9 C 28.6 26 28.8 26 29 26 C 29.6 26 30 25.5 30 25 C 30 24.6 29.8 24.2 29.5 24.1 Z M 26 25 L 26 25.8 C 26 27.4 24.8 28.9 23.2 29 C 21.5 29.1 20 27.7 20 26 L 20 24 C 20.7 24 21.3 24 22 24.1 L 22 26 C 22 26.6 22.4 27 23 27 C 23.6 27 24 26.6 24 26 L 24 24.4 C 24.7 24.5 25.4 24.7 26 24.9 C 26 24.9 26 24.9 26 25 Z"
        fill="#ff0000"/>
</svg>