<svg xmlns="http://www.w3.org/2000/svg" width="24px" height="24px" viewBox="0 0 24 24">
<path d="M 1.65625 19.179688 C 1.042969 19.941406 0.585938 20.621094 0.238281 21.253906 C 0.152344 21.40625 0 21.863281 0 22.171875 L 0 22.617188 C 0 23.375 0.621094 24 1.382812 24 L 22.617188 24 C 23.378906 24 24 23.375 24 22.617188 L 24 6.28125 C 12.363281 8.332031 5.3125 14.632812 1.65625 19.179688 Z M 1.65625 19.179688" fill="#000000"/>
<path d="M 22.617188 0 L 1.382812 0 C 0.621094 0 0 0.621094 0 1.386719 L 0 14.113281 C 4.203125 9.695312 11.683594 4.867188 23.085938 3.550781 C 23.390625 3.515625 24 3.375 24 2.53125 L 24 1.386719 C 24 0.621094 23.378906 0 22.617188 0 Z M 22.617188 0" fill="#000000"/>
</svg>
