<svg width="24" height="24" viewBox="0 0 24 24" fill="none" xmlns="http://www.w3.org/2000/svg">
<path d="M21.5719 19.9999C21.4002 19.9999 21.2428 19.8774 21.1753 19.6763C21.1258 19.5304 19.8887 16.0687 15.2636 15.3831C14.3002 15.2372 13.1463 15.1623 11.7451 15.1492V19.464C11.7451 19.6632 11.6589 19.8437 11.5172 19.9391C11.3762 20.0308 11.2075 20.0177 11.0763 19.9083L2.19043 12.4461C2.07048 12.346 2 12.1777 2 12.0009C2 11.8222 2.07048 11.6595 2.19043 11.5547L11.0801 4.09162C11.2113 3.97845 11.3785 3.97096 11.5209 4.0645C11.6634 4.1599 11.7481 4.34042 11.7481 4.53404V8.54946C13.6809 8.86374 22 10.7288 22 19.4686C22 19.7221 21.8568 19.9438 21.6559 19.9943C21.6281 19.9999 21.5989 19.9999 21.5719 19.9999Z" fill="#49454E"/>
</svg>
