<svg width="24" height="24" viewBox="0 0 24 24" fill="none" xmlns="http://www.w3.org/2000/svg">
<path d="M2.4281 19.9999C2.59979 19.9999 2.75724 19.8774 2.82471 19.6763C2.8742 19.5304 4.11126 16.0687 8.73639 15.3831C9.69981 15.2372 10.8537 15.1623 12.2549 15.1492V19.464C12.2549 19.6632 12.3411 19.8437 12.4828 19.9391C12.6238 20.0308 12.7925 20.0177 12.9237 19.9083L21.8096 12.4461C21.9295 12.346 22 12.1777 22 12.0009C22 11.8222 21.9295 11.6595 21.8096 11.5547L12.9199 4.09162C12.7887 3.97845 12.6215 3.97096 12.4791 4.0645C12.3366 4.1599 12.2519 4.34042 12.2519 4.53404V8.54946C10.3191 8.86374 2 10.7288 2 19.4686C2 19.7221 2.1432 19.9438 2.34413 19.9943C2.37187 19.9999 2.40111 19.9999 2.4281 19.9999Z" fill="#49454E"/>
</svg>
