<svg width="24" height="24" viewBox="0 0 24 24" fill="none" xmlns="http://www.w3.org/2000/svg">
<path d="M4 20C3.45 20 2.97917 19.8042 2.5875 19.4125C2.19583 19.0208 2 18.55 2 18V6C2 5.45 2.19583 4.97917 2.5875 4.5875C2.97917 4.19583 3.45 4 4 4H10L12 6H20C20.55 6 21.0208 6.19583 21.4125 6.5875C21.8042 6.97917 22 7.45 22 8H11.175L9.175 6H4V18L6.4 10H23.5L20.925 18.575C20.7917 19.0083 20.5458 19.3542 20.1875 19.6125C19.8292 19.8708 19.4333 20 19 20H4ZM6.1 18H19L20.8 12H7.9L6.1 18Z" fill="#49454E"/>
</svg>
