<svg width="49" height="48" viewBox="0 0 49 48" fill="none" xmlns="http://www.w3.org/2000/svg">
<g clip-path="url(#clip0_2020_82)">
<path fill-rule="evenodd" clip-rule="evenodd" d="M18.3999 12C17.8476 12 17.3999 12.4477 17.3999 13V30.1C17.3999 30.6523 17.8476 31.1 18.3999 31.1H35.4999C36.0522 31.1 36.4999 30.6523 36.4999 30.1V29.9C36.4999 29.3477 36.0522 28.9 35.4999 28.9H19.5999V13C19.5999 12.4477 19.1522 12 18.5999 12H18.3999ZM21.5 16.8999C20.9477 16.8999 20.5 17.3476 20.5 17.8999V18.0999C20.5 18.6522 20.9477 19.0999 21.5 19.0999H29.4V26.9999C29.4 27.5522 29.8477 27.9999 30.4 27.9999H30.6C31.1523 27.9999 31.6 27.5522 31.6 26.9999V17.8999C31.6 17.3476 31.1523 16.8999 30.6 16.8999H21.5ZM30.3999 35C29.8476 35 29.3999 34.5523 29.3999 34V33C29.3999 32.4477 29.8476 32 30.3999 32H30.5999C31.1522 32 31.5999 32.4477 31.5999 33V34C31.5999 34.5523 31.1522 35 30.5999 35H30.3999ZM14.5 16.8999C13.9477 16.8999 13.5 17.3476 13.5 17.8999V18.0999C13.5 18.6522 13.9477 19.0999 14.5 19.0999H15.5C16.0523 19.0999 16.5 18.6522 16.5 18.0999V17.8999C16.5 17.3476 16.0523 16.8999 15.5 16.8999H14.5Z" fill="#CAC4D0"/>
</g>
<defs>
<clipPath id="clip0_2020_82">
<rect width="24" height="24" fill="white" transform="translate(12.5 12)"/>
</clipPath>
</defs>
</svg>
