<svg width="24" height="24" viewBox="0 0 24 24" fill="none" xmlns="http://www.w3.org/2000/svg">
<path fill-rule="evenodd" clip-rule="evenodd" d="M11 2C10.4477 2 10 2.44772 10 3V3.22302C6.63525 3.98652 3.98652 6.63525 3.22302 10H3C2.44772 10 2 10.4477 2 11V13C2 13.5523 2.44772 14 3 14H3.22302C3.98652 17.3648 6.63525 20.0135 10 20.777V21C10 21.5523 10.4477 22 11 22H13C13.5523 22 14 21.5523 14 21V20.777C17.3648 20.0135 20.0135 17.3648 20.777 14H21C21.5523 14 22 13.5523 22 13V11C22 10.4477 21.5523 10 21 10H20.777C20.0135 6.63525 17.3648 3.98652 14 3.22302V3C14 2.44772 13.5523 2 13 2H11ZM10.0392 5.27833C10.1598 5.69519 10.5443 6 11 6H13C13.4557 6 13.8402 5.69519 13.9608 5.27833C16.2502 5.94505 18.0549 7.74976 18.7217 10.0392C18.3048 10.1598 18 10.5443 18 11V13C18 13.4557 18.3048 13.8402 18.7217 13.9608C18.0549 16.2502 16.2502 18.0549 13.9608 18.7217C13.8402 18.3048 13.4557 18 13 18H11C10.5443 18 10.1598 18.3048 10.0392 18.7217C7.74976 18.0549 5.94505 16.2502 5.27833 13.9608C5.69519 13.8402 6 13.4557 6 13V11C6 10.5443 5.69519 10.1598 5.27833 10.0392C5.94505 7.74976 7.74976 5.94505 10.0392 5.27833Z" fill="#49454E"/>
</svg>
