<svg width="24" height="24" viewBox="0 0 24 24" fill="none" xmlns="http://www.w3.org/2000/svg">
<path fill-rule="evenodd" clip-rule="evenodd" d="M4 4V6H6V4H4ZM3 2C2.44772 2 2 2.44772 2 3V7C2 7.55228 2.44772 8 3 8H4V16H3C2.44772 16 2 16.4477 2 17V21C2 21.5523 2.44772 22 3 22H7C7.55228 22 8 21.5523 8 21V20H16V21C16 21.5523 16.4477 22 17 22H21C21.5523 22 22 21.5523 22 21V17C22 16.4477 21.5523 16 21 16H20V8H21C21.5523 8 22 7.55228 22 7V3C22 2.44772 21.5523 2 21 2H17C16.4477 2 16 2.44772 16 3V4H8V3C8 2.44772 7.55228 2 7 2H3ZM8 6V7C8 7.55228 7.55228 8 7 8H6V16H7C7.55228 16 8 16.4477 8 17V18H16V17C16 16.4477 16.4477 16 17 16H18V8H17C16.4477 8 16 7.55228 16 7V6H8ZM18 4V6H20V4H18ZM18 20V18H20V20H18ZM4 18V20H6V18H4Z" fill="#49454E"/>
</svg>
