<svg width="19" height="18" viewBox="0 0 19 18" fill="none" xmlns="http://www.w3.org/2000/svg">
<path fill-rule="evenodd" clip-rule="evenodd" d="M14.75 4.5H4.25C3.83579 4.5 3.5 4.83579 3.5 5.25V12.0645L5.43935 10.1251C6.02514 9.53932 6.97488 9.53932 7.56067 10.1251L8.32461 10.889L10.9771 7.70611C11.5738 6.98999 12.6723 6.98586 13.2745 7.69747L15.5 10.3276V5.25C15.5 4.83579 15.1642 4.5 14.75 4.5ZM15.5 12.6498L12.1294 8.66638L9.47694 11.8493C8.91227 12.5269 7.88765 12.5734 7.26395 11.9497L6.50001 11.1858L4.18828 13.4975C4.20863 13.4992 4.22922 13.5 4.25 13.5H14.75C15.1642 13.5 15.5 13.1642 15.5 12.75V12.6498ZM4.25 3C3.00736 3 2 4.00736 2 5.25V12.75C2 13.9926 3.00736 15 4.25 15H14.75C15.9926 15 17 13.9926 17 12.75V5.25C17 4.00736 15.9926 3 14.75 3H4.25ZM5.75013 8.25016C6.57742 8.25016 7.25007 7.57737 7.25007 6.75008C7.25007 5.92279 6.57742 5.25 5.75013 5.25C4.92284 5.25 4.25005 5.92279 4.25005 6.75008C4.25005 7.57737 4.92284 8.25016 5.75013 8.25016Z" fill="#1D192B"/>
</svg>
