<svg width="24" height="24" viewBox="0 0 24 24" fill="none" xmlns="http://www.w3.org/2000/svg">
<path fill-rule="evenodd" clip-rule="evenodd" d="M2 13C1.44771 13 1 12.5523 1 12C1 11.4477 1.44771 11 2 11L3 11C3.55228 11 4 11.4477 4 12C4 12.5523 3.55228 13 3 13L2 13ZM6 13C5.44771 13 5 12.5523 5 12C5 11.4477 5.44771 11 6 11L8 11C8.55228 11 9 11.4477 9 12C9 12.5523 8.55228 13 8 13L6 13ZM10 12C10 12.5523 10.4477 13 11 13L13 13C13.5523 13 14 12.5523 14 12C14 11.4477 13.5523 11 13 11L11 11C10.4477 11 10 11.4477 10 12ZM16 13C15.4477 13 15 12.5523 15 12C15 11.4477 15.4477 11 16 11L18 11C18.5523 11 19 11.4477 19 12C19 12.5523 18.5523 13 18 13L16 13ZM20 12C20 12.5523 20.4477 13 21 13L22 13C22.5523 13 23 12.5523 23 12C23 11.4477 22.5523 11 22 11L21 11C20.4477 11 20 11.4477 20 12ZM3.39997 5.2C2.41111 3.88153 3.35188 2 4.99997 2L19 2C20.6481 2 21.5888 3.88153 20.6 5.2L18.1 9.2C17.7223 9.70361 17.1295 10 16.5 10L7.49997 10C6.87045 10 6.27768 9.70361 5.89997 9.2L3.39997 5.2ZM4.99997 4L7.49997 8L16.5 8L19 4L4.99997 4ZM4.99997 22C3.35188 22 2.41111 20.1185 3.39997 18.8L5.89997 14.8C6.27768 14.2964 6.87045 14 7.49997 14L16.5 14C17.1295 14 17.7223 14.2964 18.1 14.8L20.6 18.8C21.5888 20.1185 20.6481 22 19 22L4.99997 22ZM7.49997 16L4.99997 20L19 20L16.5 16L7.49997 16Z" fill="#49454E"/>
</svg>
