<svg width="24" height="24" viewBox="0 0 24 24" fill="none" xmlns="http://www.w3.org/2000/svg">
<path fill-rule="evenodd" clip-rule="evenodd" d="M11 2C11 1.44772 11.4477 1 12 1C12.5523 1 13 1.44772 13 2V3C13 3.55228 12.5523 4 12 4C11.4477 4 11 3.55228 11 3V2ZM11 6C11 5.44772 11.4477 5 12 5C12.5523 5 13 5.44772 13 6V8C13 8.55229 12.5523 9 12 9C11.4477 9 11 8.55229 11 8V6ZM12 10C11.4477 10 11 10.4477 11 11V13C11 13.5523 11.4477 14 12 14C12.5523 14 13 13.5523 13 13V11C13 10.4477 12.5523 10 12 10ZM11 16C11 15.4477 11.4477 15 12 15C12.5523 15 13 15.4477 13 16V18C13 18.5523 12.5523 19 12 19C11.4477 19 11 18.5523 11 18V16ZM12 20C11.4477 20 11 20.4477 11 21V22C11 22.5523 11.4477 23 12 23C12.5523 23 13 22.5523 13 22V21C13 20.4477 12.5523 20 12 20ZM18.8 3.39997C20.1185 2.41111 22 3.35188 22 4.99997V19C22 20.6481 20.1185 21.5888 18.8 20.6L14.8 18.1C14.2964 17.7223 14 17.1295 14 16.5V7.49997C14 6.87045 14.2964 6.27768 14.8 5.89997L18.8 3.39997ZM20 4.99997L16 7.49997V16.5L20 19V4.99997ZM2 4.99997C2 3.35188 3.88153 2.41111 5.2 3.39997L9.2 5.89997C9.70361 6.27768 10 6.87045 10 7.49997V16.5C10 17.1295 9.70361 17.7223 9.2 18.1L5.2 20.6C3.88153 21.5888 2 20.6481 2 19V4.99997ZM8 7.49997L4 4.99997V19L8 16.5V7.49997Z" fill="#49454E"/>
</svg>
