<svg width="18" height="18" viewBox="0 0 18 18" fill="none" xmlns="http://www.w3.org/2000/svg">
<path fill-rule="evenodd" clip-rule="evenodd" d="M15 5.50072V13.5C15 13.9142 14.6642 14.25 14.25 14.25H3.75C3.33579 14.25 3 13.9142 3 13.5V5.50072C3 5.36225 3.11225 5.25 3.25072 5.25C4.53273 5.25 5.72992 4.60928 6.44105 3.54259L6.60522 3.29634C6.72864 3.1112 6.93642 3 7.15893 3H10.8411C11.0636 3 11.2714 3.1112 11.3948 3.29634L11.559 3.54259C12.2701 4.60928 13.4673 5.25 14.7493 5.25C14.8877 5.25 15 5.36225 15 5.50072ZM1.5 5.50072C1.5 4.53382 2.28383 3.75 3.25072 3.75C4.0312 3.75 4.76004 3.35994 5.19297 2.71054L5.35714 2.46429C5.75876 1.86185 6.43489 1.5 7.15893 1.5H10.8411C11.5651 1.5 12.2412 1.86185 12.6429 2.46429L12.807 2.71054C13.24 3.35994 13.9688 3.75 14.7493 3.75C15.7162 3.75 16.5 4.53383 16.5 5.50072V13.5C16.5 14.7426 15.4926 15.75 14.25 15.75H3.75C2.50736 15.75 1.5 14.7426 1.5 13.5V5.50072ZM11.25 9C11.25 10.2426 10.2426 11.25 9 11.25C7.75736 11.25 6.75 10.2426 6.75 9C6.75 7.75736 7.75736 6.75 9 6.75C10.2426 6.75 11.25 7.75736 11.25 9ZM12.75 9C12.75 11.0711 11.0711 12.75 9 12.75C6.92893 12.75 5.25 11.0711 5.25 9C5.25 6.92893 6.92893 5.25 9 5.25C11.0711 5.25 12.75 6.92893 12.75 9Z" fill="#1D192B"/>
</svg>
