<svg width="24" height="24" viewBox="0 0 24 24" fill="none" xmlns="http://www.w3.org/2000/svg">
<path fill-rule="evenodd" clip-rule="evenodd" d="M5.24421 14.674L6.25685 10.4208C6.42244 10.5231 6.61755 10.5821 6.82645 10.5821L9.57936 10.5821L9.57936 13.335C9.57936 13.9346 10.0655 14.4207 10.6651 14.4207L13.418 14.4207L13.418 17.1736C13.418 17.3825 13.477 17.5776 13.5792 17.7431L9.32604 18.7558L5.24421 14.674ZM4.75207 16.7409L3.96863 20.0314L7.25908 19.2479L4.75207 16.7409ZM13.0432 3.27955L7.55027 8.77244L10.3032 8.77254C10.9028 8.77254 11.3889 9.25864 11.3889 9.85827L11.3889 12.6112L14.1418 12.6112C14.7414 12.6112 15.2275 13.0973 15.2276 13.6969L15.2276 16.4497L20.7205 10.9568L22 12.2364L15.1435 19.0928C15.0251 19.2112 14.8762 19.2945 14.7133 19.3332L3.67262 21.962C2.68895 22.1962 1.80381 21.3111 2.03801 20.3274L4.66676 9.28666C4.70554 9.12378 4.78876 8.97485 4.90716 8.85646L11.7636 2L13.0432 3.27955Z" fill="#49454E"/>
</svg>
