<svg width="24" height="24" viewBox="0 0 24 24" fill="none" xmlns="http://www.w3.org/2000/svg">
<path fill-rule="evenodd" clip-rule="evenodd" d="M12 19.9167C7.62775 19.9167 4.08333 16.3723 4.08333 12C4.08333 7.62775 7.62775 4.08333 12 4.08333C13.9577 4.08333 15.7494 4.79391 17.1312 5.97121L15.967 7.1355C15.4753 7.62719 15.7665 8.46931 16.4569 8.55216L21.0672 9.10539C21.6034 9.16973 22.0583 8.7149 21.9939 8.17871L21.4407 3.5684C21.3578 2.878 20.5157 2.58674 20.024 3.07843L18.6081 4.49433C16.8461 2.9418 14.533 2 12 2C6.47715 2 2 6.47715 2 12C2 17.5228 6.47715 22 12 22C12.7413 22 13.4637 21.9193 14.159 21.7663C14.721 21.6427 15.0155 21.0468 14.8335 20.5008C14.6516 19.9549 14.062 19.6672 13.4968 19.7754C13.0121 19.8681 12.5117 19.9167 12 19.9167ZM22 12L21.9999 11.9655V12.0345L22 12Z" fill="#49454E"/>
</svg>
