<svg width="24" height="24" viewBox="0 0 24 24" fill="none" xmlns="http://www.w3.org/2000/svg">
<path fill-rule="evenodd" clip-rule="evenodd" d="M12 19.9167C16.3723 19.9167 19.9167 16.3723 19.9167 12C19.9167 7.62775 16.3723 4.08333 12 4.08333C10.0423 4.08333 8.25064 4.79391 6.86875 5.97121L8.03305 7.1355C8.52474 7.62719 8.23349 8.46931 7.54308 8.55216L2.93277 9.10539C2.39658 9.16973 1.94175 8.7149 2.00609 8.17871L2.55933 3.5684C2.64217 2.878 3.48429 2.58674 3.97598 3.07843L5.39187 4.49433C7.1539 2.9418 9.46697 2 12 2C17.5228 2 22 6.47715 22 12C22 17.5228 17.5228 22 12 22C11.2587 22 10.5363 21.9193 9.84104 21.7663C9.27898 21.6427 8.98447 21.0468 9.16646 20.5008C9.34841 19.9549 9.93805 19.6672 10.5032 19.7754C10.9879 19.8681 11.4883 19.9167 12 19.9167ZM2 12L2.00006 11.9655V12.0345L2 12Z" fill="#49454E"/>
</svg>
