<svg width="24" height="24" viewBox="0 0 24 24" fill="none" xmlns="http://www.w3.org/2000/svg">
<path fill-rule="evenodd" clip-rule="evenodd" d="M10.398 12.1423H10.5256C11.5732 12.017 12.4287 11.4309 12.6763 11.1989C13.0793 10.8213 13.7122 10.842 14.0897 11.245C14.4673 11.6481 14.4467 12.2809 14.0436 12.6585C13.5565 13.1149 12.2894 13.9681 10.686 14.1368C10.6513 14.1405 10.6163 14.1423 10.5814 14.1423H5.97377C5.84066 14.1423 5.68663 14.2009 5.56552 14.3099C5.4404 14.4225 5.42615 14.5156 5.42615 14.5316C5.42615 14.7056 5.46966 14.7609 5.48052 14.7747C5.50149 14.8013 5.55381 14.8492 5.6781 14.8967C5.95779 15.0037 6.31322 15.0088 6.5717 15.0088C6.89113 15.0088 7.27246 15.0079 7.67222 15.0069H7.67241H7.67264C8.53578 15.0047 9.48477 15.0024 10.0823 15.0089C10.3447 15.0117 10.5754 15.052 10.7849 15.1228C10.8597 15.14 10.933 15.1667 11.003 15.2028L11.9048 15.6681C12.99 16.2097 14.1863 16.3953 15.3993 16.3953C16.624 16.3953 17.9127 16.1082 18.9908 15.5692L19.3839 15.3727V11.3484H18.2471C18.1083 11.3484 17.9712 11.3173 17.846 11.2575L12.7327 8.81351L10.398 12.1423ZM9.64636 17.0058C9.37678 17.0046 9.07084 17.0044 8.75069 17.0047V17.3255C8.75069 17.5728 8.9512 17.7733 9.19852 17.7733C9.44588 17.7733 9.64636 17.5728 9.64636 17.3255V17.0058ZM6.74921 17.0087C6.79545 17.0087 6.84257 17.0086 6.89046 17.0086V17.3255C6.89046 17.5728 6.68998 17.7733 6.44263 17.7733C6.36739 17.7733 6.29623 17.7546 6.2337 17.7216L6.74921 17.0087ZM4.7075 16.6523C4.466 16.5314 4.21948 16.3626 4.00556 16.1261L3.91301 16.2477C3.90613 16.2571 3.89906 16.2664 3.89179 16.2755L3.77839 16.4245L3.63439 17.3955L4.5132 16.9196L4.7075 16.6523ZM3.99413 13.0624C3.91644 13.153 3.84389 13.2503 3.77836 13.3536L2.54548 14.973C2.38855 15.0325 2.2186 15.0251 2.10844 14.97C1.89256 14.8621 1.80193 14.6038 1.90015 14.3857L1.90883 14.3705L1.98031 14.2459C2.04279 14.1373 2.13392 13.9797 2.2479 13.7845C2.47597 13.3939 2.79493 12.854 3.15842 12.257C3.89263 11.0511 4.78363 9.65334 5.47109 8.76947C5.60286 8.60005 5.81641 8.42162 6.0595 8.26157C6.28649 8.11212 6.49131 8.00985 6.57801 7.97115L8.03625 7.38876L3.99413 13.0624ZM6.93366 12.1423L10.332 7.37229C10.3397 7.36197 10.3472 7.35151 10.3544 7.34094L11.1021 6.29143L11.8585 6.8211L8.12596 12.1423H6.93366ZM21.2441 15.9268C21.2444 15.9401 21.2444 15.9535 21.2441 15.9668V17.7557H22.1397V9.97032H21.2441V10.4109L21.2441 10.4183L21.2441 10.4256V15.9268ZM15.3993 18.2556C16.7343 18.2556 18.1351 17.9794 19.3839 17.4376V18.6859C19.3839 19.1995 19.8003 19.616 20.314 19.616H23.0699C23.5836 19.616 24 19.1995 24 18.6859V9.04021C24 8.52652 23.5836 8.11009 23.0699 8.11009H20.314C19.8003 8.11009 19.3839 8.52652 19.3839 9.04021V9.48816H18.4579L13.8157 7.26934L13.879 7.17899C13.8924 7.16241 13.9053 7.14525 13.9177 7.12754C13.9299 7.11021 13.9413 7.09262 13.9521 7.07478L15.4985 4.86986C15.7931 4.44908 15.6909 3.86911 15.2701 3.57447L13.0126 1.99373C12.6345 1.72897 12.1279 1.78469 11.8152 2.10401C11.7908 2.12895 11.7675 2.1555 11.7456 2.18362C11.7374 2.19419 11.7294 2.20498 11.7215 2.216L9.35864 5.53261C8.87241 5.33999 8.31769 5.31086 7.77998 5.48973C7.76267 5.49549 7.74554 5.50176 7.7286 5.50852L5.87322 6.24953C5.86461 6.25296 5.85606 6.25653 5.84756 6.26022C5.67461 6.33536 5.36697 6.4903 5.03653 6.70787C4.71212 6.92146 4.3112 7.23077 4.00271 7.6274C3.24333 8.60375 2.30396 10.0833 1.56951 11.2896C1.19868 11.8987 0.873734 12.4487 0.641483 12.8465C0.525301 13.0454 0.432172 13.2065 0.367932 13.3182L0.293932 13.4472L0.274526 13.4812L0.267634 13.4933C0.2676 13.4933 0.267575 13.4934 1.0734 13.9515L0.267575 13.4934C0.259407 13.5077 0.251624 13.5223 0.244233 13.5371C-0.325918 14.6775 0.136163 16.0637 1.27652 16.6339C1.45814 16.7247 1.64691 16.7884 1.83805 16.8275L1.52138 18.9627C1.46969 19.3112 1.61934 19.659 1.90793 19.8611C2.19652 20.0631 2.57452 20.0848 2.88432 19.9171L4.75767 18.9027C5.17857 19.3524 5.77735 19.6335 6.44263 19.6335C6.95914 19.6335 7.43602 19.4639 7.82058 19.1772C8.20515 19.4639 8.68203 19.6335 9.19852 19.6335C10.4356 19.6335 11.4454 18.6603 11.5039 17.4377C12.7301 17.9764 14.0565 18.2556 15.3993 18.2556ZM12.9268 5.29818L13.4412 4.56478L12.7013 4.04669L12.1815 4.77632L12.9268 5.29818Z" fill="#49454E"/>
</svg>
