<svg width="24" height="24" viewBox="0 0 24 24" fill="none" xmlns="http://www.w3.org/2000/svg">
<path d="M19 4H14.8C14.4 2.8 13.3 2 12 2C10.7 2 9.6 2.8 9.2 4H5C3.9 4 3 4.9 3 6V20C3 21.1 3.9 22 5 22H19C20.1 22 21 21.1 21 20V6C21 4.9 20.1 4 19 4ZM12 4C12.6 4 13 4.4 13 5C13 5.6 12.6 6 12 6C11.4 6 11 5.6 11 5C11 4.4 11.4 4 12 4ZM13 18H8C7.4 18 7 17.5 7 17C7 16.5 7.4 16 8 16H13C13.6 16 14 16.5 14 17C14 17.5 13.6 18 13 18ZM16 14H8C7.4 14 7 13.6 7 13C7 12.4 7.4 12 8 12H16C16.5 12 17 12.4 17 13C17 13.6 16.5 14 16 14ZM16 10H8C7.4 10 7 9.6 7 9C7 8.4 7.4 8 8 8H16C16.5 8 17 8.4 17 9C17 9.6 16.5 10 16 10Z" fill="#6750A4"/>
</svg>
