<svg width="24" height="24" viewBox="0 0 24 24" fill="none" xmlns="http://www.w3.org/2000/svg">
<path d="M10.9 2.10001C6.2 2.60001 2.5 6.30001 2 11C1.5 15.9 4.6 20.2 8.9 21.5C9.2 21.6 9.5 21.4 9.5 21.1V19.2C9 19.3 8.1 19.4 7.2 19.1C5.9 18.6 6.1 17.3 5.1 16.6C4.7 16.3 4.6 16.2 4.7 16C4.8 15.8 5.5 15.9 5.9 16.2C6.8 16.7 6.6 17.6 8 18C8.6 18.2 9.2 17.9 9.5 17.7C9.6 17.2 9.8 16.8 10.2 16.4C6.8 16.1 5.6 14.1 5.6 11.6C5.6 10.5 6 9.50001 6.6 8.80001C6.6 8.60001 6.4 8.00001 6.5 7.30001C6.6 6.60001 6.8 6.10001 6.8 6.10001C6.8 6.10001 7.7 6.10001 8.3 6.40001C8.8 6.60001 9.4 7.00001 9.5 7.10001C10.2 6.90001 11 6.80001 11.8 6.80001H12.3C13.1 6.80001 13.9 6.90001 14.7 7.10001C14.8 7.00001 15.4 6.60001 15.9 6.40001C16.5 6.10001 17.3 6.10001 17.4 6.10001C17.4 6.10001 17.6 6.60001 17.7 7.30001C17.8 8.00001 17.6 8.50001 17.5 8.70001C18.1 9.40001 18.5 10.4 18.5 11.6C18.5 14.5 17 16.1 13.9 16.4C14.3 16.8 14.6 17.4 14.6 17.9V21.1C14.6 21.4 14.9 21.6 15.2 21.5C19.2 20.2 22.1 16.4 22.1 12C22 6.10001 16.9 1.40001 10.9 2.10001Z" fill="#6750A4"/>
</svg>
