<svg width="39" height="39" viewBox="0 0 39 39" fill="none" xmlns="http://www.w3.org/2000/svg">
<path fill-rule="evenodd" clip-rule="evenodd" d="M6 3H33C33.6 3 34 3.4 34 4V35C34 35.6 33.6 36 33 36H6C5.4 36 5 35.6 5 35V4C5 3.4 5.4 3 6 3ZM32 34V5H7V34H32ZM21.5 11C21.5 12.1046 20.6046 13 19.5 13C18.3954 13 17.5 12.1046 17.5 11C17.5 9.89543 18.3954 9 19.5 9C20.6046 9 21.5 9.89543 21.5 11ZM19.5 13C21 13 22.4 14 22.9 15.6C23.2 16.3 22.7 17 22 17H17C16.3 17 15.8 16.3 16.1 15.6C16.6 14 18 13 19.5 13ZM29 21C29 21.6 28.6 22 28 22H11C10.4 22 10 21.6 10 21C10 20.4 10.4 20 11 20H28C28.6 20 29 20.4 29 21ZM28 26C28.6 26 29 25.6 29 25C29 24.4 28.6 24 28 24H11C10.4 24 10 24.4 10 25C10 25.6 10.4 26 11 26H28ZM10 29C10 28.4 10.4 28 11 28H28C28.6 28 29 28.4 29 29C29 29.6 28.6 30 28 30H11C10.4 30 10 29.6 10 29Z" fill="#6750a4"/>
</svg>
