<svg width="39" height="39" viewBox="0 0 39 39" fill="none" xmlns="http://www.w3.org/2000/svg">
<path fill-rule="evenodd" clip-rule="evenodd" d="M30 27C29.4 27 29 27.4 29 28V34H6V6H29V10C29 10.6 29.4 11 30 11C30.6 11 31 10.6 31 10V5C31 4.4 30.6 4 30 4H5C4.4 4 4 4.4 4 5V35C4 35.6 4.4 36 5 36H30C30.6 36 31 35.6 31 35V28C31 27.4 30.6 27 30 27ZM31.6 13.2L35.8 17.4C36.1 17.7 36.1 18.2 35.8 18.5L24 30.3C23.9 30.4 23.3 30.6 23.1 30.6L17.1 32C16.8 32 16.5 31.7 16.5 31.4L18.4 25.7C18.4 25.5 18.6 25.1 18.7 25L30.6 13.2C30.7 13.1 30.9 13 31.1 13C31.3 13 31.5 13.1 31.6 13.2ZM21.6 25L24 27.4L31.2 20.2L28.8 17.8L21.6 25ZM22.4 28.7L20.2 26.5L19.2 29.4L22.4 28.7ZM30.2 16.4L32.6 18.8L33.5 17.9L31.1 15.5L30.2 16.4ZM22 16C22.6 16 23 16.4 23 17C23 17.6 22.6 18 22 18H10C9.4 18 9 17.6 9 17C9 16.4 9.4 16 10 16H22ZM13 9.5C13 10.3284 12.3284 11 11.5 11C10.6716 11 10 10.3284 10 9.5C10 8.67157 10.6716 8 11.5 8C12.3284 8 13 8.67157 13 9.5ZM11.5 11C12.6 11 13.6 11.8 14 12.9C14.1 13.4 13.8 14 13.3 14H9.7C9.2 14 8.9 13.4 9 12.9C9.4 11.8 10.4 11 11.5 11ZM17 21C17.6 21 18 21.4 18 22C18 22.6 17.6 23 17 23H10C9.4 23 9 22.6 9 22C9 21.4 9.4 21 10 21H17ZM10 26C9.4 26 9 26.4 9 27C9 27.6 9.4 28 10 28H14C14.6 28 15 27.6 15 27C15 26.4 14.6 26 14 26H10ZM25 11C25.6 11 26 11.4 26 12C26 12.6 25.6 13 25 13H17C16.4 13 16 12.6 16 12C16 11.4 16.4 11 17 11H25Z" fill="#6750a4"/>
</svg>
