<svg width="39" height="39" viewBox="0 0 39 39" fill="none" xmlns="http://www.w3.org/2000/svg">
<path fill-rule="evenodd" clip-rule="evenodd" d="M29 28C29 27.4 29.4 27 30 27C30.6 27 31 27.4 31 28V35C31 35.6 30.6 36 30 36H5C4.4 36 4 35.6 4 35V5C4 4.4 4.4 4 5 4H30C30.6 4 31 4.4 31 5V10C31 10.6 30.6 11 30 11C29.4 11 29 10.6 29 10V6H6V34H29V28ZM13 8C13.6 8 14 8.4 14 9V13C14 13.6 13.6 14 13 14H9C8.4 14 8 13.6 8 13V9C8 8.4 8.4 8 9 8H13ZM12 12V10H10V12H12ZM14 17C14 16.4 13.6 16 13 16H9C8.4 16 8 16.4 8 17V21C8 21.6 8.4 22 9 22H13C13.6 22 14 21.6 14 21V17ZM12 18V20H10V18H12ZM13 24H9C8.4 24 8 24.4 8 25V29C8 29.6 8.4 30 9 30H13C13.6 30 14 29.6 14 29V25C14 24.4 13.6 24 13 24ZM12 26V28H10V26H12ZM27 11C27 10.4 26.6 10 26 10H17C16.4 10 16 10.4 16 11C16 11.6 16.4 12 17 12H26C26.6 12 27 11.6 27 11ZM31.6 13.2L35.8 17.4C36.1 17.7 36.1 18.2 35.8 18.5L24 30.3C23.9 30.4 23.3 30.6 23.1 30.6L17.1 32C16.8 32 16.5 31.7 16.5 31.4L18.4 25.7C18.4 25.5 18.6 25.1 18.7 25L30.6 13.2C30.7 13.1 30.9 13 31.1 13C31.3 13 31.5 13.1 31.6 13.2ZM21.6 25L24 27.4L31.2 20.2L28.8 17.8L21.6 25ZM22.4 28.7L20.2 26.5L19.2 29.4L22.4 28.7ZM30.2 16.4L32.6 18.8L33.5 17.9L31.1 15.5L30.2 16.4ZM17 18C16.4 18 16 18.4 16 19C16 19.6 16.4 20 17 20H21C21.6 20 22 19.6 22 19C22 18.4 21.6 18 21 18H17Z" fill="#6750a4"/>
</svg>
