<svg width="52" height="40" viewBox="0 0 52 40" fill="none" xmlns="http://www.w3.org/2000/svg">
<path fill-rule="evenodd" clip-rule="evenodd" d="M14 13H8C6.89543 13 6 13.8954 6 15V30C6 31.1046 6.89543 32 8 32H14C15.1046 32 16 31.1046 16 30V27H17V30C17 31.6569 15.6569 33 14 33H8C6.34315 33 5 31.6569 5 30V15C5 13.3431 6.34315 12 8 12H14C15.6569 12 17 13.3431 17 15V17H16V15C16 13.8954 15.1046 13 14 13ZM9.5 14C9.22386 14 9 14.2239 9 14.5C9 14.7761 9.22386 15 9.5 15H12.5C12.7761 15 13 14.7761 13 14.5C13 14.2239 12.7761 14 12.5 14H9.5Z" fill="#49454F"/>
<path fill-rule="evenodd" clip-rule="evenodd" d="M14.1246 22.0832C14.0652 22.0436 14.0652 21.9563 14.1246 21.9168L19.8443 18.1036C19.9108 18.0593 19.9998 18.1069 19.9998 18.1868V19.9C19.9998 19.9552 20.0446 20 20.0998 20H27.8998C27.955 20 27.9998 20.0447 27.9998 20.1V23.9C27.9998 23.9552 27.955 24 27.8998 24H20.0998C20.0446 24 19.9998 24.0447 19.9998 24.1V25.8131C19.9998 25.893 19.9108 25.9406 19.8443 25.8963L14.1246 22.0832ZM20.9998 25V25.8131C20.9998 26.6917 20.0206 27.2157 19.2896 26.7284L13.5699 22.9152C12.9168 22.4798 12.9168 21.5201 13.5699 21.0847L19.2896 17.2716C20.0206 16.7842 20.9998 17.3083 20.9998 18.1868V19H27.8998C28.5073 19 28.9998 19.4924 28.9998 20.1V23.9C28.9998 24.5075 28.5073 25 27.8998 25H20.9998Z" fill="#6750A4"/>
<path fill-rule="evenodd" clip-rule="evenodd" d="M22 5.5C22 5.77614 21.7761 6 21.5 6C21.2239 6 21 5.77614 21 5.5C21 5.22386 21.2239 5 21.5 5C21.7761 5 22 5.22386 22 5.5ZM24 5.5C24 5.77614 23.7761 6 23.5 6C23.2239 6 23 5.77614 23 5.5C23 5.22386 23.2239 5 23.5 5C23.7761 5 24 5.22386 24 5.5ZM25.5 6C25.7761 6 26 5.77614 26 5.5C26 5.22386 25.7761 5 25.5 5C25.2239 5 25 5.22386 25 5.5C25 5.77614 25.2239 6 25.5 6Z" fill="#49454F"/>
<path fill-rule="evenodd" clip-rule="evenodd" d="M47 4H21C20.4477 4 20 4.44772 20 5V7H48V5C48 4.44772 47.5523 4 47 4ZM48 8H20V15H19V5C19 3.89543 19.8954 3 21 3H47C48.1046 3 49 3.89543 49 5V35C49 36.1046 48.1046 37 47 37H21C19.8954 37 19 36.1046 19 35V29H20V35C20 35.5523 20.4477 36 21 36H47C47.5523 36 48 35.5523 48 35V8Z" fill="#49454F"/>
<path fill-rule="evenodd" clip-rule="evenodd" d="M38.9823 14.6859C38.7456 14.5437 38.669 14.2365 38.8113 13.9998L40.3568 11.4285C40.499 11.1919 40.8062 11.1153 41.0429 11.2576C41.2796 11.3998 41.3561 11.707 41.2139 11.9437L39.6684 14.515C39.5261 14.7517 39.2189 14.8282 38.9823 14.6859ZM35.5691 12.9901L37.1197 13.8065C37.37 13.9232 37.4783 14.2207 37.3615 14.471C37.2448 14.7213 36.9474 14.8295 36.6971 14.7128L34.289 13.4449C34.1208 13.3664 34.0168 13.2063 34.002 13.0338C33.9835 12.8298 34.0924 12.6269 34.2888 12.5353L36.6969 11.2676C36.9471 11.1509 37.2446 11.2591 37.3613 11.5094C37.478 11.7597 37.3697 12.0572 37.1195 12.1739L35.5691 12.9901ZM42.905 13.8306L44.4383 12.9987L42.9053 12.198C42.655 12.0813 42.5467 11.7839 42.6634 11.5336C42.7801 11.2833 43.0776 11.175 43.3279 11.2917L45.7092 12.5354C45.9062 12.6272 46.0152 12.831 45.9958 13.0356C45.9805 13.2075 45.8766 13.3667 45.709 13.4449L43.3276 14.7369C43.0774 14.8536 42.7799 14.7454 42.6632 14.4951C42.5465 14.2448 42.6548 13.9473 42.905 13.8306Z" fill="#49454F"/>
<path fill-rule="evenodd" clip-rule="evenodd" d="M34 19.5C34 19.2239 34.2239 19 34.5 19H45.5C45.7761 19 46 19.2239 46 19.5C46 19.7761 45.7761 20 45.5 20H34.5C34.2239 20 34 19.7761 34 19.5ZM37 22.5C37 22.2239 37.2239 22 37.5 22H45.5C45.7761 22 46 22.2239 46 22.5C46 22.7761 45.7761 23 45.5 23H37.5C37.2239 23 37 22.7761 37 22.5ZM39.5 25C39.2239 25 39 25.2239 39 25.5C39 25.7761 39.2239 26 39.5 26H45.5C45.7761 26 46 25.7761 46 25.5C46 25.2239 45.7761 25 45.5 25H39.5Z" fill="#49454F"/>
</svg>
