<svg xmlns="http://www.w3.org/2000/svg" width="24" height="24" viewBox="0 0 24 24">
  <path
      d="M3,17L3,17c-0.6,0 -1,-0.4 -1,-1V8c0,-0.6 0.4,-1 1,-1h0c0.6,0 1,0.4 1,1v8C4,16.6 3.6,17 3,17z"
      fill="#9a9797"/>
  <path
      d="M5,17H3c-0.6,0 -1,-0.4 -1,-1v0c0,-0.6 0.4,-1 1,-1h2c0.6,0 1,0.4 1,1v0C6,16.6 5.6,17 5,17z"
      fill="#9a9797"/>
  <path
      d="M5,9H3C2.4,9 2,8.6 2,8v0c0,-0.6 0.4,-1 1,-1h2c0.6,0 1,0.4 1,1v0C6,8.6 5.6,9 5,9z"
      fill="#9a9797"/>
  <path
      d="M21,9h-8c-0.6,0 -1,-0.4 -1,-1v0c0,-0.6 0.4,-1 1,-1h8c0.6,0 1,0.4 1,1v0C22,8.6 21.6,9 21,9z"
      fill="#9a9797"/>
  <path
      d="M21,15h-8c-0.6,0 -1,0.4 -1,1v0c0,0.6 0.4,1 1,1h8c0.6,0 1,-0.4 1,-1v0C22,15.4 21.6,15 21,15z"
      fill="#9a9797"/>
  <path
      d="M21,17L21,17c0.6,0 1,-0.4 1,-1V8c0,-0.6 -0.4,-1 -1,-1h0c-0.6,0 -1,0.4 -1,1v8C20,16.6 20.4,17 21,17z"
      fill="#9a9797"/>
  <path
      d="M9,20L9,20c-0.6,0 -1,-0.4 -1,-1V5c0,-0.6 0.4,-1 1,-1h0c0.6,0 1,0.4 1,1v14C10,19.6 9.6,20 9,20z"
      fill="#9a9797"/>
  <path
      d="M11,20H7c-0.6,0 -1,-0.4 -1,-1v0c0,-0.6 0.4,-1 1,-1h4c0.6,0 1,0.4 1,1v0C12,19.6 11.6,20 11,20z"
      fill="#9a9797"/>
  <path
      d="M11,6H7C6.4,6 6,5.6 6,5v0c0,-0.6 0.4,-1 1,-1h4c0.6,0 1,0.4 1,1v0C12,5.6 11.6,6 11,6z"
      fill="#9a9797"/>
</svg>
