<svg xmlns="http://www.w3.org/2000/svg" width="24" height="24" viewBox="0 0 24 24">
  <path
      fill="#9a9797"
      d="M13,17.4V6.6c0,-0.4 0.3,-0.7 0.7,-0.7h3.5c1.4,0 2.4,0.3 3.1,0.8s1.1,1.4 1.1,2.5c0,0.6 -0.2,1.1 -0.5,1.5c-0.3,0.4 -0.7,0.8 -1.3,1c0.7,0.2 1.2,0.5 1.5,1c0.4,0.5 0.5,1.1 0.5,1.8c0,1.1 -0.4,2 -1.1,2.6c-0.7,0.6 -1.8,0.9 -3.1,0.9h-3.7C13.3,18.1 13,17.8 13,17.4zM15.1,11h2.1c0.7,0 1.2,-0.1 1.5,-0.4c0.4,-0.3 0.6,-0.7 0.6,-1.3c0,-0.6 -0.2,-1 -0.5,-1.3s-0.9,-0.4 -1.6,-0.4h-2.1V11zM15.1,12.6v3.8h2.3c0.7,0 1.2,-0.2 1.6,-0.5c0.4,-0.3 0.6,-0.8 0.6,-1.4c0,-1.3 -0.6,-1.9 -1.9,-1.9H15.1z"/>
  <path
      fill="#9a9797"
      d="M9.3,15.2H4.5l-0.7,2.1c-0.1,0.4 -0.5,0.7 -1,0.7h0c-0.7,0 -1.2,-0.7 -1,-1.4l3.7,-9.9c0.2,-0.5 0.7,-0.9 1.3,-0.9h0c0.6,0 1.1,0.4 1.3,0.9l3.7,9.9c0.3,0.7 -0.2,1.4 -1,1.4h0c-0.4,0 -0.8,-0.3 -1,-0.7L9.3,15.2zM5.1,13.5h3.5l-1.8,-5L5.1,13.5z"/>
</svg>
