<svg xmlns="http://www.w3.org/2000/svg" width="24" height="24" viewBox="0 0 24 24">
  <path
      fill="#9a9797"
      d="M21,13.5c0,1.4 -0.3,2.5 -0.9,3.4c-0.6,0.8 -1.5,1.2 -2.6,1.2c-1.1,0 -1.9,-0.2 -2.5,-1l0,0.1c-0.1,0.5 -0.5,0.9 -1,0.9h0c-0.5,0 -1,-0.4 -1,-1v-11c0,-0.6 0.5,-1 1,-1h0c0.6,0 1,0.5 1,1v3.6c0.6,-0.7 1.4,-1 2.4,-1c1.1,0 2,0.4 2.6,1.2c0.6,0.8 0.9,2 0.9,3.4V13.5zM18.9,13.3c0,-1 -0.2,-1.7 -0.5,-2.2s-0.8,-0.7 -1.5,-0.7c-0.9,0 -1.5,0.4 -1.9,1.2v3.7c0.4,0.8 1,1.2 1.9,1.2c0.6,0 1.1,-0.2 1.5,-0.7c0.3,-0.5 0.5,-1.2 0.5,-2.1V13.3z"/>
  <path
      fill="#9a9797"
      d="M10,18.1c-0.5,0 -0.9,-0.4 -0.9,-0.9c0,-0.1 -0.1,-0.1 -0.1,-0.1c-0.6,0.6 -1.4,0.9 -2.3,0.9c-0.9,0 -1.6,-0.3 -2.2,-0.8c-0.6,-0.5 -0.9,-1.2 -0.9,-1.9c0,-1 0.4,-1.7 1.1,-2.2s1.7,-0.8 3.1,-0.8H9v-0.6c0,-0.5 -0.1,-0.8 -0.4,-1.1c-0.3,-0.3 -0.7,-0.4 -1.2,-0.4c-0.5,0 -0.8,0.1 -1.1,0.3C6.1,10.7 6,10.8 5.9,11c-0.2,0.3 -0.5,0.5 -0.8,0.5H4.9c-0.7,0 -1.1,-0.8 -0.7,-1.4l0,0c0.3,-0.4 0.8,-0.8 1.3,-1c0.6,-0.2 1.2,-0.4 1.9,-0.4C8.5,8.7 9.4,9 10,9.5s1,1.3 1,2.2v4.1v2c0,0.1 -0.1,0.2 -0.2,0.2L10,18.1zM7,16.5c0.4,0 0.8,-0.1 1.1,-0.3c0.3,-0.2 0.6,-0.4 0.8,-0.8c0,0 0,0 0,0l0,-1.6c0,0 0,-0.1 -0.1,-0.1h-1c-0.8,0 -1.3,0.1 -1.7,0.4s-0.6,0.6 -0.6,1.1c0,0.4 0.1,0.7 0.4,0.9C6.2,16.3 6.6,16.5 7,16.5z"/>
</svg>
