<svg xmlns="http://www.w3.org/2000/svg" width="24" height="24" viewBox="0 0 24 24">
  <path
      fill="#9a9797"
      d="M9.4,15.2H4.7L4,17.4c-0.1,0.4 -0.5,0.7 -1,0.7h0c-0.7,0 -1.2,-0.7 -1,-1.4l3.7,-9.9C6,6.3 6.5,5.9 7.1,5.9h0c0.6,0 1.1,0.4 1.3,0.9l3.7,9.9c0.3,0.7 -0.2,1.4 -1,1.4h0c-0.4,0 -0.8,-0.3 -1,-0.7L9.4,15.2zM5.3,13.5h3.5l-1.8,-5L5.3,13.5z"/>
  <path
      fill="#9a9797"
      d="M21.8,13.5c0,1.4 -0.3,2.5 -0.9,3.4c-0.6,0.8 -1.5,1.2 -2.6,1.2c-1.1,0 -1.9,-0.2 -2.5,-1l0,0.1c-0.1,0.5 -0.5,0.9 -1,0.9h0c-0.5,0 -1,-0.4 -1,-1v-11c0,-0.6 0.5,-1 1,-1h0c0.6,0 1,0.5 1,1v3.6c0.6,-0.7 1.4,-1 2.4,-1c1.1,0 2,0.4 2.6,1.2c0.6,0.8 0.9,2 0.9,3.4V13.5zM19.8,13.3c0,-1 -0.2,-1.7 -0.5,-2.2s-0.8,-0.7 -1.5,-0.7c-0.9,0 -1.5,0.4 -1.9,1.2v3.7c0.4,0.8 1,1.2 1.9,1.2c0.6,0 1.1,-0.2 1.5,-0.7c0.3,-0.5 0.5,-1.2 0.5,-2.1V13.3z"/>
</svg>
