<svg width="39" height="39" viewBox="0 0 39 39" fill="none" xmlns="http://www.w3.org/2000/svg">
<path fill-rule="evenodd" clip-rule="evenodd" d="M29 11H10C7.87827 11 5.84343 11.8428 4.34314 13.3431C2.84285 14.8434 2 16.8783 2 19C2 21.1217 2.84285 23.1566 4.34314 24.6569C5.84343 26.1572 7.87827 27 10 27H29C31.1217 27 33.1566 26.1572 34.6569 24.6569C36.1572 23.1566 37 21.1217 37 19C37 16.8783 36.1572 14.8434 34.6569 13.3431C33.1566 11.8428 31.1217 11 29 11ZM29 25H10C8.4087 25 6.88254 24.3678 5.75732 23.2426C4.63211 22.1174 4 20.5913 4 19C4 17.4087 4.63211 15.8826 5.75732 14.7574C6.88254 13.6322 8.4087 13 10 13H29C30.5913 13 32.1175 13.6322 33.2427 14.7574C34.3679 15.8826 35 17.4087 35 19C35 20.5913 34.3679 22.1174 33.2427 23.2426C32.1175 24.3678 30.5913 25 29 25ZM26.6526 19.0071L25.2802 17.6347C24.9053 17.2598 24.9054 16.6519 25.2803 16.277C25.6552 15.9021 26.263 15.9021 26.6379 16.277L28.0103 17.6494L29.3724 16.2873C29.7473 15.9124 30.3551 15.9125 30.73 16.2874C31.1049 16.6623 31.1049 17.2701 30.73 17.645L29.3679 19.007L30.7179 20.357C31.0928 20.7319 31.0928 21.3398 30.7179 21.7147C30.343 22.0896 29.7352 22.0896 29.3603 21.7147L28.0103 20.3647L26.65 21.725C26.2751 22.0999 25.6673 22.0999 25.2924 21.725C24.9175 21.3501 24.9175 20.7423 25.2924 20.3673L26.6526 19.0071ZM14.6971 17.7071C15.0876 17.3166 15.0876 16.6834 14.6971 16.2929C14.3066 15.9024 13.6734 15.9024 13.2829 16.2929L9.99001 19.5858L8.69711 18.2929C8.30659 17.9024 7.67342 17.9024 7.2829 18.2929C6.89237 18.6834 6.89237 19.3166 7.2829 19.7071L9.2829 21.7071C9.67342 22.0976 10.3066 22.0976 10.6971 21.7071L14.6971 17.7071Z" fill="url(#paint0_linear_126_37)"/>
<defs>
<linearGradient id="paint0_linear_126_37" x1="19.4626" y1="10.7042" x2="19.4626" y2="26.4099" gradientUnits="userSpaceOnUse">
<stop stop-color="#00A0FF"/>
<stop offset="1" stop-color="#42A5F6"/>
</linearGradient>
</defs>
</svg>
