<svg width="39" height="39" viewBox="0 0 39 39" fill="none" xmlns="http://www.w3.org/2000/svg">
<path opacity="0.5" fill-rule="evenodd" clip-rule="evenodd" d="M20.3484 25.7097C20.6601 25.856 20.9318 26.0757 21.14 26.35C21.6167 27.0445 21.8457 27.8794 21.79 28.72V28.81C21.8426 29.6426 21.6175 30.469 21.15 31.16C20.9424 31.4349 20.6708 31.6551 20.3589 31.8015C20.047 31.9478 19.7041 32.016 19.36 32C19.0629 32.009 18.7678 31.9497 18.4973 31.8266C18.2268 31.7035 17.9883 31.5199 17.8 31.29C17.7735 31.4862 17.6768 31.6661 17.528 31.7966C17.3791 31.9271 17.188 31.9994 16.99 32C16.7689 32 16.5568 31.9129 16.3995 31.7575C16.2423 31.6021 16.1527 31.391 16.15 31.17V23.84C16.15 23.6172 16.2385 23.4036 16.396 23.246C16.5535 23.0885 16.7672 23 16.99 23C17.2128 23 17.4265 23.0885 17.584 23.246C17.7415 23.4036 17.83 23.6172 17.83 23.84V26.19C18.0151 25.9687 18.2482 25.7924 18.5116 25.6746C18.775 25.5568 19.0616 25.5005 19.35 25.51C19.694 25.4949 20.0366 25.5634 20.3484 25.7097ZM19.6191 30.4551C19.8143 30.3097 19.9497 30.0981 20 29.86C20.0939 29.4774 20.1343 29.0837 20.12 28.69C20.1558 28.2106 20.0516 27.7312 19.8199 27.31C19.7219 27.164 19.5871 27.0464 19.4291 26.9692C19.2711 26.8919 19.0955 26.8577 18.92 26.87C18.6935 26.8525 18.467 26.9056 18.2719 27.022C18.0767 27.1384 17.9222 27.3124 17.83 27.52V29.99C17.923 30.202 18.0801 30.3797 18.2792 30.498C18.4782 30.6164 18.7092 30.6695 18.9399 30.65C19.1825 30.6699 19.424 30.6006 19.6191 30.4551ZM26.7849 29.6645C26.9117 29.5841 27.0599 29.5441 27.2099 29.55C27.3336 29.5569 27.454 29.5932 27.5609 29.6559C27.6678 29.7186 27.7582 29.8058 27.8246 29.9104C27.8911 30.015 27.9317 30.134 27.9431 30.2574C27.9544 30.3808 27.9362 30.5051 27.89 30.62C27.7714 30.8872 27.6015 31.1284 27.39 31.33C26.8732 31.7942 26.1937 32.0351 25.4999 32C25.1069 32.0185 24.7145 31.9511 24.3502 31.8026C23.9858 31.6541 23.6581 31.428 23.39 31.14C22.985 30.6661 22.7338 30.0802 22.67 29.4601C22.6505 29.2004 22.6505 28.9397 22.67 28.68C22.6258 27.8404 22.9008 27.0152 23.4399 26.37C23.7068 26.0805 24.0343 25.8533 24.399 25.7046C24.7637 25.556 25.1567 25.4896 25.55 25.51C26.2407 25.4755 26.9168 25.7164 27.43 26.18C27.6456 26.3804 27.8189 26.6218 27.9399 26.89C27.9872 27.0081 28.0049 27.1359 27.9915 27.2623C27.9781 27.3887 27.934 27.51 27.863 27.6155C27.792 27.721 27.6962 27.8075 27.5842 27.8676C27.4721 27.9276 27.3471 27.9594 27.2199 27.9601C27.0699 27.9661 26.9214 27.9275 26.7933 27.8491C26.6651 27.7708 26.5631 27.6563 26.4999 27.52C26.453 27.3858 26.3781 27.263 26.28 27.16C26.1816 27.0593 26.0629 26.9806 25.9319 26.9289C25.801 26.8772 25.6606 26.8537 25.52 26.86C25.3496 26.8491 25.1794 26.882 25.0253 26.9555C24.8713 27.029 24.7386 27.1408 24.64 27.2801C24.407 27.7044 24.3027 28.1874 24.3399 28.67C24.3023 29.2062 24.4022 29.7431 24.6299 30.23C24.7295 30.3708 24.8638 30.4835 25.0197 30.5571C25.1757 30.6307 25.348 30.6627 25.52 30.6501C25.6606 30.6564 25.801 30.6329 25.9319 30.5812C26.0629 30.5295 26.1816 30.4507 26.28 30.35C26.3738 30.2476 26.4484 30.129 26.4999 30C26.5587 29.8619 26.658 29.7448 26.7849 29.6645Z" fill="url(#paint0_linear_126_39)"/>
<path fill-rule="evenodd" clip-rule="evenodd" d="M20.08 3H18.08H16.08C15.5277 3 15.08 3.44772 15.08 4C15.08 4.55228 15.5277 5 16.08 5H17.08V16H16.08C15.5277 16 15.08 16.4477 15.08 17C15.08 17.5523 15.5277 18 16.08 18H18.08H20.08C20.6323 18 21.08 17.5523 21.08 17C21.08 16.4477 20.6323 16 20.08 16H19.08V5H20.08C20.6323 5 21.08 4.55228 21.08 4C21.08 3.44772 20.6323 3 20.08 3ZM12.89 13.15H9.66007L9.25003 14.38C9.19076 14.5611 9.0756 14.7187 8.92105 14.8301C8.76651 14.9415 8.58057 15.001 8.39005 15C8.24229 15.0021 8.09623 14.9677 7.96488 14.9C7.83353 14.8323 7.72089 14.7333 7.63687 14.6118C7.55286 14.4902 7.50008 14.3498 7.48319 14.203C7.46629 14.0562 7.48587 13.9075 7.54007 13.77L10.12 6.77002C10.2059 6.53362 10.3622 6.32922 10.5678 6.18439C10.7734 6.03956 11.0185 5.96126 11.2701 5.96002C11.5204 5.96051 11.7645 6.03735 11.97 6.1803C12.1755 6.32325 12.3326 6.52549 12.4201 6.76001L15.0201 13.76C15.0717 13.8975 15.0893 14.0455 15.0713 14.1913C15.0533 14.3372 15.0003 14.4765 14.9168 14.5974C14.8333 14.7182 14.7218 14.8171 14.5917 14.8854C14.4617 14.9538 14.317 14.9897 14.1701 14.99C13.9796 14.991 13.7936 14.9315 13.6391 14.8201C13.4845 14.7087 13.3694 14.5511 13.3101 14.37L12.89 13.15ZM10.1601 11.64H12.4001L11.2701 8.28003L10.1601 11.64ZM10 20H29C31.1217 20 33.1566 20.8428 34.6569 22.3431C36.1572 23.8434 37 25.8783 37 28C37 30.1217 36.1572 32.1566 34.6569 33.6569C33.1566 35.1572 31.1217 36 29 36H10C7.87827 36 5.84343 35.1572 4.34314 33.6569C2.84285 32.1566 2 30.1217 2 28C2 25.8783 2.84285 23.8434 4.34314 22.3431C5.84343 20.8428 7.87827 20 10 20ZM10 34H29C30.5913 34 32.1175 33.3678 33.2427 32.2426C34.3679 31.1174 35 29.5913 35 28C35 26.4087 34.3679 24.8826 33.2427 23.7574C32.1175 22.6322 30.5913 22 29 22H10C8.4087 22 6.88254 22.6322 5.75732 23.7574C4.63211 24.8826 4 26.4087 4 28C4 29.5913 4.63211 31.1174 5.75732 32.2426C6.88254 33.3678 8.4087 34 10 34ZM9.66007 30.15H12.89L13.3101 31.37C13.3694 31.5511 13.4845 31.7087 13.6391 31.8201C13.7936 31.9315 13.9796 31.991 14.1701 31.99C14.317 31.9897 14.4617 31.9538 14.5917 31.8854C14.7218 31.8171 14.8333 31.7182 14.9168 31.5974C15.0003 31.4765 15.0533 31.3372 15.0713 31.1913C15.0893 31.0455 15.0717 30.8975 15.0201 30.76L12.4201 23.76C12.3326 23.5255 12.1755 23.3232 11.97 23.1803C11.7645 23.0373 11.5204 22.9605 11.2701 22.96C11.0185 22.9613 10.7734 23.0396 10.5678 23.1844C10.3622 23.3292 10.2059 23.5336 10.12 23.77L7.54007 30.77C7.48587 30.9075 7.46629 31.0562 7.48319 31.203C7.50008 31.3498 7.55286 31.4902 7.63687 31.6118C7.72089 31.7333 7.83353 31.8323 7.96488 31.9C8.09623 31.9677 8.24229 32.0021 8.39005 32C8.58057 32.001 8.76651 31.9415 8.92105 31.8301C9.0756 31.7187 9.19076 31.5611 9.25003 31.38L9.66007 30.15ZM12.4001 28.64H10.1601L11.2701 25.28L12.4001 28.64Z" fill="url(#paint1_linear_126_39)"/>
<defs>
<linearGradient id="paint0_linear_126_39" x1="22.0603" y1="22.8335" x2="22.0603" y2="31.6713" gradientUnits="userSpaceOnUse">
<stop stop-color="#00A0FF"/>
<stop offset="1" stop-color="#42A5F6"/>
</linearGradient>
<linearGradient id="paint1_linear_126_39" x1="19.4626" y1="2.38988" x2="19.4626" y2="34.7829" gradientUnits="userSpaceOnUse">
<stop stop-color="#00A0FF"/>
<stop offset="1" stop-color="#42A5F6"/>
</linearGradient>
</defs>
</svg>
