<svg xmlns="http://www.w3.org/2000/svg" width="24" height="24" viewBox="0 0 24 24">
  <path
      d="M7.3,14.7c0.4,0.4 1,0.4 1.4,0l3,-3c0.4,-0.4 0.4,-1 0,-1.4l-3,-3c-0.4,-0.4 -1,-0.4 -1.4,0c-0.4,0.4 -0.4,1 0,1.4L8.6,10H3c-0.5,0 -1,0.4 -1,1s0.5,1 1,1h5.6l-1.3,1.3C6.9,13.7 6.9,14.3 7.3,14.7z"
      fill="#010101"/>
  <path
      d="M21,4H8C7.4,4 7,3.6 7,3v0c0,-0.6 0.4,-1 1,-1h13c0.6,0 1,0.4 1,1v0C22,3.6 21.6,4 21,4z"
      fill="#010101"/>
  <path
      d="M20,20.1H8.1c-0.6,0 -1,-0.4 -1,-1v0c0,-0.6 0.4,-1 1,-1H20c0.6,0 1,0.4 1,1v0C21,19.6 20.5,20.1 20,20.1z"
      fill="#010101"/>
  <path
      d="M8,5L8,5C7.4,5 7,4.6 7,4V3c0,-0.6 0.4,-1 1,-1h0c0.6,0 1,0.4 1,1v1C9,4.6 8.6,5 8,5z"
      fill="#010101"/>
  <path
      d="M8,20L8,20c-0.6,0 -1,-0.4 -1,-1v-1c0,-0.6 0.4,-1 1,-1h0c0.6,0 1,0.4 1,1v1C9,19.6 8.6,20 8,20z"
      fill="#010101"/>
  <path
      d="M14.4,22.9l7,-3.1c0.4,-0.2 0.6,-0.5 0.6,-0.9V3c0,-0.7 -0.7,-1.2 -1.4,-0.9l-7,3.1C13.2,5.4 13,5.7 13,6.1V22C13,22.7 13.7,23.2 14.4,22.9z"
      fill="#010101"/>
</svg>
