<svg xmlns="http://www.w3.org/2000/svg" width="24" height="24" viewBox="0 0 24 24">
  <path
      fill="#FF000000"
      d="M14.59,2.59c-0.38,-0.38 -0.89,-0.59 -1.42,-0.59L6,2c-1.1,0 -2,0.9 -2,2v16c0,1.1 0.89,2 1.99,2L18,22c1.1,0 2,-0.9 2,-2L20,8.83c0,-0.53 -0.21,-1.04 -0.59,-1.41l-4.82,-4.83zM15,18L9,18c-0.55,0 -1,-0.45 -1,-1s0.45,-1 1,-1h6c0.55,0 1,0.45 1,1s-0.45,1 -1,1zM15,14L9,14c-0.55,0 -1,-0.45 -1,-1s0.45,-1 1,-1h6c0.55,0 1,0.45 1,1s-0.45,1 -1,1zM13,8L13,3.5L18.5,9L14,9c-0.55,0 -1,-0.45 -1,-1z"/>
</svg>
