<svg xmlns="http://www.w3.org/2000/svg" width="40" height="40" fill="none" viewBox="0 0 40 40">
    <path fill="#6750a4" fill-rule="evenodd" d="M7 4a1 1 0 0 1 2 0v16.1a5.002 5.002 0 0 1 0 9.8V36a1 1 0 1 1-2 0v-6.1a5.002 5.002 0 0 1 0-9.8V4Zm4 21a3 3 0 1 1-6 0 3 3 0 0 1 6 0Zm9-22a1 1 0 0 0-1 1v6.1a5.002 5.002 0 0 0 0 9.8V36a1 1 0 1 0 2 0V19.9a5.002 5.002 0 0 0 0-9.8V4a1 1 0 0 0-1-1Zm3 12a3 3 0 1 1-6 0 3 3 0 0 1 6 0Zm9-12a1 1 0 0 0-1 1v16.1a5.002 5.002 0 0 0 0 9.8V36a1 1 0 1 0 2 0v-6.1a5.002 5.002 0 0 0 0-9.8V4a1 1 0 0 0-1-1Zm3 22a3 3 0 1 1-6 0 3 3 0 0 1 6 0Z" clip-rule="evenodd"/>
</svg>
