<svg width="40" height="40" viewBox="0 0 40 40" fill="none" xmlns="http://www.w3.org/2000/svg">
<g clip-path="url(#clip0_848_217)">
<path fill-rule="evenodd" clip-rule="evenodd" d="M0 5C0 4.44772 0.447716 4 1 4H23C23.5523 4 24 4.44772 24 5V11.5C24 11.7761 23.7761 12 23.5 12H23.3401C23.0959 12 22.8896 11.8227 22.8323 11.5853C22.1963 8.9543 19.8264 7 17 7H14.5C14.2239 7 14 7.22386 14 7.5V26C14 27.1046 14.8954 28 16 28H17.5C17.7761 28 18 28.2239 18 28.5V29.5C18 29.7761 17.7761 30 17.5 30H6.5C6.22386 30 6 29.7761 6 29.5V28.5C6 28.2239 6.22386 28 6.5 28H8C9.10457 28 10 27.1046 10 26V7.5C10 7.22386 9.77614 7 9.5 7H7C4.1736 7 1.80365 8.9543 1.16773 11.5853C1.11036 11.8227 0.904072 12 0.659855 12H0.5C0.223858 12 0 11.7761 0 11.5V5Z" fill="#6750a4"/>
<path fill-rule="evenodd" clip-rule="evenodd" d="M35.5758 13.8719L39.7758 18.0719C40.0758 18.3719 40.0758 18.8719 39.7758 19.1719L30.0971 28.8506C29.9971 28.9506 29.3971 29.1506 29.1971 29.1506L23.5141 30.4515C23.2141 30.4515 22.9141 30.1515 22.9141 29.8515L24.4971 24.2506C24.4971 24.0506 24.6971 23.6506 24.7971 23.5506L34.5758 13.8719C34.6758 13.7719 34.8758 13.6719 35.0758 13.6719C35.2758 13.6719 35.4758 13.7719 35.5758 13.8719ZM27.6971 23.5506L30.0971 25.9506L35.1758 20.8719L32.7758 18.4719L27.6971 23.5506ZM28.4971 27.2506L26.2971 25.0506L25.6141 27.8515L28.4971 27.2506ZM34.1758 17.0719L36.5758 19.4719L37.4758 18.5719L35.0758 16.1719L34.1758 17.0719Z" fill="#6750a4"/>
<path fill-rule="evenodd" clip-rule="evenodd" d="M23 14H31.5566L29.5566 16H23C21.3431 16 20 17.3431 20 19V26H18V19C18 16.2386 20.2386 14 23 14ZM18.1 32C18.5633 34.2822 20.581 36 23 36H35C37.7614 36 40 33.7614 40 31V22.5272L38 24.5272V31C38 32.6569 36.6569 34 35 34H23C21.6938 34 20.5825 33.1652 20.1707 32H18.1Z" fill="#6750a4"/>
</g>
</svg>
