<svg width="40" height="40" viewBox="0 0 40 40" fill="none" xmlns="http://www.w3.org/2000/svg">
<path fill-rule="evenodd" clip-rule="evenodd" d="M20 4H13C8.02944 4 4 8.02944 4 13V27C4 28.2693 4.26277 29.4773 4.73687 30.5724L11.3645 25.6017L11.3899 25.5847C12.1528 25.0763 13.0651 24.5315 14.1542 24.4275C15.2991 24.3181 16.4407 24.7058 17.66 25.6203C19.4583 26.969 21.1861 26.7582 22.2222 25.7222C23.7672 24.1774 27.1305 21.4868 28.7833 20.1646L28.8502 20.1111L28.89 20.0846C29.7545 19.5084 30.7565 19.0962 31.7927 19.0526C32.8624 19.0076 33.9167 19.3612 34.7778 20.2223C35.182 20.6265 35.6032 21.0707 36 21.5004V19V17C36 16.4477 36.4477 16 37 16C37.5523 16 38 16.4477 38 17V19V27C38 33.0751 33.0751 38 27 38H13C6.92487 38 2 33.0751 2 27V13C2 6.92487 6.92487 2 13 2H20H21H22C22.5523 2 23 2.44772 23 3C23 3.55228 22.5523 4 22 4H21H20ZM36 24.8035C35.9875 24.7891 35.9746 24.7742 35.9613 24.7589C35.7862 24.5568 35.5378 24.2725 35.2458 23.9446C34.6592 23.2858 33.9071 22.4628 33.2222 21.778C32.8206 21.3764 32.3749 21.2301 31.8852 21.2507C31.3726 21.2723 30.7701 21.4831 30.1481 21.8901C28.4458 23.252 25.2125 25.8434 23.7778 27.2779C21.8136 29.2419 18.828 29.2462 16.34 27.3803C15.4162 26.6874 14.8078 26.575 14.3634 26.6175C13.869 26.6647 13.3589 26.9182 12.6351 27.3987L5.86011 32.48C7.5054 34.6204 10.0916 36 13 36H27C31.9706 36 36 31.9706 36 27V24.8035ZM32.4866 4.65529L31.532 5.60985C31.5567 5.70379 31.5891 5.8124 31.6313 5.93144C31.7863 6.36837 32.0647 6.9207 32.5571 7.41316C33.0496 7.90562 33.6019 8.18396 34.0388 8.33896C34.1579 8.38119 34.2665 8.41359 34.3605 8.43825L35.315 7.48372C36.0961 6.70267 36.0961 5.43634 35.315 4.65529C34.534 3.87425 33.2676 3.87425 32.4866 4.65529ZM26.6336 10.5083L29.8283 7.31358C30.0837 7.84049 30.457 8.42427 31.0015 8.96879C31.546 9.51333 32.1298 9.88663 32.6567 10.142L29.462 13.3367C28.6464 14.1523 27.5184 14.5762 26.3675 14.4994L25.5269 14.4434L25.4709 13.6028C25.3942 12.4519 25.818 11.3239 26.6336 10.5083ZM26.2345 16.495C27.9608 16.6101 29.6528 15.9744 30.8762 14.7509L36.7292 8.89794C38.2913 7.33584 38.2913 4.80318 36.7292 3.24108C35.1671 1.67898 32.6345 1.67898 31.0724 3.24108L25.2194 9.09408C23.996 10.3175 23.3602 12.0095 23.4753 13.7358L23.5313 14.5764C23.598 15.5762 24.3941 16.3723 25.3939 16.439L26.2345 16.495ZM15 15.8C16.5464 15.8 17.8 14.5464 17.8 13C17.8 11.4536 16.5464 10.2 15 10.2C13.4536 10.2 12.2 11.4536 12.2 13C12.2 14.5464 13.4536 15.8 15 15.8ZM15 18C17.7614 18 20 15.7614 20 13C20 10.2386 17.7614 8 15 8C12.2386 8 10 10.2386 10 13C10 15.7614 12.2386 18 15 18Z" fill="#6750a4"/>
</svg>
