<svg width="39" height="39" viewBox="0 0 39 39" fill="none" xmlns="http://www.w3.org/2000/svg">
<path fill-rule="evenodd" clip-rule="evenodd" d="M4 19C4 10.2 11.2 3 20 3C28.8 3 36 10.2 36 19C36 27.8 28.8 35 20 35C11.2 35 4 27.8 4 19ZM6 19C6 26.7 12.3 33 20 33C27.7 33 34 26.7 34 19C34 11.3 27.7 5 20 5C12.3 5 6 11.3 6 19ZM21 12V16.2C22.2 16.6 23 17.7 23 19C23 20.7 21.7 22 20 22C19.5 22 19.1 21.9 18.7 21.7L13.6 26.8C13.2 27.2 12.6 27.2 12.2 26.8C11.8 26.4 11.8 25.8 12.2 25.4L17.3 20.3C17.1 19.9 17 19.5 17 19C17 17.7 17.8 16.6 19 16.2V12C19 11.4 19.4 11 20 11C20.6 11 21 11.4 21 12ZM19 19C19 19.6 19.4 20 20 20C20.6 20 21 19.6 21 19C21 18.4 20.6 18 20 18C19.4 18 19 18.4 19 19ZM9 18H8C7.4 18 7 18.4 7 19C7 19.6 7.4 20 8 20H9C9.6 20 10 19.6 10 19C10 18.4 9.6 18 9 18ZM31 18H32C32.6 18 33 18.4 33 19C33 19.6 32.6 20 32 20H31C30.4 20 30 19.6 30 19C30 18.4 30.4 18 31 18ZM20 29C19.4 29 19 29.4 19 30V31C19 31.6 19.4 32 20 32C20.6 32 21 31.6 21 31V30C21 29.4 20.6 29 20 29ZM21 8C21 8.6 20.6 9 20 9C19.4 9 19 8.6 19 8V7C19 6.4 19.4 6 20 6C20.6 6 21 6.4 21 7V8Z" fill="#6750a4"/>
</svg>
