<svg width="39" height="39" viewBox="0 0 39 39" fill="none" xmlns="http://www.w3.org/2000/svg">
<path fill-rule="evenodd" clip-rule="evenodd" d="M12 27H11V12H12C12.6 12 13 11.6 13 11C13 10.4 12.6 10 12 10H8C7.4 10 7 10.4 7 11C7 11.6 7.4 12 8 12H9V27H8C7.4 27 7 27.4 7 28C7 28.6 7.4 29 8 29H12C12.6 29 13 28.6 13 28C13 27.4 12.6 27 12 27ZM6 25H4V14H6C6.6 14 7 13.6 7 13C7 12.4 6.6 12 6 12H3C2.4 12 2 12.4 2 13V26C2 26.6 2.4 27 3 27H6C6.6 27 7 26.6 7 26C7 25.4 6.6 25 6 25ZM14 12H36C36.6 12 37 12.4 37 13V26C37 26.6 36.6 27 36 27H14C13.4 27 13 26.6 13 26C13 25.4 13.4 25 14 25H35V14H14C13.4 14 13 13.6 13 13C13 12.4 13.4 12 14 12Z" fill="#6750a4"/>
</svg>
