<svg width="39" height="39" viewBox="0 0 39 39" fill="none" xmlns="http://www.w3.org/2000/svg">
<path opacity="0.5" d="M25.7 30.6C25.4 30.6 25.1 30.8 25 31C24.9 31.1 24.9 31.2 24.8 31.4C24.6 31.6 24.4 31.7 24 31.7C23.6 31.7 23.3 31.6 23.1 31.3C22.9 30.9 22.8 30.3 22.8 29.7C22.8 29.1 22.9 28.6 23.1 28.3C23.3 28 23.6 27.9 24 27.9C24.3 27.9 24.6 28 24.8 28.2C24.9 28.3 25 28.4 25 28.6C25.1 28.9 25.4 29 25.7 29C26.2 29 26.6 28.4 26.4 27.9C26.3 27.6 26.1 27.4 25.9 27.2C25.4 26.8 24.8 26.5 24 26.5C23.1 26.5 22.4 26.8 21.9 27.4C21.4 28 21.1 28.7 21.1 29.7C21.1 30.3 21.1 30.5 21.1 30.5C21.2 31.2 21.4 31.7 21.8 32.2C22.3 32.8 23 33.1 23.9 33.1C24.7 33.1 25.3 32.9 25.8 32.4C26 32.2 26.2 32 26.3 31.7C26.7 31.1 26.3 30.6 25.7 30.6Z" fill="#6750a4"/>
<path opacity="0.5" d="M17.9 26.5C17.3 26.5 16.8 26.7 16.4 27.2V24.8C16.4 24.3 16 24 15.6 24C15.1 24 14.8 24.4 14.8 24.8V31.3V32.2C14.8 32.7 15.2 33 15.6 33C16 33 16.3 32.7 16.4 32.3C16.8 32.8 17.3 33 18 33C18.8 33 19.4 32.7 19.8 32.2C20.2 31.6 20.4 30.9 20.4 29.9V29.8C20.4 28.8 20.2 28 19.7 27.4C19.2 26.8 18.6 26.5 17.9 26.5ZM18.5 30.9C18.3 31.4 18 31.7 17.4 31.7C16.9 31.7 16.5 31.5 16.3 31V28.5C16.5 28.1 16.9 27.8 17.4 27.8C17.8 27.8 18.1 27.9 18.3 28.2C18.5 28.5 18.6 29 18.6 29.6C18.6 30.2 18.6 30.6 18.5 30.9Z" fill="#6750a4"/>
<path d="M9.80001 24C9.30001 24 8.80001 24.3 8.60001 24.8L6.00001 31.8C5.80001 32.4 6.30001 33 6.90001 33C7.30001 33 7.60001 32.7 7.80001 32.4L8.20001 31.2H11.4L11.8 32.4C11.9 32.8 12.3 33 12.7 33C13.3 33 13.8 32.4 13.6 31.8L11 24.8C10.8 24.3 10.3 24 9.80001 24ZM8.70001 29.6L9.80001 26.2L10.9 29.6H8.70001Z" fill="#6750a4"/>
<path d="M14 21C13.4 21 13 21.4 13 22C13 22.6 13.4 23 14 23H18C18.6 23 19 22.6 19 22C19 21.4 18.6 21 18 21H17V4H18C18.6 4 19 3.6 19 3C19 2.4 18.6 2 18 2H14C13.4 2 13 2.4 13 3C13 3.6 13.4 4 14 4H15V21H14Z" fill="#6750a4"/>
<path d="M36 4H20C19.4 4 19 4.4 19 5C19 5.6 19.4 6 20 6H35V19H20C19.4 19 19 19.4 19 20C19 20.6 19.4 21 20 21H35V35H4V21H11C11.6 21 12 20.6 12 20C12 19.4 11.6 19 11 19H4V6H11C11.6 6 12 5.6 12 5C12 4.4 11.6 4 11 4H3C2.4 4 2 4.4 2 5V20V36C2 36.6 2.4 37 3 37H36C36.6 37 37 36.6 37 36V20V5C37 4.4 36.6 4 36 4Z" fill="#6750a4"/>
<path d="M12.3 11.9C12.5 11.4 12.6 11 12.6 10.6C12.6 9.8 12.3 9.2 11.8 8.7C11.3 8.2 10.7 8 9.80001 8C9.20001 8 8.60001 8.1 8.20001 8.4C7.70001 8.6 7.30001 9 7.10001 9.4C7.00001 9.5 7.00001 9.5 7.00001 9.6C6.90001 9.7 6.90001 9.9 6.90001 10C6.90001 10.5 7.30001 10.9 7.80001 10.9C8.20001 10.9 8.50001 10.7 8.60001 10.3V10.2C8.70001 10 8.70001 9.9 8.80001 9.8C9.00001 9.6 9.30001 9.4 9.70001 9.4C10.1 9.4 10.4 9.5 10.6 9.7C10.8 9.9 10.9 10.2 10.9 10.6C10.9 10.9 10.8 11.2 10.6 11.5C10.4 11.8 10.1 12.2 9.70001 12.6L6.80001 15.6C6.70001 15.7 6.60001 15.9 6.60001 16.1C6.70001 16.7 7.00001 17 7.40001 17H12.3C12.7 17 13 16.7 13 16.3C13 15.9 12.7 15.6 12.3 15.6H9.10001L11.1 13.5C11.7 12.8 12.1 12.3 12.3 11.9Z" fill="#6750a4"/>
</svg>
