<svg width="39" height="39" viewBox="0 0 39 39" fill="none" xmlns="http://www.w3.org/2000/svg">
<path fill-rule="evenodd" clip-rule="evenodd" d="M15 5H5C4.4 5 4 5.4 4 6V16C4 16.6 4.4 17 5 17H15C15.6 17 16 16.6 16 16V6C16 5.4 15.6 5 15 5ZM14 7V15H6V7H14ZM34 27H19C18.4 27 18 27.4 18 28C18 28.6 18.4 29 19 29H34C34.6 29 35 28.6 35 28C35 27.4 34.6 27 34 27ZM34 12H19C18.4 12 18 11.6 18 11C18 10.4 18.4 10 19 10H34C34.6 10 35 10.4 35 11C35 11.6 34.6 12 34 12ZM7.2 11.1L8.5 12.7C8.57016 12.8403 8.68953 12.8822 8.8236 12.9292L8.8236 12.9292C8.88063 12.9492 8.94031 12.9702 9 13C9.4 13.2 9.9 13.1 10.2 12.7L12.8 9.6C13.2 9.2 13.1 8.5 12.7 8.2C12.3 7.8 11.6 7.9 11.3 8.3L9.4 10.5L8.8 9.8C8.4 9.4 7.8 9.3 7.4 9.7C6.9 10 6.9 10.7 7.2 11.1ZM5 22H15C15.6 22 16 22.4 16 23V33C16 33.6 15.6 34 15 34H5C4.4 34 4 33.6 4 33V23C4 22.4 4.4 22 5 22ZM14 32V24H6V32H14Z" fill="#6750a4"/>
</svg>
