<svg width="39" height="39" viewBox="0 0 39 39" fill="none" xmlns="http://www.w3.org/2000/svg">
<path fill-rule="evenodd" clip-rule="evenodd" d="M11.0604 28.252C10.9391 27.8207 11.1194 27.3614 11.5017 27.1278L20.8767 21.4005C21.1802 21.2151 21.5594 21.2049 21.8725 21.3736L32.4975 27.1009C32.9007 27.3183 33.1047 27.7817 32.9926 28.2259C32.8806 28.67 32.4811 28.9812 32.023 28.9812L28.023 28.9812L28.023 36.2539C28.023 36.8062 27.5753 37.2539 27.023 37.2539L17.023 37.2539C16.4708 37.2539 16.023 36.8062 16.023 36.2539L16.023 28.9812L12.023 28.9812C11.575 28.9812 11.1817 28.6832 11.0604 28.252ZM15.5781 26.9812L17.023 26.9812C17.5753 26.9812 18.023 27.4289 18.023 27.9812L18.023 35.2539L26.023 35.2539L26.023 27.9812C26.023 27.4289 26.4707 26.9812 27.023 26.9812L28.0604 26.9812L21.4292 23.4067L15.5781 26.9812Z" fill="#6750a4"/>
<path d="M13 5H25C26.1046 5 27 5.89543 27 7V20.7517L29 21.8284V7C29 4.79086 27.2091 3 25 3H13C10.7909 3 9 4.79086 9 7V24C9 24.5341 9.10469 25.0438 9.29466 25.5096L11.0534 24.4609C11.0185 24.313 11 24.1586 11 24V7C11 5.89543 11.8954 5 13 5Z" fill="#6750a4"/>
<path d="M16.0365 8.5547C15.5934 7.89015 16.0698 7 16.8685 7H21.1315C21.9302 7 22.4066 7.89015 21.9635 8.5547V8.5547C21.7781 8.8329 21.4658 9 21.1315 9H16.8685C16.5342 9 16.2219 8.8329 16.0365 8.5547V8.5547Z" fill="#6750a4"/>
<path d="M14.9748 16.0775L16.269 16.8185C16.5844 16.9991 16.6936 17.4011 16.5131 17.7165C16.3325 18.0318 15.9305 18.1411 15.6151 17.9605L13.3311 16.6528C13.1178 16.5306 12.9987 16.307 13 16.0775C12.9987 15.848 13.1178 15.6244 13.3311 15.5023L15.6151 14.1945C15.9305 14.0139 16.3325 14.1232 16.5131 14.4386C16.6936 14.7539 16.5844 15.1559 16.269 15.3365L14.9748 16.0775Z" fill="#6750a4"/>
<path d="M23.0257 16.0775L21.7315 16.8185C21.4162 16.9991 21.3069 17.4011 21.4875 17.7165C21.668 18.0318 22.0701 18.1411 22.3854 17.9605L24.6694 16.6528C24.8828 16.5306 25.0018 16.307 25.0005 16.0775C25.0018 15.848 24.8828 15.6244 24.6694 15.5023L22.3854 14.1945C22.0701 14.0139 21.668 14.1232 21.4875 14.4386C21.3069 14.7539 21.4162 15.1559 21.7315 15.3365L23.0257 16.0775Z" fill="#6750a4"/>
<path d="M18.8687 14.6124C19.0016 14.2742 19.3835 14.1078 19.7217 14.2407C20.0599 14.3737 20.2263 14.7556 20.0934 15.0938L19.1305 17.5432C18.9975 17.8814 18.6156 18.0478 18.2774 17.9148C17.9392 17.7819 17.7728 17.4 17.9058 17.0618L18.8687 14.6124Z" fill="#6750a4"/>
</svg>
