<svg width="39" height="39" viewBox="0 0 39 39" fill="none" xmlns="http://www.w3.org/2000/svg">
<path fill-rule="evenodd" clip-rule="evenodd" d="M29 4H35C35.6 4 36 4.4 36 5V35C36 35.6 35.6 36 35 36H3C2.4 36 2 35.6 2 35V5C2 4.4 2.4 4 3 4H9V3C9 2.4 9.4 2 10 2C10.6 2 11 2.4 11 3V4H27V3C27 2.4 27.4 2 28 2C28.6 2 29 2.4 29 3V4ZM34 12H4V34H34V12ZM11 7C11 7.6 10.6 8 10 8C9.4 8 9 7.6 9 7V6H4V10H34V6H29V7C29 7.6 28.6 8 28 8C27.4 8 27 7.6 27 7V6H11V7ZM24.8 13.7L28.3 17.2C28.7 17.6 28.7 18.2 28.3 18.6L17 29.9C16.9 30 16.7 30.1 16.6 30.1L11.3 31.9C11.2 32 11.1 32 11 32C10.7 32 10.5 31.9 10.3 31.7C10.1 31.5 10 31.1 10.1 30.7L11.9 25.4C11.9 25.2 12 25.1 12.1 25L23.4 13.7C23.8 13.3 24.4 13.3 24.8 13.7ZM14.4 28.7L13.2 27.5L12.5 29.3L14.4 28.7ZM14.2 25.7L16.3 27.8L23.4 20.7L21.3 18.6L14.2 25.7ZM22.7 17.2L24.8 19.3L26.2 17.9L24.1 15.8L22.7 17.2Z" fill="#6750a4"/>
</svg>
