<svg width="39" height="39" viewBox="0 0 39 39" fill="none" xmlns="http://www.w3.org/2000/svg">
<path fill-rule="evenodd" clip-rule="evenodd" d="M30 27H29V10H30C30.6 10 31 9.6 31 9C31 8.4 30.6 8 30 8H26C25.4 8 25 8.4 25 9C25 9.6 25.4 10 26 10H27V27H26C25.4 27 25 27.4 25 28C25 28.6 25.4 29 26 29H30C30.6 29 31 28.6 31 28C31 27.4 30.6 27 30 27ZM24 25C24.6 25 25 25.4 25 26C25 26.6 24.6 27 24 27H3C2.4 27 2 26.6 2 26V11C2 10.4 2.4 10 3 10H24C24.6 10 25 10.4 25 11C25 11.6 24.6 12 24 12H4V25H24ZM32 10H36C36.6 10 37 10.4 37 11V26C37 26.6 36.6 27 36 27H32C31.4 27 31 26.6 31 26C31 25.4 31.4 25 32 25H35V12H32C31.4 12 31 11.6 31 11C31 10.4 31.4 10 32 10ZM20.3 21.3C20.5 21.5 20.8 21.6 21.2 21.6C21.6 21.6 21.9 21.5 22.2 21.2C22.5 21 22.6 20.7 22.6 20.3C22.6 19.4 22.2 19 21.2 19H21C20.6 19 20.3 18.7 20.3 18.3C20.3 17.9 20.6 17.6 21 17.6H21.2C21.7 17.6 22 17.5 22.2 17.3C22.4 17.1 22.5 16.8 22.5 16.4C22.5 16.1 22.4 15.8 22.2 15.6C22 15.4 21.7 15.3 21.4 15.3H21.3C21 15.3 20.6 15.4 20.4 15.6C20.35 15.65 20.3 15.725 20.25 15.8C20.2 15.875 20.15 15.95 20.1 16C20 16.2 19.6 16.4 19.3 16.4C18.7 16.4 18.3 15.7 18.6 15.2C18.7 15 18.9 14.8 19.1 14.6L19.1 14.6C19.6 14.1 20.3 13.9 21.2 13.9H21.3C22.2 14 22.9 14.2 23.4 14.6C23.9 15 24.2 15.6 24.2 16.4C24.2 16.8 24 17.2 23.8 17.5C23.5 17.9 23.2 18.1 22.8 18.3C23.3 18.5 23.7 18.7 23.9 19.1C24.2 19.5 24.3 19.9 24.3 20.4C24.3 21.2 24 21.8 23.4 22.3C22.8 22.8 22 23 21.1 23C20.3 23 19.6 22.8 19 22.3L19 22.3C18.8 22.1 18.6 21.9 18.5 21.7C18.2 21.2 18.6 20.5 19.2 20.5C19.5 20.5 19.9 20.6 20 20.9C20.1 21.1 20.2 21.2 20.3 21.3ZM16.6 23C17 23 17.3 22.7 17.3 22.3C17.3 21.9 17 21.6 16.6 21.6H13.5L15.5 19.5C16.1 18.9 16.4 18.4 16.7 17.9C16.9 17.4 17 17 17 16.6C17 15.8 16.7 15.2 16.2 14.7C15.7 14.2 15 14 14.1 14C13.5 14 13 14.1 12.5 14.4C12 14.7 11.7 15 11.4 15.5C11.4 15.55 11.375 15.575 11.35 15.6C11.325 15.625 11.3 15.65 11.3 15.7C11.2 15.8 11.2 16 11.2 16.1C11.2 16.6 11.6 17 12.1 17C12.5 17 12.8 16.8 12.9 16.4V16.3C12.9382 16.2236 12.9618 16.1618 12.982 16.109C13.0146 16.0236 13.0382 15.9618 13.1 15.9C13.3 15.6 13.6 15.5 14 15.5C14.4 15.5 14.7 15.6 14.9 15.8C15.1 16 15.2 16.3 15.2 16.7C15.2 17 15.1 17.3 14.9 17.6C14.7 17.9 14.4 18.3 14 18.7L11.1 21.7C11 21.8 10.9 22 10.9 22.2C10.9 22.6 11.2 22.9 11.6 22.9H16.6V23ZM9.8 22.1C9.8 22.6 9.4 23 8.9 23C8.4 23 8 22.6 8 22.1V16.4L7.7 16.7L7.3 16.9C6.9 17.2 6.4 17 6.1 16.6C5.8 16.2 6 15.6 6.4 15.4L7.9 14.5L8.5 14.2C8.9 13.9 9.5 14.1 9.7 14.5C9.8 14.6 9.8 14.7 9.8 14.8V22.1Z" fill="#6750a4"/>
</svg>
