<svg width="40" height="40" viewBox="0 0 40 40" fill="none" xmlns="http://www.w3.org/2000/svg">
<path fill-rule="evenodd" clip-rule="evenodd" d="M36 7H4V17H36V7ZM4 5C2.89543 5 2 5.89543 2 7V17C2 18.1046 2.89543 19 4 19H36C37.1046 19 38 18.1046 38 17V7C38 5.89543 37.1046 5 36 5H4Z" fill="#6750a4"/>
<path d="M17 10C17 9.44772 17.4477 9 18 9H24C24.5523 9 25 9.44772 25 10V10C25 10.5523 24.5523 11 24 11H18C17.4477 11 17 10.5523 17 10V10Z" fill="#6750a4"/>
<path fill-rule="evenodd" clip-rule="evenodd" d="M7.37442 12.7094C8.04005 11.9714 9.05091 11.3178 10.4785 11.3179C11.906 11.3179 12.9169 11.9714 13.5825 12.7095C14.2312 13.4287 14.5653 14.2376 14.7069 14.6476C14.9575 15.3731 14.3821 16.0179 13.7228 16.0179H7.23415C6.57479 16.0179 5.9994 15.3731 6.24997 14.6476C6.39159 14.2376 6.72575 13.4286 7.37442 12.7094ZM8.28243 14.3179H12.6745C12.5743 14.1598 12.4567 13.9995 12.3201 13.848C11.9034 13.386 11.325 13.0179 10.4784 13.0179C9.63192 13.0178 9.05355 13.3859 8.63684 13.848C8.50019 13.9995 8.38264 14.1598 8.28243 14.3179Z" fill="#6750a4"/>
<path d="M17 14C17 13.4477 17.4477 13 18 13H33C33.5523 13 34 13.4477 34 14V14C34 14.5523 33.5523 15 33 15H18C17.4477 15 17 14.5523 17 14V14Z" fill="#6750a4"/>
<path fill-rule="evenodd" clip-rule="evenodd" d="M10.4785 11.3C10.9203 11.3 11.2785 10.9418 11.2785 10.5C11.2785 10.0582 10.9203 9.7 10.4785 9.7C10.0366 9.7 9.67845 10.0582 9.67845 10.5C9.67845 10.9418 10.0366 11.3 10.4785 11.3ZM10.4785 13C11.8592 13 12.9785 11.8807 12.9785 10.5C12.9785 9.11929 11.8592 8 10.4785 8C9.09774 8 7.97845 9.11929 7.97845 10.5C7.97845 11.8807 9.09774 13 10.4785 13Z" fill="#6750a4"/>
<path fill-rule="evenodd" clip-rule="evenodd" d="M36 23H4V33H36V23ZM4 21C2.89543 21 2 21.8954 2 23V33C2 34.1046 2.89543 35 4 35H36C37.1046 35 38 34.1046 38 33V23C38 21.8954 37.1046 21 36 21H4Z" fill="#6750a4"/>
<path d="M17 26C17 25.4477 17.4477 25 18 25H24C24.5523 25 25 25.4477 25 26V26C25 26.5523 24.5523 27 24 27H18C17.4477 27 17 26.5523 17 26V26Z" fill="#6750a4"/>
<path d="M17 30C17 29.4477 17.4477 29 18 29H33C33.5523 29 34 29.4477 34 30V30C34 30.5523 33.5523 31 33 31H18C17.4477 31 17 30.5523 17 30V30Z" fill="#6750a4"/>
<path fill-rule="evenodd" clip-rule="evenodd" d="M7.34697 25.8348V30.1652H13.6101V25.8348H7.34697ZM6.64697 24.1348C6.09469 24.1348 5.64697 24.5825 5.64697 25.1348V30.8652C5.64697 31.4175 6.09469 31.8652 6.64697 31.8652H14.3101C14.8623 31.8652 15.3101 31.4175 15.3101 30.8652V25.1348C15.3101 24.5825 14.8623 24.1348 14.3101 24.1348H6.64697Z" fill="#6750a4"/>
<path fill-rule="evenodd" clip-rule="evenodd" d="M9.86008 28.958L6.49023 26.0695L7.46642 24.9307L10.4783 27.5123L13.4902 24.9307L14.4664 26.0695L11.0966 28.958C10.7408 29.2629 10.2158 29.2629 9.86008 28.958Z" fill="#6750a4"/>
</svg>
