<svg width="22" height="23" viewBox="0 0 22 23" fill="none" xmlns="http://www.w3.org/2000/svg">
<path fill-rule="evenodd" clip-rule="evenodd" d="M20.8558 0.105469L20.9307 0.122249C20.9832 0.134009 21.0347 0.149678 21.0849 0.169098C21.1249 0.179588 21.1643 0.192368 21.2029 0.207368L21.2114 0.210689L21.2197 0.214519C21.4039 0.299409 21.5611 0.433868 21.6761 0.602008C21.7046 0.642318 21.7305 0.684448 21.7537 0.728098L21.7566 0.733509C21.8506 0.919749 21.8936 1.12857 21.8821 1.33736L21.8815 1.34834C21.8781 1.38533 21.8728 1.42212 21.8659 1.45862C21.8617 1.5076 21.8544 1.55628 21.8441 1.60435L21.8411 1.61857L15.3189 22.205C15.2496 22.4233 15.1185 22.6172 14.9405 22.7595C14.7624 22.902 14.5457 22.986 14.3184 22.9983C14.0912 23.0106 13.8668 22.9504 13.6749 22.8274C13.4831 22.7046 13.3334 22.5254 13.2429 22.3152L9.3422 13.2817L0.762428 9.178C0.556988 9.08 0.386948 8.9204 0.272418 8.7224C0.157978 8.5246 0.103518 8.2965 0.114718 8.0676C0.125908 7.8387 0.202378 7.6172 0.336038 7.4321C0.469808 7.2468 0.655298 7.1058 0.869958 7.0303L20.4428 0.161458L20.4696 0.157218C20.5522 0.144078 20.6359 0.140639 20.7191 0.146919C20.7399 0.139539 20.7609 0.132798 20.7821 0.126698L20.8558 0.105469ZM16.6885 3.91974L4.23686 8.2919L9.9401 11.0222L16.6885 3.91974ZM18.2384 5.59075L11.5163 12.6655L14.1003 18.6445L18.2384 5.59075Z" fill="#888888"/>
</svg>
