<svg width="40" height="40" viewBox="0 0 40 40" fill="none" xmlns="http://www.w3.org/2000/svg">
<path fill-rule="evenodd" clip-rule="evenodd" d="M2 4.4C2 3.07452 3.07452 2 4.4 2H5.70443L2 5.70443V4.4ZM2 9.52281V13.3412L13.3412 2H9.52281L2 9.52281ZM17.1596 2L2.22914 16.9304C2.56397 17.5664 3.23135 18 4 18H4.97793L19.8163 3.16161C19.4992 2.47582 18.8052 2 18 2H17.1596ZM20 6.79631L8.79631 18L12.6147 18L20 10.6147V6.79631ZM20 14.4331L16.4331 18H18C19.1046 18 20 17.1046 20 16V14.4331ZM8.61469 22H4.79631L2 24.7963V28.6147L8.61469 22ZM2 32.4331L12.4331 22H16.2514L2.07073 36.1807C2.02452 35.9948 2 35.8002 2 35.6V32.4331ZM4.4 38H7.88819L20 25.8882V24C20 23.4655 19.7903 22.9799 19.4487 22.6211L4.08969 37.9801C4.19128 37.9932 4.29485 38 4.4 38ZM24 18.0698L24 21.8882L38 7.88819V4.4C38 4.29485 37.9932 4.19128 37.9801 4.08969L24 18.0698ZM35.6 2H32.4331L24 10.4331V14.2514L36.1807 2.07073C35.9948 2.02452 35.8002 2 35.6 2ZM28.6147 2L24 6.61469V4C24 2.89543 24.8954 2 26 2H28.6147ZM38 11.7066L24 25.7066V29.5249L38 15.5249V11.7066ZM38 19.3433L24 33.3433V36C24 36.3365 24.0831 36.6536 24.2299 36.9318L38 23.1617V19.3433ZM38 26.9801L26.9801 38H30.7985L38 30.7985V26.9801ZM38 34.6168L34.6168 38H35.6C36.9255 38 38 36.9255 38 35.6V34.6168ZM20 33.5249V29.7066L11.7066 38H15.5249L20 33.5249Z" fill="#6750a4"/>
</svg>
