<svg xmlns="http://www.w3.org/2000/svg" width="24" height="24" viewBox="0 0 24 24">
  <path
      d="M19,3h2v2h-2z"
      fill="#9a9797"/>
  <path
      d="M19,7h2v2h-2z"
      fill="#9a9797"/>
  <path
      d="M19,11h2v2h-2z"
      fill="#9a9797"/>
  <path
      d="M19,15h2v2h-2z"
      fill="#9a9797"/>
  <path
      d="M19,19h2v2h-2z"
      fill="#9a9797"/>
  <path
      d="M15,19h2v2h-2z"
      fill="#9a9797"/>
  <path
      d="M11,19h2v2h-2z"
      fill="#9a9797"/>
  <path
      d="M7,19h2v2h-2z"
      fill="#9a9797"/>
  <path
      d="M3,19h2v2h-2z"
      fill="#9a9797"/>
  <path
      d="M15,3h2v2h-2z"
      fill="#9a9797"/>
  <path
      d="M3,15h2v2h-2z"
      fill="#9a9797"/>
  <path
      d="M8,3h5v2H8C6.3,5 5,6.3 5,8v5H3V8C3,5.2 5.2,3 8,3z"
      fill="#9a9797"/>
</svg>
