<svg xmlns="http://www.w3.org/2000/svg" width="24" height="24" viewBox="0 0 24 24">
  <path
      d="M3,3h2v2h-2z"
      fill="#9a9797"/>
  <path
      d="M3,7h2v2h-2z"
      fill="#9a9797"/>
  <path
      d="M3,11h2v2h-2z"
      fill="#9a9797"/>
  <path
      d="M3,15h2v2h-2z"
      fill="#9a9797"/>
  <path
      d="M3,19h2v2h-2z"
      fill="#9a9797"/>
  <path
      d="M7,19h2v2h-2z"
      fill="#9a9797"/>
  <path
      d="M11,19h2v2h-2z"
      fill="#9a9797"/>
  <path
      d="M15,19h2v2h-2z"
      fill="#9a9797"/>
  <path
      d="M19,19h2v2h-2z"
      fill="#9a9797"/>
  <path
      d="M7,3h2v2h-2z"
      fill="#9a9797"/>
  <path
      d="M19,15h2v2h-2z"
      fill="#9a9797"/>
  <path
      d="M16,3h-5v2h5c1.7,0 3,1.3 3,3v5h2V8C21,5.2 18.8,3 16,3z"
      fill="#9a9797"/>
</svg>
