<svg width="48" height="48" viewBox="0 0 48 48" fill="none" xmlns="http://www.w3.org/2000/svg">
<g clip-path="url(#clip0_1000_11140)">
<path d="M40.3703 7.13234V17.5934H7.62305V7.13234C7.62305 5.28117 9.12007 3.79077 10.9646 3.79077H37.0287C38.8732 3.79077 40.3703 5.28117 40.3703 7.13234Z" fill="#FFCA67"/>
<path d="M22.7509 17.0914C22.8651 17.5295 22.5159 17.9422 22.0715 17.8914C19.0681 17.5104 14.9537 17.5104 11.9503 17.8914C11.5058 17.9422 11.1566 17.5295 11.2709 17.0914C11.7344 15.25 11.7344 12.8562 11.2709 11.0149C11.1567 10.5767 11.5058 10.164 11.9503 10.2211C14.9537 10.5957 19.0681 10.5957 22.0715 10.2211C22.516 10.164 22.8652 10.5767 22.7509 11.0149C22.2874 12.8562 22.2874 15.25 22.7509 17.0914Z" fill="#EFEFED"/>
<path d="M22.751 17.0914C22.8653 17.5295 22.516 17.9422 22.0716 17.8914C19.0683 17.5104 14.9538 17.5104 11.9504 17.8914C11.5694 17.9359 11.2583 17.6374 11.252 17.2818C14.249 16.9071 18.3318 16.9071 21.316 17.2882C21.7605 17.339 22.1097 16.9263 21.9954 16.4881C21.5318 14.6467 21.5318 12.253 21.9954 10.4116C22.0144 10.3481 22.0208 10.2909 22.0144 10.2275C22.0335 10.2275 22.0525 10.2211 22.0715 10.2211C22.516 10.164 22.8653 10.5767 22.7509 11.0149C22.2875 12.8562 22.2875 15.25 22.751 17.0914Z" fill="#C7C7C7"/>
<path d="M36.7226 17.0914C36.8368 17.5295 36.4876 17.9422 36.0432 17.8914C33.0398 17.5104 28.9254 17.5104 25.922 17.8914C25.4775 17.9422 25.1283 17.5295 25.2426 17.0914C25.7061 15.25 25.7061 12.8562 25.2426 11.0149C25.1284 10.5767 25.4775 10.164 25.922 10.2211C28.9254 10.5957 33.0398 10.5957 36.0432 10.2211C36.4877 10.164 36.8369 10.5767 36.7226 11.0149C36.2591 12.8562 36.2591 15.25 36.7226 17.0914Z" fill="#EFEFED"/>
<path d="M36.7227 17.0914C36.8369 17.5295 36.4877 17.9422 36.0433 17.8914C33.04 17.5104 28.9255 17.5104 25.9221 17.8914C25.5411 17.9359 25.23 17.6374 25.2236 17.2818C28.2207 16.9071 32.3034 16.9071 35.2877 17.2882C35.7322 17.339 36.0814 16.9263 35.9671 16.4881C35.5035 14.6467 35.5035 12.253 35.9671 10.4116C35.9861 10.3481 35.9924 10.2909 35.9861 10.2275C36.0052 10.2275 36.0242 10.2211 36.0432 10.2211C36.4877 10.164 36.8369 10.5767 36.7226 11.0149C36.2592 12.8562 36.2592 15.25 36.7227 17.0914Z" fill="#C7C7C7"/>
<path d="M7.62311 17.5933L3.61328 30.391H44.3802L40.3703 17.5933H7.62311Z" fill="#E9715F"/>
<path d="M47.04 31.7281V39.5296C47.04 40.2714 46.4384 40.8663 45.7034 40.8663H2.29657C1.55487 40.8664 0.959961 40.2715 0.959961 39.5297V31.7282C0.959961 30.9864 1.55487 30.3916 2.29657 30.3916H45.7034C46.4384 30.3915 47.04 30.9863 47.04 31.7281Z" fill="#FFCA67"/>
<path d="M2.625 40.8679V44.2095H4.61316L5.59918 40.8679H2.625Z" fill="#696967"/>
<path d="M45.3687 40.8679V44.2095H43.3805L42.3945 40.8679H45.3687Z" fill="#696967"/>
<path d="M42.8498 25.506C31.7477 24.771 36.0804 26.9703 29.0025 22.4385C24.7833 19.7195 23.118 21.7994 18.8108 21.984C14.4023 22.1732 9.85684 18.9289 6.9082 19.8855L7.62321 17.5933H40.3703L42.8498 25.506Z" fill="#D75548"/>
</g>
<defs>
<clipPath id="clip0_1000_11140">
<rect width="48" height="48" fill="white"/>
</clipPath>
</defs>
</svg>
