<svg width="48" height="48" viewBox="0 0 48 48" fill="none" xmlns="http://www.w3.org/2000/svg">
<g clip-path="url(#clip0_1000_11232)">
<mask id="mask0_1000_11232" style="mask-type:luminance" maskUnits="userSpaceOnUse" x="0" y="0" width="48" height="48">
<path d="M0 3.8147e-06H48V48H0V3.8147e-06Z" fill="white"/>
</mask>
<g mask="url(#mask0_1000_11232)">
<path d="M43.6808 41.7188H4.31925C1.93762 41.7188 0 39.7811 0 37.3996V10.6004C0 8.21888 1.93762 6.28125 4.31925 6.28125H18.5566L23.7587 8.85835L26.4076 6.28125H43.6808C46.0624 6.28125 48 8.21888 48 10.6004V28.4222L45.0459 29.3317L48 36.3212V37.3996C48 39.7811 46.0624 41.7188 43.6808 41.7188Z" fill="#FF4A4A"/>
<path d="M48 10.6004C48 8.21888 46.0624 6.28125 43.6808 6.28125H26.4076L24 8.6235V41.7188H43.6808C46.0624 41.7188 48 39.7811 48 37.3995V36.3211L45.0458 29.3318L48 28.4222V10.6004Z" fill="#D01273"/>
<path fill-rule="evenodd" clip-rule="evenodd" d="M18.4414 6.28111L48.0005 36.321V28.2696L26.2827 6.28111H18.4414Z" fill="#FFD845"/>
<path d="M12.4453 36.094C12.2067 36.094 11.9649 36.0333 11.7434 35.9054C11.0708 35.5172 10.8404 34.6571 11.2287 33.9844L19.5255 19.6139C19.9139 18.9413 20.7738 18.7107 21.4466 19.0992C22.1191 19.4874 22.3496 20.3475 21.9613 21.0201L13.6644 35.3907C13.4039 35.8418 12.9313 36.094 12.4453 36.094Z" fill="#FFF4F4"/>
<path d="M9.84617 22.4862C9.3598 22.4862 8.88617 22.7384 8.62592 23.1891C8.23836 23.8606 8.46917 24.7225 9.1408 25.1101C9.81224 25.4979 10.674 25.267 11.0617 24.5953C11.2495 24.27 11.2994 23.8911 11.2022 23.5283C11.105 23.1655 10.8723 22.8623 10.547 22.6744C10.3261 22.5468 10.0846 22.4862 9.84617 22.4862ZM9.83661 28.1101C9.12139 28.1102 8.39717 27.9284 7.73446 27.5458C5.71986 26.3827 5.02733 23.7973 6.1903 21.7828C7.35346 19.7682 9.9388 19.0756 11.9532 20.2387C12.9291 20.8021 13.6272 21.7119 13.9188 22.8004C14.2105 23.8888 14.0608 25.0257 13.4974 26.0016C12.7169 27.3534 11.2957 28.11 9.83661 28.1101Z" fill="#FFF4F4"/>
<path fill-rule="evenodd" clip-rule="evenodd" d="M26.2822 6.28111H24V11.9306L48 36.321V28.2696L26.2822 6.28111Z" fill="#FFB454"/>
<path d="M23.9104 29.7989C23.424 29.7989 22.9504 30.0511 22.6902 30.5018C22.5024 30.8271 22.4525 31.206 22.5497 31.5688C22.6469 31.9317 22.8796 32.2348 23.205 32.4227C23.5303 32.6106 23.9094 32.6603 24.272 32.5633C24.6349 32.466 24.9381 32.2334 25.126 31.908C25.3137 31.5827 25.3636 31.2038 25.2664 30.841C25.1692 30.4782 24.9365 30.175 24.6112 29.9871C24.3903 29.8595 24.1488 29.7989 23.9104 29.7989ZM23.9012 35.4255C23.1702 35.4255 22.4487 35.2338 21.7987 34.8584C20.8228 34.295 20.1247 33.3853 19.8331 32.2968C19.5414 31.2083 19.6911 30.0714 20.2545 29.0955C21.4177 27.081 24.003 26.3882 26.0174 27.5514C26.9934 28.1148 27.6914 29.0246 27.983 30.1131C28.2747 31.2015 28.125 32.3384 27.5616 33.3143C26.9982 34.2901 26.0884 34.9883 25 35.2799C24.6366 35.3773 24.2677 35.4255 23.9012 35.4255Z" fill="#FFF4F4"/>
<path d="M33.8438 10.5469C31.9052 10.5469 30.3281 12.1239 30.3281 14.0625C30.3281 15.2027 31.1991 16.3544 31.7182 16.9395C32.0267 17.2871 33.0916 18.4214 33.8438 18.4214C34.5959 18.4214 35.6608 17.2871 35.9693 16.9395C36.4884 16.3544 37.3594 15.2027 37.3594 14.0625C37.3594 12.1239 35.7823 10.5469 33.8438 10.5469Z" fill="#FFEF4A"/>
<path d="M35.9693 19.958C35.6608 19.6103 34.596 18.4761 33.8438 18.4761C33.0916 18.4761 32.0267 19.6103 31.7182 19.958C31.1991 20.5431 30.3281 21.6948 30.3281 22.835C30.3281 24.7735 31.9052 26.3506 33.8438 26.3506C35.7823 26.3506 37.3594 24.7735 37.3594 22.835C37.3594 21.6948 36.4884 20.5431 35.9693 19.958Z" fill="#FFEF4A"/>
<path d="M38.1861 15.1401C37.0459 15.1401 35.8941 16.0111 35.3091 16.5302C34.9614 16.8387 33.8271 17.9036 33.8271 18.6558C33.8271 19.4079 34.9614 20.4728 35.3091 20.7814C35.8941 21.3004 37.0459 22.1714 38.1861 22.1714C40.1246 22.1714 41.7017 20.5943 41.7017 18.6558C41.7017 16.7172 40.1246 15.1401 38.1861 15.1401Z" fill="#FFEF4A"/>
<path d="M32.378 16.5302C31.7929 16.0111 30.6412 15.1401 29.501 15.1401C27.5624 15.1401 25.9854 16.7172 25.9854 18.6558C25.9854 20.5943 27.5624 22.1714 29.501 22.1714C30.6412 22.1714 31.7929 21.3004 32.378 20.7814C32.7256 20.4728 33.8599 19.4079 33.8599 18.6558C33.8599 17.9035 32.7256 16.8387 32.378 16.5302Z" fill="#FFEF4A"/>
<path d="M27.9826 30.113C27.691 29.0245 26.9929 28.1148 26.0169 27.5513C25.3807 27.1839 24.6875 27.0021 24 26.9883V29.8018C24.2087 29.8151 24.4177 29.8755 24.6107 29.987C24.9361 30.1748 25.1687 30.4781 25.2659 30.8409C25.3632 31.2037 25.3132 31.5827 25.1255 31.9079C24.9377 32.2332 24.6344 32.466 24.2716 32.5632C24.1817 32.5873 24.0907 32.6022 24 32.6083V35.4221C24.3337 35.4142 24.6688 35.3685 24.9996 35.2798C26.088 34.9882 26.9977 34.2901 27.5612 33.3142C28.1246 32.3383 28.2742 31.2014 27.9826 30.113Z" fill="#F6EFEA"/>
</g>
</g>
<defs>
<clipPath id="clip0_1000_11232">
<rect width="48" height="48" fill="white"/>
</clipPath>
</defs>
</svg>
