<svg width="48" height="48" viewBox="0 0 48 48" fill="none" xmlns="http://www.w3.org/2000/svg">
<path d="M35.5003 25.9262L34.7097 25.4615L31.586 23.7326L32.4653 18.781L31.933 11.2377L31.3082 10.7705L24.0003 13.3915L23.3486 14.4308V40.809L24.0003 41.9979L35.5003 37.8733L36.1212 37.1068V25.2254L35.5003 25.9262Z" fill="#75CEF9"/>
<path d="M18.9861 11.5933H18.2504L11.7793 18.4513V37.2612L12.5004 37.8735L24.0003 41.998V13.3917L18.9861 11.5933Z" fill="#90D8F9"/>
<path d="M12.2109 17.6449L6.75 11.5933H6.01427L1.63555 13.1637C1.25435 13.3004 1 13.6618 1 14.0668V40.6345C1 41.2986 1.65838 41.7619 2.28342 41.5376L12.5 37.8735V18.4513L12.2109 17.6449Z" fill="#75CEF9"/>
<path d="M6.50625 39.1318V11.5933H6.01427L1.63555 13.1637C1.25435 13.3004 1 13.6618 1 14.0668V40.6345C1 41.2986 1.65838 41.7619 2.28342 41.5376L6.86239 39.8954C6.64776 39.7149 6.50625 39.4453 6.50625 39.1318Z" fill="#6BBEF6"/>
<path d="M12.5004 0.00195312C5.95924 0.00195312 2.46863 7.71108 6.78383 12.6268L11.4986 17.9976C12.0295 18.6024 12.9713 18.6024 13.5022 17.9976L18.2169 12.6268C22.5322 7.71108 19.0415 0.00195312 12.5004 0.00195312ZM12.5004 11.8484C10.167 11.8484 8.27541 9.95682 8.27541 7.6234C8.27541 5.29007 10.167 3.3985 12.5004 3.3985C14.8338 3.3985 16.7254 5.29007 16.7254 7.6234C16.7253 9.95682 14.8337 11.8484 12.5004 11.8484Z" fill="#F87C68"/>
<path d="M10.6624 12.6268C10.0341 11.9111 9.57244 11.1359 9.26041 10.3342C8.64588 9.60041 8.27545 8.65534 8.27545 7.6234C8.27545 6.58561 8.65028 5.63578 9.2711 4.90032C10.1168 2.69259 11.96 0.874426 14.4396 0.242195C13.8298 0.0866758 13.1819 0.00195312 12.5004 0.00195312C5.95928 0.00195312 2.46858 7.71108 6.78387 12.6268L11.4986 17.9976C12.0296 18.6024 12.9713 18.6024 13.5022 17.9976L14.4396 16.9297L10.6624 12.6268Z" fill="#EC625E"/>
<path d="M35.4997 9.26709L31.3075 10.7706C31.4804 11.8946 31.4301 13.3083 30.2359 13.7387C28.2459 14.456 28.0603 16.6541 29.7497 16.8856C31.4392 17.1169 32.3184 17.8342 31.7631 19.13C31.2077 20.4258 29.3103 24.0366 32.5961 25.6326C33.504 26.0735 34.5001 26.092 35.4997 25.9264L35.9011 25.2599V9.82304L35.4997 9.26709Z" fill="#95D6A4"/>
<path d="M42.322 33.2813C39.7614 30.9983 43.9572 29.3631 43.0008 25.9263C42.0444 22.4895 36.2135 25.121 36.2135 25.121L35.5 25.9263V37.8735L43.5725 40.7687C47.1676 38.3836 44.8827 35.5643 42.322 33.2813Z" fill="#90D8F9"/>
<path d="M45.7166 41.5377C46.3416 41.7619 47 41.2986 47 40.6346V14.0668C47 13.6618 46.7457 13.3004 46.3644 13.1637L35.5 9.26709V25.9264C38.118 25.4925 40.7595 23.7937 41.898 25.0998C43.4715 26.9046 42.4534 28.3392 41.898 28.802C41.3427 29.2648 39.2602 32.6893 42.0831 34.309C44.6325 35.7717 45.7959 38.2112 43.5724 40.7687L45.7166 41.5377Z" fill="#B3E59F"/>
<path d="M10.0834 25.6045C9.45608 25.6045 8.86878 25.3743 8.41668 24.961C7.96468 25.3743 7.37737 25.6045 6.75008 25.6045C6.12279 25.6045 5.53539 25.3743 5.08339 24.961C4.6313 25.3743 4.04399 25.6045 3.41679 25.6045C3.03343 25.6045 2.72266 25.2938 2.72266 24.9104C2.72266 24.527 3.03343 24.2163 3.41679 24.2163C3.76035 24.2163 4.07687 24.0588 4.28513 23.7843C4.47641 23.5322 4.76732 23.3875 5.0833 23.3875C5.39928 23.3875 5.69028 23.5322 5.88174 23.7844C6.08991 24.0588 6.40643 24.2163 6.74999 24.2163C7.09355 24.2163 7.41007 24.0588 7.61833 23.7843C7.8097 23.5321 8.1007 23.3875 8.41668 23.3875C8.73266 23.3875 9.02358 23.5322 9.21503 23.7844C9.42329 24.0588 9.73972 24.2163 10.0833 24.2163C10.4666 24.2163 10.7774 24.527 10.7774 24.9104C10.7774 25.2938 10.4667 25.6045 10.0834 25.6045Z" fill="#B1E4F9"/>
<path d="M21.5835 30.1811C20.9561 30.1811 20.3688 29.9509 19.9168 29.5376C19.4648 29.9509 18.8775 30.1811 18.2501 30.1811C17.6228 30.1811 17.0355 29.9509 16.5835 29.5376C16.1315 29.9508 15.5442 30.1811 14.9168 30.1811C14.5334 30.1811 14.2227 29.8703 14.2227 29.487C14.2227 29.1035 14.5334 28.7928 14.9168 28.7928C15.2604 28.7928 15.577 28.6355 15.7851 28.361C15.9765 28.1088 16.2675 27.9641 16.5835 27.9641C16.8995 27.9642 17.1905 28.1089 17.3818 28.3611C17.59 28.6354 17.9064 28.7928 18.2501 28.7928C18.5936 28.7928 18.9103 28.6355 19.1184 28.361C19.3098 28.1088 19.6008 27.9641 19.9168 27.9641C20.2328 27.9641 20.5237 28.1088 20.7151 28.361C20.9233 28.6354 21.2398 28.7928 21.5834 28.7928C21.9667 28.7928 22.2775 29.1036 22.2775 29.487C22.2776 29.8703 21.9668 30.1811 21.5835 30.1811Z" fill="#B1E4F9"/>
<path d="M33.0834 34.7576C32.4561 34.7576 31.8688 34.5273 31.4168 34.1141C30.9648 34.5273 30.3775 34.7576 29.7501 34.7576C29.1228 34.7576 28.5354 34.5273 28.0834 34.1141C27.6313 34.5273 27.044 34.7576 26.4168 34.7576C26.0334 34.7576 25.7227 34.4468 25.7227 34.0635C25.7227 33.68 26.0334 33.3693 26.4168 33.3693C26.7604 33.3693 27.0769 33.2118 27.2851 32.9374C27.4764 32.6853 27.7673 32.5406 28.0833 32.5405C28.3993 32.5405 28.6903 32.6853 28.8817 32.9375C29.0899 33.2118 29.4064 33.3693 29.75 33.3693C30.0936 33.3693 30.4101 33.2118 30.6183 32.9375C30.8097 32.6852 31.1007 32.5405 31.4167 32.5405C31.7327 32.5405 32.0236 32.6853 32.215 32.9375C32.4233 33.2118 32.7398 33.3693 33.0833 33.3693C33.4666 33.3693 33.7774 33.6801 33.7774 34.0635C33.7776 34.4468 33.4667 34.7576 33.0834 34.7576Z" fill="#B1E4F9"/>
<path d="M10.0834 21.9936C9.45609 21.9936 8.86869 21.7633 8.41668 21.3501C7.96468 21.7634 7.37737 21.9936 6.75008 21.9936C6.1227 21.9936 5.53539 21.7633 5.08339 21.3501C4.63148 21.7633 4.04408 21.9936 3.41679 21.9936C3.03343 21.9936 2.72266 21.6828 2.72266 21.2995C2.72266 20.916 3.03343 20.6053 3.41679 20.6053C3.76035 20.6053 4.07687 20.448 4.28504 20.1735C4.4765 19.9213 4.76741 19.7766 5.0833 19.7766C5.39928 19.7766 5.6902 19.9213 5.88165 20.1733C6.09 20.4479 6.40652 20.6053 6.75008 20.6053C7.09364 20.6053 7.41016 20.448 7.61842 20.1735C7.80979 19.9213 8.10079 19.7766 8.41677 19.7766C8.73275 19.7766 9.02367 19.9213 9.21512 20.1735C9.42329 20.4479 9.73981 20.6053 10.0834 20.6053C10.4667 20.6053 10.7775 20.9161 10.7775 21.2995C10.7775 21.6828 10.4667 21.9936 10.0834 21.9936Z" fill="#B1E4F9"/>
<path d="M21.5835 26.5701C20.9562 26.5701 20.3688 26.3398 19.9168 25.9265C19.4648 26.3398 18.8775 26.5701 18.2501 26.5701C17.6228 26.5701 17.0355 26.3398 16.5835 25.9266C16.1315 26.3398 15.5442 26.5701 14.9168 26.5701C14.5334 26.5701 14.2227 26.2593 14.2227 25.876C14.2227 25.4926 14.5334 25.1818 14.9168 25.1818C15.2604 25.1818 15.5769 25.0243 15.7851 24.75C15.9765 24.4977 16.2675 24.353 16.5835 24.353C16.8995 24.3531 17.1905 24.4979 17.3818 24.75C17.59 25.0243 17.9065 25.1818 18.2501 25.1818C18.5936 25.1818 18.9102 25.0243 19.1184 24.75C19.3098 24.4977 19.6008 24.353 19.9168 24.353C20.2328 24.353 20.5237 24.4978 20.7151 24.75C20.9233 25.0243 21.2398 25.1818 21.5834 25.1818C21.9667 25.1818 22.2775 25.4926 22.2775 25.876C22.2775 26.2593 21.9668 26.5701 21.5835 26.5701Z" fill="#B1E4F9"/>
<path d="M33.0834 31.1468C32.4561 31.1468 31.8688 30.9165 31.4168 30.5033C30.9648 30.9165 30.3775 31.1468 29.7501 31.1468C29.1228 31.1468 28.5354 30.9165 28.0834 30.5032C27.6313 30.9165 27.044 31.1468 26.4168 31.1468C26.0334 31.1468 25.7227 30.836 25.7227 30.4526C25.7227 30.0692 26.0334 29.7585 26.4168 29.7585C26.7604 29.7585 27.0769 29.601 27.2851 29.3265C27.4764 29.0744 27.7673 28.9298 28.0833 28.9297C28.3993 28.9297 28.6903 29.0744 28.8817 29.3266C29.0899 29.601 29.4064 29.7585 29.75 29.7585C30.0936 29.7585 30.4101 29.601 30.6183 29.3266C30.8097 29.0743 31.1007 28.9297 31.4167 28.9297C31.7327 28.9297 32.0236 29.0744 32.215 29.3266C32.4233 29.601 32.7398 29.7585 33.0833 29.7585C33.4666 29.7585 33.7774 30.0693 33.7774 30.4526C33.7776 30.8361 33.4667 31.1468 33.0834 31.1468Z" fill="#B1E4F9"/>
</svg>
