<svg version="1.1" xmlns="http://www.w3.org/2000/svg" xmlns:xlink="http://www.w3.org/1999/xlink" x="0px" y="0px"
	 viewBox="0 0 32 32" style="enable-background:new 0 0 32 32;" xml:space="preserve">
<style type="text/css">
	.Blue{fill:#1177D7;}
	.Black{fill:#727272;}
</style>
<g id="Layer_1">
	<path class="Blue" d="M10.1,11.5H9.4v4.9h0.7c0.6,0,1.1-0.2,1.4-0.7s0.5-1.1,0.5-1.8s-0.2-1.3-0.5-1.7
		C11.2,11.8,10.7,11.5,10.1,11.5z"/>
	<path class="Blue" d="M17.4,11.5c-0.5,0-0.9,0.2-1.2,0.7c-0.3,0.5-0.4,1.1-0.4,1.8c0,0.8,0.1,1.4,0.4,1.8s0.7,0.7,1.2,0.7
		s0.9-0.2,1.2-0.6c0.3-0.4,0.4-1,0.4-1.8s-0.1-1.4-0.4-1.9C18.2,11.7,17.8,11.5,17.4,11.5z"/>
	<path class="Black" d="M26,18v10H8V18H6v11c0,0.5,0.5,1,1,1h20c0.5,0,1-0.5,1-1V18H26z"/>
	<path class="Black" d="M8,10V4h18v6h2V3c0-0.5-0.5-1-1-1H7C6.5,2,6,2.5,6,3v7H8z"/>
	<path class="Blue" d="M29,8h-1h-2H8H6H5C4.4,8,4,8.4,4,9v10c0,0.6,0.4,1,1,1h1h2h18h2h1c0.6,0,1-0.4,1-1V9C30,8.4,29.6,8,29,8z
		 M12.7,16.8c-0.6,0.7-1.4,1.1-2.4,1.1H8v-7.7h2.2c2.2,0,3.4,1.3,3.4,3.8C13.6,15.1,13.3,16,12.7,16.8z M19.5,16.9
		C19,17.6,18.2,18,17.3,18c-0.9,0-1.6-0.4-2.2-1.1s-0.9-1.7-0.9-2.8c0-1.2,0.3-2.2,0.9-3c0.6-0.8,1.3-1.1,2.3-1.1
		c0.9,0,1.6,0.4,2.2,1.1c0.6,0.7,0.8,1.7,0.8,2.8C20.4,15.1,20.1,16.1,19.5,16.9z M26,12c-0.4-0.3-0.9-0.5-1.4-0.5
		c-0.6,0-1.1,0.2-1.4,0.7c-0.4,0.5-0.5,1.1-0.5,1.8s0.2,1.3,0.5,1.8c0.3,0.4,0.8,0.7,1.4,0.7s1.1-0.2,1.5-0.5v1.6
		C25.6,17.9,25,18,24.3,18c-1,0-1.7-0.3-2.3-1c-0.6-0.7-0.8-1.6-0.8-2.8s0.3-2.2,0.9-3s1.4-1.1,2.4-1.1c0.6,0,1.1,0.1,1.6,0.3V12H26
		z"/>
</g>
<g id="Layer_2">
</g>
</svg>
