<svg version="1.1" id="Layer_1" xmlns="http://www.w3.org/2000/svg" xmlns:xlink="http://www.w3.org/1999/xlink" x="0px" y="0px"
	 viewBox="0 0 32 32" style="enable-background:new 0 0 32 32;" xml:space="preserve">
<style type="text/css">
	.Red{fill:#D11C1C;}
	.Blue{fill:#1177D7;}
	.Black{fill:#727272;}
	.st0{opacity:0.2;}
</style>
<path class="Black" d="M8,4h18v6h2V3c0-0.5-0.5-1-1-1H7C6.5,2,6,2.5,6,3v7h2V4z"/>
<path class="Black" d="M26,26H8v-8H6v9c0,0.5,0.5,1,1,1h20c0.5,0,1-0.5,1-1v-9h-2V26z"/>
<path class="Blue" d="M14,11.5c-0.5,0-1,0.2-1.3,0.7c-0.3,0.5-0.5,1.1-0.5,1.8c0,0.8,0.2,1.4,0.5,1.8c0.3,0.4,0.7,0.7,1.2,0.7
	c0.5,0,0.9-0.2,1.3-0.6c0.3-0.4,0.5-1,0.5-1.8c0-0.8-0.1-1.4-0.4-1.9C15,11.7,14.6,11.5,14,11.5z"/>
<path class="Blue" d="M6.3,11.5H5.5v5.1h0.8c0.7,0,1.2-0.2,1.6-0.7c0.4-0.5,0.6-1.1,0.6-1.9c0-0.8-0.2-1.4-0.6-1.8
	C7.5,11.7,6.9,11.5,6.3,11.5z"/>
<path class="Blue" d="M31,8H3C2.4,8,2,8.4,2,9v10c0,0.6,0.4,1,1,1h28c0.6,0,1-0.4,1-1V9C32,8.4,31.6,8,31,8z M9,16.9
	C8.4,17.6,7.5,18,6.4,18H4v-8h2.4c2.4,0,3.6,1.3,3.6,3.9C10,15.1,9.7,16.1,9,16.9z M16.4,16.9C15.8,17.6,15,18,14,18
	c-1,0-1.8-0.4-2.4-1.1c-0.6-0.7-0.9-1.7-0.9-2.8c0-1.2,0.3-2.2,0.9-3c0.6-0.8,1.4-1.1,2.5-1.1c1,0,1.7,0.4,2.3,1.1
	c0.6,0.7,0.9,1.7,0.9,2.8C17.3,15.1,17,16.1,16.4,16.9z M23.3,12c-0.5-0.3-1-0.5-1.5-0.5c-0.6,0-1.1,0.2-1.5,0.7
	c-0.4,0.5-0.6,1.1-0.6,1.8c0,0.7,0.2,1.3,0.6,1.8c0.4,0.4,0.9,0.7,1.5,0.7c0.6,0,1.1-0.2,1.6-0.5v1.6c-0.5,0.3-1.1,0.4-1.9,0.4
	c-1,0-1.9-0.3-2.4-1c-0.6-0.7-0.9-1.6-0.9-2.8c0-1.2,0.3-2.2,1-3c0.7-0.8,1.5-1.1,2.6-1.1c0.7,0,1.2,0.1,1.7,0.3V12z M28.5,18
	l-1.2-2.6c0-0.1-0.1-0.3-0.1-0.5h0c0,0.1-0.1,0.3-0.2,0.6L25.8,18H24l2.2-4l-2-4H26l1,2.4c0.1,0.2,0.1,0.4,0.2,0.7h0
	c0-0.2,0.1-0.4,0.2-0.7l1.1-2.4h1.7l-2,4l2.1,4H28.5z"/>
<g class="st0">
	<path class="Red" d="M31,8H3C2.4,8,2,8.4,2,9v10c0,0.6,0.4,1,1,1h28c0.6,0,1-0.4,1-1V9C32,8.4,31.6,8,31,8z M9,16.9
		C8.4,17.6,7.5,18,6.4,18H4v-8h2.4c2.4,0,3.6,1.3,3.6,3.9C10,15.1,9.7,16.1,9,16.9z M16.4,16.9C15.8,17.6,15,18,14,18
		c-1,0-1.8-0.4-2.4-1.1c-0.6-0.7-0.9-1.7-0.9-2.8c0-1.2,0.3-2.2,0.9-3c0.6-0.8,1.4-1.1,2.5-1.1c1,0,1.7,0.4,2.3,1.1
		c0.6,0.7,0.9,1.7,0.9,2.8C17.3,15.1,17,16.1,16.4,16.9z M23.3,12c-0.5-0.3-1-0.5-1.5-0.5c-0.6,0-1.1,0.2-1.5,0.7
		c-0.4,0.5-0.6,1.1-0.6,1.8c0,0.7,0.2,1.3,0.6,1.8c0.4,0.4,0.9,0.7,1.5,0.7c0.6,0,1.1-0.2,1.6-0.5v1.6c-0.5,0.3-1.1,0.4-1.9,0.4
		c-1,0-1.9-0.3-2.4-1c-0.6-0.7-0.9-1.6-0.9-2.8c0-1.2,0.3-2.2,1-3c0.7-0.8,1.5-1.1,2.6-1.1c0.7,0,1.2,0.1,1.7,0.3V12z M28.5,18
		l-1.2-2.6c0-0.1-0.1-0.3-0.1-0.5h0c0,0.1-0.1,0.3-0.2,0.6L25.8,18H24l2.2-4l-2-4H26l1,2.4c0.1,0.2,0.1,0.4,0.2,0.7h0
		c0-0.2,0.1-0.4,0.2-0.7l1.1-2.4h1.7l-2,4l2.1,4H28.5z"/>
	<path class="Red" d="M14,11.5c-0.5,0-1,0.2-1.3,0.7c-0.3,0.5-0.5,1.1-0.5,1.8c0,0.8,0.2,1.4,0.5,1.8c0.3,0.4,0.7,0.7,1.2,0.7
		c0.5,0,0.9-0.2,1.3-0.6c0.3-0.4,0.5-1,0.5-1.8c0-0.8-0.1-1.4-0.4-1.9C15,11.7,14.6,11.5,14,11.5z"/>
	<path class="Red" d="M6.3,11.5H5.5v5.1h0.8c0.7,0,1.2-0.2,1.6-0.7c0.4-0.5,0.6-1.1,0.6-1.9c0-0.8-0.2-1.4-0.6-1.8
		C7.5,11.7,6.9,11.5,6.3,11.5z"/>
</g>
</svg>
