<svg width="24" height="24" viewBox="0 0 24 24" fill="none" xmlns="http://www.w3.org/2000/svg">
<path d="M2.75 8.3V18.0125C2.75 19.8036 4.19637 21.25 5.9875 21.25H18.0125C19.8036 21.25 21.25 19.8036 21.25 18.0125V5.9875C21.25 4.19637 19.8036 2.75 18.0125 2.75H8.3L2.75 8.3ZM18.0125 4.6C18.7777 4.6 19.4 5.22227 19.4 5.9875V18.0125C19.4 18.7777 18.7777 19.4 18.0125 19.4H5.9875C5.22227 19.4 4.6 18.7777 4.6 18.0125V9.225H5.9875C7.77864 9.225 9.225 7.77864 9.225 5.9875V4.6H18.0125Z" fill="#49454F"/>
</svg>
