<svg version="1.1" id="Layer_1" xmlns="http://www.w3.org/2000/svg" xmlns:xlink="http://www.w3.org/1999/xlink" x="0px" y="0px"
	 viewBox="0 0 32 32" style="enable-background:new 0 0 32 32;" xml:space="preserve">
<style type="text/css">
	.Red{fill:#D11C1C;}
	.Black{fill:#727272;}
	.st0{opacity:0.2;}
</style>
<path class="Black" d="M8,4h18v6h2V3c0-0.5-0.5-1-1-1H7C6.5,2,6,2.5,6,3v7h2V4z"/>
<path class="Black" d="M26,26H8V16H6v11c0,0.5,0.5,1,1,1h20c0.5,0,1-0.5,1-1V16h-2V26z"/>
<path class="Red" d="M10.3,11.6H9.6V14h0.6c0.9,0,1.3-0.4,1.3-1.2C11.5,12,11.1,11.6,10.3,11.6z"/>
<path class="Red" d="M16.7,11.7h-0.8v4.9h0.8c0.7,0,1.3-0.2,1.6-0.7s0.6-1.1,0.6-1.8c0-0.7-0.2-1.3-0.6-1.7
	C18,11.9,17.4,11.7,16.7,11.7z"/>
<path class="Red" d="M29,8H5C4.4,8,4,8.4,4,9v10c0,0.6,0.4,1,1,1h24c0.6,0,1-0.4,1-1V9C30,8.4,29.6,8,29,8z M12.5,14.6
	c-0.5,0.5-1.2,0.7-2.1,0.7H9.6V18H8v-7.7h2.5c1.8,0,2.7,0.8,2.7,2.5C13.2,13.5,13,14.2,12.5,14.6z M19.6,16.9
	C18.9,17.6,18,18,16.8,18h-2.5v-7.7h2.5c2.5,0,3.8,1.3,3.8,3.8C20.7,15.3,20.3,16.2,19.6,16.9z M26,11.7h-2.5v1.9h2.3V15h-2.3v3
	h-1.6v-7.7H26V11.7z"/>
<g class="st0">
	<path class="Black" d="M10.3,11.6H9.6V14h0.6c0.9,0,1.3-0.4,1.3-1.2C11.5,12,11.1,11.6,10.3,11.6z"/>
	<path class="Black" d="M16.7,11.7h-0.8v4.9h0.8c0.7,0,1.3-0.2,1.6-0.7s0.6-1.1,0.6-1.8c0-0.7-0.2-1.3-0.6-1.7
		C18,11.9,17.4,11.7,16.7,11.7z"/>
	<path class="Black" d="M29,8H5C4.4,8,4,8.4,4,9v10c0,0.6,0.4,1,1,1h24c0.6,0,1-0.4,1-1V9C30,8.4,29.6,8,29,8z M12.5,14.6
		c-0.5,0.5-1.2,0.7-2.1,0.7H9.6V18H8v-7.7h2.5c1.8,0,2.7,0.8,2.7,2.5C13.2,13.5,13,14.2,12.5,14.6z M19.6,16.9
		C18.9,17.6,18,18,16.8,18h-2.5v-7.7h2.5c2.5,0,3.8,1.3,3.8,3.8C20.7,15.3,20.3,16.2,19.6,16.9z M26,11.7h-2.5v1.9h2.3V15h-2.3v3
		h-1.6v-7.7H26V11.7z"/>
</g>
</svg>
