<svg width="24" height="24" viewBox="0 0 24 24" fill="none" xmlns="http://www.w3.org/2000/svg">
<path d="M7.48803 12.0107H6.39306V12.0021C6.39306 8.99197 8.82681 6.45921 11.9306 6.47342C13.4437 6.48019 14.8338 7.08348 15.8244 8.06981L17.6312 6.34949C16.1725 4.89746 14.1568 4 11.9306 4C7.48181 4 3.87554 7.58507 3.86925 12.0096H2.76176C2.083 12.0096 1.8055 12.4574 2.14488 13.0058L4.50802 15.3176C4.97674 15.7802 5.25865 15.7945 5.74178 15.3176L8.10492 13.0058C8.44429 12.4579 8.16616 12.0107 7.48803 12.0107ZM21.855 11.0485L19.4919 8.74149C19.01 8.26592 18.7119 8.29428 18.2587 8.74149L15.8956 11.0485C15.5562 11.5956 15.8331 12.0434 16.5119 12.0434H17.605C17.5875 15.0338 15.1619 17.5444 12.0687 17.5302C10.5562 17.524 9.16682 16.922 8.17497 15.9363L6.3681 17.6542C7.82748 19.1037 9.84313 20 12.0687 20C16.5037 20 20.1001 16.4409 20.1288 12.0441H21.2382C21.9175 12.0434 22.1944 11.595 21.855 11.0485Z" fill="#49454F"/>
</svg>
