<svg version="1.1" id="Layer_1" xmlns="http://www.w3.org/2000/svg" xmlns:xlink="http://www.w3.org/1999/xlink" x="0px" y="0px"
	 viewBox="0 0 32 32" style="enable-background:new 0 0 32 32;" xml:space="preserve">
<style type="text/css">
	.Red{fill:#D11C1C;}
	.Blue{fill:#1177D7;}
	.Black{fill:#727272;}
	.st0{opacity:0.5;}
</style>
<path class="Black" d="M8,4h18v6h2V3c0-0.5-0.5-1-1-1H7C6.5,2,6,2.5,6,3v7h2V4z"/>
<path class="Black" d="M26,26H8V16H6v11c0,0.5,0.5,1,1,1h20c0.5,0,1-0.5,1-1V16h-2V26z"/>
<path class="Blue" d="M10.7,11.6H9.9v2.1h0.8c0.4,0,0.7-0.1,0.9-0.3c0.2-0.2,0.3-0.5,0.3-0.8C11.9,11.9,11.5,11.6,10.7,11.6z"/>
<path class="Blue" d="M29,8H5C4.4,8,4,8.4,4,9v10c0,0.6,0.4,1,1,1h24c0.6,0,1-0.4,1-1V9C30,8.4,29.6,8,29,8z M12.6,18l-1.2-2
	c-0.1-0.2-0.2-0.3-0.3-0.4c-0.1-0.1-0.2-0.2-0.3-0.3s-0.2-0.1-0.3-0.2c-0.1,0-0.2-0.1-0.3-0.1H9.9V18H8.1v-7.7h2.8
	c1.9,0,2.8,0.7,2.8,2.1c0,0.3,0,0.5-0.1,0.7c-0.1,0.2-0.2,0.4-0.3,0.6c-0.2,0.2-0.3,0.3-0.5,0.5c-0.2,0.1-0.5,0.2-0.7,0.3v0
	c0.1,0,0.2,0.1,0.3,0.2c0.1,0.1,0.2,0.2,0.3,0.3s0.2,0.2,0.3,0.3c0.1,0.1,0.2,0.2,0.3,0.4l1.5,2.3H12.6z M20.5,11.7h-2.2V18h-1.7
	v-6.3h-2.2v-1.4h6.1V11.7z M26,11.7h-2.7v1.9h2.5V15h-2.5v3h-1.7v-7.7H26V11.7z"/>
<g class="st0">
	<path class="Red" d="M10.7,11.6H9.9v2.1h0.8c0.4,0,0.7-0.1,0.9-0.3c0.2-0.2,0.3-0.5,0.3-0.8C11.9,11.9,11.5,11.6,10.7,11.6z"/>
	<path class="Red" d="M29,8H5C4.4,8,4,8.4,4,9v10c0,0.6,0.4,1,1,1h24c0.6,0,1-0.4,1-1V9C30,8.4,29.6,8,29,8z M12.6,18l-1.2-2
		c-0.1-0.2-0.2-0.3-0.3-0.4c-0.1-0.1-0.2-0.2-0.3-0.3s-0.2-0.1-0.3-0.2c-0.1,0-0.2-0.1-0.3-0.1H9.9V18H8.1v-7.7h2.8
		c1.9,0,2.8,0.7,2.8,2.1c0,0.3,0,0.5-0.1,0.7c-0.1,0.2-0.2,0.4-0.3,0.6c-0.2,0.2-0.3,0.3-0.5,0.5c-0.2,0.1-0.5,0.2-0.7,0.3v0
		c0.1,0,0.2,0.1,0.3,0.2c0.1,0.1,0.2,0.2,0.3,0.3s0.2,0.2,0.3,0.3c0.1,0.1,0.2,0.2,0.3,0.4l1.5,2.3H12.6z M20.5,11.7h-2.2V18h-1.7
		v-6.3h-2.2v-1.4h6.1V11.7z M26,11.7h-2.7v1.9h2.5V15h-2.5v3h-1.7v-7.7H26V11.7z"/>
</g>
</svg>
