<svg version="1.1" id="Layer_1" xmlns="http://www.w3.org/2000/svg" xmlns:xlink="http://www.w3.org/1999/xlink" x="0px" y="0px"
	 viewBox="0 0 32 32" style="enable-background:new 0 0 32 32;" xml:space="preserve">
<style type="text/css">
	.Blue{fill:#1177D7;}
	.Green{fill:#039C23;}
	.Black{fill:#727272;}
	.st0{opacity:0.3;}
</style>
<path class="Black" d="M8,4h18v6h2V3c0-0.5-0.5-1-1-1H7C6.5,2,6,2.5,6,3v7h2V4z"/>
<path class="Black" d="M26,26H8v-8H6v9c0,0.5,0.5,1,1,1h20c0.5,0,1-0.5,1-1v-9h-2V26z"/>
<path class="Green" d="M31,8H3C2.4,8,2,8.4,2,9v10c0,0.6,0.4,1,1,1h28c0.6,0,1-0.4,1-1V9C32,8.4,31.6,8,31,8z M9.1,18l-1.3-2.5
	c-0.1-0.1-0.1-0.3-0.2-0.5h0c0,0.1-0.1,0.3-0.2,0.5L6.1,18H4l2.5-3.9l-2.2-3.9h2.1l1.1,2.3c0.1,0.2,0.2,0.4,0.2,0.7h0
	c0-0.2,0.1-0.4,0.2-0.7l1.2-2.3h1.9l-2.3,3.8l2.4,3.9H9.1z M16.7,18h-4.6v-7.7h1.7v6.3h2.9V18z M22.4,16.9c-0.2,0.3-0.4,0.5-0.7,0.7
	s-0.6,0.3-1,0.4c-0.4,0.1-0.8,0.1-1.2,0.1c-0.4,0-0.8,0-1.2-0.1c-0.4-0.1-0.7-0.2-1-0.3V16c0.3,0.3,0.6,0.5,1,0.6s0.7,0.2,1.1,0.2
	c0.2,0,0.4,0,0.6-0.1s0.3-0.1,0.4-0.2c0.1-0.1,0.2-0.2,0.2-0.2c0.1-0.1,0.1-0.2,0.1-0.3c0-0.2,0-0.3-0.1-0.4
	c-0.1-0.1-0.2-0.2-0.4-0.3S20,15.1,19.8,15s-0.4-0.2-0.7-0.3c-0.6-0.3-1.1-0.6-1.3-0.9c-0.3-0.4-0.4-0.8-0.4-1.3
	c0-0.4,0.1-0.7,0.2-1c0.2-0.3,0.4-0.5,0.7-0.7c0.3-0.2,0.6-0.3,1-0.4s0.8-0.1,1.2-0.1c0.4,0,0.8,0,1.1,0.1c0.3,0,0.6,0.1,0.9,0.2
	v1.6c-0.1-0.1-0.3-0.2-0.4-0.2s-0.3-0.1-0.5-0.2c-0.2,0-0.3-0.1-0.5-0.1s-0.3,0-0.5,0c-0.2,0-0.4,0-0.5,0.1c-0.2,0-0.3,0.1-0.4,0.2
	c-0.1,0.1-0.2,0.1-0.3,0.2c-0.1,0.1-0.1,0.2-0.1,0.3c0,0.1,0,0.2,0.1,0.3c0.1,0.1,0.2,0.2,0.3,0.3c0.1,0.1,0.3,0.2,0.5,0.3
	s0.4,0.2,0.6,0.3c0.3,0.1,0.6,0.3,0.8,0.4c0.2,0.1,0.5,0.3,0.6,0.5c0.2,0.2,0.3,0.4,0.4,0.6s0.1,0.5,0.1,0.8
	C22.6,16.3,22.5,16.6,22.4,16.9z M28.1,18l-1.3-2.5c-0.1-0.1-0.1-0.3-0.2-0.5h0c0,0.1-0.1,0.3-0.2,0.5L25.1,18H23l2.5-3.9l-2.2-3.9
	h2.1l1.1,2.3c0.1,0.2,0.2,0.4,0.2,0.7h0c0-0.2,0.1-0.4,0.2-0.7l1.2-2.3h1.9l-2.3,3.8l2.4,3.9H28.1z"/>
<g class="st0">
	<path class="Blue" d="M31,8H3C2.4,8,2,8.4,2,9v10c0,0.6,0.4,1,1,1h28c0.6,0,1-0.4,1-1V9C32,8.4,31.6,8,31,8z M9.1,18l-1.3-2.5
		c-0.1-0.1-0.1-0.3-0.2-0.5h0c0,0.1-0.1,0.3-0.2,0.5L6.1,18H4l2.5-3.9l-2.2-3.9h2.1l1.1,2.3c0.1,0.2,0.2,0.4,0.2,0.7h0
		c0-0.2,0.1-0.4,0.2-0.7l1.2-2.3h1.9l-2.3,3.8l2.4,3.9H9.1z M16.7,18h-4.6v-7.7h1.7v6.3h2.9V18z M22.4,16.9
		c-0.2,0.3-0.4,0.5-0.7,0.7s-0.6,0.3-1,0.4c-0.4,0.1-0.8,0.1-1.2,0.1c-0.4,0-0.8,0-1.2-0.1c-0.4-0.1-0.7-0.2-1-0.3V16
		c0.3,0.3,0.6,0.5,1,0.6s0.7,0.2,1.1,0.2c0.2,0,0.4,0,0.6-0.1s0.3-0.1,0.4-0.2c0.1-0.1,0.2-0.2,0.2-0.2c0.1-0.1,0.1-0.2,0.1-0.3
		c0-0.2,0-0.3-0.1-0.4c-0.1-0.1-0.2-0.2-0.4-0.3S20,15.1,19.8,15s-0.4-0.2-0.7-0.3c-0.6-0.3-1.1-0.6-1.3-0.9
		c-0.3-0.4-0.4-0.8-0.4-1.3c0-0.4,0.1-0.7,0.2-1c0.2-0.3,0.4-0.5,0.7-0.7c0.3-0.2,0.6-0.3,1-0.4s0.8-0.1,1.2-0.1
		c0.4,0,0.8,0,1.1,0.1c0.3,0,0.6,0.1,0.9,0.2v1.6c-0.1-0.1-0.3-0.2-0.4-0.2s-0.3-0.1-0.5-0.2c-0.2,0-0.3-0.1-0.5-0.1s-0.3,0-0.5,0
		c-0.2,0-0.4,0-0.5,0.1c-0.2,0-0.3,0.1-0.4,0.2c-0.1,0.1-0.2,0.1-0.3,0.2c-0.1,0.1-0.1,0.2-0.1,0.3c0,0.1,0,0.2,0.1,0.3
		c0.1,0.1,0.2,0.2,0.3,0.3c0.1,0.1,0.3,0.2,0.5,0.3s0.4,0.2,0.6,0.3c0.3,0.1,0.6,0.3,0.8,0.4c0.2,0.1,0.5,0.3,0.6,0.5
		c0.2,0.2,0.3,0.4,0.4,0.6s0.1,0.5,0.1,0.8C22.6,16.3,22.5,16.6,22.4,16.9z M28.1,18l-1.3-2.5c-0.1-0.1-0.1-0.3-0.2-0.5h0
		c0,0.1-0.1,0.3-0.2,0.5L25.1,18H23l2.5-3.9l-2.2-3.9h2.1l1.1,2.3c0.1,0.2,0.2,0.4,0.2,0.7h0c0-0.2,0.1-0.4,0.2-0.7l1.2-2.3h1.9
		l-2.3,3.8l2.4,3.9H28.1z"/>
</g>
</svg>
